<svg width="114" height="75" viewBox="0 0 114 75" fill="none" xmlns="http://www.w3.org/2000/svg">
<path d="M11.0017 12.5564C12.539 12.479 14.5091 12.534 16.0687 12.535L25.3091 12.5384L36.2801 12.5357C38.4409 12.5329 40.7765 12.4858 42.9266 12.5587C42.6176 12.8381 41.9204 13.7838 41.621 14.1692L38.8964 17.6799C34.6823 23.0244 30.5963 28.4383 26.349 33.7681C31.437 35.0135 35.325 37.1275 38.479 41.4887C41.4269 45.5651 42.6557 51.2074 41.8359 56.1689C40.9576 61.6648 37.9017 66.5669 33.367 69.755C24.0936 76.3909 9.90508 73.8998 3.36579 64.5871C2.4552 63.4541 1.36479 61.6205 0.678955 60.3014C1.91172 59.1956 3.20826 58.1112 4.40653 56.9836C5.58591 59.7132 7.27897 62.3753 9.48199 64.3731C12.9554 67.5384 17.5449 69.1703 22.2233 68.9039C26.4298 68.7121 30.3786 66.8099 33.1652 63.6329C35.9606 60.4897 37.4271 56.2232 37.1934 52.1021C36.6707 42.8872 29.1275 37.3 20.3363 37.4532C20.0187 37.4588 18.5129 37.4809 18.33 37.3173C18.5655 36.8048 19.674 35.481 20.063 34.982L23.0781 31.0786L29.1941 23.1739C30.7617 21.1288 32.344 19.0074 33.9703 17.0162L17.963 17.0185C15.67 17.0202 13.1384 16.9705 10.8698 17.0461C10.9401 15.7386 10.8601 14.2895 10.8693 12.9759C10.8713 12.6943 10.8477 12.7056 11.0017 12.5564Z" fill="white"/>
<path d="M45.0738 28.2035C46.2963 28.0059 47.4469 28.8414 47.6459 30.071C47.8449 31.3007 47.0172 32.4604 45.7957 32.6635C44.5703 32.867 43.4135 32.0309 43.2139 30.7975C43.0142 29.5639 43.8477 28.4017 45.0738 28.2035Z" fill="#FE7C03"/>
<path d="M44.6221 34.8413C45.8307 34.6488 46.9632 35.4857 47.1426 36.7039C47.3219 37.922 46.4792 39.0534 45.2671 39.222C44.0716 39.3882 42.9661 38.5544 42.7892 37.353C42.6123 36.1516 43.43 35.031 44.6221 34.8413Z" fill="#FE7C03"/>
<path d="M46.7918 21.9035C47.9786 21.6685 49.1305 22.4445 49.3668 23.6382C49.6031 24.832 48.8347 25.993 47.649 26.2336C46.4594 26.475 45.301 25.6986 45.064 24.5008C44.8268 23.3032 45.6011 22.1393 46.7918 21.9035Z" fill="#FE7C03"/>
<path d="M50.0848 53.7563C51.2741 53.5449 52.4081 54.3448 52.6163 55.542C52.8243 56.7392 52.0275 57.879 50.8376 58.0864C49.6504 58.2934 48.5209 57.4938 48.3133 56.2995C48.1057 55.1052 48.8983 53.9673 50.0848 53.7563Z" fill="#FE7C03"/>
<path d="M49.9129 15.7302C51.0788 15.4983 52.2123 16.2565 52.4511 17.4282C52.6898 18.5999 51.9444 19.7459 50.7818 19.9945C49.6074 20.2455 48.4546 19.4862 48.2135 18.3026C47.9723 17.1192 48.7351 15.9645 49.9129 15.7302Z" fill="#FE7C03"/>
<path d="M45.1927 41.502C46.34 41.2001 47.5142 41.8873 47.8208 43.0401C48.1275 44.1928 47.4515 45.3785 46.3078 45.6937C45.1546 46.0116 43.9646 45.3245 43.6554 44.1622C43.3462 42.9999 44.0359 41.8064 45.1927 41.502Z" fill="#FE7C03"/>
<path d="M47.1269 47.8529C47.8803 47.6902 48.6624 47.9479 49.1743 48.5275C49.6862 49.1071 49.8487 49.919 49.5996 50.6528C49.3506 51.3867 48.7286 51.9289 47.9713 52.0724C46.8208 52.2903 45.7101 51.537 45.479 50.3822C45.2479 49.2273 45.9823 48.1001 47.1269 47.8529Z" fill="#FE7C03"/>
<path d="M54.2171 59.2366C55.388 59.086 56.4587 59.9186 56.6092 61.0967C56.7597 62.2752 55.933 63.3527 54.7624 63.5051C53.5906 63.658 52.5179 62.8248 52.3673 61.6455C52.2166 60.4661 53.045 59.3874 54.2171 59.2366Z" fill="#FE7C03"/>
<path d="M54.2036 10.1618C55.3551 9.93192 56.473 10.6877 56.6968 11.8473C56.9206 13.007 56.1652 14.1289 55.0119 14.3495C53.8651 14.5688 52.7579 13.8138 52.5354 12.6607C52.3128 11.5076 53.0586 10.3904 54.2036 10.1618Z" fill="#FE7C03"/>
<path d="M59.7878 5.5235C60.8947 5.3475 61.9358 6.10268 62.119 7.21513C62.3029 8.32755 61.5607 9.38094 60.457 9.57473C59.3404 9.77068 58.2792 9.01353 58.0934 7.88846C57.9075 6.7634 58.6684 5.70151 59.7878 5.5235Z" fill="#FE7C03"/>
<path d="M58.8692 63.9689C59.9599 63.7512 61.0187 64.4679 61.2298 65.5664C61.4405 66.6654 60.7238 67.7275 59.631 67.9342C58.5455 68.1402 57.499 67.4247 57.2893 66.333C57.0797 65.2419 57.7858 64.1854 58.8692 63.9689Z" fill="#FE7C03"/>
<path d="M66.0335 2.32036C66.7255 2.15843 67.4499 2.38595 67.9274 2.91503C68.4054 3.4441 68.5611 4.19187 68.3349 4.86943C68.1082 5.547 67.5351 6.04824 66.837 6.17954C65.7896 6.37641 64.7777 5.69505 64.5595 4.64559C64.3407 3.59614 64.9952 2.56326 66.0335 2.32036Z" fill="#FE7C03"/>
<path d="M73.1342 0.678731C74.0786 0.570641 74.9373 1.23659 75.0746 2.18305C75.2119 3.12951 74.5775 4.01457 73.6416 4.18232C73.0097 4.29564 72.3662 4.05361 71.9629 3.55076C71.5602 3.04792 71.4609 2.36405 71.7049 1.76629C71.9482 1.16854 72.4961 0.751751 73.1342 0.678731Z" fill="#FE7C03"/>
<path d="M89.4757 36.4107C91.0907 36.4231 93.9058 35.9627 93.4198 38.7886C93.326 39.3321 92.7082 39.7635 92.2577 40.0151C92.631 40.5987 93.4786 42.0379 93.9089 42.4595C93.4884 42.481 92.8485 42.6013 92.555 42.296C92.159 41.571 91.7275 40.8318 91.3187 40.1114C90.9369 40.1389 90.6709 40.1183 90.2927 40.0942C90.346 40.8802 90.2737 41.6669 90.3436 42.5002L89.3918 42.4718C89.4353 41.3968 89.2667 37.093 89.4757 36.4107ZM90.3068 39.2516C90.9406 39.2478 91.6846 39.3118 92.2307 38.9989C92.6267 38.2908 92.6261 38.0313 92.0744 37.4413C91.4039 37.2984 90.97 37.3029 90.2848 37.2916C90.2811 37.945 90.2884 38.5984 90.3068 39.2516Z" fill="white"/>
<path d="M84.5192 36.3476C84.6596 36.3425 85.118 36.3311 85.153 36.3805C85.9387 37.5004 87.1075 41.4724 87.5764 42.5093C86.201 42.4518 86.399 42.3106 86.0589 41.028L85.3313 41.0247C84.7521 41.0234 84.173 41.0149 83.5938 40.9992C83.4565 41.5542 83.318 41.9297 83.0967 42.4501C82.7547 42.4406 82.409 42.4609 82.0676 42.4755C82.3109 41.7633 84.1736 36.6806 84.5192 36.3476ZM83.9223 40.1506L84.7491 40.1453C85.0641 40.1401 85.4141 40.1241 85.7242 40.1595C85.5397 39.7346 84.9654 37.8899 84.8196 37.7215C84.5707 38.4796 84.2306 39.4131 83.9223 40.1506Z" fill="white"/>
<path d="M76.7702 36.3891C77.697 36.4436 79.467 36.3997 80.4042 36.3765L80.4373 37.324C79.5283 37.2736 78.6267 37.3423 77.6988 37.2646C77.7111 37.8365 77.7111 38.4187 77.7166 38.9917C78.4864 38.9768 79.2807 38.9893 80.056 38.9799C80.0548 39.2409 80.1032 39.5229 80.14 39.7835C79.638 39.7788 78.2228 39.7465 77.7766 39.821C77.6798 39.987 77.7117 40.1742 77.7172 40.3763L77.7123 41.594C78.6322 41.5502 79.5099 41.5428 80.4311 41.5367C80.4213 41.8359 80.444 42.184 80.4563 42.4867C79.4033 42.4061 77.8257 42.4593 76.7359 42.4858C76.7372 40.586 76.6783 38.2554 76.7702 36.3891Z" fill="white"/>
<path d="M97.2175 36.3435C97.5754 36.3233 99.8701 36.4239 99.1396 37.5054C98.9336 37.8104 97.9738 37.235 97.5472 37.2186C96.7639 37.1883 96.1474 38.1743 97.0103 38.6228C97.9064 39.0923 99.4681 39.2763 99.5447 40.5701C99.6421 42.2192 98.6437 42.4848 97.3162 42.5574C97.2494 42.5497 97.1819 42.5402 97.1158 42.5292C96.4011 42.4108 94.6494 41.7903 95.9947 41.0166C96.5801 41.4127 97.0054 41.763 97.7562 41.6788C98.0964 41.7231 98.77 41.018 98.6229 40.7018C98.0976 39.5737 95.8526 39.8888 95.6203 38.3758C95.4493 37.262 96.1412 36.5409 97.2175 36.3435Z" fill="white"/>
<path d="M73.9608 36.4124C74.3708 36.4173 74.6528 36.3962 75.0579 36.3608C74.7845 36.9637 74.0625 38.1212 73.6911 38.7643C72.7779 40.1676 72.9526 40.7822 73.0071 42.495L71.9609 42.4636C71.9781 41.7302 72.0504 40.5856 71.9045 39.8966C71.7341 39.0928 70.0517 37.0985 70.0352 36.3863C70.3906 36.4052 70.6254 36.3972 70.9827 36.3775C71.4933 36.9647 72.002 38.2027 72.5192 38.9683C72.9428 38.085 73.4239 37.2311 73.9608 36.4124Z" fill="white"/>
<path d="M52.8951 47.3358C53.6449 47.2119 54.3871 47.5958 54.7235 48.2815C55.0598 48.9671 54.9114 49.7935 54.3577 50.3172C54.1139 50.5478 53.8088 50.7022 53.4794 50.7616C52.5357 50.9317 51.6349 50.2958 51.4727 49.3449C51.3105 48.3939 51.949 47.4921 52.8951 47.3358Z" fill="#FE7C03"/>
<path d="M51.5477 42.3874C53.5678 42.3355 54.3777 45.1471 51.7047 45.8722C49.6831 45.6834 48.9941 42.9273 51.5477 42.3874Z" fill="#FE7C03"/>
<path d="M64.4971 67.7658C65.4379 67.6461 66.2978 68.316 66.4186 69.2627C66.5387 70.2095 65.8749 71.076 64.9347 71.1994C63.9915 71.3227 63.1279 70.6523 63.0065 69.7031C62.8858 68.7539 63.5532 67.8861 64.4971 67.7658Z" fill="#FE7C03"/>
<path d="M50.7886 32.0171C51.6991 31.8519 52.5711 32.4585 52.739 33.3741C52.907 34.2897 52.3078 35.1697 51.3986 35.3425C50.4841 35.5163 49.6035 34.9091 49.4345 33.9881C49.2655 33.0671 49.8727 32.1833 50.7886 32.0171Z" fill="#FE7C03"/>
<path d="M52.1507 26.596C53.075 26.5541 53.8588 27.2731 53.9025 28.2033C53.9462 29.1335 53.2335 29.9237 52.3092 29.9699C51.382 30.0161 50.5936 29.2961 50.5498 28.3629C50.5059 27.4297 51.2232 26.638 52.1507 26.596Z" fill="#FE7C03"/>
<path d="M50.5798 37.3321C51.2992 37.1608 52.0452 37.4836 52.4166 38.1269C52.7879 38.7702 52.6969 39.5823 52.1926 40.1262C51.968 40.3685 51.6775 40.5389 51.3573 40.6162C50.4555 40.8338 49.5493 40.2738 49.3344 39.3659C49.1194 38.4581 49.6773 37.547 50.5798 37.3321Z" fill="#FE7C03"/>
<path d="M53.9691 21.3078C54.6917 21.1361 55.4397 21.4681 55.8008 22.1209C56.162 22.7737 56.0484 23.5884 55.5227 24.116C55.2835 24.3562 54.977 24.5171 54.6445 24.5773C53.7594 24.7376 52.9085 24.1593 52.7255 23.2733C52.5425 22.3873 53.0939 21.5158 53.9691 21.3078Z" fill="#FE7C03"/>
<path d="M57.3416 16.3329C57.9555 16.2317 58.5731 16.491 58.9335 17.0012C59.2646 17.4697 59.3278 18.0785 59.1 18.6057C58.8723 19.133 58.3869 19.5018 57.8206 19.5777C57.1135 19.6727 56.4273 19.294 56.1267 18.643C55.8261 17.992 55.9811 17.2199 56.5092 16.7374C56.7421 16.5245 57.0312 16.3841 57.3416 16.3329Z" fill="#FE7C03"/>
<path d="M55.2342 51.8217C56.7424 51.7427 57.4576 53.0861 56.8183 54.3994C56.4035 54.7155 56.1623 54.8195 55.6936 55.0063C54.4163 55.0731 53.5446 54.0616 53.9469 52.7745C53.9881 52.6429 54.0749 52.4753 54.1328 52.3493C54.5537 52.0327 54.7241 51.9466 55.2342 51.8217Z" fill="#FE7C03"/>
<path d="M61.2463 12.2689C61.8039 12.0691 62.4254 12.1943 62.8643 12.5947C63.3025 12.9951 63.4864 13.6057 63.3429 14.1837C63.1989 14.7616 62.7509 15.2131 62.1772 15.3586C61.3455 15.5693 60.4966 15.0858 60.2479 14.2603C59.9992 13.4348 60.4386 12.5582 61.2463 12.2689Z" fill="#FE7C03"/>
<path d="M79.9158 0.562081C81.5799 0.351544 82.6016 2.96188 80.2719 3.85024C78.592 3.98441 77.509 1.21767 79.9158 0.562081Z" fill="#FE7C03"/>
<path d="M66.2977 9.08844C67.1447 8.90958 67.974 9.4595 68.145 10.3131C68.3154 11.1667 67.7626 11.9967 66.9125 12.1615C66.0728 12.3244 65.2595 11.7755 65.0909 10.9318C64.9224 10.0881 65.4611 9.26527 66.2977 9.08844Z" fill="#FE7C03"/>
<path d="M61.1396 59.3674C61.6783 59.2401 62.2427 59.418 62.6135 59.8316C62.9837 60.2452 63.1008 60.8289 62.9194 61.3548C62.7373 61.8805 62.2856 62.2654 61.7402 62.3585C60.9325 62.4967 60.1619 61.9638 59.9996 61.1559C59.8373 60.3478 60.3419 59.5559 61.1396 59.3674Z" fill="#FE7C03"/>
<path d="M92.3411 46.0315C92.9994 46.1274 93.4094 46.5419 93.4879 47.197C93.6319 48.3962 93.6 49.3347 92.2952 49.5844C91.5897 49.4822 91.214 49.1539 91.1202 48.4388C90.9621 47.2315 91.0357 46.2723 92.3411 46.0315ZM92.5606 49.0665C93.1606 48.5208 93.2826 46.4606 92.1088 46.5047C92.0721 46.5063 92.0359 46.5081 91.9991 46.5104C91.491 47.0464 91.3813 49.1351 92.4306 49.077C92.4741 49.0745 92.5177 49.071 92.5606 49.0665Z" fill="#FE7C03"/>
<path d="M57.9824 55.7708C58.7978 55.6812 59.5339 56.2665 59.6359 57.0856C59.7379 57.9046 59.168 58.6546 58.3558 58.7702C57.8188 58.8466 57.2826 58.6258 56.9528 58.1925C56.6231 57.7592 56.5511 57.1807 56.7644 56.6789C56.9777 56.1771 57.4433 55.83 57.9824 55.7708Z" fill="#FE7C03"/>
<path d="M65.3313 62.5942C65.7567 62.5529 66.1783 62.7009 66.486 62.9988C66.7937 63.2967 66.9561 63.7155 66.931 64.1448C66.8881 64.8695 66.3254 65.4536 65.6077 65.5208C64.8054 65.5955 64.0951 65.0027 64.0191 64.196C63.9431 63.3892 64.5302 62.6725 65.3313 62.5942Z" fill="#FE7C03"/>
<path d="M69.7367 70.4284C70.2362 70.231 70.8031 70.3266 71.2113 70.6769C71.6201 71.0267 71.804 71.5744 71.69 72.1023C71.5766 72.6297 71.1837 73.0515 70.6683 73.2002C70.2601 73.318 69.8213 73.2501 69.4664 73.0151C69.1121 72.7795 68.8774 72.4008 68.8241 71.9765C68.7395 71.311 69.1158 70.6726 69.7367 70.4284Z" fill="#FE7C03"/>
<path d="M71.3823 7.17672C71.8383 7.0747 72.3152 7.19948 72.6645 7.51212C73.0133 7.8247 73.1916 8.28704 73.1438 8.7548C73.1101 9.08361 72.9673 9.39125 72.7375 9.62766C72.5352 9.83595 72.2759 9.97873 71.9928 10.0378C71.4632 10.1481 70.9165 9.95381 70.5739 9.53342C70.2534 9.14047 70.1584 8.60826 70.3232 8.12766C70.4881 7.64707 70.8889 7.28706 71.3823 7.17672Z" fill="#FE7C03"/>
<path d="M59.668 21.3873C60.409 21.157 61.1959 21.5718 61.4294 22.3161C61.6629 23.0603 61.2559 23.8547 60.5177 24.0945C59.7731 24.3365 58.9749 23.9222 58.7392 23.1712C58.5036 22.4203 58.9203 21.6198 59.668 21.3873Z" fill="#FE7C03"/>
<path d="M59.9347 51.4591C60.4249 51.3319 60.9452 51.4799 61.2964 51.8465C61.6482 52.2132 61.7763 52.7418 61.6323 53.2302C61.4883 53.7185 61.0942 54.0911 60.6008 54.2054C60.1836 54.3021 59.7454 54.2021 59.4104 53.9337C59.0755 53.6652 58.8806 53.2577 58.8809 52.8268C58.8814 52.1826 59.3147 51.6201 59.9347 51.4591Z" fill="#FE7C03"/>
<path d="M57.908 47.5526C58.6764 47.4544 59.3779 48.0031 59.4727 48.7768C59.5676 49.5504 59.0197 50.2544 58.2505 50.3469C57.4854 50.439 56.7904 49.8911 56.696 49.1215C56.6016 48.3519 57.1436 47.6504 57.908 47.5526Z" fill="#FE7C03"/>
<path d="M62.8017 17.7211C63.2357 17.6275 63.688 17.7477 64.0202 18.0448C64.41 18.3939 64.573 18.9331 64.4431 19.4417C64.3131 19.9503 63.9117 20.3432 63.4024 20.4596C62.6485 20.632 61.8995 20.1542 61.7328 19.3946C61.5661 18.6351 62.0454 17.8842 62.8017 17.7211Z" fill="#FE7C03"/>
<path d="M56.3142 29.9304C56.9604 29.988 57.2396 30.2632 57.7166 30.6663C57.8921 31.8128 57.8368 32.3729 56.6043 32.7693C55.8861 32.7318 55.2305 32.3128 55.0692 31.5757C54.991 31.2253 55.0583 30.8579 55.2555 30.5585C55.5225 30.1568 55.866 30.0164 56.3142 29.9304Z" fill="#FE7C03"/>
<path d="M55.7584 39.1084C56.4105 39.2145 57.0158 39.5312 57.1651 40.2322C57.2395 40.5857 57.1676 40.9544 56.9661 41.2534C56.6868 41.6744 56.3163 41.8274 55.8459 41.917C53.9047 41.5411 53.8778 39.5733 55.7584 39.1084Z" fill="#FE7C03"/>
<path d="M56.5157 43.4524C56.9827 43.4098 57.4389 43.611 57.7243 43.9853C58.1359 44.525 58.0941 45.2863 57.6259 45.777C57.4167 45.9962 57.1413 46.1396 56.8427 46.1848C56.4318 46.247 56.0151 46.1179 55.71 45.834C55.3133 45.4646 55.1698 44.8947 55.344 44.3798C55.5183 43.8649 55.9774 43.5014 56.5157 43.4524Z" fill="#FE7C03"/>
<path d="M57.5015 25.5044C58.0873 25.3359 58.7132 25.5786 59.0351 26.0991C59.357 26.6196 59.2971 27.2918 58.8882 27.7463C58.7186 27.9349 58.5002 28.0724 58.2574 28.1434C57.8357 28.2668 57.3808 28.1783 57.035 27.9058C56.6312 27.5874 56.4389 27.0679 56.5374 26.5613C56.6358 26.0546 57.0083 25.6463 57.5015 25.5044Z" fill="#FE7C03"/>
<path d="M86.0001 1.86743C86.3948 1.79615 86.8012 1.9042 87.1095 2.16263C87.4184 2.42106 87.5973 2.80346 87.5992 3.20739C87.6029 3.86197 87.145 4.42717 86.507 4.55578C86.0277 4.65249 85.5331 4.48257 85.2125 4.11082C84.892 3.73905 84.7952 3.22274 84.9576 2.75866C85.1206 2.29459 85.5184 1.95427 86.0001 1.86743Z" fill="#FE7C03"/>
<path d="M55.41 34.6337C55.891 34.5277 56.3913 34.6924 56.717 35.0641C57.0427 35.4358 57.1425 35.956 56.9778 36.423C56.813 36.89 56.4096 37.2304 55.9239 37.3122C55.1984 37.4345 54.5083 36.9521 54.3688 36.2252C54.2293 35.4983 54.6913 34.7921 55.41 34.6337Z" fill="#FE7C03"/>
<path d="M62.5038 55.0411C63.2215 54.863 63.9472 55.302 64.1274 56.0233C64.3082 56.7446 63.8755 57.4771 63.1596 57.6623C62.4388 57.8488 61.7046 57.4097 61.5225 56.6834C61.3411 55.9569 61.7812 55.2204 62.5038 55.0411Z" fill="#FE7C03"/>
<path d="M76.8341 6.35764C77.3091 6.27598 77.7908 6.45762 78.0955 6.83318C78.4007 7.20867 78.481 7.7201 78.3069 8.1722C78.1328 8.62423 77.7302 8.94711 77.2533 9.01749C76.5283 9.12456 75.8528 8.62466 75.7376 7.89619C75.623 7.16771 76.1115 6.4818 76.8341 6.35764Z" fill="#FE7C03"/>
<path d="M66.3007 14.8762C68.0751 14.6773 68.8841 16.6292 67.0895 17.4237C66.4674 17.5592 66.2363 17.3621 65.7209 17.058C65.1399 16.0799 65.2802 15.4018 66.3007 14.8762Z" fill="#FE7C03"/>
<path d="M65.6242 58.1423C66.1991 57.9691 66.8176 58.2121 67.1234 58.7314C67.4292 59.2508 67.3446 59.9132 66.9181 60.3377C66.7587 60.496 66.562 60.6105 66.3462 60.6703C65.9816 60.7713 65.5918 60.7085 65.2767 60.4981C64.8538 60.216 64.6319 59.7135 64.7067 59.2089C64.7809 58.7043 65.1388 58.2886 65.6242 58.1423Z" fill="#FE7C03"/>
<path d="M69.6742 65.3826C69.9003 65.3604 70.1283 65.3801 70.3471 65.4412C71.0697 65.6373 71.3866 66.2202 71.166 66.9677C70.9919 67.5574 70.6217 67.7344 70.113 68.0002C69.4842 68.0514 68.8694 67.6419 68.6849 67.0294C68.5832 66.6926 68.6236 66.3287 68.7965 66.0222C69.0079 65.6528 69.2831 65.4912 69.6742 65.3826Z" fill="#FE7C03"/>
<path d="M70.533 12.8195C71.0381 12.7209 71.5523 12.9331 71.8434 13.3598C72.0855 13.7155 72.1364 14.1691 71.9795 14.5703C71.822 14.9715 71.4769 15.2678 71.0583 15.3612C70.6047 15.4624 70.1316 15.31 69.8208 14.9624C69.5095 14.6147 69.4084 14.1255 69.5561 13.6819C69.7038 13.2383 70.077 12.9088 70.533 12.8195Z" fill="#FE7C03"/>
<path d="M73.8672 46.0787C76.5719 45.9059 74.7467 49.2856 73.6404 49.6765C73.3278 49.2967 74.2123 48.5905 74.1896 48.2894C73.7415 48.2155 73.6361 48.1988 73.2384 47.9606C72.7407 47.0856 72.8038 46.3735 73.8672 46.0787ZM74.4053 47.7951C75.1598 47.0126 74.7725 46.4322 73.7336 46.52C73.2377 47.2206 73.4706 47.8716 74.4053 47.7951Z" fill="#FE7C03"/>
<path d="M69.3109 60.7961C69.9673 60.5708 70.6819 60.9165 70.9167 61.5731C71.019 61.8603 71.0166 62.1754 70.9087 62.4604C70.761 62.8514 70.4325 63.145 70.0292 63.2462C69.3685 63.4121 68.6955 63.0247 68.5031 62.3679C68.31 61.7104 68.6667 61.0174 69.3109 60.7961Z" fill="#FE7C03"/>
<path d="M80.4381 45.9077C80.5816 45.9595 80.5736 45.9564 80.6747 46.0718C80.6422 46.3794 80.12 46.8378 80.0214 47.2907C80.4627 47.3845 81.0339 47.4753 81.2171 47.9473C81.5034 48.685 81.2214 49.2611 80.5098 49.5643C77.7677 49.7164 79.3349 46.905 80.4381 45.9077ZM80.421 49.0553C81.2331 48.6194 80.8359 47.8259 79.881 47.8566C79.2056 48.4808 79.5709 49.1912 80.421 49.0553Z" fill="#FE7C03"/>
<path d="M98.6322 45.9922C98.7437 45.9806 98.7823 45.9981 98.8884 46.0263L98.9166 46.1274C98.7167 46.5548 98.3465 47.0101 98.0162 47.3437C98.7848 47.3311 99.5595 47.4962 99.5632 48.5412C99.5644 48.909 99.2494 49.264 98.9644 49.4846C97.9335 49.8239 97.0515 49.3143 97.2501 48.1633C97.3726 47.455 98.0505 46.413 98.6322 45.9922ZM98.7204 49.0172C98.9227 48.9065 99.0508 48.6943 99.0538 48.4623C99.0575 48.2302 98.9362 48.0144 98.7364 47.8978C98.5372 47.7812 98.2908 47.7819 98.0922 47.8997C97.7919 48.0775 97.6889 48.4643 97.8605 48.7691C98.0321 49.0739 98.4146 49.1843 98.7204 49.0172Z" fill="#FE7C03"/>
<path d="M76.8961 46.0225C77.4226 46.005 77.5562 46.1023 78.0195 46.3767C78.2071 46.8369 78.2586 47.0983 78.3125 47.5895C78.0857 48.0768 77.4691 49.0643 77.0885 49.4541C76.92 49.6267 76.7649 49.6261 76.5388 49.6162C76.5498 49.1897 77.1314 48.5983 77.4287 48.234C76.456 48.3222 75.6929 47.8051 76.0503 46.6687C76.1704 46.2871 76.5412 46.1521 76.8961 46.0225Z" fill="#FE7C03"/>
<path d="M75.3945 71.7922C76.0105 71.7219 76.5995 71.9248 76.8986 72.5052C77.0408 72.7765 77.0678 73.0948 76.9721 73.3865C76.8336 73.8158 76.5186 74.0582 76.1398 74.2599C74.7798 74.646 73.8678 72.7432 75.3945 71.7922Z" fill="#FE7C03"/>
<path d="M82.0958 6.64405C82.7547 6.64596 83.2935 7.17503 83.3106 7.83831C83.3278 8.50153 82.8185 9.05848 82.1602 9.09542C81.7165 9.12028 81.2948 8.90058 81.0594 8.52201C80.8235 8.14337 80.8112 7.66574 81.0263 7.27513C81.2421 6.88453 81.6515 6.64281 82.0958 6.64405Z" fill="#FE7C03"/>
<path d="M74.9389 11.6237C75.5874 11.5654 76.1617 12.0445 76.2248 12.6969C76.288 13.3493 75.8166 13.9307 75.1688 13.9995C74.8642 14.0318 74.5583 13.9443 74.3169 13.7551C73.932 13.4542 73.7689 12.9468 73.9062 12.4761C74.0435 12.0055 74.4535 11.6674 74.9389 11.6237Z" fill="#FE7C03"/>
<path d="M73.4405 62.9193C73.7163 62.894 73.9946 62.9335 74.2526 63.034C75.0855 63.3609 74.9035 64.1775 74.6124 64.8017L73.8971 65.2384C72.7473 65.3969 71.7765 63.5139 73.4405 62.9193Z" fill="#FE7C03"/>
<path d="M91.5468 4.20171C93.1802 4.05199 93.6086 5.79406 92.0745 6.37171C91.7092 6.4633 91.5131 6.36517 91.165 6.24281C90.4221 5.49604 90.4748 4.55327 91.5468 4.20171Z" fill="#FE7C03"/>
<path d="M74.48 67.2897C75.0181 67.2231 75.5501 67.5049 75.7328 68.0341C75.8296 68.3178 75.8106 68.6281 75.6813 68.897C75.5195 69.2282 75.2339 69.3799 74.9041 69.4879C74.0589 69.5458 73.8591 69.3614 73.5061 68.6096C73.5325 68.1236 73.5772 67.9835 73.8303 67.5672C74.024 67.4735 74.2777 67.3748 74.48 67.2897Z" fill="#FE7C03"/>
<path d="M86.4335 7.71055C87.6415 7.62284 88.0123 8.51618 87.5925 9.56575C87.3939 9.69613 87.085 9.85354 86.8686 9.97152C86.1626 10.0885 85.7237 9.38608 85.554 8.80304C85.7807 8.18707 85.8653 8.01579 86.4335 7.71055Z" fill="#FE7C03"/>
<path d="M61.0929 29.2234C61.448 29.1502 61.8163 29.2603 62.0743 29.5168C62.3544 29.7957 62.4629 30.2056 62.3569 30.5877C62.2509 30.9698 61.9481 31.2642 61.5644 31.3569C61.183 31.4492 60.7816 31.3272 60.5147 31.0377C60.2477 30.7483 60.1567 30.3364 60.2765 29.9604C60.3963 29.5843 60.7084 29.3026 61.0929 29.2234Z" fill="#FE7C03"/>
<path d="M62.7104 25.7054C63.1106 25.6036 63.5342 25.7395 63.802 26.056C64.1642 26.4839 64.1446 27.1188 63.7566 27.5232C63.6114 27.6742 63.4263 27.78 63.2234 27.8279C62.8624 27.9128 62.4836 27.8068 62.2183 27.5469C61.9369 27.2708 61.8254 26.863 61.9277 26.481C62.0295 26.0989 62.3292 25.8022 62.7104 25.7054Z" fill="#FE7C03"/>
<path d="M88.833 46.019C88.9249 46.0124 89.0163 46.0088 89.1082 46.0081C89.3564 46.0061 89.905 46.1058 90.0606 46.291C90.8501 47.231 89.3227 48.5797 88.7962 49.0622C89.1217 49.0676 90.4241 49.0104 90.5136 49.4008C90.2476 49.6069 89.5409 49.5713 89.1928 49.5742C88.8238 49.5936 88.4064 49.6735 88.1318 49.4373C87.9467 48.8253 89.6046 47.8878 89.7045 47.2406C89.9319 45.7612 88.6062 46.9835 88.179 46.857L88.1625 46.7225C88.3231 46.2689 88.4027 46.2449 88.833 46.019Z" fill="#FE7C03"/>
<path d="M95.0208 46.0164C95.1422 46.0082 95.2635 46.0062 95.3855 46.0104C95.9714 46.0355 96.4084 46.3365 96.3545 46.9704C96.2785 47.8692 95.521 48.5164 94.8976 49.0709C95.2433 49.0598 96.4256 48.9871 96.5243 49.3863C96.2123 49.6497 95.6147 49.5863 95.1992 49.5858C94.8743 49.6004 94.5446 49.662 94.2933 49.4632C94.02 48.8049 95.7318 47.9395 95.8286 47.2214C96.0278 45.7535 94.7683 46.9945 94.2253 46.838L94.2112 46.7133C94.3963 46.2191 94.5091 46.2518 95.0208 46.0164Z" fill="#FE7C03"/>
<path d="M67.7387 19.7376C68.264 19.7273 68.7525 19.9551 68.9425 20.476C69.0399 20.7366 69.0234 21.0265 68.8971 21.2741C68.7249 21.6138 68.4221 21.7761 68.0771 21.8829C66.6331 21.9445 66.2714 20.4654 67.7387 19.7376Z" fill="#FE7C03"/>
<path d="M60.6958 43.911C60.924 43.906 61.1963 43.9201 61.4283 43.9263C62.1809 44.5029 62.2778 44.9226 61.8199 45.7541L61.3351 46.0443C60.8606 46.1028 60.7536 46.0354 60.3371 45.8067C59.7717 44.9179 59.7831 44.5056 60.6958 43.911Z" fill="#FE7C03"/>
<path d="M78.9885 11.3899C79.4433 11.2532 79.933 11.436 80.1892 11.838C80.4448 12.2402 80.4055 12.7643 80.0917 13.1227C79.9563 13.2774 79.7798 13.3895 79.5824 13.4455C79.0204 13.6052 78.4351 13.2786 78.272 12.7141C78.109 12.1495 78.4289 11.5583 78.9885 11.3899Z" fill="#FE7C03"/>
<path d="M59.8245 40.3121C60.2546 40.1674 60.7284 40.3145 61.0031 40.6776C61.3001 41.0708 61.2902 41.6181 60.9784 41.9998C60.8465 42.1614 60.6702 42.2803 60.4716 42.3418C59.9171 42.5135 59.3287 42.2045 59.1515 41.6487C58.9743 41.0929 59.2743 40.497 59.8245 40.3121Z" fill="#FE7C03"/>
<path d="M59.9978 32.916C60.4001 32.8196 60.8212 32.9677 61.0764 33.2951C61.2984 33.5803 61.3615 33.9596 61.2433 34.3019C61.1252 34.6443 60.8423 34.9027 60.4924 34.988C59.9233 35.1267 59.3504 34.7743 59.2136 34.2013C59.0769 33.6284 59.4282 33.0525 59.9978 32.916Z" fill="#FE7C03"/>
<path d="M80.9503 72.1079C81.3377 72.1116 81.6074 72.2726 81.9371 72.4539C82.5623 73.3754 82.2154 73.8269 81.3095 74.2241C80.1652 74.3573 79.4481 72.7999 80.9503 72.1079Z" fill="#FE7C03"/>
<path d="M59.5813 36.5959C59.9521 36.4797 60.3564 36.5789 60.6324 36.8539C60.9084 37.1288 61.011 37.5346 60.8992 37.9089C60.7874 38.2831 60.4794 38.5648 60.0985 38.641C59.5509 38.7506 59.0139 38.4098 58.8762 37.8653C58.7384 37.3208 59.0483 36.7631 59.5813 36.5959Z" fill="#FE7C03"/>
<path d="M64.2997 50.5825C65.6395 50.6053 66.1402 52.0309 64.7085 52.7964C63.9154 52.7107 63.7009 52.3397 63.3901 51.6398C63.6525 51.0554 63.7536 50.8968 64.2997 50.5825Z" fill="#FE7C03"/>
<path d="M62.258 47.3935C62.6773 47.2847 63.1204 47.4471 63.3723 47.8019C63.6242 48.1568 63.6334 48.6311 63.395 48.9953C63.2559 49.208 63.0444 49.3628 62.8011 49.4312C62.2391 49.5888 61.658 49.255 61.5066 48.6883C61.3559 48.1216 61.6936 47.5398 62.258 47.3935Z" fill="#FE7C03"/>
<path d="M70.8554 17.7682C71.2746 17.6639 71.7147 17.8293 71.9635 18.1847C72.2118 18.5401 72.2185 19.0127 71.9795 19.3748C71.8373 19.5903 71.6209 19.7457 71.3721 19.8113C70.81 19.9596 70.2351 19.6187 70.0917 19.0517C69.9483 18.4847 70.2909 17.9085 70.8554 17.7682Z" fill="#FE7C03"/>
<path d="M64.7888 22.5786C65.4759 22.5004 66.3481 22.7815 66.2445 23.6817C66.1997 24.0699 65.8473 24.3018 65.5519 24.5226C65.0567 24.6799 64.8961 24.5724 64.4585 24.3324C63.9473 23.5826 63.9859 23.0861 64.7888 22.5786Z" fill="#FE7C03"/>
<path d="M66.9946 53.5454C67.3298 53.6211 67.4267 53.6913 67.7264 53.8701C68.1278 54.5561 68.1658 54.7665 67.7025 55.4424C67.4941 55.5481 67.2704 55.6368 67.0546 55.7271C66.8953 55.6729 66.5729 55.5085 66.4068 55.4292C65.8313 54.5845 65.911 53.8403 66.9946 53.5454Z" fill="#FE7C03"/>
<path d="M79.0431 68.2611C79.4635 68.1476 79.9091 68.324 80.1396 68.6966C80.37 69.0685 80.3314 69.5483 80.0452 69.8783C79.9085 70.0356 79.7258 70.146 79.5236 70.1935C79.1877 70.2718 78.8359 70.1694 78.5944 69.9221C78.3468 69.6698 78.2518 69.3041 78.3444 68.9618C78.4369 68.6201 78.7029 68.353 79.0431 68.2611Z" fill="#FE7C03"/>
<path d="M74.4372 16.4682C75.4417 16.4175 75.8683 17.1788 75.3743 18.0895C75.2002 18.1879 75.02 18.3043 74.849 18.4103C74.6266 18.4411 74.5113 18.4488 74.2974 18.372C74.0541 18.2872 73.8568 18.1048 73.7526 17.8682C73.4584 17.1981 73.8286 16.7262 74.4372 16.4682Z" fill="#FE7C03"/>
<path d="M77.4839 64.495C77.7726 64.3945 78.0919 64.4383 78.3438 64.6122C78.5963 64.7868 78.7508 65.0711 78.7618 65.3783C78.7698 65.6145 78.692 65.8458 78.543 66.0283C78.4149 66.185 78.2415 66.2973 78.0466 66.3491C77.775 66.4225 77.4858 66.3725 77.2541 66.2128C76.9531 66.0055 76.7944 65.6459 76.8428 65.2827C76.8919 64.9194 77.1395 64.6147 77.4839 64.495Z" fill="#FE7C03"/>
<path d="M69.7821 56.1941C70.2577 56.2129 70.422 56.3706 70.8063 56.6389L70.9975 57.2007C70.9037 57.4075 70.7775 57.6431 70.6739 57.8488L70.1499 58.1508C68.9204 58.14 68.4074 56.7647 69.7821 56.1941Z" fill="#FE7C03"/>
<path d="M83.2377 11.6584C83.9653 11.7747 84.4464 12.1442 84.2 12.9816C84.0756 13.405 83.8035 13.4916 83.4302 13.6622C82.2798 13.5933 81.9396 12.1469 83.2377 11.6584Z" fill="#FE7C03"/>
<path d="M77.9985 15.8016C78.3301 15.7419 78.6678 15.866 78.883 16.1267C79.0981 16.3874 79.1575 16.7443 79.038 17.0612C78.9191 17.3782 78.6396 17.6061 78.3068 17.658C77.8006 17.737 77.3256 17.3916 77.241 16.8832C77.1564 16.3748 77.4941 15.8926 77.9985 15.8016Z" fill="#FE7C03"/>
<path d="M90.9879 9.50084C92.1971 9.48733 92.5906 10.8054 91.3231 11.3607C90.2303 11.3793 89.6156 10.1027 90.9879 9.50084Z" fill="#FE7C03"/>
<path d="M85.7017 71.5609C86.1859 71.4036 86.7056 71.6713 86.8619 72.1592C87.0182 72.6464 86.7516 73.1695 86.2668 73.3261C85.7826 73.4828 85.264 73.2151 85.1078 72.7279C84.9515 72.2406 85.2175 71.7182 85.7017 71.5609Z" fill="#FE7C03"/>
<path d="M96.7444 7.35718C97.1649 7.42471 97.5277 7.51705 97.6895 7.97519C97.76 8.16953 97.749 8.38448 97.6583 8.57031C97.5142 8.87297 97.2207 9.04054 96.9203 9.14589C96.4368 9.07515 95.9759 8.96875 95.8355 8.41649C95.7865 8.22264 95.8202 8.01688 95.928 7.84887C96.134 7.5218 96.3969 7.44211 96.7444 7.35718Z" fill="#FE7C03"/>
<path d="M72.947 58.4271C73.4061 58.3246 73.8615 58.6144 73.9663 59.0759C74.0711 59.5374 73.7861 59.9974 73.3282 60.1058C72.8661 60.2151 72.404 59.9251 72.2979 59.4594C72.1925 58.9938 72.4837 58.5305 72.947 58.4271Z" fill="#FE7C03"/>
<path d="M86.8067 12.5845C87.9332 12.5628 88.3843 13.926 87.2253 14.2397C85.9995 14.2455 85.796 13.1633 86.8067 12.5845Z" fill="#FE7C03"/>
<path d="M83.4505 68.3228C83.901 68.2648 84.3147 68.5806 84.3797 69.0333C84.4453 69.4854 84.1382 69.9073 83.6902 69.9807C83.3929 70.0294 83.0932 69.9134 82.905 69.6766C82.7175 69.4398 82.6709 69.1197 82.7843 68.839C82.8971 68.5584 83.152 68.361 83.4505 68.3228Z" fill="#FE7C03"/>
<path d="M81.3667 15.8025C81.7951 15.6303 82.2805 15.8426 82.4484 16.2752C82.6158 16.7078 82.4006 17.1949 81.9692 17.3597C81.5432 17.5225 81.0664 17.3092 80.9009 16.8817C80.7354 16.4544 80.9432 15.9727 81.3667 15.8025Z" fill="#FE7C03"/>
<path d="M71.3617 45.9507C71.4364 45.9739 71.6234 46.0476 71.6154 46.1418C71.567 46.7053 71.7368 49.1816 71.5517 49.5309C71.3598 49.605 71.4419 49.5986 71.2409 49.5557C71.1024 49.3853 71.1294 49.1284 71.1202 48.8899C71.152 48.4945 71.1036 47.0967 71.0246 46.7519C70.7794 46.6794 70.579 47.0243 70.2554 46.8255C70.3191 46.515 71.0938 46.1111 71.3617 45.9507Z" fill="#FE7C03"/>
<path d="M81.4904 65.2149C81.9213 65.1206 82.3473 65.3938 82.4441 65.8262C82.5403 66.2591 82.2719 66.6896 81.8428 66.7896C81.4089 66.8913 80.9762 66.6175 80.8788 66.1808C80.7807 65.7435 81.0553 65.3099 81.4904 65.2149Z" fill="#FE7C03"/>
<path d="M94.8413 11.7129C95.4076 11.6927 95.95 12.2534 95.6987 12.8242C95.5474 13.1689 95.4217 13.1753 95.1018 13.326C94.0163 13.3151 93.7834 12.2978 94.8413 11.7129Z" fill="#FE7C03"/>
<path d="M76.3027 60.1992C77.4225 60.0587 77.8289 61.1661 76.8586 61.6488C75.9319 61.8681 75.281 60.8264 76.3027 60.1992Z" fill="#FE7C03"/>
<path d="M84.9485 16.2716C85.4988 16.2642 86.0817 16.6283 85.8856 17.2642C85.7796 17.6088 85.516 17.6975 85.2157 17.8452L85.1286 17.8679C84.2326 17.5853 84.1357 16.7635 84.9485 16.2716Z" fill="#FE7C03"/>
<path d="M90.0025 70.1843C91.0677 70.357 91.1033 71.21 90.1839 71.7756C90.1085 71.7768 90.0331 71.7713 89.959 71.7577C89.7481 71.722 89.563 71.5961 89.4509 71.4123C89.1138 70.8696 89.5232 70.415 90.0025 70.1843Z" fill="#FE7C03"/>
<path d="M90.2899 13.9961C91.2393 13.898 91.5568 14.877 90.6619 15.4745C89.7898 15.5367 89.2633 14.4866 90.2899 13.9961Z" fill="#FE7C03"/>
<path d="M100.824 10.8464C101.819 10.8461 102.188 12.0347 101.139 12.2552L100.528 12.1898C100.095 11.5047 100.15 11.3221 100.824 10.8464Z" fill="#FE7C03"/>
<path d="M88.3702 17.2436C88.7545 17.1452 89.1455 17.3804 89.2418 17.7678C89.3374 18.1553 89.1026 18.5477 88.7171 18.6427C88.3341 18.7373 87.9467 18.5022 87.8511 18.117C87.7555 17.7318 87.9878 17.3413 88.3702 17.2436Z" fill="#FE7C03"/>
<path d="M79.979 61.4812C80.7794 61.4345 81.4359 62.2506 80.4062 62.7619C79.5316 62.8859 79.1834 62.0033 79.979 61.4812Z" fill="#FE7C03"/>
<path d="M93.4194 68.4417C93.7565 68.2919 94.1506 68.4467 94.2977 68.7865C94.4454 69.127 94.2891 69.5229 93.9508 69.6691C93.6143 69.8141 93.2245 69.6586 93.0786 69.3213C92.9321 68.9839 93.0847 68.591 93.4194 68.4417Z" fill="#FE7C03"/>
<path d="M87.3167 67.7183C88.1913 67.9798 88.4291 68.702 87.4172 69.0209C86.4378 68.8895 86.5598 68.1852 87.3167 67.7183Z" fill="#FE7C03"/>
<path d="M97.9186 14.334C98.1227 14.234 98.3654 14.2562 98.5487 14.3917C98.7313 14.5272 98.8245 14.7536 98.7902 14.9796C98.7565 15.2056 98.6002 15.3939 98.3857 15.4684C98.0798 15.5745 97.7452 15.4229 97.6214 15.1224C97.4976 14.8218 97.6281 14.4764 97.9186 14.334Z" fill="#FE7C03"/>
<path d="M85.1783 65.4277C86.0346 65.4777 86.4955 66.1833 85.4695 66.5965C84.6954 66.6292 84.476 65.8928 85.1783 65.4277Z" fill="#FE7C03"/>
<path d="M104.265 14.6614C104.63 14.6393 105.005 14.9236 104.987 15.3008C104.97 15.6418 104.834 15.7183 104.611 15.9358C104.112 16.0977 103.767 15.5369 103.878 15.0954C103.937 14.8629 104.084 14.794 104.265 14.6614Z" fill="#FE7C03"/>
<path d="M91.5376 18.762C91.743 18.6885 91.9716 18.7327 92.1352 18.8777C92.2989 19.0227 92.3712 19.2455 92.324 19.4597C92.2774 19.6739 92.1187 19.8456 91.9103 19.9082C91.5989 20.0015 91.2704 19.8283 91.1693 19.5176C91.0682 19.2069 91.2318 18.8718 91.5376 18.762Z" fill="#FE7C03"/>
<path d="M93.3269 15.7986C94.2352 15.7523 94.6299 16.2634 93.8533 16.8943C93.0241 16.9444 92.657 16.218 93.3269 15.7986Z" fill="#FE7C03"/>
<path d="M96.2388 17.8839C96.9767 17.8734 97.4713 18.503 96.7365 18.8888C96.0169 19.0702 95.6075 18.4602 96.2388 17.8839Z" fill="#FE7C03"/>
<path d="M96.7646 66.2041C96.9313 66.1048 97.1379 66.1029 97.3058 66.2004C97.4732 66.2978 97.5755 66.4791 97.5724 66.674C97.5694 66.869 97.4621 67.0466 97.2911 67.1391C97.0355 67.2773 96.7168 67.1847 96.574 66.9306C96.4306 66.6765 96.5158 66.3539 96.7646 66.2041Z" fill="#FE7C03"/>
<path d="M83.7942 47.8925C84.2036 47.8478 85.7316 47.7642 86.0423 48.0019L86.0344 48.1107L85.8848 48.205C85.4589 48.2244 83.8175 48.3339 83.554 48.0343C83.6287 47.9088 83.6085 47.9485 83.7942 47.8925Z" fill="#FE7C03" fill-opacity="0.988235"/>
<path d="M83.5821 62.4757C84.3611 62.4615 84.632 62.8951 84.0001 63.4385C83.4785 63.5409 82.9686 62.9679 83.5821 62.4757Z" fill="#FE7C03"/>
<path d="M90.416 66.7174C91.1754 66.6816 91.2538 67.1158 90.9376 67.6888C90.2738 67.6574 89.854 67.2916 90.416 66.7174Z" fill="#FE7C03"/>
<path d="M94.5678 20.6506C95.2941 20.7583 95.2758 21.2013 94.8853 21.685C94.4679 21.6866 94.159 21.4278 94.2246 20.982C94.2498 20.8138 94.4342 20.7372 94.5678 20.6506Z" fill="#FE7C03"/>
<path d="M102.595 19.7307C102.988 19.7285 103.229 19.8753 103.314 20.2585C103.214 20.5152 103.245 20.4392 103.005 20.6228C102.604 20.6081 102.289 20.6286 102.26 20.1423C102.344 19.9062 102.403 19.8761 102.595 19.7307Z" fill="#FE7C03"/>
<path d="M107.032 18.7363C107.279 18.7357 107.398 18.7695 107.575 18.9285C107.759 19.3452 107.599 19.4686 107.229 19.6214C106.679 19.6548 106.343 19.1057 107.032 18.7363Z" fill="#FE7C03"/>
<path d="M104.551 22.9365C104.91 22.949 105.171 23.0678 105.258 23.4317C105.212 23.629 105.134 23.6697 104.981 23.8055C104.311 23.8882 103.935 23.4082 104.551 22.9365Z" fill="#FE7C03"/>
<path d="M99.6243 63.4625C100 63.4421 100.298 63.4396 100.405 63.8603C100.376 64.0614 100.286 64.1162 100.138 64.2507C99.9178 64.3074 99.8731 64.3259 99.6537 64.2495C99.3472 63.9732 99.4349 63.785 99.6243 63.4625Z" fill="#FE7C03"/>
<path d="M100.431 17.1304C100.788 17.1764 101.035 17.1724 101.2 17.5094C101.192 17.713 101.138 17.7695 101.027 17.9374C100.661 17.9519 100.467 17.9424 100.285 17.612C100.264 17.3817 100.316 17.3233 100.431 17.1304Z" fill="#FE7C03"/>
<path d="M98.8424 20.7535C98.9821 20.6938 99.1433 20.7161 99.2622 20.8114C99.3811 20.9067 99.4381 21.0598 99.4111 21.2103C99.3848 21.3608 99.2781 21.4844 99.1341 21.5324C98.9233 21.6026 98.6947 21.4929 98.6168 21.2838C98.5384 21.0747 98.6383 20.8406 98.8424 20.7535Z" fill="#FE7C03"/>
<path d="M87.2351 62.723C87.5434 62.6928 87.8793 62.6626 88.0043 62.995C87.981 63.1905 87.8934 63.2473 87.7536 63.3922C87.655 63.4446 87.6194 63.4323 87.5017 63.4416C87.1334 63.2769 87.1101 63.0857 87.2351 62.723Z" fill="#FE7C03"/>
<path d="M107.194 29.4718C107.32 29.4058 107.471 29.414 107.589 29.4931C107.707 29.5723 107.773 29.7098 107.761 29.8519C107.748 29.994 107.66 30.1181 107.531 30.1758C107.339 30.261 107.115 30.1778 107.024 29.9877C106.933 29.7976 107.009 29.5693 107.194 29.4718Z" fill="#FE7C03"/>
<path d="M110.674 26.813C110.986 26.84 111.16 26.9059 111.208 27.2201C111.087 27.4522 111.123 27.3847 110.889 27.5406C110.561 27.5993 110.423 27.5251 110.373 27.2049C110.416 26.9917 110.507 26.9455 110.674 26.813Z" fill="#FE7C03"/>
<path d="M109.196 22.7222C109.426 22.8096 109.604 22.902 109.702 23.1281C109.631 23.3486 109.615 23.3092 109.411 23.4806C108.838 23.5175 108.789 23.0998 109.196 22.7222Z" fill="#FE7C03"/>
<path d="M88.548 65.1255C88.8428 65.1705 88.9893 65.1502 89.0818 65.4555C89.0218 65.6769 88.9354 65.7268 88.765 65.8718C88.4885 65.8508 88.3868 65.7238 88.3083 65.482C88.3629 65.2402 88.3408 65.3148 88.548 65.1255Z" fill="#FE7C03"/>
<path d="M97.0129 22.9324C97.2985 22.9844 97.4058 22.9688 97.4916 23.2707C97.4517 23.4787 97.3733 23.5495 97.2415 23.7091C97.0423 23.624 96.8296 23.5131 96.7634 23.2939C96.8235 23.0565 96.8118 23.1218 97.0129 22.9324Z" fill="#FE7C03"/>
<path d="M105.973 26.1189C106.207 26.1568 106.447 26.221 106.575 26.4339C106.565 26.6357 106.578 26.5649 106.404 26.75C106.109 26.7842 106.013 26.7848 105.836 26.5576C105.831 26.2897 105.828 26.3724 105.973 26.1189Z" fill="#FE7C03"/>
<path d="M93.5757 65.1631C93.8313 65.2087 93.9692 65.2063 94.0709 65.4659C93.9729 65.717 93.9827 65.654 93.7381 65.8372L93.5916 65.844C93.4249 65.7385 93.4752 65.7984 93.3979 65.6207C93.431 65.3086 93.398 65.4197 93.5757 65.1631Z" fill="#FE7C03"/>
<path d="M111.59 31.2432C111.842 31.2535 111.99 31.2643 112.149 31.4562C112.111 31.664 112.084 31.6347 111.911 31.8007C111.668 31.8766 111.614 31.8588 111.464 31.6773C111.451 31.3929 111.425 31.5075 111.59 31.2432Z" fill="#FE7C03"/>
<path d="M91.3662 62.1963C91.6052 62.2191 91.6996 62.2567 91.8326 62.4449C91.8038 62.6953 91.8185 62.6163 91.6242 62.8291C91.3766 62.805 91.3264 62.7656 91.1885 62.6015C91.1983 62.3517 91.1952 62.4251 91.3662 62.1963Z" fill="#FE7C03"/>
<path d="M91.5022 64.4272C91.7179 64.4914 91.8662 64.5136 92.0299 64.6672C92.0458 64.8775 92.0477 64.8041 91.8785 65.0212C91.6634 65.0095 91.5555 64.9922 91.4115 64.8269C91.3833 64.5802 91.3716 64.6814 91.5022 64.4272Z" fill="#FE7C03"/>
<path d="M112.206 35.4366C112.358 35.3811 112.526 35.4609 112.579 35.6142C112.633 35.7676 112.552 35.9355 112.399 35.9881C112.248 36.0399 112.085 35.9597 112.031 35.8085C111.979 35.6573 112.057 35.4914 112.206 35.4366Z" fill="#FE7C03"/>
<path d="M108.507 35.2199C108.659 35.1919 108.805 35.2885 108.84 35.4394C108.874 35.5903 108.785 35.742 108.637 35.7838C108.535 35.8127 108.426 35.7827 108.352 35.7058C108.279 35.629 108.253 35.5178 108.285 35.4162C108.318 35.3147 108.403 35.2392 108.507 35.2199Z" fill="#FE7C03"/>
<path d="M100.769 23.6741C100.807 23.679 100.845 23.6843 100.883 23.6899C101.141 23.728 101.216 23.7216 101.347 23.8985L101.291 24.0948C101.078 24.1275 100.967 24.1466 100.788 24.0304C100.704 23.821 100.715 23.9133 100.769 23.6741Z" fill="#FE7C03"/>
<path d="M102.463 26.7291C102.533 26.6734 102.626 26.6594 102.708 26.6925C102.79 26.7256 102.848 26.8006 102.86 26.8888C102.871 26.977 102.835 27.0647 102.764 27.1182C102.658 27.1992 102.506 27.1789 102.423 27.0726C102.341 26.9664 102.359 26.8134 102.463 26.7291Z" fill="#FE7C03"/>
<path d="M103.555 29.259C103.684 29.2261 103.815 29.3036 103.85 29.4331C103.885 29.5625 103.81 29.6959 103.682 29.7326C103.597 29.7569 103.506 29.7335 103.443 29.6713C103.381 29.6091 103.356 29.5178 103.38 29.4324C103.403 29.347 103.47 29.2807 103.555 29.259Z" fill="#FE7C03"/>
</svg>
