<svg width="706" height="462" viewBox="0 0 706 462" fill="none" xmlns="http://www.w3.org/2000/svg">
<path d="M68.1336 77.3466C77.6543 76.8702 89.8548 77.2087 99.5134 77.2152L156.739 77.2361L224.683 77.2193C238.064 77.2019 252.529 76.9116 265.844 77.3611C263.93 79.0822 259.613 84.9073 257.758 87.2815L240.885 108.908C214.787 141.83 189.482 175.179 163.179 208.011C194.689 215.682 218.767 228.705 238.3 255.57C256.557 280.68 264.166 315.437 259.089 346C253.65 379.854 234.725 410.052 206.642 429.69C149.212 470.568 61.3423 455.222 20.8446 397.856C15.2054 390.876 8.45243 379.582 4.20508 371.456C11.8396 364.644 19.869 357.964 27.2899 351.018C34.5938 367.833 45.0789 384.231 58.7221 396.537C80.2331 416.036 108.655 426.089 137.629 424.447C163.68 423.266 188.135 411.549 205.392 391.978C222.704 372.616 231.786 346.334 230.338 320.948C227.101 264.184 180.386 229.767 125.943 230.711C123.975 230.745 114.651 230.882 113.518 229.874C114.976 226.717 121.841 218.562 124.25 215.488L142.923 191.444L180.799 142.75C190.507 130.153 200.306 117.085 210.378 104.819L111.245 104.833C97.0446 104.844 81.3665 104.538 67.3167 105.003C67.7525 96.9489 67.2567 88.0224 67.3137 79.9306C67.3262 78.1962 67.1801 78.2657 68.1336 77.3466Z" fill="white"/>
<path d="M279.142 173.733C286.713 172.516 293.838 177.663 295.071 185.237C296.303 192.812 291.177 199.956 283.613 201.207C276.024 202.461 268.86 197.311 267.623 189.712C266.387 182.114 271.548 174.954 279.142 173.733Z" fill="#FE7C03"/>
<path d="M276.344 214.622C283.829 213.436 290.843 218.592 291.954 226.095C293.064 233.599 287.846 240.569 280.339 241.607C272.935 242.631 266.089 237.495 264.993 230.094C263.898 222.693 268.962 215.79 276.344 214.622Z" fill="#FE7C03"/>
<path d="M289.781 134.926C297.131 133.478 304.265 138.258 305.728 145.611C307.192 152.965 302.433 160.117 295.09 161.599C287.723 163.086 280.549 158.303 279.081 150.925C277.612 143.548 282.407 136.378 289.781 134.926Z" fill="#FE7C03"/>
<path d="M310.175 331.139C317.54 329.836 324.563 334.764 325.852 342.139C327.141 349.513 322.206 356.535 314.836 357.812C307.484 359.087 300.489 354.162 299.204 346.805C297.918 339.448 302.827 332.439 310.175 331.139Z" fill="#FE7C03"/>
<path d="M309.11 96.8983C316.331 95.4698 323.351 100.141 324.829 107.358C326.307 114.576 321.691 121.635 314.491 123.166C307.219 124.713 300.079 120.035 298.586 112.745C297.092 105.454 301.816 98.3417 309.11 96.8983Z" fill="#FE7C03"/>
<path d="M279.877 255.652C286.982 253.792 294.254 258.025 296.153 265.126C298.052 272.227 293.866 279.53 286.783 281.473C279.641 283.431 272.272 279.198 270.357 272.039C268.442 264.879 272.713 257.527 279.877 255.652Z" fill="#FE7C03"/>
<path d="M291.856 294.774C296.522 293.772 301.366 295.36 304.536 298.93C307.706 302.5 308.712 307.502 307.17 312.022C305.628 316.542 301.776 319.883 297.086 320.766C289.961 322.109 283.083 317.468 281.651 310.355C280.22 303.241 284.768 296.297 291.856 294.774Z" fill="#FE7C03"/>
<path d="M335.766 364.898C343.017 363.97 349.648 369.099 350.58 376.356C351.512 383.616 346.392 390.253 339.143 391.192C331.886 392.134 325.243 387.001 324.31 379.737C323.377 372.472 328.507 365.827 335.766 364.898Z" fill="#FE7C03"/>
<path d="M335.682 62.5965C342.813 61.1804 349.736 65.8358 351.122 72.9793C352.508 80.1232 347.83 87.0338 340.688 88.3929C333.586 89.7439 326.729 85.0931 325.351 77.9899C323.972 70.8866 328.591 64.0045 335.682 62.5965Z" fill="#FE7C03"/>
<path d="M370.264 34.0242C377.119 32.9401 383.567 37.592 384.702 44.4447C385.84 51.2972 381.244 57.7861 374.408 58.9798C367.494 60.1869 360.922 55.5228 359.771 48.5924C358.62 41.662 363.332 35.1207 370.264 34.0242Z" fill="#FE7C03"/>
<path d="M364.575 394.049C371.33 392.707 377.887 397.122 379.194 403.889C380.5 410.659 376.061 417.202 369.293 418.475C362.571 419.744 356.09 415.336 354.791 408.612C353.493 401.89 357.866 395.382 364.575 394.049Z" fill="#FE7C03"/>
<path d="M408.945 14.2939C413.23 13.2964 417.717 14.6979 420.674 17.9571C423.634 21.2161 424.598 25.8224 423.198 29.9962C421.793 34.17 418.244 37.2576 413.921 38.0664C407.434 39.2792 401.167 35.082 399.816 28.6173C398.461 22.1527 402.515 15.7901 408.945 14.2939Z" fill="#FE7C03"/>
<path d="M452.918 4.18042C458.767 3.51459 464.085 7.61682 464.935 13.447C465.785 19.2772 461.857 24.7292 456.061 25.7626C452.147 26.4606 448.162 24.9697 445.664 21.8721C443.171 18.7746 442.556 14.562 444.066 10.8798C445.573 7.19763 448.967 4.63023 452.918 4.18042Z" fill="#FE7C03"/>
<path d="M554.123 224.29C564.124 224.366 581.558 221.53 578.548 238.938C577.967 242.286 574.141 244.943 571.351 246.493C573.663 250.088 578.912 258.954 581.577 261.55C578.973 261.683 575.01 262.424 573.192 260.544C570.74 256.078 568.068 251.524 565.536 247.086C563.172 247.256 561.524 247.129 559.182 246.98C559.513 251.822 559.065 256.668 559.497 261.801L553.603 261.626C553.872 255.004 552.828 228.493 554.123 224.29ZM559.27 241.79C563.195 241.767 567.802 242.161 571.184 240.233C573.636 235.871 573.633 234.273 570.217 230.638C566.064 229.758 563.377 229.786 559.133 229.717C559.11 233.741 559.156 237.766 559.27 241.79Z" fill="white"/>
<path d="M523.427 223.902C524.296 223.871 527.135 223.8 527.352 224.105C532.218 231.003 539.456 255.47 542.36 261.858C533.842 261.504 535.068 260.634 532.962 252.733L528.456 252.713C524.869 252.705 521.282 252.652 517.695 252.556C516.845 255.975 515.987 258.288 514.617 261.493C512.499 261.435 510.358 261.56 508.244 261.65C509.751 257.262 521.286 225.953 523.427 223.902ZM519.73 247.328L524.85 247.296C526.801 247.263 528.969 247.165 530.889 247.383C529.747 244.765 526.19 233.402 525.287 232.365C523.746 237.035 521.639 242.785 519.73 247.328Z" fill="white"/>
<path d="M475.438 224.157C481.177 224.493 492.139 224.222 497.942 224.08L498.147 229.917C492.518 229.606 486.935 230.029 481.188 229.55C481.264 233.073 481.264 236.66 481.298 240.189C486.066 240.098 490.985 240.175 495.787 240.117C495.779 241.724 496.079 243.462 496.307 245.067C493.198 245.038 484.434 244.839 481.67 245.298C481.071 246.321 481.268 247.474 481.302 248.719L481.272 256.22C486.969 255.95 492.405 255.904 498.11 255.867C498.049 257.709 498.189 259.854 498.265 261.719C491.744 261.222 481.974 261.55 475.225 261.713C475.233 250.01 474.868 235.654 475.438 224.157Z" fill="white"/>
<path d="M602.066 223.876C604.283 223.752 618.494 224.372 613.97 231.034C612.694 232.912 606.75 229.368 604.108 229.267C599.257 229.08 595.439 235.154 600.783 237.917C606.333 240.809 616.004 241.943 616.478 249.912C617.082 260.071 610.899 261.707 602.677 262.154C602.264 262.106 601.846 262.048 601.436 261.98C597.01 261.251 586.162 257.429 594.494 252.663C598.119 255.102 600.753 257.26 605.403 256.742C607.509 257.015 611.681 252.672 610.77 250.724C607.517 243.774 593.613 245.715 592.175 236.396C591.116 229.534 595.401 225.093 602.066 223.876Z" fill="white"/>
<path d="M458.038 224.301C460.578 224.331 462.324 224.201 464.833 223.983C463.14 227.697 458.668 234.827 456.368 238.788C450.713 247.433 451.794 251.219 452.132 261.77L445.653 261.576C445.759 257.058 446.207 250.007 445.304 245.764C444.248 240.812 433.829 228.527 433.727 224.14C435.928 224.256 437.382 224.207 439.595 224.086C442.757 227.703 445.907 235.329 449.111 240.045C451.734 234.604 454.713 229.344 458.038 224.301Z" fill="white"/>
<path d="M327.579 291.589C332.222 290.826 336.819 293.191 338.902 297.414C340.985 301.638 340.066 306.728 336.637 309.954C335.127 311.375 333.237 312.326 331.198 312.692C325.353 313.74 319.774 309.822 318.77 303.965C317.765 298.107 321.72 292.552 327.579 291.589Z" fill="#FE7C03"/>
<path d="M319.234 261.107C331.744 260.787 336.76 278.106 320.206 282.573C307.686 281.41 303.419 264.432 319.234 261.107Z" fill="#FE7C03"/>
<path d="M399.429 417.438C405.255 416.7 410.581 420.827 411.328 426.659C412.072 432.491 407.962 437.829 402.139 438.588C396.297 439.348 390.949 435.218 390.198 429.371C389.45 423.524 393.583 418.178 399.429 417.438Z" fill="#FE7C03"/>
<path d="M314.533 197.225C320.172 196.207 325.572 199.944 326.612 205.584C327.652 211.224 323.941 216.645 318.311 217.709C312.648 218.78 307.194 215.039 306.147 209.366C305.101 203.693 308.861 198.249 314.533 197.225Z" fill="#FE7C03"/>
<path d="M322.968 163.831C328.693 163.573 333.547 168.002 333.817 173.732C334.088 179.462 329.674 184.33 323.95 184.614C318.208 184.899 313.325 180.464 313.054 174.715C312.782 168.967 317.225 164.09 322.968 163.831Z" fill="#FE7C03"/>
<path d="M313.24 229.966C317.695 228.91 322.316 230.899 324.615 234.862C326.915 238.824 326.352 243.827 323.228 247.178C321.837 248.67 320.039 249.719 318.056 250.195C312.471 251.536 306.859 248.086 305.528 242.494C304.196 236.902 307.651 231.29 313.24 229.966Z" fill="#FE7C03"/>
<path d="M334.23 131.256C338.705 130.199 343.338 132.244 345.574 136.265C347.811 140.286 347.107 145.305 343.852 148.555C342.37 150.035 340.472 151.026 338.413 151.397C332.931 152.384 327.662 148.822 326.528 143.364C325.395 137.906 328.81 132.537 334.23 131.256Z" fill="#FE7C03"/>
<path d="M355.116 100.61C358.918 99.9868 362.743 101.584 364.975 104.726C367.025 107.613 367.416 111.363 366.006 114.61C364.595 117.859 361.59 120.13 358.082 120.598C353.704 121.183 349.454 118.85 347.592 114.84C345.731 110.83 346.69 106.074 349.961 103.102C351.403 101.79 353.194 100.925 355.116 100.61Z" fill="#FE7C03"/>
<path d="M342.064 319.222C351.405 318.736 355.834 327.011 351.875 335.101C349.306 337.048 347.812 337.689 344.909 338.839C336.999 339.251 331.601 333.02 334.092 325.092C334.347 324.281 334.885 323.249 335.243 322.472C337.85 320.522 338.905 319.992 342.064 319.222Z" fill="#FE7C03"/>
<path d="M379.297 75.5766C382.751 74.346 386.599 75.1173 389.317 77.5838C392.031 80.0499 393.17 83.8113 392.282 87.3717C391.39 90.9316 388.615 93.7131 385.062 94.6094C379.911 95.9073 374.654 92.929 373.114 87.8435C371.574 82.7585 374.295 77.3589 379.297 75.5766Z" fill="#FE7C03"/>
<path d="M494.917 3.46206C505.223 2.16515 511.55 18.2448 497.123 23.7171C486.719 24.5436 480.012 7.50049 494.917 3.46206Z" fill="#FE7C03"/>
<path d="M410.581 55.9848C415.826 54.883 420.962 58.2705 422.021 63.5284C423.076 68.7867 419.653 73.8998 414.388 74.915C409.188 75.9184 404.151 72.537 403.107 67.3399C402.063 62.1428 405.4 57.0741 410.581 55.9848Z" fill="#FE7C03"/>
<path d="M378.637 365.703C381.973 364.919 385.468 366.015 387.765 368.563C390.057 371.111 390.782 374.706 389.659 377.946C388.532 381.184 385.734 383.555 382.356 384.129C377.354 384.98 372.582 381.697 371.577 376.721C370.571 371.743 373.697 366.865 378.637 365.703Z" fill="#FE7C03"/>
<path d="M571.868 283.554C575.944 284.145 578.483 286.698 578.969 290.733C579.861 298.12 579.664 303.902 571.583 305.44C567.214 304.81 564.887 302.788 564.306 298.383C563.327 290.946 563.783 285.038 571.868 283.554ZM573.226 302.249C576.942 298.888 577.698 286.197 570.429 286.469C570.201 286.479 569.977 286.49 569.75 286.504C566.603 289.806 565.923 302.672 572.422 302.314C572.691 302.299 572.961 302.277 573.226 302.249Z" fill="#FE7C03"/>
<path d="M359.084 343.548C364.134 342.996 368.693 346.602 369.324 351.647C369.956 356.693 366.427 361.312 361.397 362.024C358.071 362.495 354.75 361.135 352.708 358.466C350.666 355.797 350.22 352.233 351.541 349.142C352.862 346.051 355.745 343.913 359.084 343.548Z" fill="#FE7C03"/>
<path d="M404.595 385.58C407.229 385.326 409.841 386.237 411.746 388.072C413.651 389.908 414.657 392.487 414.502 395.132C414.236 399.596 410.752 403.194 406.307 403.608C401.338 404.068 396.939 400.416 396.468 395.447C395.998 390.477 399.634 386.063 404.595 385.58Z" fill="#FE7C03"/>
<path d="M431.878 433.839C434.972 432.623 438.483 433.212 441.011 435.37C443.543 437.525 444.681 440.898 443.975 444.151C443.273 447.399 440.84 449.998 437.648 450.913C435.12 451.639 432.402 451.221 430.204 449.774C428.011 448.322 426.557 445.989 426.227 443.376C425.703 439.276 428.033 435.344 431.878 433.839Z" fill="#FE7C03"/>
<path d="M442.07 44.2087C444.894 43.5803 447.847 44.3489 450.01 46.2748C452.17 48.2003 453.275 51.0483 452.979 53.9297C452.77 55.9551 451.886 57.8502 450.462 59.3065C449.21 60.5896 447.604 61.4691 445.85 61.8331C442.571 62.5124 439.185 61.3156 437.063 58.726C435.078 56.3054 434.49 53.027 435.511 50.0665C436.532 47.1061 439.014 44.8884 442.07 44.2087Z" fill="#FE7C03"/>
<path d="M369.523 131.746C374.112 130.327 378.985 132.883 380.431 137.467C381.878 142.052 379.357 146.945 374.786 148.422C370.174 149.913 365.231 147.361 363.771 142.735C362.312 138.109 364.893 133.178 369.523 131.746Z" fill="#FE7C03"/>
<path d="M371.175 316.989C374.21 316.205 377.432 317.117 379.608 319.375C381.787 321.634 382.58 324.89 381.688 327.898C380.796 330.906 378.355 333.202 375.3 333.906C372.716 334.501 370.002 333.885 367.928 332.232C365.854 330.578 364.646 328.068 364.648 325.414C364.651 321.445 367.335 317.98 371.175 316.989Z" fill="#FE7C03"/>
<path d="M358.623 292.924C363.382 292.319 367.727 295.699 368.314 300.465C368.901 305.23 365.508 309.567 360.745 310.137C356.006 310.704 351.702 307.329 351.117 302.588C350.533 297.847 353.889 293.526 358.623 292.924Z" fill="#FE7C03"/>
<path d="M388.93 109.162C391.617 108.585 394.419 109.325 396.476 111.155C398.89 113.306 399.9 116.627 399.095 119.761C398.29 122.894 395.804 125.314 392.65 126.031C387.981 127.093 383.343 124.15 382.31 119.471C381.278 114.792 384.246 110.166 388.93 109.162Z" fill="#FE7C03"/>
<path d="M348.753 184.371C352.755 184.726 354.484 186.421 357.438 188.904C358.525 195.967 358.182 199.417 350.55 201.859C346.102 201.628 342.042 199.047 341.042 194.507C340.558 192.348 340.975 190.085 342.197 188.241C343.85 185.766 345.977 184.901 348.753 184.371Z" fill="#FE7C03"/>
<path d="M345.311 240.907C349.349 241.561 353.098 243.512 354.023 247.83C354.483 250.007 354.038 252.279 352.79 254.12C351.06 256.714 348.766 257.656 345.853 258.208C333.831 255.893 333.664 243.771 345.311 240.907Z" fill="#FE7C03"/>
<path d="M350.001 267.667C352.893 267.405 355.718 268.644 357.486 270.95C360.035 274.275 359.776 278.964 356.876 281.987C355.581 283.337 353.875 284.22 352.026 284.499C349.481 284.882 346.901 284.087 345.011 282.338C342.555 280.063 341.666 276.552 342.745 273.38C343.824 270.208 346.667 267.969 350.001 267.667Z" fill="#FE7C03"/>
<path d="M356.106 157.107C359.734 156.069 363.61 157.564 365.604 160.77C367.597 163.977 367.227 168.117 364.694 170.917C363.643 172.079 362.291 172.926 360.788 173.363C358.176 174.123 355.359 173.578 353.217 171.899C350.716 169.938 349.526 166.738 350.135 163.617C350.745 160.496 353.052 157.981 356.106 157.107Z" fill="#FE7C03"/>
<path d="M532.597 11.5034C535.042 11.0644 537.558 11.7299 539.468 13.3219C541.381 14.9138 542.489 17.2694 542.5 19.7576C542.523 23.7898 539.688 27.2714 535.736 28.0637C532.768 28.6594 529.705 27.6127 527.72 25.3227C525.735 23.0326 525.135 19.8521 526.141 16.9934C527.151 14.1347 529.614 12.0384 532.597 11.5034Z" fill="#FE7C03"/>
<path d="M343.152 213.344C346.131 212.691 349.23 213.705 351.247 215.995C353.264 218.285 353.882 221.489 352.862 224.366C351.842 227.243 349.343 229.339 346.336 229.843C341.842 230.597 337.569 227.625 336.705 223.148C335.841 218.67 338.702 214.319 343.152 213.344Z" fill="#FE7C03"/>
<path d="M387.085 339.054C391.53 337.957 396.024 340.661 397.14 345.104C398.26 349.547 395.58 354.06 391.147 355.201C386.683 356.349 382.136 353.645 381.008 349.17C379.885 344.695 382.61 340.158 387.085 339.054Z" fill="#FE7C03"/>
<path d="M475.833 39.1636C478.774 38.6605 481.758 39.7794 483.644 42.0929C485.534 44.4059 486.032 47.5563 484.954 50.3412C483.876 53.1258 481.382 55.1147 478.429 55.5482C473.939 56.2078 469.756 53.1284 469.042 48.641C468.332 44.1536 471.357 39.9284 475.833 39.1636Z" fill="#FE7C03"/>
<path d="M410.6 91.6367C421.588 90.4114 426.599 102.435 415.485 107.329C411.632 108.164 410.201 106.95 407.009 105.077C403.411 99.0515 404.28 94.8745 410.6 91.6367Z" fill="#FE7C03"/>
<path d="M406.409 358.156C409.97 357.089 413.799 358.586 415.694 361.785C417.588 364.985 417.064 369.065 414.422 371.68C413.435 372.655 412.217 373.361 410.881 373.729C408.622 374.351 406.208 373.964 404.257 372.668C401.638 370.93 400.264 367.835 400.727 364.727C401.186 361.618 403.403 359.058 406.409 358.156Z" fill="#FE7C03"/>
<path d="M431.491 402.757C432.892 402.62 434.304 402.742 435.659 403.118C440.134 404.326 442.096 407.916 440.73 412.521C439.652 416.153 437.359 417.244 434.209 418.881C430.315 419.197 426.508 416.674 425.365 412.901C424.735 410.827 424.985 408.585 426.056 406.697C427.365 404.421 429.07 403.425 431.491 402.757Z" fill="#FE7C03"/>
<path d="M436.809 78.969C439.937 78.3611 443.121 79.6684 444.924 82.2968C446.424 84.4879 446.739 87.2823 445.767 89.7534C444.791 92.2249 442.654 94.0504 440.062 94.6253C437.253 95.2488 434.323 94.3103 432.398 92.1686C430.47 90.0269 429.844 87.0137 430.759 84.2808C431.673 81.5483 433.985 79.5187 436.809 78.969Z" fill="#FE7C03"/>
<path d="M457.458 283.844C474.208 282.78 462.904 303.599 456.053 306.007C454.117 303.667 459.595 299.317 459.454 297.462C456.679 297.008 456.027 296.905 453.563 295.437C450.481 290.047 450.872 285.66 457.458 283.844ZM460.79 294.418C465.463 289.597 463.064 286.022 456.63 286.563C453.559 290.878 455.002 294.889 460.79 294.418Z" fill="#FE7C03"/>
<path d="M429.24 374.504C433.306 373.116 437.731 375.245 439.185 379.29C439.819 381.059 439.804 383 439.136 384.756C438.221 387.164 436.186 388.973 433.689 389.596C429.597 390.618 425.429 388.232 424.238 384.186C423.042 380.136 425.251 375.867 429.24 374.504Z" fill="#FE7C03"/>
<path d="M498.151 282.792C499.04 283.111 498.99 283.092 499.616 283.803C499.415 285.697 496.181 288.521 495.57 291.311C498.303 291.889 501.841 292.448 502.976 295.356C504.748 299.9 503.002 303.449 498.595 305.317C481.613 306.254 491.319 288.935 498.151 282.792ZM498.045 302.181C503.074 299.496 500.615 294.608 494.701 294.797C490.518 298.642 492.78 303.018 498.045 302.181Z" fill="#FE7C03"/>
<path d="M610.827 283.311C611.517 283.24 611.757 283.348 612.413 283.521L612.588 284.144C611.35 286.777 609.058 289.582 607.012 291.637C611.772 291.559 616.569 292.576 616.592 299.014C616.6 301.279 614.649 303.466 612.884 304.825C606.5 306.915 601.037 303.776 602.267 296.685C603.026 292.323 607.224 285.904 610.827 283.311ZM611.373 301.946C612.626 301.264 613.419 299.957 613.438 298.527C613.461 297.098 612.709 295.769 611.472 295.05C610.238 294.332 608.712 294.336 607.483 295.062C605.623 296.157 604.985 298.54 606.048 300.417C607.111 302.295 609.479 302.975 611.373 301.946Z" fill="#FE7C03"/>
<path d="M476.216 283.499C479.476 283.391 480.304 283.991 483.173 285.681C484.335 288.515 484.654 290.126 484.988 293.152C483.583 296.153 479.765 302.236 477.408 304.637C476.364 305.701 475.404 305.697 474.003 305.636C474.071 303.009 477.673 299.366 479.514 297.121C473.491 297.665 468.765 294.479 470.978 287.479C471.722 285.128 474.018 284.297 476.216 283.499Z" fill="#FE7C03"/>
<path d="M466.916 442.24C470.731 441.806 474.379 443.057 476.231 446.632C477.112 448.303 477.279 450.264 476.687 452.061C475.829 454.705 473.878 456.198 471.532 457.441C463.109 459.819 457.461 448.098 466.916 442.24Z" fill="#FE7C03"/>
<path d="M508.419 40.9273C512.499 40.9391 515.835 44.1981 515.942 48.2839C516.048 52.3694 512.894 55.8002 508.817 56.0278C506.069 56.1809 503.458 54.8275 502 52.4955C500.539 50.1631 500.463 47.2209 501.795 44.8148C503.131 42.4086 505.667 40.9197 508.419 40.9273Z" fill="#FE7C03"/>
<path d="M464.096 71.6023C468.112 71.2433 471.669 74.1946 472.06 78.2132C472.451 82.2317 469.532 85.8138 465.52 86.2374C463.633 86.4365 461.739 85.897 460.244 84.7317C457.86 82.878 456.85 79.7527 457.701 76.8534C458.551 73.9541 461.09 71.8713 464.096 71.6023Z" fill="#FE7C03"/>
<path d="M454.816 387.582C456.524 387.427 458.247 387.67 459.845 388.289C465.004 390.303 463.876 395.333 462.073 399.178L457.644 401.868C450.523 402.844 444.511 391.245 454.816 387.582Z" fill="#FE7C03"/>
<path d="M566.948 25.8819C577.064 24.9596 579.717 35.6908 570.217 39.2491C567.954 39.8133 566.74 39.2088 564.584 38.455C559.983 33.8549 560.31 28.0475 566.948 25.8819Z" fill="#FE7C03"/>
<path d="M461.253 414.504C464.586 414.094 467.881 415.83 469.012 419.09C469.611 420.838 469.494 422.749 468.693 424.406C467.691 426.446 465.922 427.38 463.88 428.045C458.646 428.402 457.408 427.266 455.222 422.635C455.385 419.641 455.662 418.779 457.23 416.214C458.429 415.637 460.001 415.029 461.253 414.504Z" fill="#FE7C03"/>
<path d="M535.281 47.4967C542.762 46.9564 545.059 52.4594 542.459 58.9247C541.229 59.7279 539.316 60.6975 537.976 61.4243C533.603 62.145 530.886 57.8179 529.834 54.2264C531.239 50.432 531.762 49.3769 535.281 47.4967Z" fill="#FE7C03"/>
<path d="M378.347 180.016C380.545 179.565 382.827 180.243 384.425 181.824C386.159 183.542 386.831 186.066 386.174 188.42C385.518 190.774 383.643 192.587 381.267 193.159C378.905 193.727 376.419 192.975 374.766 191.192C373.112 189.409 372.549 186.873 373.291 184.556C374.033 182.24 375.965 180.504 378.347 180.016Z" fill="#FE7C03"/>
<path d="M388.365 158.344C390.843 157.718 393.466 158.555 395.125 160.504C397.368 163.14 397.247 167.051 394.844 169.542C393.944 170.473 392.798 171.124 391.542 171.419C389.306 171.942 386.96 171.29 385.317 169.688C383.574 167.987 382.884 165.476 383.518 163.122C384.148 160.768 386.004 158.941 388.365 158.344Z" fill="#FE7C03"/>
<path d="M550.141 283.478C550.71 283.437 551.276 283.415 551.845 283.41C553.383 283.398 556.78 284.013 557.744 285.153C562.633 290.943 553.174 299.252 549.913 302.224C551.929 302.257 559.995 301.905 560.549 304.31C558.901 305.579 554.525 305.36 552.369 305.377C550.084 305.497 547.499 305.99 545.799 304.534C544.652 300.765 554.92 294.99 555.538 291.003C556.947 281.89 548.737 289.419 546.091 288.64L545.988 287.811C546.983 285.017 547.476 284.869 550.141 283.478Z" fill="#FE7C03"/>
<path d="M588.462 283.461C589.214 283.411 589.965 283.399 590.721 283.425C594.35 283.579 597.056 285.433 596.722 289.338C596.251 294.875 591.56 298.862 587.699 302.278C589.84 302.209 597.162 301.761 597.773 304.22C595.841 305.843 592.14 305.452 589.567 305.449C587.555 305.539 585.513 305.918 583.957 304.694C582.264 300.638 592.865 295.308 593.465 290.884C594.699 281.842 586.899 289.487 583.536 288.522L583.448 287.755C584.595 284.71 585.293 284.911 588.462 283.461Z" fill="#FE7C03"/>
<path d="M419.504 121.584C422.757 121.52 425.782 122.923 426.959 126.132C427.563 127.737 427.46 129.523 426.678 131.048C425.612 133.141 423.737 134.14 421.6 134.798C412.657 135.178 410.418 126.066 419.504 121.584Z" fill="#FE7C03"/>
<path d="M375.888 270.492C377.301 270.462 378.988 270.549 380.424 270.587C385.085 274.139 385.685 276.724 382.849 281.846L379.847 283.633C376.908 283.994 376.246 283.579 373.666 282.17C370.165 276.695 370.236 274.155 375.888 270.492Z" fill="#FE7C03"/>
<path d="M489.174 70.162C491.991 69.3196 495.024 70.4458 496.61 72.9226C498.193 75.3997 497.95 78.628 496.007 80.8358C495.168 81.7891 494.075 82.4794 492.852 82.8244C489.372 83.8084 485.747 81.7967 484.737 78.3191C483.728 74.8412 485.709 71.1996 489.174 70.162Z" fill="#FE7C03"/>
<path d="M370.492 248.322C373.156 247.431 376.09 248.337 377.791 250.574C379.631 252.996 379.569 256.367 377.638 258.719C376.821 259.714 375.729 260.447 374.499 260.826C371.066 261.883 367.421 259.98 366.324 256.556C365.227 253.132 367.084 249.461 370.492 248.322Z" fill="#FE7C03"/>
<path d="M371.564 202.762C374.056 202.168 376.664 203.08 378.244 205.097C379.619 206.854 380.01 209.19 379.278 211.299C378.547 213.408 376.795 215 374.628 215.525C371.103 216.38 367.555 214.209 366.708 210.679C365.861 207.15 368.037 203.603 371.564 202.762Z" fill="#FE7C03"/>
<path d="M501.324 444.185C503.723 444.208 505.393 445.199 507.436 446.316C511.307 451.992 509.159 454.774 503.549 457.22C496.462 458.041 492.021 448.448 501.324 444.185Z" fill="#FE7C03"/>
<path d="M368.986 225.431C371.282 224.715 373.786 225.326 375.495 227.02C377.204 228.714 377.84 231.213 377.147 233.519C376.455 235.824 374.548 237.559 372.189 238.028C368.798 238.704 365.472 236.604 364.619 233.25C363.766 229.896 365.685 226.461 368.986 225.431Z" fill="#FE7C03"/>
<path d="M398.207 311.589C406.504 311.729 409.605 320.511 400.739 325.226C395.827 324.699 394.498 322.413 392.574 318.102C394.199 314.502 394.825 313.525 398.207 311.589Z" fill="#FE7C03"/>
<path d="M385.563 291.944C388.16 291.274 390.904 292.274 392.464 294.46C394.024 296.646 394.081 299.567 392.604 301.811C391.743 303.121 390.433 304.075 388.926 304.496C385.446 305.467 381.847 303.411 380.91 299.92C379.976 296.429 382.067 292.845 385.563 291.944Z" fill="#FE7C03"/>
<path d="M438.806 109.452C441.402 108.81 444.127 109.829 445.668 112.018C447.206 114.208 447.247 117.119 445.767 119.349C444.886 120.677 443.546 121.634 442.005 122.038C438.525 122.952 434.964 120.852 434.076 117.359C433.188 113.866 435.31 110.317 438.806 109.452Z" fill="#FE7C03"/>
<path d="M401.236 139.084C405.491 138.602 410.892 140.334 410.251 145.879C409.973 148.27 407.791 149.699 405.961 151.058C402.895 152.028 401.9 151.365 399.19 149.887C396.024 145.268 396.263 142.21 401.236 139.084Z" fill="#FE7C03"/>
<path d="M414.896 329.84C416.973 330.306 417.572 330.738 419.429 331.84C421.915 336.066 422.15 337.362 419.281 341.525C417.99 342.176 416.605 342.722 415.269 343.279C414.282 342.945 412.285 341.932 411.256 341.444C407.692 336.24 408.186 331.656 414.896 329.84Z" fill="#FE7C03"/>
<path d="M489.512 420.488C492.116 419.789 494.876 420.876 496.303 423.171C497.73 425.462 497.491 428.418 495.718 430.45C494.872 431.419 493.741 432.099 492.488 432.392C490.408 432.874 488.229 432.244 486.734 430.72C485.2 429.166 484.612 426.913 485.185 424.804C485.758 422.7 487.406 421.054 489.512 420.488Z" fill="#FE7C03"/>
<path d="M460.988 101.444C467.209 101.132 469.851 105.821 466.791 111.432C465.713 112.038 464.597 112.754 463.538 113.407C462.161 113.597 461.447 113.644 460.122 113.171C458.615 112.649 457.393 111.526 456.748 110.068C454.926 105.94 457.219 103.033 460.988 101.444Z" fill="#FE7C03"/>
<path d="M479.856 397.29C481.644 396.67 483.621 396.94 485.181 398.011C486.745 399.087 487.702 400.838 487.77 402.73C487.819 404.185 487.337 405.61 486.415 406.735C485.622 407.7 484.548 408.391 483.341 408.71C481.659 409.163 479.867 408.855 478.433 407.871C476.569 406.594 475.586 404.379 475.886 402.141C476.189 399.904 477.723 398.027 479.856 397.29Z" fill="#FE7C03"/>
<path d="M432.159 346.156C435.105 346.272 436.122 347.243 438.502 348.896L439.686 352.356C439.105 353.631 438.324 355.082 437.682 356.349L434.437 358.209C426.823 358.142 423.646 349.671 432.159 346.156Z" fill="#FE7C03"/>
<path d="M515.49 71.8154C519.995 72.5316 522.975 74.8078 521.449 79.9662C520.679 82.5744 518.993 83.1075 516.682 84.1587C509.557 83.734 507.451 74.8245 515.49 71.8154Z" fill="#FE7C03"/>
<path d="M483.044 97.3388C485.098 96.9707 487.189 97.7351 488.522 99.3411C489.854 100.947 490.222 103.146 489.482 105.098C488.746 107.05 487.015 108.454 484.954 108.774C481.818 109.261 478.877 107.133 478.353 104.001C477.829 100.869 479.921 97.8989 483.044 97.3388Z" fill="#FE7C03"/>
<path d="M563.487 58.5246C570.975 58.4414 573.412 66.5609 565.563 69.9815C558.795 70.0958 554.988 62.2323 563.487 58.5246Z" fill="#FE7C03"/>
<path d="M530.749 440.815C533.747 439.846 536.966 441.495 537.934 444.5C538.902 447.502 537.251 450.724 534.248 451.689C531.25 452.654 528.039 451.005 527.071 448.003C526.103 445.002 527.75 441.784 530.749 440.815Z" fill="#FE7C03"/>
<path d="M599.136 45.3206C601.74 45.7366 603.987 46.3053 604.989 49.1275C605.425 50.3247 605.357 51.6487 604.795 52.7935C603.903 54.6578 602.085 55.6901 600.225 56.339C597.23 55.9032 594.376 55.2479 593.507 51.8459C593.203 50.6518 593.412 49.3843 594.08 48.3494C595.355 46.3346 596.984 45.8437 599.136 45.3206Z" fill="#FE7C03"/>
<path d="M451.76 359.911C454.603 359.279 457.423 361.064 458.072 363.907C458.722 366.75 456.957 369.584 454.121 370.252C451.259 370.925 448.397 369.138 447.741 366.27C447.088 363.402 448.891 360.548 451.76 359.911Z" fill="#FE7C03"/>
<path d="M537.592 77.5204C544.569 77.387 547.363 85.7843 540.185 87.7163C532.593 87.752 531.333 81.0861 537.592 77.5204Z" fill="#FE7C03"/>
<path d="M516.807 420.868C519.597 420.511 522.159 422.457 522.561 425.245C522.968 428.03 521.066 430.629 518.291 431.081C516.45 431.381 514.594 430.667 513.429 429.208C512.267 427.749 511.979 425.777 512.681 424.048C513.38 422.32 514.959 421.104 516.807 420.868Z" fill="#FE7C03"/>
<path d="M503.902 97.3434C506.555 96.2827 509.561 97.5904 510.601 100.255C511.637 102.92 510.305 105.92 507.633 106.936C504.995 107.939 502.042 106.624 501.017 103.992C499.992 101.359 501.279 98.3917 503.902 97.3434Z" fill="#FE7C03"/>
<path d="M441.941 283.057C442.404 283.2 443.562 283.654 443.512 284.234C443.212 287.705 444.264 302.959 443.118 305.111C441.929 305.567 442.438 305.528 441.193 305.264C440.335 304.214 440.502 302.631 440.445 301.162C440.643 298.726 440.343 290.116 439.853 287.992C438.335 287.546 437.094 289.67 435.09 288.445C435.484 286.533 440.282 284.045 441.941 283.057Z" fill="#FE7C03"/>
<path d="M504.669 401.723C507.337 401.142 509.975 402.825 510.575 405.489C511.171 408.156 509.508 410.808 506.851 411.423C504.164 412.05 501.484 410.363 500.88 407.673C500.273 404.979 501.974 402.309 504.669 401.723Z" fill="#FE7C03"/>
<path d="M587.35 72.151C590.857 72.0264 594.217 75.48 592.66 78.9963C591.723 81.1197 590.945 81.1592 588.963 82.0874C582.241 82.0201 580.799 75.7539 587.35 72.151Z" fill="#FE7C03"/>
<path d="M472.542 370.828C479.476 369.962 481.993 376.784 475.984 379.757C470.245 381.108 466.214 374.691 472.542 370.828Z" fill="#FE7C03"/>
<path d="M526.084 100.232C529.492 100.187 533.102 102.43 531.888 106.347C531.231 108.47 529.599 109.016 527.739 109.926L527.2 110.066C521.651 108.325 521.051 103.263 526.084 100.232Z" fill="#FE7C03"/>
<path d="M557.383 432.335C563.98 433.399 564.2 438.653 558.507 442.137C558.04 442.145 557.573 442.11 557.114 442.027C555.808 441.806 554.662 441.031 553.967 439.899C551.879 436.556 554.415 433.756 557.383 432.335Z" fill="#FE7C03"/>
<path d="M559.164 86.2155C565.043 85.6111 567.009 91.6418 561.467 95.3222C556.066 95.7055 552.806 89.2368 559.164 86.2155Z" fill="#FE7C03"/>
<path d="M624.4 66.8145C630.564 66.8126 632.849 74.1343 626.351 75.4922L622.571 75.0898C619.887 70.8691 620.229 69.7445 624.4 66.8145Z" fill="#FE7C03"/>
<path d="M547.275 106.22C549.655 105.614 552.077 107.062 552.673 109.449C553.265 111.836 551.811 114.253 549.424 114.839C547.051 115.421 544.653 113.973 544.06 111.6C543.468 109.227 544.907 106.822 547.275 106.22Z" fill="#FE7C03"/>
<path d="M495.308 378.724C500.266 378.436 504.331 383.464 497.954 386.613C492.537 387.377 490.382 381.94 495.308 378.724Z" fill="#FE7C03"/>
<path d="M578.544 421.602C580.632 420.678 583.073 421.632 583.983 423.725C584.898 425.823 583.93 428.262 581.835 429.162C579.751 430.055 577.337 429.098 576.434 427.019C575.527 424.941 576.472 422.521 578.544 421.602Z" fill="#FE7C03"/>
<path d="M540.75 417.145C546.167 418.756 547.64 423.205 541.373 425.169C535.307 424.36 536.063 420.021 540.75 417.145Z" fill="#FE7C03"/>
<path d="M606.408 88.2979C607.672 87.6816 609.176 87.8184 610.31 88.6531C611.442 89.4878 612.018 90.8826 611.806 92.275C611.597 93.6671 610.629 94.8267 609.301 95.286C607.407 95.9395 605.334 95.0052 604.568 93.1542C603.801 91.3028 604.609 89.1751 606.408 88.2979Z" fill="#FE7C03"/>
<path d="M527.507 403.034C532.81 403.342 535.664 407.688 529.31 410.234C524.516 410.435 523.157 405.899 527.507 403.034Z" fill="#FE7C03"/>
<path d="M645.713 90.3141C647.975 90.178 650.294 91.9292 650.181 94.2532C650.078 96.3539 649.235 96.825 647.858 98.1646C644.764 99.162 642.627 95.7076 643.318 92.9876C643.679 91.5553 644.59 91.1309 645.713 90.3141Z" fill="#FE7C03"/>
<path d="M566.891 115.574C568.163 115.12 569.579 115.393 570.592 116.286C571.606 117.179 572.054 118.552 571.761 119.871C571.473 121.191 570.49 122.248 569.199 122.634C567.271 123.209 565.237 122.142 564.61 120.228C563.984 118.314 564.997 116.25 566.891 115.574Z" fill="#FE7C03"/>
<path d="M577.971 97.3197C583.596 97.0344 586.041 100.183 581.232 104.07C576.096 104.378 573.822 99.9037 577.971 97.3197Z" fill="#FE7C03"/>
<path d="M596.004 110.164C600.574 110.099 603.638 113.978 599.087 116.354C594.63 117.471 592.095 113.714 596.004 110.164Z" fill="#FE7C03"/>
<path d="M599.261 407.818C600.294 407.206 601.573 407.194 602.613 407.795C603.649 408.395 604.283 409.512 604.264 410.713C604.245 411.913 603.581 413.007 602.522 413.577C600.939 414.428 598.965 413.859 598.081 412.293C597.192 410.728 597.72 408.741 599.261 407.818Z" fill="#FE7C03"/>
<path d="M518.937 295.017C521.472 294.742 530.935 294.227 532.859 295.691L532.81 296.362L531.884 296.942C529.246 297.062 519.081 297.737 517.449 295.891C517.912 295.118 517.787 295.362 518.937 295.017Z" fill="#FE7C03" fill-opacity="0.988235"/>
<path d="M517.623 384.851C522.448 384.763 524.125 387.434 520.212 390.781C516.982 391.412 513.824 387.882 517.623 384.851Z" fill="#FE7C03"/>
<path d="M559.945 410.979C564.648 410.758 565.134 413.433 563.175 416.962C559.065 416.769 556.465 414.516 559.945 410.979Z" fill="#FE7C03"/>
<path d="M585.657 127.207C590.155 127.871 590.041 130.599 587.624 133.579C585.039 133.589 583.126 131.994 583.532 129.249C583.687 128.213 584.83 127.74 585.657 127.207Z" fill="#FE7C03"/>
<path d="M635.37 121.542C637.803 121.528 639.294 122.432 639.822 124.793C639.203 126.374 639.397 125.906 637.909 127.037C635.423 126.946 633.472 127.072 633.297 124.077C633.813 122.623 634.182 122.437 635.37 121.542Z" fill="#FE7C03"/>
<path d="M662.85 115.416C664.376 115.412 665.113 115.621 666.21 116.6C667.352 119.167 666.358 119.927 664.065 120.868C660.66 121.074 658.58 117.692 662.85 115.416Z" fill="#FE7C03"/>
<path d="M647.482 141.289C649.706 141.366 651.319 142.098 651.858 144.339C651.577 145.554 651.091 145.805 650.142 146.642C645.997 147.151 643.667 144.194 647.482 141.289Z" fill="#FE7C03"/>
<path d="M616.972 390.929C619.299 390.804 621.143 390.789 621.808 393.38C621.629 394.619 621.071 394.957 620.156 395.785C618.79 396.135 618.513 396.249 617.154 395.777C615.256 394.075 615.799 392.916 616.972 390.929Z" fill="#FE7C03"/>
<path d="M621.967 105.523C624.18 105.807 625.706 105.782 626.731 107.858C626.677 109.112 626.347 109.46 625.656 110.495C623.394 110.584 622.191 110.526 621.06 108.49C620.935 107.072 621.257 106.712 621.967 105.523Z" fill="#FE7C03"/>
<path d="M612.129 127.842C612.994 127.474 613.992 127.611 614.729 128.199C615.465 128.786 615.818 129.729 615.651 130.656C615.488 131.583 614.827 132.344 613.935 132.64C612.63 133.072 611.214 132.397 610.732 131.109C610.246 129.821 610.865 128.379 612.129 127.842Z" fill="#FE7C03"/>
<path d="M540.246 386.374C542.155 386.188 544.235 386.002 545.009 388.05C544.865 389.254 544.322 389.604 543.457 390.497C542.846 390.819 542.626 390.743 541.897 390.8C539.616 389.786 539.471 388.608 540.246 386.374Z" fill="#FE7C03"/>
<path d="M663.853 181.546C664.631 181.139 665.568 181.19 666.297 181.677C667.03 182.165 667.436 183.012 667.36 183.887C667.284 184.762 666.737 185.527 665.936 185.882C664.748 186.407 663.359 185.895 662.797 184.724C662.236 183.553 662.703 182.146 663.853 181.546Z" fill="#FE7C03"/>
<path d="M685.401 165.168C687.336 165.334 688.411 165.74 688.707 167.676C687.963 169.105 688.183 168.689 686.737 169.65C684.702 170.011 683.848 169.554 683.537 167.582C683.806 166.268 684.368 165.984 685.401 165.168Z" fill="#FE7C03"/>
<path d="M676.245 139.968C677.673 140.507 678.777 141.076 679.385 142.469C678.944 143.827 678.842 143.584 677.582 144.64C674.029 144.868 673.725 142.294 676.245 139.968Z" fill="#FE7C03"/>
<path d="M548.376 401.173C550.202 401.45 551.109 401.325 551.682 403.205C551.31 404.569 550.775 404.877 549.72 405.77C548.008 405.641 547.378 404.858 546.892 403.369C547.23 401.879 547.093 402.339 548.376 401.173Z" fill="#FE7C03"/>
<path d="M600.798 141.264C602.567 141.585 603.232 141.488 603.763 143.348C603.516 144.63 603.03 145.066 602.214 146.049C600.981 145.524 599.664 144.841 599.254 143.491C599.626 142.029 599.554 142.431 600.798 141.264Z" fill="#FE7C03"/>
<path d="M656.288 160.892C657.742 161.126 659.222 161.521 660.019 162.833C659.954 164.076 660.034 163.64 658.96 164.78C657.134 164.99 656.535 164.994 655.441 163.595C655.407 161.944 655.392 162.454 656.288 160.892Z" fill="#FE7C03"/>
<path d="M579.512 401.404C581.095 401.685 581.949 401.67 582.579 403.27C581.972 404.816 582.032 404.429 580.518 405.557L579.611 405.599C578.578 404.949 578.89 405.318 578.411 404.223C578.616 402.301 578.411 402.985 579.512 401.404Z" fill="#FE7C03"/>
<path d="M691.075 192.458C692.635 192.522 693.55 192.589 694.537 193.771C694.302 195.051 694.135 194.87 693.06 195.893C691.557 196.36 691.223 196.251 690.297 195.133C690.214 193.381 690.054 194.087 691.075 192.458Z" fill="#FE7C03"/>
<path d="M565.829 383.129C567.309 383.27 567.893 383.502 568.717 384.661C568.539 386.203 568.63 385.717 567.427 387.028C565.893 386.879 565.582 386.636 564.728 385.626C564.789 384.087 564.77 384.539 565.829 383.129Z" fill="#FE7C03"/>
<path d="M566.671 396.872C568.007 397.267 568.926 397.404 569.939 398.35C570.038 399.645 570.049 399.193 569.002 400.53C567.67 400.458 567.001 400.352 566.109 399.334C565.935 397.814 565.863 398.437 566.671 396.872Z" fill="#FE7C03"/>
<path d="M694.89 218.29C695.831 217.948 696.871 218.44 697.201 219.384C697.535 220.329 697.034 221.363 696.086 221.687C695.152 222.006 694.138 221.513 693.808 220.581C693.482 219.65 693.964 218.628 694.89 218.29Z" fill="#FE7C03"/>
<path d="M671.983 216.955C672.92 216.782 673.828 217.378 674.044 218.308C674.257 219.237 673.706 220.172 672.788 220.429C672.154 220.607 671.478 220.422 671.023 219.948C670.567 219.475 670.408 218.79 670.609 218.164C670.81 217.539 671.338 217.074 671.983 216.955Z" fill="#FE7C03"/>
<path d="M624.058 145.832C624.298 145.862 624.533 145.895 624.768 145.93C626.362 146.164 626.829 146.125 627.638 147.214L627.296 148.424C625.971 148.625 625.288 148.743 624.176 148.027C623.66 146.737 623.724 147.305 624.058 145.832Z" fill="#FE7C03"/>
<path d="M634.554 164.651C634.983 164.308 635.56 164.222 636.068 164.426C636.577 164.63 636.937 165.092 637.009 165.635C637.082 166.178 636.854 166.719 636.417 167.048C635.757 167.547 634.816 167.422 634.307 166.767C633.798 166.113 633.908 165.17 634.554 164.651Z" fill="#FE7C03"/>
<path d="M641.314 180.235C642.115 180.033 642.927 180.51 643.143 181.308C643.356 182.105 642.893 182.927 642.099 183.153C641.576 183.303 641.01 183.158 640.623 182.775C640.236 182.392 640.084 181.83 640.228 181.303C640.372 180.777 640.786 180.369 641.314 180.235Z" fill="#FE7C03"/>
</svg>
