<svg width="65" height="92" viewBox="0 0 65 92" fill="none" xmlns="http://www.w3.org/2000/svg">
<g clip-path="url(#clip0_1_292)">
<path d="M27.6386 1.73176C27.6386 2.69235 26.8667 3.47029 25.9188 3.47029C24.9708 3.47029 24.199 2.69235 24.199 1.73176C24.199 0.771176 24.9708 0 25.9188 0C26.8667 0 27.6386 0.771176 27.6386 1.73176Z" fill="white"/>
<path d="M11.9235 13.6038C11.9235 14.4968 11.2058 15.2206 10.3188 15.2206C9.43182 15.2206 8.71411 14.4968 8.71411 13.6038C8.71411 12.7109 9.43182 11.9871 10.3188 11.9871C11.2058 11.9871 11.9235 12.7176 11.9235 13.6038Z" fill="white"/>
<path d="M16.3991 11.243C16.3991 12.1359 15.6814 12.8598 14.7944 12.8598C13.9074 12.8598 13.1897 12.1359 13.1897 11.243C13.1897 10.35 13.9074 9.62622 14.7944 9.62622C15.6814 9.62622 16.3991 10.35 16.3991 11.243Z" fill="white"/>
<path d="M20.8678 8.87531C20.8678 9.76825 20.1501 10.4988 19.2631 10.4988C18.3762 10.4988 17.6584 9.77502 17.6584 8.87531C17.6584 7.9756 18.3762 7.25854 19.2631 7.25854C20.1501 7.25854 20.8678 7.98237 20.8678 8.87531Z" fill="white"/>
<path d="M25.7223 6.74444C25.7223 7.5765 25.0588 8.2462 24.2327 8.2462C23.4067 8.2462 22.7432 7.5765 22.7432 6.74444C22.7432 5.91238 23.4067 5.24268 24.2327 5.24268C25.0588 5.24268 25.7223 5.91915 25.7223 6.74444Z" fill="white"/>
<path d="M24.2802 10.9993C24.2802 11.7028 23.7182 12.2711 23.0209 12.2711C22.3235 12.2711 21.7615 11.7028 21.7615 10.9993C21.7615 10.2958 22.3235 9.72754 23.0209 9.72754C23.7182 9.72754 24.2802 10.2958 24.2802 10.9993Z" fill="white"/>
<path d="M23.1089 15.0515C23.1089 15.6265 22.6485 16.0933 22.0797 16.0933C21.511 16.0933 21.0505 15.6333 21.0505 15.0515C21.0505 14.4698 21.511 14.0098 22.0797 14.0098C22.6485 14.0098 23.1089 14.4765 23.1089 15.0515Z" fill="white"/>
<path d="M22.4658 18.231C22.4658 18.6774 22.1069 19.036 21.66 19.036C21.2132 19.036 20.8611 18.6774 20.8611 18.231C20.8611 17.7845 21.2199 17.4192 21.66 17.4192C22.1001 17.4192 22.4658 17.7845 22.4658 18.231Z" fill="white"/>
<path d="M21.9714 21.1804C21.9714 21.4983 21.7141 21.7622 21.3958 21.7622C21.0776 21.7622 20.8203 21.5051 20.8203 21.1804C20.8203 20.8557 21.0776 20.5986 21.3958 20.5986C21.7141 20.5986 21.9714 20.8557 21.9714 21.1804Z" fill="white"/>
<path d="M11.9303 18.2105C11.9303 19.0426 11.2668 19.7123 10.4408 19.7123C9.61471 19.7123 8.95117 19.0358 8.95117 18.2105C8.95117 17.3852 9.61471 16.7087 10.4408 16.7087C11.2668 16.7087 11.9303 17.3784 11.9303 18.2105Z" fill="white"/>
<path d="M15.8844 15.4438C15.8844 16.2759 15.2209 16.9456 14.3949 16.9456C13.5688 16.9456 12.9053 16.2759 12.9053 15.4438C12.9053 14.6118 13.5688 13.9353 14.3949 13.9353C15.2209 13.9353 15.8844 14.6118 15.8844 15.4438Z" fill="white"/>
<path d="M15.7016 19.1441C15.7016 19.9153 15.0854 20.5309 14.3271 20.5309C13.5688 20.5309 12.9526 19.9085 12.9526 19.1441C12.9526 18.3797 13.5688 17.7573 14.3271 17.7573C15.0854 17.7573 15.7016 18.3797 15.7016 19.1441Z" fill="white"/>
<path d="M19.622 16.7427C19.622 17.5071 19.0059 18.1295 18.2475 18.1295C17.4892 18.1295 16.873 17.5071 16.873 16.7427C16.873 15.9783 17.4892 15.356 18.2475 15.356C19.0059 15.356 19.622 15.9783 19.622 16.7427Z" fill="white"/>
<path d="M16.0266 22.4048C16.0266 23.1084 15.4578 23.6766 14.7672 23.6766C14.0766 23.6766 13.5078 23.1016 13.5078 22.4048C13.5078 21.7081 14.0698 21.1331 14.7672 21.1331C15.4646 21.1331 16.0266 21.7013 16.0266 22.4048Z" fill="white"/>
<path d="M19.2968 20.1319C19.2968 20.8354 18.7348 21.4036 18.0375 21.4036C17.3401 21.4036 16.7781 20.8354 16.7781 20.1319C16.7781 19.4283 17.3401 18.8601 18.0375 18.8601C18.7348 18.8601 19.2968 19.4283 19.2968 20.1319Z" fill="white"/>
<path d="M16.7375 25.4759C16.7375 26.1185 16.2229 26.6326 15.5864 26.6326C14.95 26.6326 14.4421 26.1185 14.4421 25.4759C14.4421 24.8332 14.9567 24.3191 15.5864 24.3191C16.2161 24.3191 16.7375 24.84 16.7375 25.4759Z" fill="white"/>
<path d="M19.3578 23.0813C19.3578 23.7239 18.85 24.238 18.2135 24.238C17.5771 24.238 17.0625 23.7239 17.0625 23.0813C17.0625 22.4386 17.5771 21.9177 18.2135 21.9177C18.85 21.9177 19.3578 22.4386 19.3578 23.0813Z" fill="white"/>
<path d="M18.1731 28.0262C18.1731 28.608 17.7127 29.068 17.1439 29.068C16.5752 29.068 16.1147 28.6012 16.1147 28.0262C16.1147 27.4512 16.5752 26.9912 17.1439 26.9912C17.7127 26.9912 18.1731 27.4512 18.1731 28.0262Z" fill="white"/>
<path d="M20.062 25.5637C20.062 26.1387 19.6016 26.5987 19.0328 26.5987C18.4641 26.5987 18.0037 26.1387 18.0037 25.5637C18.0037 24.9887 18.4641 24.522 19.0328 24.522C19.6016 24.522 20.062 24.9887 20.062 25.5637Z" fill="white"/>
<path d="M19.8251 29.9946C19.8251 30.5088 19.4121 30.9214 18.9043 30.9214C18.3965 30.9214 17.9902 30.5088 17.9902 29.9946C17.9902 29.4805 18.4033 29.0679 18.9043 29.0679C19.4053 29.0679 19.8251 29.4805 19.8251 29.9946Z" fill="white"/>
<path d="M21.0708 27.6475C21.0708 28.1548 20.6646 28.5742 20.1567 28.5742C19.6489 28.5742 19.2427 28.1548 19.2427 27.6475C19.2427 27.1401 19.6557 26.7207 20.1567 26.7207C20.6578 26.7207 21.0708 27.1333 21.0708 27.6475Z" fill="white"/>
<path d="M21.2809 31.7063C21.2809 32.146 20.922 32.5113 20.4752 32.5113C20.0283 32.5113 19.6694 32.146 19.6694 31.7063C19.6694 31.2666 20.0283 30.8945 20.4752 30.8945C20.922 30.8945 21.2809 31.2598 21.2809 31.7063Z" fill="white"/>
<path d="M22.1611 29.5008C22.1611 29.9473 21.8022 30.3058 21.3621 30.3058C20.922 30.3058 20.5564 29.9473 20.5564 29.5008C20.5564 29.0543 20.9152 28.6958 21.3621 28.6958C21.809 28.6958 22.1611 29.0543 22.1611 29.5008Z" fill="white"/>
<path d="M22.6418 33.1201C22.6418 33.5057 22.3371 33.8101 21.9512 33.8101C21.5652 33.8101 21.2673 33.4989 21.2673 33.1201C21.2673 32.7413 21.5788 32.4233 21.9512 32.4233C22.3236 32.4233 22.6418 32.7345 22.6418 33.1201Z" fill="white"/>
<path d="M23.2307 31.0364C23.2307 31.422 22.926 31.7264 22.5468 31.7264C22.1677 31.7264 21.8562 31.4152 21.8562 31.0364C21.8562 30.6575 22.1677 30.3396 22.5468 30.3396C22.926 30.3396 23.2307 30.6508 23.2307 31.0364Z" fill="white"/>
<path d="M23.9147 34.2972C23.9147 34.6151 23.6574 34.8722 23.3392 34.8722C23.021 34.8722 22.7637 34.6151 22.7637 34.2972C22.7637 33.9792 23.021 33.7222 23.3392 33.7222C23.6574 33.7222 23.9147 33.9792 23.9147 34.2972Z" fill="white"/>
<path d="M24.26 32.3082C24.26 32.6261 24.0095 32.8899 23.6845 32.8899C23.3595 32.8899 23.1157 32.6261 23.1157 32.3082C23.1157 31.9902 23.373 31.7332 23.6845 31.7332C23.9959 31.7332 24.26 31.9902 24.26 32.3082Z" fill="white"/>
<path d="M25.0385 35.2846C25.0385 35.5349 24.8354 35.7446 24.5781 35.7446C24.3208 35.7446 24.1177 35.5349 24.1177 35.2846C24.1177 35.0343 24.3208 34.8179 24.5781 34.8179C24.8354 34.8179 25.0385 35.0276 25.0385 35.2846Z" fill="white"/>
<path d="M25.2756 33.323C25.2756 33.5801 25.0725 33.7898 24.8152 33.7898C24.5579 33.7898 24.3616 33.5801 24.3616 33.323C24.3616 33.066 24.5715 32.863 24.8152 32.863C25.059 32.863 25.2756 33.066 25.2756 33.323Z" fill="white"/>
<path d="M20.0215 13.0559C20.0215 13.8812 19.3579 14.5577 18.5387 14.5577C17.7194 14.5577 17.0491 13.888 17.0491 13.0559C17.0491 12.2238 17.7126 11.5474 18.5387 11.5474C19.3647 11.5474 20.0215 12.2171 20.0215 13.0559Z" fill="white"/>
<path d="M12.0656 22.2154C12.0656 22.9798 11.4495 23.6021 10.6911 23.6021C9.9328 23.6021 9.31665 22.9798 9.31665 22.2154C9.31665 21.451 9.9328 20.8286 10.6911 20.8286C11.4495 20.8286 12.0656 21.451 12.0656 22.2154Z" fill="white"/>
<path d="M12.5463 25.7871C12.5463 26.4907 11.9844 27.0589 11.287 27.0589C10.5896 27.0589 10.0276 26.4907 10.0276 25.7871C10.0276 25.0836 10.5896 24.5154 11.287 24.5154C11.9844 24.5154 12.5463 25.0836 12.5463 25.7871Z" fill="white"/>
<path d="M13.447 29.0408C13.447 29.6834 12.9324 30.1976 12.3027 30.1976C11.673 30.1976 11.1584 29.6834 11.1584 29.0408C11.1584 28.3982 11.673 27.884 12.3027 27.884C12.9324 27.884 13.447 28.4049 13.447 29.0408Z" fill="white"/>
<path d="M15.0448 31.7332C15.0448 32.3082 14.5844 32.7749 14.0089 32.7749C13.4334 32.7749 12.9797 32.3082 12.9797 31.7332C12.9797 31.1582 13.4402 30.6914 14.0089 30.6914C14.5777 30.6914 15.0448 31.1582 15.0448 31.7332Z" fill="white"/>
<path d="M16.9067 33.9316C16.9067 34.439 16.5005 34.8516 15.9927 34.8516C15.4849 34.8516 15.0786 34.439 15.0786 33.9316C15.0786 33.4243 15.4916 33.0049 15.9927 33.0049C16.4937 33.0049 16.9067 33.4243 16.9067 33.9316Z" fill="white"/>
<path d="M17.4824 30.8673C17.4824 31.3814 17.0694 31.794 16.5684 31.794C16.0673 31.794 15.6543 31.3814 15.6543 30.8673C15.6543 30.3531 16.0673 29.9473 16.5684 29.9473C17.0694 29.9473 17.4824 30.3599 17.4824 30.8673Z" fill="white"/>
<path d="M18.9042 35.562C18.9042 36.0085 18.5453 36.3738 18.0985 36.3738C17.6516 36.3738 17.2927 36.0085 17.2927 35.562C17.2927 35.1155 17.6516 34.7502 18.0985 34.7502C18.5453 34.7502 18.9042 35.1155 18.9042 35.562Z" fill="white"/>
<path d="M19.2021 32.8157C19.2021 33.2689 18.8432 33.6274 18.4031 33.6274C17.963 33.6274 17.5974 33.2689 17.5974 32.8157C17.5974 32.3624 17.9563 32.0039 18.4031 32.0039C18.85 32.0039 19.2021 32.3624 19.2021 32.8157Z" fill="white"/>
<path d="M20.7256 36.7864C20.7256 37.172 20.4209 37.4832 20.0417 37.4832C19.6625 37.4832 19.3511 37.172 19.3511 36.7864C19.3511 36.4008 19.6558 36.0964 20.0417 36.0964C20.4276 36.0964 20.7256 36.4008 20.7256 36.7864Z" fill="white"/>
<path d="M20.8069 34.3443C20.8069 34.7231 20.5022 35.0343 20.1162 35.0343C19.7303 35.0343 19.4324 34.7231 19.4324 34.3443C19.4324 33.9655 19.7371 33.6543 20.1162 33.6543C20.4954 33.6543 20.8069 33.9655 20.8069 34.3443Z" fill="white"/>
<path d="M22.3642 37.9907C22.3642 38.3086 22.1069 38.5725 21.7887 38.5725C21.4704 38.5725 21.2131 38.3086 21.2131 37.9907C21.2131 37.6728 21.4704 37.4089 21.7887 37.4089C22.1069 37.4089 22.3642 37.666 22.3642 37.9907Z" fill="white"/>
<path d="M22.2693 35.6163C22.2693 35.9342 22.012 36.198 21.7005 36.198C21.3891 36.198 21.125 35.9342 21.125 35.6163C21.125 35.2983 21.3823 35.0413 21.7005 35.0413C22.0187 35.0413 22.2693 35.2983 22.2693 35.6163Z" fill="white"/>
<path d="M23.7859 38.9106C23.7859 39.1609 23.5828 39.3706 23.3322 39.3706C23.0817 39.3706 22.8718 39.1609 22.8718 38.9106C22.8718 38.6603 23.0817 38.4438 23.3322 38.4438C23.5828 38.4438 23.7859 38.6536 23.7859 38.9106Z" fill="white"/>
<path d="M23.7116 36.6175C23.7116 36.8745 23.5085 37.0842 23.2512 37.0842C22.9939 37.0842 22.7908 36.8813 22.7908 36.6175C22.7908 36.3536 22.9939 36.1575 23.2512 36.1575C23.5085 36.1575 23.7116 36.3672 23.7116 36.6175Z" fill="white"/>
<path d="M22.3776 3.99805C22.3776 4.95187 21.6057 5.73658 20.6578 5.73658C19.7099 5.73658 18.938 4.95864 18.938 3.99805C18.938 3.03746 19.7099 2.25952 20.6578 2.25952C21.6057 2.25952 22.3776 3.04423 22.3776 3.99805Z" fill="white"/>
<path d="M17.1168 6.25733C17.1168 7.21792 16.345 7.98909 15.397 7.98909C14.4491 7.98909 13.6772 7.21115 13.6772 6.25733C13.6772 5.3035 14.4491 4.5188 15.397 4.5188C16.345 4.5188 17.1168 5.29674 17.1168 6.25733Z" fill="white"/>
<path d="M11.8558 8.52344C11.8558 9.47727 11.084 10.2552 10.1361 10.2552C9.18813 10.2552 8.41626 9.47727 8.41626 8.52344C8.41626 7.56962 9.18813 6.78491 10.1361 6.78491C11.084 6.78491 11.8558 7.56285 11.8558 8.52344Z" fill="white"/>
<path d="M24.9844 39.7156C24.9844 39.905 24.8287 40.0606 24.6459 40.0606C24.463 40.0606 24.3005 39.905 24.3005 39.7156C24.3005 39.5262 24.4563 39.3706 24.6459 39.3706C24.8354 39.3706 24.9844 39.5194 24.9844 39.7156Z" fill="white"/>
<path d="M25.0996 37.4155C25.0996 37.6049 24.9507 37.7605 24.7543 37.7605C24.558 37.7605 24.4158 37.6049 24.4158 37.4155C24.4158 37.2261 24.5715 37.0637 24.7543 37.0637C24.9371 37.0637 25.0996 37.2193 25.0996 37.4155Z" fill="white"/>
<path d="M58.5136 17.4936C57.6199 17.8116 56.6313 17.338 56.3199 16.4383C56.0017 15.5319 56.4688 14.5442 57.3626 14.2195C58.2563 13.9016 59.2449 14.3751 59.5563 15.2816C59.8746 16.1813 59.4074 17.1757 58.5069 17.4936" fill="white"/>
<path d="M42.1822 6.50086C41.3494 6.79851 40.4286 6.3588 40.1374 5.51998C39.8395 4.67439 40.2796 3.75439 41.1124 3.44998C41.9453 3.15233 42.8661 3.59204 43.1572 4.43762C43.4552 5.28321 43.0151 6.20321 42.1822 6.50086Z" fill="white"/>
<path d="M45.8861 9.97125C45.0465 10.2689 44.1324 9.82919 43.8413 8.9836C43.5434 8.13801 43.9767 7.21801 44.8163 6.9136C45.6559 6.61595 46.5699 7.05566 46.8679 7.90125C47.1658 8.74007 46.7257 9.6736 45.8929 9.97125" fill="white"/>
<path d="M49.5897 13.4348C48.7569 13.7324 47.8361 13.2927 47.5449 12.4471C47.247 11.6015 47.6871 10.6815 48.5199 10.3839C49.3595 10.0862 50.2736 10.5259 50.5647 11.3648C50.8626 12.2103 50.4225 13.1304 49.5897 13.4348Z" fill="white"/>
<path d="M53.1985 17.3515C52.4198 17.622 51.5735 17.2162 51.3027 16.4247C51.025 15.6468 51.4313 14.7809 52.2099 14.5103C52.9886 14.2329 53.8349 14.6456 54.1126 15.4235C54.3902 16.2082 53.9839 17.0673 53.2053 17.3515" fill="white"/>
<path d="M48.7434 17.3921C48.0866 17.6289 47.3689 17.2771 47.1319 16.6142C46.9017 15.958 47.2403 15.2274 47.897 14.9907C48.5538 14.7539 49.2783 15.0989 49.5085 15.7619C49.7387 16.4248 49.4002 17.1486 48.7366 17.3854" fill="white"/>
<path d="M44.5658 17.6288C44.0309 17.8249 43.435 17.5408 43.2522 16.9929C43.0626 16.4449 43.3402 15.8564 43.8751 15.6602C44.4168 15.4708 45.0059 15.7482 45.1954 16.2961C45.385 16.8441 45.1074 17.4393 44.5658 17.6288Z" fill="white"/>
<path d="M41.3902 18.0752C40.9704 18.2241 40.51 18.0076 40.3678 17.5814C40.2188 17.162 40.4423 16.702 40.8553 16.5464C41.2751 16.3976 41.7355 16.6208 41.8777 17.0402C42.0267 17.4664 41.81 17.9332 41.3902 18.0752Z" fill="white"/>
<path d="M38.4651 18.5894C38.1672 18.6908 37.8422 18.5353 37.7339 18.2376C37.6323 17.9332 37.7813 17.6085 38.086 17.5003C38.3839 17.392 38.7156 17.5476 38.8172 17.8453C38.9188 18.1497 38.7698 18.4811 38.4651 18.5894Z" fill="white"/>
<path d="M37.8828 8.04319C37.1041 8.32054 36.2578 7.91466 35.9802 7.12995C35.7025 6.35201 36.1156 5.48613 36.8874 5.21554C37.6661 4.93819 38.5124 5.35084 38.7901 6.13554C39.0609 6.91348 38.6614 7.77937 37.8828 8.04995" fill="white"/>
<path d="M41.783 10.8844C41.0043 11.1618 40.158 10.7491 39.8871 9.96444C39.6095 9.17974 40.0158 8.32062 40.7944 8.04327C41.5731 7.77268 42.4194 8.17856 42.697 8.9565C42.9679 9.74121 42.5684 10.6003 41.7897 10.8777" fill="white"/>
<path d="M38.2687 11.9465C37.5578 12.2036 36.7723 11.8247 36.5151 11.1009C36.2578 10.3771 36.6369 9.58563 37.3479 9.32857C38.0656 9.07151 38.851 9.45034 39.1083 10.1742C39.3588 10.898 38.9864 11.6895 38.2687 11.9465Z" fill="white"/>
<path d="M41.8236 14.8755C41.1126 15.1325 40.3272 14.7537 40.0699 14.0299C39.8126 13.3061 40.1918 12.5146 40.9095 12.2575C41.6272 12.0005 42.4126 12.3861 42.6631 13.1031C42.9204 13.827 42.5413 14.6117 41.8236 14.8687" fill="white"/>
<path d="M35.3371 13.3468C34.6803 13.5836 33.9558 13.2386 33.7256 12.5689C33.4954 11.9059 33.8339 11.1821 34.4975 10.9521C35.1543 10.7086 35.872 11.0603 36.1089 11.7233C36.3392 12.3862 35.9938 13.11 35.3438 13.3468" fill="white"/>
<path d="M38.5532 15.6874C37.8964 15.9242 37.1787 15.5792 36.9417 14.9162C36.7115 14.2533 37.0501 13.5295 37.7068 13.2927C38.3636 13.0627 39.0813 13.4077 39.3183 14.0639C39.5485 14.7336 39.21 15.4574 38.5532 15.6874Z" fill="white"/>
<path d="M32.7032 15.0448C32.1074 15.2545 31.4574 14.9434 31.2407 14.3413C31.0309 13.7392 31.3423 13.0763 31.9381 12.8666C32.534 12.6501 33.1908 12.9681 33.4006 13.5701C33.6105 14.1722 33.2991 14.8351 32.7032 15.0448Z" fill="white"/>
<path d="M35.8178 16.7427C35.2219 16.9524 34.5651 16.6413 34.3553 16.0392C34.1454 15.4371 34.4568 14.7742 35.0526 14.5577C35.6485 14.348 36.3053 14.666 36.5151 15.268C36.725 15.8701 36.4136 16.533 35.8178 16.7427Z" fill="white"/>
<path d="M30.8005 17.2568C30.2656 17.4597 29.6765 17.1688 29.4802 16.6276C29.2906 16.0797 29.575 15.4912 30.1099 15.295C30.6515 15.1056 31.2406 15.3829 31.4302 15.9309C31.6198 16.4721 31.3354 17.0673 30.8005 17.2568Z" fill="white"/>
<path d="M33.7324 18.2309C33.1975 18.4271 32.6085 18.1362 32.4189 17.595C32.2225 17.0538 32.5069 16.4585 33.0486 16.2691C33.5902 16.0729 34.1725 16.3571 34.3621 16.905C34.5517 17.4462 34.2741 18.0415 33.7324 18.2309Z" fill="white"/>
<path d="M29.514 19.489C29.0401 19.6581 28.5187 19.4078 28.3427 18.9276C28.1802 18.4473 28.4239 17.9196 28.9047 17.7437C29.3854 17.5746 29.9067 17.8249 30.076 18.3052C30.2453 18.7923 29.9948 19.3199 29.514 19.489Z" fill="white"/>
<path d="M32.1276 19.8949C31.6469 20.0573 31.1255 19.8137 30.9562 19.3267C30.787 18.8396 31.0375 18.3187 31.5115 18.1429C31.9854 17.9737 32.5135 18.2308 32.6828 18.7111C32.8521 19.1914 32.6016 19.7258 32.1276 19.8949Z" fill="white"/>
<path d="M28.4036 21.4442C27.9838 21.593 27.5302 21.3765 27.3812 20.9504C27.2323 20.531 27.4557 20.0642 27.8687 19.9221C28.2885 19.7665 28.7422 19.9898 28.8911 20.416C29.0401 20.8421 28.8166 21.2954 28.4036 21.451" fill="white"/>
<path d="M30.7532 21.5523C30.3402 21.7011 29.8798 21.4779 29.7308 21.0584C29.5819 20.639 29.8053 20.1723 30.2183 20.0234C30.6381 19.8746 31.0918 20.0911 31.2407 20.5173C31.3897 20.9434 31.1663 21.4034 30.7465 21.5523" fill="white"/>
<path d="M27.537 23.2098C27.1781 23.3384 26.7854 23.1489 26.6568 22.7836C26.5281 22.4251 26.7177 22.026 27.0766 21.8975C27.4354 21.7689 27.8281 21.9584 27.9568 22.3169C28.0854 22.6822 27.8958 23.0745 27.537 23.2031" fill="white"/>
<path d="M29.6833 23.0812C29.3244 23.2097 28.9317 23.0203 28.8099 22.655C28.6812 22.2965 28.8708 21.8973 29.2297 21.7688C29.5885 21.6403 29.9812 21.8297 30.1099 22.1882C30.2385 22.5535 30.0489 22.9526 29.6901 23.0812" fill="white"/>
<path d="M26.8599 24.8197C26.562 24.9279 26.2302 24.7656 26.1286 24.4679C26.0203 24.1635 26.176 23.8321 26.4807 23.7238C26.7786 23.6156 27.1036 23.7779 27.212 24.0756C27.3203 24.3732 27.1578 24.7047 26.8599 24.8129" fill="white"/>
<path d="M28.8301 24.4814C28.5322 24.5897 28.2072 24.4273 28.0989 24.1297C27.9973 23.832 28.1531 23.5006 28.451 23.3923C28.7489 23.2908 29.0739 23.4464 29.1822 23.7441C29.2906 24.0417 29.1281 24.3732 28.8301 24.4814Z" fill="white"/>
<path d="M26.3183 26.22C26.0814 26.3079 25.8173 26.1794 25.7361 25.9359C25.648 25.6991 25.7767 25.4353 26.0137 25.3474C26.2506 25.2594 26.5147 25.3879 26.6027 25.6247C26.684 25.8682 26.5621 26.1321 26.3183 26.22Z" fill="white"/>
<path d="M28.2277 25.7871C27.9907 25.8683 27.7266 25.7465 27.6386 25.503C27.5573 25.2662 27.6792 24.9956 27.923 24.9144C28.1599 24.8333 28.424 24.955 28.5053 25.1986C28.5933 25.4421 28.4646 25.7059 28.2277 25.7871Z" fill="white"/>
<path d="M45.3984 14.0233C44.6198 14.2939 43.7734 13.888 43.5026 13.1033C43.225 12.3186 43.6312 11.4663 44.4099 11.1822C45.1885 10.9048 46.0417 11.3175 46.3125 12.0954C46.5833 12.8801 46.1839 13.7392 45.4052 14.0166" fill="white"/>
<path d="M34.1927 9.51128C33.475 9.76834 32.6896 9.39628 32.4391 8.66569C32.1886 7.94187 32.5609 7.1504 33.2787 6.9001C33.9964 6.64305 34.7818 7.02187 35.0323 7.74569C35.2896 8.46952 34.9104 9.26099 34.1927 9.51128Z" fill="white"/>
<path d="M31.0173 11.1619C30.3605 11.3919 29.6428 11.0469 29.4058 10.3907C29.1756 9.72775 29.5209 9.00393 30.1777 8.7604C30.8345 8.52363 31.5522 8.8754 31.7891 9.53834C32.0194 10.2013 31.674 10.9251 31.0173 11.1619Z" fill="white"/>
<path d="M28.275 13.1032C27.6724 13.3196 27.0224 13.0017 26.8125 12.3996C26.6026 11.7976 26.9141 11.1346 27.5099 10.9249C28.1058 10.7085 28.7625 11.0264 28.9724 11.6285C29.1891 12.2305 28.8776 12.8935 28.2818 13.1032" fill="white"/>
<path d="M26.2979 15.5182C25.763 15.7076 25.1739 15.4235 24.9843 14.8823C24.7948 14.3411 25.0791 13.7458 25.614 13.5497C26.1489 13.3602 26.738 13.6444 26.9276 14.1855C27.1172 14.7267 26.8328 15.322 26.2979 15.5114" fill="white"/>
<path d="M24.8626 18.0212C24.3887 18.1903 23.8606 17.94 23.6913 17.4597C23.522 16.9726 23.7725 16.445 24.2533 16.2759C24.7272 16.1068 25.2553 16.3503 25.4246 16.8441C25.5939 17.3244 25.3434 17.8521 24.8694 18.0212" fill="white"/>
<path d="M27.9162 17.5545C27.4354 17.7236 26.9141 17.4733 26.7448 16.9862C26.5755 16.5059 26.8261 15.9715 27.3 15.8092C27.774 15.64 28.3021 15.8903 28.4714 16.3706C28.6407 16.8577 28.3901 17.3786 27.9162 17.5545Z" fill="white"/>
<path d="M24.0095 20.47C23.5897 20.6188 23.1292 20.4023 22.9803 19.9762C22.8313 19.5568 23.0548 19.09 23.4746 18.9412C23.8944 18.7923 24.348 19.0088 24.497 19.435C24.6459 19.8612 24.4292 20.3144 24.0095 20.47Z" fill="white"/>
<path d="M26.6705 19.841C26.2507 19.9898 25.797 19.7666 25.6481 19.3539C25.4991 18.9277 25.7226 18.4677 26.1356 18.3189C26.5554 18.1701 27.009 18.3866 27.158 18.806C27.3069 19.2322 27.0903 19.6922 26.6705 19.841Z" fill="white"/>
<path d="M23.4745 22.6144C23.1156 22.7429 22.7229 22.5535 22.5943 22.195C22.4656 21.8297 22.6552 21.4373 23.0141 21.3088C23.3729 21.1803 23.7656 21.3697 23.8943 21.735C24.0229 22.1003 23.8333 22.4926 23.4745 22.6211" fill="white"/>
<path d="M25.7834 21.877C25.4245 21.9988 25.0318 21.8161 24.9031 21.4508C24.7813 21.0923 24.9641 20.6932 25.3229 20.5646C25.6818 20.4361 26.0745 20.6255 26.2031 20.9908C26.3318 21.3494 26.1422 21.7485 25.7834 21.877Z" fill="white"/>
<path d="M22.899 24.5761C22.6011 24.6843 22.2761 24.5219 22.1677 24.2175C22.0662 23.9131 22.2219 23.5884 22.5198 23.4802C22.8177 23.3719 23.1495 23.5275 23.2511 23.8319C23.3594 24.1296 23.2037 24.4678 22.899 24.5693" fill="white"/>
<path d="M25.0792 23.6899C24.7813 23.7981 24.4495 23.6425 24.3479 23.3381C24.2396 23.0337 24.3953 22.7022 24.6933 22.6008C24.9912 22.4925 25.3229 22.6481 25.4245 22.9525C25.5328 23.2502 25.3703 23.5817 25.0792 23.6899Z" fill="white"/>
<path d="M22.5131 26.2336C22.2761 26.3216 22.012 26.193 21.924 25.9495C21.8427 25.706 21.9646 25.4421 22.2084 25.361C22.4453 25.273 22.7094 25.4016 22.7974 25.6451C22.8854 25.8886 22.7568 26.1524 22.5198 26.2336" fill="white"/>
<path d="M24.6255 25.4016C24.3817 25.4895 24.1244 25.361 24.0432 25.1175C23.9552 24.8739 24.0838 24.6101 24.3208 24.5222C24.5578 24.441 24.8218 24.5695 24.9031 24.8063C24.9911 25.043 24.8625 25.3069 24.6255 25.3948" fill="white"/>
<path d="M54.6474 13.2386C53.7537 13.5566 52.7651 13.0898 52.4537 12.1833C52.1355 11.2769 52.6094 10.2892 53.4964 9.97128C54.3969 9.65334 55.3719 10.1201 55.6901 11.0266C56.0084 11.933 55.5412 12.9207 54.6474 13.2386Z" fill="white"/>
<path d="M50.7746 8.99027C49.8808 9.30821 48.899 8.84144 48.5808 7.93497C48.2626 7.0285 48.7366 6.04086 49.6303 5.71615C50.5241 5.39821 51.5126 5.86497 51.824 6.77144C52.1423 7.67791 51.6751 8.66556 50.7746 8.9835" fill="white"/>
<path d="M46.9083 4.74198C46.0146 5.05992 45.0328 4.58639 44.7146 3.68668C44.3964 2.78021 44.8636 1.7858 45.7641 1.46786C46.6578 1.14992 47.6396 1.61668 47.9578 2.52315C48.2761 3.42962 47.8089 4.41727 46.9151 4.74198" fill="white"/>
<path d="M22.1541 27.6473C21.9781 27.7082 21.7817 27.6135 21.714 27.4376C21.6531 27.2549 21.7479 27.0588 21.9239 26.9911C22.1 26.9302 22.3031 27.0249 22.364 27.2008C22.425 27.3767 22.3302 27.5797 22.1541 27.6473Z" fill="white"/>
<path d="M24.348 26.9913C24.172 27.0521 23.9756 26.9574 23.9079 26.7748C23.847 26.5921 23.9417 26.396 24.1178 26.3351C24.2938 26.2674 24.4902 26.3689 24.5579 26.5448C24.6188 26.7207 24.524 26.9236 24.3412 26.9913" fill="white"/>
<path d="M53.5911 52.2708C53.0021 51.5199 53.1239 50.4308 53.8619 49.8355C54.6 49.2402 55.6833 49.362 56.2791 50.1061C56.875 50.857 56.7531 51.9461 56.0083 52.5481C55.2635 53.1502 54.1869 53.0284 53.5911 52.2708Z" fill="white"/>
<path d="M58.5272 33.0998C57.972 32.3962 58.0871 31.3815 58.7778 30.8268C59.4684 30.2653 60.4772 30.3803 61.0325 31.0771C61.5809 31.7739 61.4726 32.7953 60.7819 33.3568C60.0913 33.9183 59.0757 33.8033 58.5272 33.0998Z" fill="white"/>
<path d="M56.496 37.7674C55.9408 37.0707 56.0559 36.0492 56.7465 35.4945C57.4439 34.933 58.4528 35.048 59.0012 35.7516C59.5564 36.4483 59.4413 37.4698 58.7507 38.0245C58.0533 38.586 57.0444 38.471 56.496 37.7742" fill="white"/>
<path d="M54.4647 42.4282C53.9095 41.7314 54.0246 40.7099 54.7153 40.1552C55.4059 39.5938 56.4147 39.7155 56.97 40.4123C57.5252 41.109 57.4101 42.1305 56.7194 42.6852C56.0288 43.2399 55.02 43.1317 54.4647 42.4282Z" fill="white"/>
<path d="M51.9932 47.1567C51.4787 46.5073 51.5802 45.5602 52.2235 45.0461C52.8667 44.532 53.8078 44.6335 54.3156 45.2829C54.8302 45.9323 54.7287 46.8726 54.0854 47.3935C53.4422 47.9144 52.5011 47.8129 51.9932 47.1567Z" fill="white"/>
<path d="M50.4834 42.922C50.0433 42.3741 50.1381 41.5758 50.6797 41.1294C51.2214 40.6897 52.0136 40.7844 52.4537 41.3255C52.887 41.8802 52.799 42.6785 52.2506 43.1182C51.7089 43.5647 50.9167 43.4699 50.4834 42.922Z" fill="white"/>
<path d="M48.8923 39.0189C48.5402 38.5724 48.6079 37.9162 49.0548 37.5509C49.5017 37.1924 50.1449 37.2668 50.5037 37.7133C50.8558 38.1665 50.7881 38.8159 50.3412 39.1812C49.9011 39.5398 49.2511 39.4653 48.8923 39.0189Z" fill="white"/>
<path d="M47.4365 36.1302C47.1656 35.7784 47.2198 35.2711 47.5651 34.987C47.9036 34.7096 48.4115 34.7705 48.6891 35.1223C48.9667 35.474 48.9125 35.9814 48.5672 36.2587C48.2219 36.5361 47.7141 36.482 47.4365 36.1302Z" fill="white"/>
<path d="M46.001 33.5125C45.8046 33.2622 45.8452 32.8969 46.0958 32.7007C46.3395 32.4977 46.6984 32.5383 46.9015 32.7886C47.0978 33.0457 47.0572 33.4042 46.8135 33.6004C46.5629 33.8033 46.2041 33.7627 46.0077 33.5125" fill="white"/>
<path d="M55.6766 29.5009C55.162 28.8515 55.2635 27.9044 55.9135 27.3903C56.5568 26.8694 57.4979 26.9776 58.0125 27.627C58.5271 28.2765 58.4187 29.2235 57.7755 29.7376C57.1323 30.2517 56.1979 30.1435 55.6833 29.5009" fill="white"/>
<path d="M54.2953 34.1549C53.7807 33.5055 53.8891 32.5585 54.5255 32.0376C55.1688 31.5235 56.1099 31.6249 56.6177 32.2743C57.1323 32.9238 57.0307 33.8641 56.3875 34.3849C55.7443 34.9058 54.8099 34.7976 54.2885 34.1482" fill="white"/>
<path d="M52.149 31.1515C51.675 30.5495 51.7698 29.6836 52.3656 29.2033C52.9615 28.723 53.8214 28.8245 54.2953 29.4198C54.7693 30.0151 54.6745 30.8877 54.0787 31.368C53.4828 31.8483 52.6229 31.7536 52.1422 31.1448" fill="white"/>
<path d="M50.5781 35.5011C50.0974 34.899 50.1989 34.0264 50.7948 33.5528C51.3906 33.0725 52.2505 33.1672 52.7244 33.7693C53.1984 34.3646 53.1036 35.2372 52.5078 35.7175C51.9119 36.1978 51.052 36.1031 50.5781 35.5011Z" fill="white"/>
<path d="M49.8807 28.8108C49.4473 28.2629 49.5354 27.4579 50.077 27.0182C50.6187 26.5785 51.4176 26.6664 51.851 27.2144C52.2843 27.7691 52.1895 28.5673 51.6546 29.007C51.113 29.4467 50.314 29.352 49.8807 28.8041" fill="white"/>
<path d="M48.7365 32.6464C48.2964 32.0985 48.3912 31.2935 48.9329 30.8605C49.4746 30.4208 50.2735 30.5155 50.7069 31.0635C51.1402 31.6114 51.0522 32.4096 50.5105 32.8493C49.9688 33.2891 49.1699 33.2011 48.7365 32.6532" fill="white"/>
<path d="M47.4229 26.8558C47.0302 26.3552 47.1114 25.6314 47.6057 25.2323C48.1 24.8332 48.8244 24.9144 49.2171 25.4149C49.6099 25.9155 49.5286 26.6394 49.0343 27.0385C48.5401 27.4376 47.8156 27.3564 47.4229 26.8558Z" fill="white"/>
<path d="M46.8609 30.3802C46.4615 29.8797 46.5427 29.1558 47.0438 28.7567C47.538 28.3576 48.2625 28.4388 48.6552 28.9394C49.0479 29.4399 48.9734 30.1638 48.4792 30.5629C47.9849 30.9688 47.2672 30.8808 46.8677 30.3802" fill="white"/>
<path d="M44.7282 25.7669C44.3761 25.3137 44.4439 24.6642 44.8907 24.2989C45.3376 23.9404 45.9876 24.0148 46.3397 24.4681C46.6918 24.9145 46.6241 25.5707 46.1772 25.9292C45.7303 26.2878 45.0871 26.2134 44.7282 25.7669Z" fill="white"/>
<path d="M44.7824 28.8853C44.4303 28.4389 44.498 27.7827 44.9449 27.4174C45.3918 27.0589 46.0418 27.1333 46.3939 27.5797C46.7527 28.033 46.6783 28.6824 46.2314 29.0477C45.7845 29.4062 45.1413 29.3318 44.7824 28.8853Z" fill="white"/>
<path d="M42.2229 25.2729C41.9114 24.8738 41.9723 24.292 42.365 23.9741C42.7645 23.6561 43.34 23.7238 43.6515 24.1161C43.9697 24.5152 43.902 25.097 43.5093 25.4149C43.1098 25.7396 42.5343 25.672 42.2229 25.2729Z" fill="white"/>
<path d="M42.7037 27.8909C42.3855 27.4918 42.4532 26.9101 42.8459 26.5921C43.2454 26.2742 43.8209 26.335 44.1324 26.7409C44.4506 27.14 44.3829 27.7151 43.9902 28.0398C43.5975 28.3577 43.0152 28.2901 42.7037 27.8909Z" fill="white"/>
<path d="M40.0293 24.8535C39.7517 24.5018 39.8059 23.9944 40.158 23.7171C40.51 23.4329 41.0111 23.4938 41.2819 23.8456C41.5595 24.1973 41.5054 24.6979 41.16 24.9821C40.8147 25.2594 40.3069 25.2053 40.0293 24.8535Z" fill="white"/>
<path d="M40.6995 27.1333C40.4219 26.7815 40.476 26.2742 40.8281 25.9968C41.1734 25.7127 41.6812 25.7736 41.9521 26.1254C42.2297 26.4704 42.1755 26.9845 41.8234 27.2618C41.4781 27.546 40.9703 27.4851 40.6995 27.1401" fill="white"/>
<path d="M38.0928 24.6032C37.8558 24.3055 37.9032 23.8658 38.2011 23.629C38.4923 23.3923 38.9256 23.4396 39.1694 23.7373C39.4063 24.0349 39.3589 24.4746 39.061 24.7114C38.7631 24.9549 38.3298 24.9076 38.0928 24.6032Z" fill="white"/>
<path d="M38.9187 26.6056C38.6817 26.3079 38.7291 25.8682 39.0271 25.6315C39.325 25.3947 39.7583 25.4421 39.9953 25.7397C40.2323 26.0374 40.1781 26.4703 39.887 26.7138C39.589 26.9574 39.1625 26.9032 38.9187 26.6056Z" fill="white"/>
<path d="M36.3662 24.4882C36.1699 24.2379 36.2105 23.8726 36.4543 23.6764C36.7048 23.4803 37.0636 23.5208 37.26 23.7644C37.4563 24.0147 37.4157 24.38 37.172 24.5761C36.9214 24.7723 36.5626 24.7317 36.3662 24.4814" fill="white"/>
<path d="M37.3277 26.2537C37.1313 26.0034 37.1719 25.6449 37.4157 25.442C37.6662 25.239 38.0251 25.2864 38.2214 25.5299C38.4178 25.7734 38.3771 26.1455 38.1266 26.3484C37.8829 26.5446 37.524 26.504 37.3209 26.2537" fill="white"/>
<path d="M34.8766 24.4272C34.7209 24.2243 34.748 23.9334 34.9511 23.7778C35.1475 23.6155 35.4386 23.6493 35.5943 23.8522C35.7501 24.0552 35.723 24.3393 35.5199 24.5016C35.3235 24.664 35.0324 24.6302 34.8766 24.4272Z" fill="white"/>
<path d="M35.9058 26.1118C35.75 25.9089 35.7839 25.618 35.9802 25.4624C36.1834 25.3 36.4677 25.3339 36.6235 25.5368C36.7792 25.733 36.7521 26.0306 36.549 26.193C36.3526 26.3486 36.0615 26.3215 35.9058 26.1186" fill="white"/>
<path d="M52.5418 38.6332C52.0272 37.9838 52.1288 37.0435 52.772 36.5226C53.4153 36.0017 54.3564 36.1032 54.8642 36.7526C55.3788 37.402 55.2772 38.3558 54.6272 38.8699C53.984 39.384 53.0496 39.2826 52.5351 38.6332" fill="white"/>
<path d="M53.097 26.4636C52.623 25.8616 52.7178 24.9957 53.3136 24.5154C53.9095 24.0419 54.7694 24.1366 55.2501 24.7319C55.7241 25.3339 55.6293 26.2133 55.0334 26.6801C54.4376 27.1604 53.5777 27.0589 53.097 26.4636Z" fill="white"/>
<path d="M50.5105 23.9741C50.0704 23.4262 50.1652 22.6212 50.7068 22.1815C51.2485 21.7418 52.0474 21.8297 52.4808 22.3844C52.9141 22.9324 52.8261 23.7374 52.2777 24.1703C51.736 24.61 50.9438 24.5153 50.5105 23.9674" fill="white"/>
<path d="M47.7886 21.9989C47.3959 21.5051 47.4703 20.7745 47.9646 20.3754C48.4589 19.9762 49.1834 20.0574 49.5761 20.558C49.9755 21.0586 49.8943 21.7892 49.3933 22.1883C48.899 22.5807 48.1745 22.5062 47.7818 22.0057" fill="white"/>
<path d="M44.884 20.9029C44.5319 20.4497 44.5996 19.8003 45.0465 19.435C45.4934 19.0764 46.1366 19.1508 46.4954 19.5973C46.8543 20.0438 46.7798 20.7067 46.3329 21.0585C45.8861 21.417 45.2428 21.3426 44.884 20.8961" fill="white"/>
<path d="M42.074 20.3617C41.7558 19.9626 41.8167 19.3808 42.2162 19.0629C42.6157 18.7449 43.1912 18.8058 43.5027 19.2049C43.8209 19.604 43.7532 20.1858 43.3605 20.5037C42.961 20.8217 42.3855 20.754 42.074 20.3549" fill="white"/>
<path d="M43.5094 23.1151C43.1912 22.7159 43.2589 22.1409 43.6516 21.8162C44.0443 21.4983 44.6198 21.5592 44.938 21.9651C45.2495 22.3642 45.1886 22.9459 44.7959 23.2639C44.3964 23.5818 43.8209 23.5142 43.5094 23.1151Z" fill="white"/>
<path d="M39.501 20.3416C39.2234 19.9898 39.2776 19.4824 39.6296 19.2051C39.9749 18.921 40.4828 18.9819 40.7604 19.3336C41.038 19.6786 40.9838 20.1927 40.6385 20.4769C40.2932 20.7542 39.7854 20.7001 39.5078 20.3483" fill="white"/>
<path d="M40.9636 22.6753C40.686 22.3303 40.7402 21.8162 41.0923 21.5388C41.4376 21.2547 41.9454 21.3156 42.2162 21.6674C42.4938 22.0124 42.4397 22.5265 42.0944 22.8038C41.7423 23.088 41.2412 23.0271 40.9636 22.6753Z" fill="white"/>
<path d="M37.3142 20.5377C37.0773 20.2401 37.1246 19.8004 37.4226 19.5636C37.7205 19.3268 38.1538 19.3742 38.3908 19.6718C38.6278 19.9695 38.5804 20.4092 38.2825 20.646C37.9845 20.8895 37.558 20.8421 37.3142 20.5377Z" fill="white"/>
<path d="M38.763 22.4928C38.526 22.1951 38.5734 21.7554 38.8713 21.5186C39.1692 21.2819 39.6025 21.3292 39.8395 21.6336C40.0765 21.9313 40.0291 22.3642 39.7312 22.6078C39.4333 22.8445 38.9999 22.7972 38.763 22.4928Z" fill="white"/>
<path d="M35.2964 20.6256C35.1001 20.3821 35.1407 20.0168 35.3844 19.8138C35.6282 19.6177 35.9938 19.6583 36.1902 19.9086C36.3865 20.1588 36.3459 20.5174 36.0954 20.7203C35.8449 20.9233 35.4928 20.8759 35.2896 20.6256" fill="white"/>
<path d="M36.8334 22.4182C36.6303 22.1611 36.6777 21.8026 36.9215 21.5997C37.172 21.3967 37.5308 21.4441 37.7272 21.6944C37.9303 21.9447 37.8897 22.31 37.6392 22.5061C37.3887 22.7091 37.0298 22.6685 36.8334 22.425" fill="white"/>
<path d="M33.6104 20.8015C33.4546 20.5986 33.4885 20.3144 33.6848 20.1521C33.8812 19.9897 34.1723 20.0236 34.3281 20.2265C34.4838 20.4227 34.4499 20.7136 34.2536 20.8759C34.0572 21.0315 33.7661 20.9977 33.6036 20.8015" fill="white"/>
<path d="M35.0866 22.5467C34.9309 22.3437 34.9579 22.0528 35.1611 21.8973C35.3574 21.7349 35.6486 21.7687 35.8043 21.9649C35.96 22.1611 35.9262 22.452 35.7366 22.6143C35.5402 22.7767 35.2491 22.7428 35.0934 22.5467" fill="white"/>
<path d="M56.2996 47.1905C55.7105 46.4464 55.8324 45.3505 56.5704 44.7553C57.3152 44.1532 58.3918 44.275 58.9876 45.0258C59.5767 45.7767 59.4616 46.8658 58.7168 47.4611C57.972 48.0564 56.8954 47.9347 56.2996 47.1838" fill="white"/>
<path d="M59.0145 42.1103C58.4187 41.3594 58.5406 40.2703 59.2854 39.6682C60.0302 39.0729 61.1067 39.1947 61.7026 39.9456C62.2984 40.6964 62.1765 41.7856 61.4317 42.3876C60.6869 42.9829 59.6104 42.8612 59.0145 42.1103Z" fill="white"/>
<path d="M61.7297 37.03C61.1339 36.2791 61.2625 35.19 62.0005 34.5879C62.7453 33.9926 63.8219 34.1144 64.4177 34.8585C65.0136 35.6094 64.8917 36.6985 64.1469 37.3006C63.4021 37.9026 62.3188 37.7809 61.7297 37.03Z" fill="white"/>
<path d="M32.1817 20.93C32.0599 20.7745 32.0869 20.558 32.2359 20.443C32.3849 20.328 32.6015 20.3483 32.7234 20.4971C32.8385 20.6459 32.8182 20.8692 32.6692 20.9909C32.5203 21.1059 32.3036 21.0789 32.1885 20.9368" fill="white"/>
<path d="M33.5157 22.8038C33.3938 22.655 33.4209 22.4385 33.5699 22.3168C33.7188 22.2018 33.9355 22.2221 34.0506 22.3709C34.1725 22.5197 34.1454 22.7429 33.9964 22.8579C33.8475 22.9729 33.6308 22.9526 33.5157 22.8038Z" fill="white"/>
<path d="M19.7369 59.5633C20.2515 58.7515 21.3145 58.5215 22.1135 59.0424C22.9192 59.5565 23.1494 60.6321 22.6348 61.4371C22.1203 62.2421 21.0572 62.4789 20.2583 61.9648C19.4593 61.4439 19.2291 60.3683 19.7369 59.5633Z" fill="white"/>
<path d="M39.3116 58.1292C39.7923 57.3783 40.7808 57.1618 41.5256 57.6421C42.2704 58.1224 42.4871 59.1236 42.0131 59.8812C41.5392 60.6321 40.5439 60.8553 39.7991 60.3683C39.0543 59.888 38.8308 58.8801 39.3116 58.1292Z" fill="white"/>
<path d="M34.2808 57.6827C34.7615 56.9318 35.7501 56.7086 36.4949 57.1956C37.2464 57.6759 37.4563 58.6839 36.9824 59.4348C36.5084 60.1924 35.5131 60.4089 34.7683 59.9218C34.0235 59.4415 33.8001 58.4403 34.2808 57.6827Z" fill="white"/>
<path d="M29.25 57.2361C29.7307 56.492 30.7192 56.2688 31.464 56.7491C32.2088 57.2294 32.4323 58.2305 31.9515 58.9882C31.4776 59.7391 30.4823 59.9623 29.7375 59.4753C28.9927 58.995 28.776 57.987 29.25 57.2361Z" fill="white"/>
<path d="M24.023 56.3905C24.4699 55.6938 25.3907 55.4841 26.0814 55.9305C26.772 56.377 26.9751 57.3105 26.535 58.0073C26.0881 58.7108 25.1673 58.9138 24.4767 58.4673C23.7861 58.0141 23.5829 57.0873 24.023 56.3905Z" fill="white"/>
<path d="M27.5166 53.59C27.8958 52.9948 28.6744 52.8256 29.2567 53.2045C29.8458 53.5833 30.0151 54.368 29.6427 54.9633C29.2635 55.5518 28.4848 55.7277 27.9026 55.3489C27.3135 54.97 27.1442 54.1853 27.5166 53.59Z" fill="white"/>
<path d="M30.6652 50.8165C30.9699 50.3295 31.6131 50.1874 32.0938 50.5053C32.5746 50.8098 32.71 51.4524 32.4053 51.9395C32.1006 52.4265 31.4574 52.5686 30.9834 52.2506C30.5027 51.9462 30.3605 51.2968 30.672 50.8165" fill="white"/>
<path d="M32.9063 48.4961C33.1433 48.1173 33.6443 48.0091 34.0167 48.2526C34.3891 48.4961 34.5042 48.9967 34.2605 49.3688C34.0235 49.7476 33.5292 49.8558 33.1568 49.6123C32.7844 49.3688 32.6761 48.8682 32.9131 48.4894" fill="white"/>
<path d="M34.9038 46.2841C35.073 46.0135 35.4319 45.9324 35.696 46.115C35.96 46.2841 36.0413 46.6427 35.872 46.9065C35.7027 47.1771 35.3439 47.2583 35.0798 47.0824C34.8158 46.9133 34.7345 46.548 34.9038 46.2841Z" fill="white"/>
<path d="M41.7761 54.2462C42.223 53.5494 43.1438 53.3397 43.8345 53.7929C44.5251 54.2394 44.7282 55.1662 44.2813 55.8697C43.8412 56.5665 42.9204 56.7762 42.223 56.3297C41.5324 55.8832 41.3293 54.9497 41.7694 54.2529" fill="white"/>
<path d="M36.9621 54.4221C37.4022 53.7254 38.3298 53.5224 39.0204 53.9689C39.711 54.4154 39.9141 55.3421 39.474 56.0457C39.0272 56.7424 38.1131 56.9521 37.4157 56.4989C36.7251 56.0457 36.5152 55.1189 36.9621 54.4221Z" fill="white"/>
<path d="M39.0949 51.405C39.5079 50.7624 40.3542 50.573 40.9975 50.9856C41.6339 51.3983 41.8167 52.2574 41.4105 52.9068C40.9975 53.5494 40.1511 53.7389 39.5079 53.3262C38.8714 52.9136 38.6818 52.0477 39.0881 51.4118" fill="white"/>
<path d="M34.511 51.29C34.9173 50.6473 35.7704 50.4579 36.4069 50.8773C37.0501 51.29 37.2329 52.1491 36.8267 52.7917C36.4136 53.4344 35.5673 53.6306 34.924 53.2112C34.2876 52.7985 34.098 51.9394 34.511 51.29Z" fill="white"/>
<path d="M40.5642 48.4826C40.9433 47.8873 41.722 47.7182 42.3043 48.097C42.8933 48.4759 43.0626 49.2673 42.6834 49.8559C42.311 50.4512 41.5324 50.6203 40.9433 50.2414C40.3543 49.8626 40.185 49.0779 40.5574 48.4826" fill="white"/>
<path d="M36.5963 48.6179C36.9687 48.0226 37.7541 47.8535 38.3364 48.2323C38.9255 48.6111 39.0948 49.3958 38.7156 49.9843C38.3432 50.5796 37.5645 50.7555 36.9755 50.3699C36.3864 49.9911 36.2171 49.2064 36.5963 48.6111" fill="white"/>
<path d="M41.6069 45.5062C41.9454 44.9718 42.6563 44.8162 43.1912 45.1612C43.7261 45.5062 43.8819 46.2165 43.5365 46.7577C43.198 47.2988 42.4871 47.4544 41.9522 47.1094C41.4173 46.7644 41.2683 46.0541 41.6069 45.5062Z" fill="white"/>
<path d="M38.1199 46.1015C38.4584 45.5671 39.1693 45.4115 39.7042 45.7497C40.2391 46.0947 40.3949 46.8118 40.0495 47.3462C39.7042 47.8806 39.0001 48.043 38.4652 47.698C37.9303 47.353 37.7745 46.6427 38.1199 46.0947" fill="white"/>
<path d="M41.7694 42.5839C42.0741 42.1036 42.7173 41.9615 43.1912 42.266C43.672 42.5839 43.8142 43.2198 43.5027 43.7068C43.198 44.1939 42.5548 44.3292 42.0808 44.0248C41.6001 43.7136 41.4579 43.071 41.7694 42.5839Z" fill="white"/>
<path d="M38.851 43.6325C39.1557 43.1522 39.7989 43.0033 40.2796 43.3213C40.7604 43.6257 40.8958 44.2683 40.5911 44.7554C40.2796 45.2357 39.6432 45.3778 39.1692 45.0666C38.6885 44.7554 38.5463 44.1195 38.8578 43.6325" fill="white"/>
<path d="M41.4171 40.0267C41.6879 39.5937 42.2567 39.4719 42.6833 39.7493C43.1098 40.0267 43.2317 40.5949 42.9609 41.0278C42.69 41.454 42.1213 41.5825 41.6947 41.3052C41.2682 41.0346 41.1463 40.4596 41.4171 40.0267Z" fill="white"/>
<path d="M39.1152 41.3255C39.386 40.8993 39.9547 40.7708 40.3813 41.0482C40.8079 41.3255 40.9297 41.9005 40.6589 42.3267C40.3881 42.7596 39.8193 42.8814 39.3928 42.604C38.9594 42.3334 38.8376 41.7584 39.1152 41.3255Z" fill="white"/>
<path d="M41.1125 37.7944C41.3494 37.4156 41.8437 37.3141 42.2161 37.5509C42.5885 37.7944 42.6968 38.295 42.4599 38.6738C42.2229 39.0526 41.7286 39.1609 41.3494 38.9173C40.9771 38.6806 40.8687 38.18 41.1057 37.8012" fill="white"/>
<path d="M39.1896 39.1678C39.4266 38.7889 39.9276 38.6807 40.2932 38.9242C40.6656 39.1678 40.774 39.6683 40.537 40.0472C40.3 40.426 39.799 40.5342 39.4266 40.2907C39.0474 40.0539 38.9458 39.5533 39.1828 39.1745" fill="white"/>
<path d="M40.7198 35.8666C40.9229 35.5418 41.3495 35.4471 41.6745 35.6501C41.9927 35.8598 42.0875 36.286 41.8776 36.6107C41.6745 36.9286 41.2479 37.0301 40.9297 36.8204C40.6115 36.6107 40.5167 36.1845 40.7198 35.8598" fill="white"/>
<path d="M39.1083 37.2939C39.3182 36.9692 39.738 36.8813 40.063 37.0842C40.3812 37.2939 40.476 37.7201 40.2729 38.0448C40.063 38.3695 39.6432 38.4574 39.325 38.2545C39.0068 38.0448 38.912 37.6186 39.1151 37.2939" fill="white"/>
<path d="M40.2797 34.1752C40.4489 33.9046 40.801 33.8302 41.0719 33.9994C41.3359 34.1685 41.4172 34.5338 41.2479 34.7976C41.0786 35.0682 40.7198 35.1426 40.4557 34.9667C40.1849 34.7976 40.1104 34.4391 40.2864 34.1685" fill="white"/>
<path d="M38.9256 35.6566C39.0949 35.3928 39.4469 35.3116 39.7178 35.4875C39.9818 35.6566 40.0563 36.0152 39.8871 36.2858C39.7178 36.5496 39.3657 36.6308 39.0949 36.4616C38.8308 36.2858 38.7496 35.9272 38.9256 35.6566Z" fill="white"/>
<path d="M39.8532 32.7345C39.9886 32.518 40.273 32.4571 40.4829 32.5992C40.6995 32.7345 40.7605 33.0186 40.6251 33.2351C40.4829 33.4516 40.1985 33.5192 39.9886 33.3771C39.7719 33.2419 39.711 32.951 39.8532 32.7345Z" fill="white"/>
<path d="M38.6073 34.2565C38.7427 34.0401 39.0271 33.9792 39.2437 34.1145C39.4604 34.2565 39.5146 34.5406 39.3791 34.7503C39.2437 34.9668 38.9594 35.0345 38.7427 34.8924C38.5328 34.7571 38.4719 34.473 38.6073 34.2565Z" fill="white"/>
<path d="M32.2022 54.1853C32.649 53.4885 33.5699 53.2856 34.2605 53.7321C34.9511 54.1785 35.1542 55.1053 34.7074 55.8088C34.2605 56.5056 33.3397 56.7085 32.649 56.2621C31.9584 55.8156 31.7553 54.8821 32.1954 54.1853" fill="white"/>
<path d="M43.7937 50.8028C44.2068 50.1534 45.0531 49.964 45.6896 50.3767C46.3328 50.7961 46.5156 51.6552 46.1094 52.2978C45.6963 52.9405 44.85 53.1299 44.2068 52.7172C43.5703 52.3046 43.3807 51.4455 43.7937 50.8028Z" fill="white"/>
<path d="M45.3038 47.5287C45.6829 46.9402 46.4548 46.7643 47.0439 47.1499C47.6329 47.522 47.7954 48.3134 47.423 48.902C47.0439 49.4905 46.2652 49.6664 45.6829 49.2876C45.0939 48.902 44.9314 48.124 45.3038 47.5287Z" fill="white"/>
<path d="M46.2855 44.302C46.624 43.7676 47.3349 43.6052 47.8698 43.9502C48.4047 44.2952 48.5537 45.0055 48.2151 45.5535C47.8698 46.0879 47.1657 46.2435 46.6308 45.8985C46.0959 45.5535 45.9401 44.8432 46.2787 44.302" fill="white"/>
<path d="M46.3801 41.17C46.6848 40.6829 47.3213 40.5476 47.802 40.8588C48.2827 41.17 48.4182 41.8126 48.1135 42.2997C47.8088 42.78 47.1656 42.9288 46.6916 42.6109C46.2109 42.2997 46.0755 41.657 46.3801 41.17Z" fill="white"/>
<path d="M45.9809 38.3018C46.2517 37.8689 46.8205 37.7471 47.247 38.0244C47.6736 38.3018 47.7955 38.8768 47.5246 39.303C47.2538 39.7359 46.685 39.8577 46.2585 39.5871C45.8251 39.3097 45.7033 38.7347 45.9809 38.3018Z" fill="white"/>
<path d="M43.8615 40.568C44.1323 40.1351 44.701 40.0066 45.1276 40.2839C45.5542 40.5613 45.676 41.1363 45.4052 41.5625C45.1344 41.9954 44.5656 42.1239 44.1391 41.8398C43.7125 41.5692 43.5906 40.9942 43.8615 40.5613" fill="white"/>
<path d="M45.1751 35.8463C45.4188 35.4675 45.9063 35.3592 46.2855 35.596C46.6579 35.8395 46.7662 36.3401 46.5293 36.7189C46.2923 37.0978 45.7912 37.206 45.4256 36.9625C45.0532 36.7257 44.9449 36.2184 45.1819 35.8463" fill="white"/>
<path d="M43.4552 37.9906C43.6922 37.6118 44.1932 37.5035 44.5588 37.7403C44.938 37.9838 45.0396 38.4844 44.8026 38.8565C44.5656 39.2353 44.0713 39.3435 43.6922 39.1068C43.3198 38.8632 43.2114 38.3694 43.4552 37.9906Z" fill="white"/>
<path d="M44.2882 33.8167C44.4981 33.492 44.9179 33.404 45.2429 33.6002C45.5611 33.8099 45.6559 34.2361 45.4528 34.5608C45.2429 34.8787 44.8231 34.9734 44.4981 34.7705C44.1798 34.5608 44.0851 34.1346 44.2882 33.8167Z" fill="white"/>
<path d="M42.9205 35.8325C43.1236 35.5078 43.5502 35.4131 43.8684 35.6228C44.1866 35.8325 44.2814 36.2587 44.0783 36.5834C43.8752 36.9014 43.4486 37.0028 43.1304 36.7931C42.8054 36.5834 42.7173 36.1572 42.9205 35.8325Z" fill="white"/>
<path d="M43.5499 31.9158C43.7192 31.6452 44.0781 31.564 44.3421 31.7399C44.6062 31.909 44.6874 32.2675 44.5114 32.5381C44.3421 32.8087 43.9901 32.8899 43.7192 32.714C43.4552 32.5449 43.3739 32.1796 43.5432 31.9158" fill="white"/>
<path d="M42.372 33.9656C42.5412 33.695 42.9001 33.6138 43.1642 33.7897C43.4282 33.9588 43.5027 34.3173 43.3334 34.5879C43.1642 34.8518 42.8121 34.9329 42.5412 34.7571C42.2772 34.5879 42.1959 34.2362 42.3652 33.9656" fill="white"/>
<path d="M42.8526 30.3669C42.988 30.1504 43.2724 30.0895 43.489 30.2248C43.7057 30.3601 43.7666 30.651 43.6312 30.8675C43.4958 31.0839 43.2114 31.1448 42.9948 31.0095C42.7781 30.8742 42.7172 30.5833 42.8526 30.3736" fill="white"/>
<path d="M41.688 32.3285C41.8234 32.1121 42.1078 32.0512 42.3245 32.1865C42.5344 32.3218 42.6021 32.6127 42.4667 32.8224C42.3312 33.0388 42.0401 33.0997 41.8302 32.9644C41.6135 32.8224 41.5526 32.545 41.688 32.3285Z" fill="white"/>
<path d="M25.3771 60.5306C25.8916 59.7188 26.9547 59.4888 27.7536 60.0097C28.5526 60.5238 28.7896 61.5994 28.275 62.4044C27.7604 63.2094 26.7041 63.4462 25.8984 62.9253C25.0995 62.4112 24.8692 61.3356 25.3771 60.5306Z" fill="white"/>
<path d="M31.0172 61.4912C31.5318 60.6794 32.5948 60.4494 33.3938 60.9568C34.1927 61.4776 34.4229 62.5465 33.9151 63.3582C33.4005 64.1632 32.3443 64.4 31.5386 63.8859C30.7396 63.3718 30.5094 62.2962 31.0172 61.4912Z" fill="white"/>
<path d="M36.6573 62.445C37.1719 61.64 38.2349 61.4032 39.0339 61.9173C39.8329 62.4315 40.0698 63.507 39.5553 64.312C39.0407 65.117 37.9776 65.3538 37.1787 64.8329C36.3797 64.3188 36.1495 63.25 36.6573 62.4382" fill="white"/>
<path d="M42.2771 29.0341C42.3786 28.8718 42.5885 28.8244 42.751 28.9259C42.9067 29.0273 42.9541 29.2438 42.8526 29.4062C42.751 29.5685 42.5343 29.6159 42.3786 29.5144C42.2161 29.4062 42.1755 29.1897 42.2771 29.0341Z" fill="white"/>
<path d="M40.9433 30.9078C41.0449 30.7523 41.2548 30.6981 41.4173 30.8064C41.573 30.9078 41.6204 31.1243 41.5188 31.2867C41.4173 31.449 41.2074 31.5031 41.0449 31.3949C40.8824 31.2934 40.8417 31.077 40.9433 30.9146" fill="white"/>
<path d="M2.3766 27.573C3.2839 27.8503 3.79848 28.8177 3.52765 29.7377C3.25681 30.6577 2.29535 31.1718 1.38806 30.8945C0.480771 30.6171 -0.0405827 29.6497 0.237021 28.7297C0.507855 27.8097 1.46931 27.2889 2.3766 27.5662" fill="white"/>
<path d="M9.09315 46.1895C9.93951 46.4466 10.4202 47.3463 10.1629 48.2054C9.90565 49.0578 9.0119 49.5448 8.16555 49.2877C7.31919 49.0307 6.83846 48.131 7.09576 47.2719C7.35305 46.4195 8.2468 45.9325 9.09315 46.1963" fill="white"/>
<path d="M8.14545 41.1768C8.99181 41.4339 9.47254 42.3404 9.21525 43.1927C8.95795 44.0518 8.0642 44.5389 7.21785 44.2751C6.3715 44.018 5.89077 43.1116 6.14129 42.2592C6.39858 41.4069 7.29233 40.9198 8.14545 41.1768Z" fill="white"/>
<path d="M7.19733 36.1777C8.04369 36.4348 8.52442 37.3412 8.26713 38.2004C8.00983 39.0527 7.11608 39.5398 6.26296 39.2827C5.41661 39.0257 4.93588 38.1192 5.19317 37.2668C5.45046 36.4077 6.34421 35.9274 7.19056 36.1845" fill="white"/>
<path d="M6.57449 30.8673C7.3599 31.1108 7.80678 31.9496 7.5698 32.7411C7.33282 33.5393 6.50001 33.9858 5.71459 33.749C4.92917 33.5055 4.4823 32.6667 4.71928 31.8752C4.95626 31.0837 5.78907 30.6305 6.57449 30.8673Z" fill="white"/>
<path d="M10.197 33.4853C10.8606 33.6882 11.2397 34.3985 11.0366 35.075C10.8335 35.7447 10.1293 36.1303 9.46578 35.9274C8.79547 35.7244 8.42308 35.0141 8.6262 34.3377C8.82256 33.6679 9.52672 33.2891 10.197 33.4853Z" fill="white"/>
<path d="M13.7041 35.792C14.2458 35.9543 14.5505 36.5361 14.3948 37.0908C14.2323 37.6455 13.6567 37.9499 13.1083 37.7876C12.5599 37.6252 12.2552 37.0434 12.4177 36.4955C12.5802 35.9408 13.1557 35.6296 13.7041 35.7987" fill="white"/>
<path d="M16.5275 37.3343C16.9541 37.4629 17.1911 37.9161 17.0624 38.3423C16.9338 38.7684 16.4869 39.012 16.0603 38.8834C15.6338 38.7549 15.3968 38.3017 15.5255 37.8755C15.6541 37.4493 16.101 37.2126 16.5275 37.3411" fill="white"/>
<path d="M19.1817 38.6738C19.4864 38.7686 19.6557 39.0865 19.5676 39.3977C19.4729 39.7089 19.1546 39.878 18.8567 39.7833C18.552 39.6886 18.376 39.3706 18.4708 39.0594C18.5656 38.755 18.8838 38.5859 19.1817 38.6738Z" fill="white"/>
<path d="M13.4671 47.5154C14.2525 47.7521 14.7062 48.5977 14.4624 49.3892C14.2255 50.1807 13.3927 50.6339 12.6072 50.3904C11.815 50.1468 11.3749 49.3148 11.6119 48.5165C11.8489 47.7251 12.6817 47.2718 13.4671 47.5154Z" fill="white"/>
<path d="M11.9844 42.8951C12.7698 43.1318 13.2167 43.9774 12.9797 44.7689C12.7427 45.5604 11.9099 46.0068 11.1245 45.7701C10.3391 45.5265 9.89221 44.6877 10.1292 43.8962C10.3662 43.098 11.199 42.6515 11.9844 42.8951Z" fill="white"/>
<path d="M15.4377 44.1329C16.1621 44.3561 16.5819 45.1273 16.3585 45.8647C16.1351 46.5953 15.37 47.0079 14.6455 46.7914C13.921 46.5682 13.508 45.797 13.7246 45.0664C13.9481 44.3291 14.7132 43.9164 15.4377 44.1397" fill="white"/>
<path d="M14.3001 39.6548C15.0246 39.8781 15.4376 40.6492 15.2142 41.3866C14.9975 42.1239 14.2324 42.5298 13.5012 42.3133C12.7767 42.0901 12.3637 41.3122 12.5804 40.5816C12.797 39.8442 13.5689 39.4316 14.2934 39.6548" fill="white"/>
<path d="M18.6266 44.7688C19.2969 44.9718 19.6693 45.6821 19.4729 46.3518C19.2698 47.0215 18.5724 47.4071 17.9021 47.2041C17.2318 47.0012 16.8594 46.2909 17.0557 45.6212C17.2589 44.9447 17.963 44.5659 18.6266 44.7688Z" fill="white"/>
<path d="M17.4146 40.9536C18.0781 41.1566 18.464 41.8669 18.2609 42.5366C18.0578 43.213 17.3536 43.5919 16.6901 43.3889C16.0265 43.186 15.6474 42.4757 15.8505 41.806C16.0468 41.1295 16.751 40.7507 17.4213 40.9536" fill="white"/>
<path d="M21.7479 44.965C22.3505 45.1476 22.6959 45.7903 22.513 46.4058C22.3302 47.0214 21.687 47.3597 21.0844 47.177C20.475 46.9944 20.1365 46.345 20.3193 45.7361C20.5021 45.1205 21.1453 44.7823 21.7479 44.965Z" fill="white"/>
<path d="M20.2313 41.7382C20.8339 41.9209 21.1792 42.5703 20.9964 43.1791C20.8136 43.7947 20.1771 44.1397 19.5677 43.957C18.9651 43.7676 18.6198 43.1182 18.8026 42.5094C18.9854 41.8938 19.6287 41.5488 20.2313 41.7382Z" fill="white"/>
<path d="M24.5782 44.3223C25.1266 44.4846 25.4313 45.0664 25.2688 45.6211C25.1063 46.1758 24.5308 46.487 23.9823 46.3179C23.4339 46.1488 23.1292 45.567 23.2917 45.019C23.461 44.4711 24.0297 44.1599 24.5782 44.329" fill="white"/>
<path d="M22.7839 41.7789C23.3256 41.948 23.637 42.523 23.4745 43.0777C23.312 43.6324 22.7365 43.9368 22.1881 43.7745C21.6464 43.6053 21.3349 43.0303 21.4974 42.4756C21.6667 41.9277 22.2422 41.6165 22.7839 41.7789Z" fill="white"/>
<path d="M26.921 43.2873C27.4017 43.4293 27.6793 43.9502 27.5303 44.4373C27.3814 44.9243 26.8736 45.2085 26.3861 45.0596C25.8986 44.9108 25.6277 44.3967 25.7767 43.9029C25.9257 43.4158 26.4335 43.1385 26.921 43.2873Z" fill="white"/>
<path d="M25.0521 41.4067C25.5396 41.5555 25.8104 42.0696 25.6682 42.5567C25.5192 43.0437 25.0114 43.3211 24.5239 43.1723C24.0432 43.0234 23.7656 42.5093 23.9146 42.0223C24.0635 41.5352 24.5713 41.2578 25.0588 41.4067" fill="white"/>
<path d="M28.9658 42.3741C29.3923 42.5026 29.6293 42.9558 29.5007 43.382C29.372 43.8082 28.9251 44.0517 28.4986 43.9232C28.072 43.7947 27.835 43.3414 27.9637 42.9152C28.0923 42.4823 28.5392 42.2455 28.9658 42.3673" fill="white"/>
<path d="M27.1307 40.8859C27.5573 41.0144 27.7942 41.4677 27.6656 41.8939C27.5369 42.32 27.0901 42.5636 26.6703 42.435C26.2437 42.3133 26.0067 41.8533 26.1286 41.4271C26.2573 41.0009 26.7041 40.7574 27.1307 40.8859Z" fill="white"/>
<path d="M30.6991 41.4743C31.058 41.5825 31.2679 41.9749 31.1595 42.3402C31.0512 42.7055 30.6653 42.9152 30.3064 42.8069C29.9408 42.6919 29.7377 42.3131 29.846 41.9411C29.9543 41.5758 30.3403 41.3661 30.7059 41.4743" fill="white"/>
<path d="M28.8978 40.2973C29.2635 40.4056 29.4666 40.7912 29.3583 41.1632C29.2499 41.5353 28.864 41.7382 28.5051 41.63C28.1395 41.5218 27.9364 41.1362 28.0447 40.7641C28.1531 40.392 28.539 40.1891 28.9046 40.3041" fill="white"/>
<path d="M32.1887 40.5814C32.4866 40.6761 32.6627 41.0008 32.5679 41.2985C32.4731 41.6029 32.1616 41.7788 31.8569 41.6908C31.5522 41.5961 31.383 41.2782 31.471 40.967C31.5658 40.6558 31.884 40.4867 32.1887 40.5814Z" fill="white"/>
<path d="M30.4012 39.6749C30.6991 39.7629 30.8751 40.0876 30.7871 40.392C30.6923 40.7032 30.3741 40.8723 30.0762 40.7843C29.7715 40.6896 29.6022 40.3717 29.6902 40.0673C29.7782 39.7629 30.1032 39.587 30.4012 39.6817" fill="white"/>
<path d="M33.4479 39.7765C33.6917 39.8442 33.8271 40.108 33.7526 40.3515C33.6781 40.595 33.4208 40.7371 33.1838 40.6559C32.9401 40.5815 32.7979 40.3312 32.8792 40.0809C32.9536 39.8374 33.2042 39.7021 33.4479 39.7765Z" fill="white"/>
<path d="M31.6536 38.985C31.8974 39.0594 32.0328 39.3097 31.9583 39.56C31.8838 39.8035 31.6333 39.9388 31.3896 39.8644C31.1458 39.7968 31.0104 39.533 31.0849 39.2894C31.1594 39.0459 31.4099 38.9106 31.6536 38.985Z" fill="white"/>
<path d="M10.9146 38.2003C11.7 38.4438 12.1469 39.2826 11.9099 40.0741C11.6729 40.8723 10.8401 41.3188 10.0547 41.0821C9.26926 40.8453 8.82239 39.9997 9.05937 39.2082C9.29635 38.4168 10.1292 37.9635 10.9146 38.2003Z" fill="white"/>
<path d="M17.2995 48.5368C18.024 48.7601 18.437 49.538 18.2203 50.2686C17.9969 51.0059 17.2318 51.4186 16.5073 51.1954C15.7828 50.9721 15.3698 50.2009 15.5865 49.4636C15.8031 48.733 16.575 48.3136 17.2995 48.5368Z" fill="white"/>
<path d="M20.8272 49.1051C21.4975 49.3081 21.8699 50.0116 21.6735 50.6881C21.4772 51.3645 20.773 51.7434 20.1027 51.5404C19.4391 51.3375 19.06 50.6272 19.2631 49.9507C19.4662 49.2742 20.1704 48.9022 20.8339 49.1051" fill="white"/>
<path d="M24.1788 49.1794C24.7814 49.362 25.1267 50.0047 24.9439 50.6203C24.7611 51.2291 24.1178 51.5808 23.5152 51.3914C22.9126 51.2088 22.5673 50.5661 22.7501 49.9505C22.933 49.335 23.5762 48.99 24.1788 49.1794Z" fill="white"/>
<path d="M27.1849 48.415C27.7333 48.5841 28.0448 49.1659 27.8755 49.7138C27.713 50.2685 27.1375 50.5729 26.5891 50.4106C26.0406 50.2482 25.7292 49.6664 25.8984 49.1185C26.0677 48.5638 26.6364 48.2594 27.1849 48.4217" fill="white"/>
<path d="M29.8119 47.2514C30.2994 47.4002 30.577 47.9143 30.428 48.4082C30.2791 48.8952 29.7713 49.1726 29.2838 49.0238C28.7963 48.8749 28.5254 48.3608 28.6744 47.867C28.8166 47.3799 29.3312 47.1026 29.8119 47.2514Z" fill="white"/>
<path d="M27.0767 45.8038C27.5574 45.9527 27.8351 46.4668 27.6929 46.9538C27.5439 47.4477 27.0361 47.725 26.5486 47.5762C26.0679 47.4274 25.7903 46.9133 25.9392 46.4262C26.0882 45.9324 26.596 45.655 27.0835 45.8038" fill="white"/>
<path d="M31.9382 45.7902C32.3647 45.9255 32.6017 46.3787 32.4731 46.8049C32.3444 47.2311 31.8976 47.4746 31.471 47.3461C31.0444 47.2108 30.8075 46.7643 30.9361 46.3314C31.0647 45.9052 31.5116 45.6617 31.9382 45.7902Z" fill="white"/>
<path d="M29.426 44.7081C29.8525 44.8366 30.0895 45.2898 29.9609 45.716C29.8322 46.1489 29.3853 46.3857 28.9588 46.2572C28.5322 46.1286 28.2952 45.6754 28.4239 45.2492C28.5525 44.8163 28.9994 44.5728 29.426 44.7013" fill="white"/>
<path d="M33.624 44.3831C33.9897 44.4914 34.1996 44.877 34.0845 45.249C33.9761 45.6211 33.5902 45.824 33.2246 45.7158C32.8657 45.6008 32.6558 45.2152 32.7642 44.8499C32.8725 44.4846 33.2584 44.2817 33.6173 44.3899" fill="white"/>
<path d="M31.3355 43.5984C31.7011 43.7134 31.9042 44.099 31.7959 44.4643C31.6876 44.8364 31.3016 45.0393 30.936 44.9311C30.5771 44.8228 30.3672 44.4373 30.4756 44.072C30.5839 43.6999 30.9699 43.497 31.3287 43.6052" fill="white"/>
<path d="M35.2354 43.1453C35.5401 43.24 35.7094 43.5579 35.6213 43.8691C35.5265 44.1735 35.2083 44.3426 34.9104 44.2547C34.6057 44.16 34.4364 43.842 34.5245 43.5309C34.6192 43.2265 34.9375 43.0573 35.2354 43.1453Z" fill="white"/>
<path d="M32.9605 42.55C33.2652 42.6447 33.4344 42.9694 33.3464 43.2738C33.2584 43.5782 32.9334 43.7541 32.6355 43.6594C32.3308 43.5715 32.1615 43.2468 32.2496 42.9424C32.3443 42.6379 32.6626 42.4621 32.9605 42.55Z" fill="white"/>
<path d="M36.5218 42.0359C36.7655 42.1103 36.901 42.3673 36.8333 42.6109C36.7588 42.8544 36.5015 42.9964 36.2577 42.922C36.014 42.8476 35.8786 42.5906 35.953 42.3403C36.0275 42.0967 36.2848 41.9547 36.5218 42.0291" fill="white"/>
<path d="M34.335 41.4472C34.5787 41.5149 34.7141 41.7787 34.6396 42.0222C34.5652 42.2658 34.3147 42.4078 34.0641 42.3266C33.8204 42.2522 33.685 41.9952 33.7594 41.7516C33.8339 41.5081 34.0912 41.3661 34.3282 41.4405" fill="white"/>
<path d="M3.00639 33.3094C3.91369 33.5867 4.42827 34.5541 4.15067 35.4741C3.87983 36.3873 2.91837 36.915 2.01108 36.6309C1.10379 36.3603 0.589207 35.3861 0.86004 34.4729C1.13087 33.5529 2.09233 33.032 2.99962 33.3094" fill="white"/>
<path d="M3.62238 39.0458C4.53645 39.3232 5.05103 40.2905 4.77343 41.2038C4.49582 42.1238 3.54113 42.6446 2.63384 42.3673C1.72655 42.0967 1.21197 41.1226 1.48957 40.2026C1.76041 39.2826 2.72186 38.7685 3.62916 39.0458" fill="white"/>
<path d="M4.2522 44.7824C5.15949 45.0597 5.67408 46.0271 5.40324 46.9471C5.12564 47.8603 4.17095 48.388 3.25689 48.1039C2.3496 47.8265 1.83501 46.8592 2.11262 45.9392C2.39022 45.0192 3.34491 44.505 4.2522 44.7824Z" fill="white"/>
<path d="M37.6391 41.1158C37.8219 41.1699 37.9235 41.3593 37.8693 41.5487C37.8152 41.7246 37.6188 41.8261 37.4428 41.772C37.2599 41.7179 37.1584 41.5284 37.2125 41.3458C37.2667 41.1564 37.4631 41.0549 37.6391 41.1158Z" fill="white"/>
<path d="M35.4792 40.3311C35.662 40.392 35.7636 40.5814 35.7094 40.764C35.6552 40.9467 35.4589 41.0549 35.2828 40.994C35.1 40.9399 34.9985 40.7437 35.0526 40.5611C35.1068 40.3717 35.2964 40.277 35.4792 40.3243" fill="white"/>
<path d="M14.9026 82.4416V83.7404H10.1765V75.6633H14.7333V76.9554H11.6322V78.8901H14.5572V80.1686H11.6322V82.4416H14.9026Z" fill="white"/>
<path d="M0.0270996 75.6633H6.08022V76.9689H3.77137V83.7404H2.32241V76.9689H0.0270996V75.6633Z" fill="white"/>
<path d="M24.9032 82.1369L25.2079 83.3884L25.0454 83.4764C24.673 83.6658 23.935 83.8619 22.9464 83.8619C20.5495 83.8619 18.999 82.252 18.999 79.7558C18.999 77.2596 20.6782 75.5278 23.1699 75.5278C24.3074 75.5278 24.9167 75.8119 25.0725 75.8999L25.2485 75.9878L24.8626 77.2393L24.612 77.1108C24.2396 76.9214 23.7318 76.8131 23.2105 76.8131C21.5178 76.8131 20.5089 77.9022 20.5089 79.7219C20.5089 81.5417 21.5042 82.5428 23.1631 82.5428C23.7183 82.5428 24.2938 82.4278 24.6594 82.2452L24.9235 82.1167L24.9032 82.1369Z" fill="white"/>
<path d="M32.7235 75.5212C30.5297 75.5212 28.9995 77.2665 28.9995 79.7559C28.9995 82.2454 30.4891 83.8689 32.6219 83.8689C34.4839 83.8689 36.3526 82.5565 36.3526 79.6207C36.3526 77.1718 34.8969 75.5212 32.7235 75.5212ZM32.6761 82.5904C31.1797 82.5904 30.4959 81.1089 30.4959 79.7357C30.4959 78.2745 31.1729 76.7998 32.6896 76.7998C34.2063 76.7998 34.8563 78.288 34.8563 79.668C34.8563 81.1224 34.1792 82.5904 32.6761 82.5904Z" fill="white"/>
<path d="M51.3703 82.4413H54.6407V83.7401H49.9214V75.6631H54.4714V76.9551H51.3703V78.8899H54.2886V80.1684H51.3703V82.4413Z" fill="white"/>
<path d="M39.7583 75.6631H45.8114V76.9687H43.5026V83.7401H42.0536V76.9687H39.7583V75.6631Z" fill="white"/>
<path d="M64.6412 82.1369L64.9527 83.3884L64.7834 83.4764C64.4313 83.6522 63.673 83.8619 62.6845 83.8619C60.2876 83.8619 58.7371 82.252 58.7371 79.7558C58.7371 77.2596 60.4162 75.5278 62.9079 75.5278C64.0386 75.5278 64.648 75.812 64.8105 75.8931L64.9865 75.9878L64.6006 77.2393L64.3501 77.1108C63.9777 76.9214 63.4699 76.8131 62.9485 76.8131C61.2558 76.8131 60.2402 77.9022 60.2402 79.7219C60.2402 81.5417 61.2355 82.5428 62.8944 82.5428C63.4496 82.5428 64.0251 82.4278 64.3907 82.2452L64.6548 82.1167L64.6412 82.1369Z" fill="white"/>
<path d="M19.8317 90.877C19.8317 91.5534 19.2968 91.9932 18.4707 91.9932C18.1051 91.9932 17.7395 91.9052 17.4822 91.7496L17.4077 91.709L17.6312 91.0326L17.7395 91.107C17.9088 91.222 18.2134 91.337 18.4843 91.337C18.8296 91.337 19.0395 91.1881 19.0395 90.9311C19.0395 90.7281 18.9515 90.5793 18.4775 90.4034C17.6921 90.1261 17.5296 89.6729 17.5296 89.3549C17.5296 88.719 18.0577 88.259 18.789 88.259C19.1004 88.259 19.4254 88.3402 19.6624 88.4823L19.7301 88.5229L19.5134 89.1723L19.4051 89.1046C19.2968 89.037 19.0733 88.922 18.7687 88.922C18.4978 88.922 18.315 89.064 18.315 89.2805C18.315 89.4834 18.4369 89.5849 18.8838 89.7608C19.5405 90.0111 19.8317 90.3561 19.8317 90.877Z" fill="white"/>
<path d="M21.2197 88.3335H20.4004V91.9256H21.2197V88.3335Z" fill="white"/>
<path d="M21.2874 87.4812C21.2874 87.6097 21.2468 87.7315 21.1587 87.8194C21.0707 87.9141 20.9421 87.9615 20.7931 87.9615C20.5291 87.9615 20.3259 87.7586 20.3259 87.4812C20.3259 87.2038 20.5358 86.9941 20.8067 86.9941C21.0775 86.9941 21.2874 87.2038 21.2874 87.4812Z" fill="white"/>
<path d="M25.0926 89.8014V91.9255H24.2801V89.869C24.2801 89.4564 24.1583 88.9693 23.603 88.9693C23.2239 88.9693 22.9666 89.2602 22.8853 89.5308C22.8583 89.5984 22.8447 89.6864 22.8447 89.7879V91.9255H22.0322V89.3549C22.0322 88.9761 22.0254 88.6987 22.0051 88.4417V88.3334H22.7431L22.7635 88.7123C22.9801 88.4687 23.3322 88.259 23.8062 88.259C24.3952 88.259 25.0926 88.6581 25.0926 89.8014Z" fill="white"/>
<path d="M28.3358 91.0935L28.4848 91.7497L28.4171 91.7835C28.2343 91.8782 27.8619 91.9932 27.4082 91.9932C26.3452 91.9932 25.6343 91.2559 25.6343 90.1667C25.6343 89.0776 26.4197 88.2659 27.5369 88.2659C27.9228 88.2659 28.2614 88.3673 28.4306 88.4485L28.5051 88.4891L28.3088 89.1656L28.1937 89.1047C28.0785 89.037 27.8687 88.9559 27.5369 88.9559C26.8801 88.9559 26.4535 89.4159 26.4535 90.1329C26.4535 90.85 26.8801 91.3032 27.5166 91.3032C27.8416 91.3032 28.0515 91.2153 28.2275 91.1409L28.3358 91.0935Z" fill="white"/>
<path d="M30.3738 88.259C29.3853 88.259 28.7014 89.0505 28.7014 90.187C28.7014 91.3234 29.3853 91.9932 30.4483 91.9932C31.0103 91.9932 31.3894 91.8714 31.6061 91.7767L31.6874 91.7429L31.5316 91.1002L31.4233 91.1476C31.2202 91.2355 30.9764 91.3167 30.5363 91.3167C30.2316 91.3167 29.5545 91.2152 29.4868 90.3426H31.8295L31.8431 90.2208C31.8499 90.1599 31.8634 90.0652 31.8634 89.9502C31.8634 89.1723 31.4707 88.259 30.3738 88.259ZM29.5004 89.6999C29.5749 89.3617 29.8051 88.9017 30.3196 88.9017C30.5295 88.9017 30.6988 88.9626 30.8275 89.0911C31.0035 89.2737 31.0509 89.5376 31.0577 89.6999H29.5004Z" fill="white"/>
<path d="M35.7972 87.1699V91.9255H35.005V88.0087L34.2467 88.4282L34.0774 87.7517L35.1743 87.1699H35.7972Z" fill="white"/>
<path d="M38.8509 87.0957C37.9166 87.0957 37.2124 87.8331 37.2124 88.8139C37.2124 89.6798 37.815 90.3089 38.641 90.3089C38.9931 90.3089 39.3046 90.2007 39.5551 90.0045C39.4603 90.3495 39.291 90.6336 39.0541 90.8501C38.8239 91.0734 38.5192 91.2154 38.1739 91.2628C37.9707 91.2831 37.8218 91.2966 37.6999 91.2898L37.5916 91.2763V91.9866H37.6864L37.8015 91.9934C37.9166 91.9934 38.0791 91.9866 38.2619 91.9595C38.79 91.8986 39.2843 91.6686 39.6364 91.3236C40.002 90.9584 40.4421 90.2886 40.4421 89.1116C40.4421 87.9345 39.8192 87.0957 38.8509 87.0957ZM38.8035 87.7654C39.5416 87.7654 39.6228 88.6583 39.6228 89.0372C39.6228 89.1116 39.6093 89.1657 39.5822 89.2131C39.4265 89.4769 39.1285 89.6325 38.7832 89.6325C38.316 89.6325 38.0181 89.2942 38.0181 88.7733C38.0181 88.1781 38.3364 87.7654 38.8035 87.7654Z" fill="white"/>
<path d="M42.4056 87.0957C41.4713 87.0957 40.7671 87.8331 40.7671 88.8139C40.7671 89.6798 41.3697 90.3089 42.1957 90.3089C42.5478 90.3089 42.8593 90.2007 43.1166 90.0045C43.015 90.3495 42.8457 90.6336 42.6155 90.8501C42.3785 91.0734 42.0739 91.2154 41.7285 91.2628C41.5254 91.2831 41.3765 91.2966 41.2614 91.2898L41.1463 91.2763V91.9866H41.241L41.3562 91.9934C41.478 91.9934 41.6338 91.9866 41.8233 91.9595C42.3447 91.8986 42.839 91.6686 43.191 91.3236C43.5567 90.9584 43.9968 90.2886 43.9968 89.1116C43.9968 87.9345 43.3739 87.0957 42.4056 87.0957ZM42.3582 87.7654C43.0963 87.7654 43.1775 88.6583 43.1775 89.0372C43.1775 89.1116 43.164 89.1657 43.1369 89.2131C42.9812 89.4769 42.6832 89.6325 42.3379 89.6325C41.8707 89.6325 41.5728 89.2942 41.5728 88.7733C41.5728 88.1781 41.8978 87.7654 42.3582 87.7654Z" fill="white"/>
<path d="M46.1161 88.7258C45.7573 88.7258 45.4323 88.8408 45.175 89.0505C45.3714 88.4011 45.8792 87.9547 46.5901 87.8397C46.7391 87.8126 46.8948 87.8058 47.0234 87.8058H47.1318V87.1023H47.0302C46.8812 87.1023 46.7255 87.1158 46.5698 87.1361C45.9807 87.2105 45.4594 87.4541 45.0734 87.8397C44.5589 88.3538 44.2812 89.1047 44.2812 89.9638C44.2812 91.2017 44.9448 91.9999 45.974 91.9999C47.0031 91.9999 47.5719 91.1205 47.5719 90.2952C47.5719 89.3685 46.976 88.7258 46.1161 88.7258ZM45.9672 91.3235C45.4255 91.3235 45.0938 90.8702 45.0802 90.1194C45.0802 90.0382 45.1005 89.957 45.1344 89.8961C45.2901 89.5849 45.6016 89.3888 45.9198 89.3888C46.4276 89.3888 46.7458 89.7541 46.7458 90.3291C46.7458 90.9041 46.4344 91.3235 45.9672 91.3235Z" fill="white"/>
</g>
<defs>
<clipPath id="clip0_1_292">
<rect width="65" height="92" fill="white"/>
</clipPath>
</defs>
</svg>
