<?xml version="1.0" encoding="UTF-8"?>
<svg id="Layer_1" xmlns="http://www.w3.org/2000/svg" version="1.1" viewBox="0 0 1531.4 1078.5">
  <!-- Generator: Adobe Illustrator 30.2.1, SVG Export Plug-In . SVG Version: 2.1.1 Build 1)  -->
  <defs>
    <style>
      .st0 {
        fill: #fff;
      }

      .st1 {
        fill: #f8991d;
      }
    </style>
  </defs>
  <g>
    <g>
      <path class="st1" d="M1264.2,915.6c-9.2,1.5-17.8-4.7-19.3-13.9s4.7-17.8,13.9-19.3,17.8,4.7,19.3,13.9-4.7,17.8-13.9,19.3Z"/>
      <circle class="st1" cx="1188" cy="926.3" r="19.3"/>
      <circle class="st1" cx="1109.9" cy="934.5" r="20.9" transform="translate(-325.6 723.4) rotate(-31.7)"/>
      <circle class="st1" cx="1031.8" cy="925.7" r="22.2"/>
      <circle class="st1" cx="957.6" cy="900.3" r="23.2"/>
      <circle class="st1" cx="890.1" cy="860.1" r="24"/>
      <circle class="st1" cx="832.4" cy="806.8" r="24.6"/>
      <circle class="st1" cx="787" cy="742.7" r="25"/>
      <circle class="st1" cx="755.5" cy="670.8" r="25.2"/>
      <circle class="st1" cx="739.3" cy="594" r="25.3"/>
      <circle class="st1" cx="738.9" cy="515.4" r="25.1"/>
      <circle class="st1" cx="754.4" cy="438.5" r="24.8"/>
      <circle class="st1" cx="785.4" cy="366.3" r="24.3"/>
      <circle class="st1" cx="830.5" cy="302.1" r="23.6"/>
      <circle class="st1" cx="888.1" cy="248.6" r="22.7" transform="translate(-18.8 81) rotate(-5.2)"/>
      <circle class="st1" cx="955.6" cy="208.6" r="21.6" transform="translate(-21.1 156) rotate(-9.2)"/>
      <circle class="st1" cx="1030.1" cy="183.9" r="20.3"/>
      <circle class="st1" cx="1108.3" cy="176.6" r="18.9"/>
      <circle class="st1" cx="1186.1" cy="187.5" r="17.5" transform="translate(731.4 1298.9) rotate(-76.7)"/>
      <circle class="st1" cx="1260" cy="213.8" r="15.8"/>
      <circle class="st1" cx="1327.3" cy="254.4" r="14" transform="translate(-12.3 433.1) rotate(-18.5)"/>
      <circle class="st1" cx="1384.2" cy="308.4" r="12"/>
      <path class="st1" d="M1339.5,907.8c-8.7,1.4-16.9-4.5-18.3-13.2-1.4-8.7,4.5-16.9,13.2-18.3,8.7-1.4,16.9,4.5,18.3,13.2s-4.5,16.9-13.2,18.3Z"/>
      <path class="st1" d="M1267.2,966.1c-10.6,1.7-20.7-5.5-22.4-16.1s5.5-20.7,16.1-22.4c10.6-1.7,20.7,5.5,22.4,16.1s-5.5,20.7-16.1,22.4Z"/>
      <circle class="st1" cx="1178.6" cy="978.5" r="22.5"/>
      <circle class="st1" cx="1087.8" cy="988" r="24.3"/>
      <circle class="st1" cx="997" cy="977.8" r="25.8"/>
      <circle class="st1" cx="910.6" cy="948.3" r="26.9"/>
      <circle class="st1" cx="832.2" cy="901.6" r="27.9"/>
      <circle class="st1" cx="765.1" cy="839.6" r="28.6"/>
      <circle class="st1" cx="712.3" cy="765" r="29.1"/>
      <circle class="st1" cx="675.7" cy="681.4" r="29.3"/>
      <circle class="st1" cx="656.9" cy="592.1" r="29.4"/>
      <circle class="st1" cx="656.3" cy="500.7" r="29.2" transform="translate(-106.6 185.5) rotate(-14.9)"/>
      <circle class="st1" cx="674.4" cy="411.3" r="28.9" transform="translate(-57.2 113.5) rotate(-9.2)"/>
      <circle class="st1" cx="710.4" cy="327.3" r="28.3"/>
      <circle class="st1" cx="762.9" cy="252.7" r="27.5" transform="translate(-30.7 125.6) rotate(-9.2)"/>
      <circle class="st1" cx="829.8" cy="190.5" r="26.4" transform="translate(-13.8 75.6) rotate(-5.2)"/>
      <circle class="st1" cx="908.4" cy="144" r="25.1"/>
      <circle class="st1" cx="995" cy="115.2" r="23.6"/>
      <circle class="st1" cx="1085.9" cy="106.8" r="22"/>
      <circle class="st1" cx="1176.4" cy="119.4" r="20.3" transform="translate(790.1 1237) rotate(-76.7)"/>
      <circle class="st1" cx="1262.3" cy="150.1" r="18.4"/>
      <circle class="st1" cx="1340.5" cy="197.2" r="16.3" transform="translate(6.5 434.4) rotate(-18.5)"/>
      <circle class="st1" cx="1406.8" cy="260" r="14"/>
      <path class="st1" d="M1457.7,348.1c-6.2,1-12.1-3.2-13.1-9.4-1-6.2,3.2-12.1,9.4-13.1,6.2-1,12.1,3.2,13.1,9.4,1,6.2-3.2,12.1-9.4,13.1Z"/>
      <circle class="st1" cx="1416.4" cy="854.7" r="13.6" transform="translate(-118.8 238.3) rotate(-9.2)"/>
      <path class="st1" d="M1354.7,957c-10.1,1.6-19.6-5.2-21.2-15.3-1.6-10.1,5.2-19.6,15.3-21.2,10.1-1.6,19.6,5.2,21.2,15.3s-5.2,19.6-15.3,21.2Z"/>
      <path class="st1" d="M1270.7,1024.8c-12.4,2-24-6.4-26-18.8s6.4-24,18.8-26c12.4-2,24,6.4,26,18.8s-6.4,24-18.8,26Z"/>
      <circle class="st1" cx="1167.6" cy="1039.2" r="26.2"/>
      <circle class="st1" cx="1062" cy="1050.3" r="28.3" transform="translate(-393.6 715.5) rotate(-31.7)"/>
      <circle class="st1" cx="956.5" cy="1038.3" r="30"/>
      <circle class="st1" cx="856" cy="1004.1" r="31.3" transform="translate(-87 81.2) rotate(-5.2)"/>
      <circle class="st1" cx="764.8" cy="949.7" r="32.4"/>
      <circle class="st1" cx="686.9" cy="877.6" r="33.2"/>
      <circle class="st1" cx="625.5" cy="791" r="33.8"/>
      <circle class="st1" cx="582.9" cy="693.8" r="34.1"/>
      <circle class="st1" cx="561" cy="589.9" r="34.2"/>
      <circle class="st1" cx="560.4" cy="483.7" r="34" transform="translate(-105.5 160.2) rotate(-14.9)"/>
      <circle class="st1" cx="581.4" cy="379.6" r="33.6"/>
      <circle class="st1" cx="623.3" cy="282" r="32.9"/>
      <circle class="st1" cx="684.3" cy="195.2" r="32" transform="translate(-22.5 112.3) rotate(-9.2)"/>
      <circle class="st1" cx="762.1" cy="122.9" r="30.7" transform="translate(-8 69.2) rotate(-5.2)"/>
      <circle class="st1" cx="853.4" cy="68.8" r="29.2" transform="translate(0 137.8) rotate(-9.2)"/>
      <circle class="st1" cx="954.2" cy="35.4" r="27.4"/>
      <circle class="st1" cx="1059.8" cy="25.6" r="25.6"/>
      <circle class="st1" cx="1165" cy="40.3" r="23.6"/>
      <circle class="st1" cx="1265" cy="75.9" r="21.4"/>
      <circle class="st1" cx="1355.9" cy="130.7" r="19" transform="translate(28.3 435.8) rotate(-18.5)"/>
      <circle class="st1" cx="1432.9" cy="203.7" r="16.2"/>
      <path class="st1" d="M1492.2,306.2c-7.2,1.2-14-3.7-15.2-11-1.2-7.2,3.7-14,10.9-15.2s14,3.7,15.2,10.9c1.2,7.2-3.7,14-10.9,15.2h0Z"/>
      <path class="st1" d="M1523.1,404.1c-5.4.9-10.5-2.8-11.3-8.2s2.8-10.5,8.2-11.3,10.5,2.8,11.3,8.2-2.8,10.5-8.2,11.3Z"/>
    </g>
    <path class="st0" d="M514,755.5c0,155.4-124.2,281.4-277.5,281.4S48.8,983.2,0,902.7l46.1-37.7c37.6,67.2,108.8,112.5,190.4,112.5,120.9,0,218.9-99.4,218.9-222s-93.4-217.2-210.3-221.8c-2.9-.1-5.7-.2-8.6-.2-28.1,0-55,5.4-79.7,15.2l57.8-73.8,186.7-238.2H61.3v-60.2h463.8l-47.2,60.2-189.9,242.2c128.6,24.5,226,139,226,276.6Z"/>
  </g>
  <g>
    <path class="st0" d="M890.7,583.2v-50.6l5.5,14.4-55.7-91.7h25.2l44.9,74h-14.2l44.8-74h23.4l-55.5,91.7,5.3-14.4v50.6h-23.6Z"/>
    <path class="st0" d="M977.5,583.2v-127.9h93.3v20.1h-69.6v87.7h72.1v20.1h-95.9,0ZM999.4,528v-19.5h63.6v19.5h-63.6,0Z"/>
    <path class="st0" d="M1081.8,583.2l57.5-127.9h23.4l57.7,127.9h-25l-49.3-115.2h9.5l-49.5,115.2h-24.3ZM1108.2,553.6l6.6-18.6h68.9l6.4,18.6h-81.8Z"/>
    <path class="st0" d="M1236.7,583.2v-127.9h52.4c17,0,30.4,4.1,40.1,12.2,9.7,8.1,14.5,19.2,14.5,33.3s-2.2,17.4-6.6,24.1c-4.4,6.7-10.6,11.9-18.7,15.5-8.1,3.7-17.8,5.5-29.1,5.5h-39.3l10.4-10.6v47.8h-23.8ZM1260.4,537.9l-10.4-11.5h38.2c10.5,0,18.3-2.2,23.6-6.8,5.3-4.5,7.9-10.8,7.9-18.8s-2.7-14.3-7.9-18.7c-5.3-4.5-13.2-6.7-23.6-6.7h-38.2l10.4-11.7v74.2ZM1320.3,583.2l-32.3-46.4h25.4l32.5,46.4h-25.6Z"/>
    <path class="st0" d="M1409.8,585c-10,0-19.5-1.4-28.6-4.3-9.1-2.8-16.3-6.5-21.8-11l8.2-18.4c5.1,4,11.4,7.4,19,10,7.6,2.7,15.3,4,23.2,4s12.1-.7,16.3-2.2c4.1-1.5,7.2-3.5,9.1-5.9,2-2.5,2.9-5.3,2.9-8.5s-1.4-7-4.2-9.4c-2.8-2.4-6.4-4.2-10.9-5.7-4.4-1.4-9.4-2.7-14.8-3.8-5.4-1.2-10.8-2.6-16.3-4.3-5.4-1.7-10.4-3.9-14.9-6.5-4.5-2.6-8.1-6.1-10.9-10.5-2.7-4.4-4.1-10-4.1-16.8s1.8-13.3,5.6-19.1c3.7-5.8,9.4-10.4,17-13.9,7.6-3.5,17.3-5.2,29-5.2s15.3,1,22.8,2.9c7.6,1.9,14.1,4.7,19.7,8.4l-7.5,18.4c-5.7-3.4-11.6-5.9-17.7-7.6-6.1-1.6-11.9-2.5-17.5-2.5s-11.8.8-15.9,2.4c-4.1,1.6-7.2,3.7-9,6.3s-2.8,5.5-2.8,8.7,1.4,7,4.1,9.4,6.3,4.2,10.8,5.6c4.4,1.3,9.4,2.6,14.9,3.9s10.9,2.6,16.3,4.3c5.3,1.7,10.3,3.8,14.8,6.4,4.5,2.6,8.1,6.1,10.9,10.4s4.1,9.8,4.1,16.5-1.9,13.1-5.6,18.9c-3.7,5.8-9.4,10.4-17.1,13.9-7.7,3.5-17.4,5.2-29.1,5.2h0Z"/>
  </g>
  <g>
    <path class="st1" d="M895.1,648.3l-15.1,13.3-9-10.4,24.5-20.7h14.9v75.2h-15.3v-57.3Z"/>
    <path class="st1" d="M959.7,678.7c-.8.2-1.7.4-2.5.5s-1.7.2-2.7.2c-3.5,0-6.8-.6-9.7-1.9-2.9-1.3-5.4-3-7.4-5.2s-3.7-4.8-4.8-7.8-1.7-6.2-1.7-9.6.7-7.4,2.2-10.6c1.5-3.2,3.4-5.8,5.9-8.1,2.5-2.3,5.5-4,8.9-5.2s7.1-1.9,11-1.9,7.5.6,11,1.9c3.4,1.2,6.4,3,8.9,5.2,2.5,2.3,4.5,5,5.9,8.1s2.2,6.7,2.2,10.6-.2,5.2-.7,7.4c-.5,2.2-1.2,4.3-2,6.3s-1.8,3.9-2.9,5.7c-1.1,1.8-2.2,3.7-3.5,5.6l-16.5,25.7h-19.4l17.6-26.8h0ZM946.9,655.6c0,3.4,1.1,6.2,3.3,8.4,2.2,2.2,5.2,3.3,8.8,3.3s6.5-1.1,8.8-3.3c2.2-2.2,3.3-5,3.3-8.4s-1.1-6.2-3.3-8.4c-2.2-2.2-5.2-3.3-8.8-3.3s-6.5,1.1-8.8,3.3c-2.2,2.2-3.3,5-3.3,8.4Z"/>
    <path class="st1" d="M1022.6,678.7c-.8.2-1.7.4-2.5.5s-1.7.2-2.7.2c-3.5,0-6.8-.6-9.7-1.9-2.9-1.3-5.4-3-7.4-5.2s-3.7-4.8-4.8-7.8-1.7-6.2-1.7-9.6.7-7.4,2.2-10.6c1.5-3.2,3.4-5.8,5.9-8.1,2.5-2.3,5.5-4,8.9-5.2s7.1-1.9,11-1.9,7.6.6,11,1.9c3.4,1.2,6.4,3,8.9,5.2,2.5,2.3,4.5,5,5.9,8.1s2.2,6.7,2.2,10.6-.2,5.2-.7,7.4c-.5,2.2-1.2,4.3-2,6.3-.8,2-1.8,3.9-2.9,5.7-1.1,1.8-2.2,3.7-3.4,5.6l-16.4,25.7h-19.4l17.6-26.8h0ZM1009.7,655.6c0,3.4,1.1,6.2,3.3,8.4,2.2,2.2,5.2,3.3,8.8,3.3s6.5-1.1,8.8-3.3c2.2-2.2,3.3-5,3.3-8.4s-1.1-6.2-3.3-8.4-5.2-3.3-8.8-3.3-6.5,1.1-8.8,3.3c-2.2,2.2-3.3,5-3.3,8.4h0Z"/>
    <path class="st1" d="M1083.5,657.3c.8-.2,1.7-.4,2.6-.5.8-.1,1.7-.2,2.7-.2,3.5,0,6.8.6,9.7,1.9,2.9,1.3,5.4,3,7.4,5.2,2.1,2.2,3.6,4.8,4.8,7.8,1.1,3,1.7,6.2,1.7,9.6s-.7,7.4-2.2,10.6c-1.4,3.2-3.4,5.9-5.9,8.1-2.5,2.3-5.5,4-8.9,5.2-3.4,1.2-7.1,1.9-11,1.9s-7.6-.6-11-1.9-6.3-3-8.9-5.2-4.5-5-5.9-8.1-2.2-6.7-2.2-10.6.2-5.2.7-7.4,1.2-4.3,2-6.3c.8-2,1.8-3.9,2.9-5.7,1.1-1.8,2.2-3.7,3.4-5.6l16.4-25.7h19.4l-17.6,26.9h0ZM1096.3,680.4c0-3.4-1.1-6.2-3.3-8.4s-5.2-3.3-8.8-3.3-6.5,1.1-8.8,3.3c-2.2,2.2-3.3,5-3.3,8.4s1.1,6.2,3.3,8.4,5.2,3.3,8.8,3.3,6.5-1.1,8.8-3.3c2.2-2.2,3.3-5,3.3-8.4Z"/>
    <path class="st1" d="M1176.1,685.5h-26.1v-12.7h26.1v12.7Z"/>
    <path class="st1" d="M1215.3,688.7l29.2-26.2c1.5-1.3,3-2.9,4.5-4.6,1.5-1.7,2.2-3.7,2.2-6s-.9-4.5-2.8-6c-1.8-1.5-4-2.2-6.5-2.2s-5.3.9-6.9,2.8c-1.7,1.8-2.6,4.1-2.8,6.8l-15.9-1.2c.2-3.9,1-7.3,2.4-10.1,1.4-2.9,3.3-5.2,5.6-7.2,2.3-1.9,5.1-3.3,8.2-4.3,3.2-1,6.6-1.4,10.2-1.4s6.6.5,9.6,1.4c3,1,5.6,2.4,7.8,4.2,2.2,1.9,3.9,4.2,5.2,7.1s1.9,6.1,1.9,9.9-.2,4.6-.7,6.5c-.5,2-1.2,3.7-2.1,5.3-.9,1.6-1.9,3.1-3.1,4.4-1.2,1.3-2.5,2.7-3.9,3.9l-22.8,19.6h33.3v14h-52.4v-16.9h0Z"/>
    <path class="st1" d="M1276.5,668c0-4.5.4-9,1.2-13.6.8-4.6,2.3-8.8,4.3-12.5,2.1-3.8,4.9-6.8,8.5-9.2,3.6-2.4,8.2-3.5,13.8-3.5s10.2,1.2,13.8,3.5c3.6,2.4,6.5,5.4,8.5,9.2,2.1,3.8,3.5,7.9,4.3,12.5.8,4.6,1.2,9.1,1.2,13.6s-.4,9-1.2,13.6c-.8,4.6-2.3,8.8-4.3,12.5s-4.9,6.8-8.5,9.2c-3.6,2.4-8.2,3.5-13.8,3.5s-10.2-1.2-13.8-3.5c-3.6-2.4-6.5-5.4-8.5-9.2-2.1-3.8-3.5-7.9-4.3-12.5-.8-4.6-1.2-9.1-1.2-13.6ZM1292.4,668c0,2,0,4.3.3,7.1s.7,5.4,1.4,8c.8,2.5,2,4.7,3.6,6.5,1.6,1.8,3.8,2.7,6.7,2.7s5.1-.9,6.7-2.7c1.6-1.8,2.8-3.9,3.6-6.5.8-2.5,1.3-5.2,1.4-8,.2-2.8.3-5.1.3-7.1s0-4.3-.3-7.1c-.2-2.8-.7-5.4-1.4-8-.8-2.5-2-4.7-3.6-6.5-1.6-1.8-3.9-2.7-6.7-2.7s-5.2.9-6.7,2.7-2.8,3.9-3.6,6.5c-.8,2.5-1.3,5.2-1.4,8-.2,2.8-.3,5.1-.3,7.1Z"/>
    <path class="st1" d="M1341,688.7l29.2-26.2c1.5-1.3,3-2.9,4.5-4.6,1.5-1.7,2.2-3.7,2.2-6s-.9-4.5-2.8-6c-1.8-1.5-4-2.2-6.5-2.2s-5.3.9-6.9,2.8c-1.7,1.8-2.6,4.1-2.8,6.8l-15.9-1.2c.2-3.9,1-7.3,2.4-10.1,1.4-2.9,3.3-5.2,5.6-7.2,2.3-1.9,5.1-3.3,8.2-4.3,3.2-1,6.6-1.4,10.2-1.4s6.6.5,9.6,1.4c3,1,5.6,2.4,7.8,4.2,2.2,1.9,3.9,4.2,5.2,7.1s1.9,6.1,1.9,9.9-.2,4.6-.7,6.5c-.5,2-1.2,3.7-2.1,5.3-.9,1.6-1.9,3.1-3.1,4.4-1.2,1.3-2.5,2.7-3.9,3.9l-22.8,19.6h33.3v14h-52.4v-16.9h0Z"/>
    <path class="st1" d="M1429.1,657.3c.8-.2,1.7-.4,2.6-.5.8-.1,1.7-.2,2.7-.2,3.5,0,6.8.6,9.7,1.9,2.9,1.3,5.4,3,7.4,5.2,2.1,2.2,3.6,4.8,4.8,7.8,1.1,3,1.7,6.2,1.7,9.6s-.7,7.4-2.2,10.6c-1.4,3.2-3.4,5.9-5.9,8.1-2.5,2.3-5.5,4-8.9,5.2-3.4,1.2-7.1,1.9-11,1.9s-7.6-.6-11-1.9-6.3-3-8.9-5.2-4.5-5-5.9-8.1c-1.4-3.2-2.2-6.7-2.2-10.6s.2-5.2.7-7.4,1.2-4.3,2-6.3c.8-2,1.8-3.9,2.9-5.7,1.1-1.8,2.2-3.7,3.4-5.6l16.4-25.7h19.4l-17.6,26.9h0ZM1441.9,680.4c0-3.4-1.1-6.2-3.3-8.4s-5.2-3.3-8.8-3.3-6.5,1.1-8.8,3.3c-2.2,2.2-3.3,5-3.3,8.4s1.1,6.2,3.3,8.4,5.2,3.3,8.8,3.3,6.5-1.1,8.8-3.3c2.2-2.2,3.3-5,3.3-8.4Z"/>
  </g>
</svg>