<?xml version="1.0" encoding="UTF-8"?><svg id="Layer_2" xmlns="http://www.w3.org/2000/svg" viewBox="0 0 208.92 296.15"><defs><style>.cls-1{fill:#010101;}.cls-2{fill:#f89521;}</style></defs><g id="Layer_1-2"><path class="cls-2" d="M88.82,5.57c0,3.09-2.48,5.6-5.53,5.6s-5.53-2.5-5.53-5.6,2.48-5.57,5.53-5.57,5.53,2.48,5.53,5.57"/><path class="cls-2" d="M38.28,43.79c0,2.87-2.31,5.2-5.16,5.2s-5.16-2.33-5.16-5.2,2.31-5.2,5.16-5.2,5.16,2.35,5.16,5.2"/><path class="cls-2" d="M52.65,36.19c0,2.87-2.31,5.2-5.16,5.2s-5.16-2.33-5.16-5.2,2.31-5.2,5.16-5.2,5.16,2.33,5.16,5.2"/><path class="cls-2" d="M67.05,28.57c0,2.87-2.31,5.23-5.16,5.23s-5.16-2.33-5.16-5.23,2.31-5.2,5.16-5.2,5.16,2.33,5.16,5.2"/><path class="cls-2" d="M82.66,21.71c0,2.68-2.13,4.83-4.79,4.83s-4.79-2.16-4.79-4.83,2.13-4.83,4.79-4.83,4.79,2.18,4.79,4.83"/><path class="cls-2" d="M78.02,35.41c0,2.26-1.81,4.09-4.05,4.09s-4.05-1.83-4.05-4.09,1.81-4.09,4.05-4.09,4.05,1.83,4.05,4.09"/><path class="cls-2" d="M74.26,48.45c0,1.85-1.48,3.35-3.31,3.35s-3.31-1.48-3.31-3.35,1.48-3.35,3.31-3.35,3.31,1.5,3.31,3.35"/><path class="cls-2" d="M72.17,58.69c0,1.44-1.15,2.59-2.59,2.59s-2.57-1.15-2.57-2.59,1.15-2.61,2.57-2.61,2.59,1.18,2.59,2.61"/><path class="cls-2" d="M70.58,68.18c0,1.02-.83,1.87-1.85,1.87s-1.85-.83-1.85-1.87.83-1.87,1.85-1.87,1.85.83,1.85,1.87"/><path class="cls-2" d="M38.28,58.62c0,2.68-2.13,4.83-4.79,4.83s-4.79-2.18-4.79-4.83,2.13-4.83,4.79-4.83,4.79,2.16,4.79,4.83"/><path class="cls-2" d="M51,49.71c0,2.68-2.13,4.83-4.79,4.83s-4.79-2.16-4.79-4.83,2.13-4.86,4.79-4.86,4.79,2.18,4.79,4.86"/><path class="cls-2" d="M50.43,61.63c0,2.48-1.98,4.46-4.42,4.46s-4.42-2-4.42-4.46,1.98-4.46,4.42-4.46,4.42,2,4.42,4.46"/><path class="cls-2" d="M63.04,53.9c0,2.46-1.98,4.46-4.42,4.46s-4.42-2-4.42-4.46,1.98-4.46,4.42-4.46,4.42,2,4.42,4.46"/><path class="cls-2" d="M51.48,72.12c0,2.26-1.83,4.09-4.05,4.09s-4.05-1.85-4.05-4.09,1.81-4.09,4.05-4.09,4.05,1.83,4.05,4.09"/><path class="cls-2" d="M61.97,64.81c0,2.26-1.81,4.09-4.05,4.09s-4.05-1.83-4.05-4.09,1.81-4.09,4.05-4.09,4.05,1.83,4.05,4.09"/><path class="cls-2" d="M53.76,82.01c0,2.07-1.65,3.72-3.7,3.72s-3.68-1.65-3.68-3.72,1.65-3.72,3.68-3.72,3.7,1.68,3.7,3.72"/><path class="cls-2" d="M62.19,74.3c0,2.07-1.63,3.72-3.68,3.72s-3.7-1.65-3.7-3.72,1.65-3.75,3.7-3.75,3.68,1.68,3.68,3.75"/><path class="cls-2" d="M58.36,90.22c0,1.87-1.48,3.35-3.31,3.35s-3.31-1.5-3.31-3.35,1.48-3.33,3.31-3.33,3.31,1.48,3.31,3.33"/><path class="cls-2" d="M64.43,82.29c0,1.85-1.48,3.33-3.31,3.33s-3.31-1.48-3.31-3.33,1.48-3.35,3.31-3.35,3.31,1.5,3.31,3.35"/><path class="cls-2" d="M63.69,96.55c0,1.65-1.33,2.98-2.96,2.98s-2.94-1.33-2.94-2.98,1.33-2.98,2.94-2.98,2.96,1.33,2.96,2.98"/><path class="cls-2" d="M67.68,89c0,1.63-1.31,2.98-2.94,2.98s-2.94-1.35-2.94-2.98,1.33-2.98,2.94-2.98,2.94,1.33,2.94,2.98"/><path class="cls-2" d="M68.35,102.06c0,1.42-1.15,2.59-2.59,2.59s-2.59-1.18-2.59-2.59,1.15-2.61,2.59-2.61,2.59,1.18,2.59,2.61"/><path class="cls-2" d="M71.21,94.96c0,1.44-1.15,2.59-2.57,2.59s-2.59-1.15-2.59-2.59,1.15-2.59,2.59-2.59,2.57,1.15,2.57,2.59"/><path class="cls-2" d="M72.73,106.61c0,1.24-.98,2.22-2.22,2.22s-2.2-1-2.2-2.22,1-2.24,2.2-2.24,2.22,1,2.22,2.24"/><path class="cls-2" d="M74.65,99.91c0,1.24-.98,2.22-2.2,2.22s-2.22-1-2.22-2.22,1-2.24,2.22-2.24,2.2,1,2.2,2.24"/><path class="cls-2" d="M76.85,110.4c0,1.02-.83,1.85-1.85,1.85s-1.85-.83-1.85-1.85.83-1.85,1.85-1.85,1.85.83,1.85,1.85"/><path class="cls-2" d="M77.94,104c0,1.02-.81,1.87-1.85,1.87s-1.83-.85-1.83-1.87.83-1.85,1.83-1.85,1.85.83,1.85,1.85"/><path class="cls-2" d="M80.46,113.58c0,.81-.65,1.48-1.48,1.48s-1.48-.68-1.48-1.48.65-1.5,1.48-1.5,1.48.68,1.48,1.5"/><path class="cls-2" d="M81.22,107.27c0,.83-.65,1.5-1.48,1.5s-1.46-.68-1.46-1.5.68-1.48,1.46-1.48,1.48.65,1.48,1.48"/><path class="cls-2" d="M64.3,42.03c0,2.66-2.13,4.83-4.77,4.83s-4.79-2.16-4.79-4.83,2.13-4.86,4.79-4.86,4.77,2.16,4.77,4.86"/><path class="cls-2" d="M38.74,71.51c0,2.46-1.98,4.46-4.42,4.46s-4.42-2-4.42-4.46,1.98-4.46,4.42-4.46,4.42,2,4.42,4.46"/><path class="cls-2" d="M40.29,83.01c0,2.26-1.81,4.09-4.05,4.09s-4.05-1.83-4.05-4.09,1.81-4.09,4.05-4.09,4.05,1.83,4.05,4.09"/><path class="cls-2" d="M43.18,93.48c0,2.07-1.65,3.72-3.68,3.72s-3.68-1.65-3.68-3.72,1.65-3.72,3.68-3.72,3.68,1.68,3.68,3.72"/><path class="cls-2" d="M48.3,102.15c0,1.85-1.48,3.35-3.33,3.35s-3.31-1.5-3.31-3.35,1.48-3.35,3.31-3.35,3.33,1.5,3.33,3.35"/><path class="cls-2" d="M54.29,109.23c0,1.63-1.31,2.96-2.94,2.96s-2.94-1.33-2.94-2.96,1.33-2.98,2.94-2.98,2.94,1.35,2.94,2.98"/><path class="cls-2" d="M56.16,99.36c0,1.65-1.33,2.98-2.94,2.98s-2.94-1.33-2.94-2.98,1.33-2.96,2.94-2.96,2.94,1.33,2.94,2.96"/><path class="cls-2" d="M60.73,114.48c0,1.44-1.15,2.61-2.59,2.61s-2.59-1.18-2.59-2.61,1.15-2.61,2.59-2.61,2.59,1.18,2.59,2.61"/><path class="cls-2" d="M61.69,105.64c0,1.46-1.15,2.61-2.57,2.61s-2.59-1.15-2.59-2.61,1.15-2.61,2.59-2.61,2.57,1.15,2.57,2.61"/><path class="cls-2" d="M66.59,118.42c0,1.24-.98,2.24-2.2,2.24s-2.22-1-2.22-2.24.98-2.22,2.22-2.22,2.2.98,2.2,2.22"/><path class="cls-2" d="M66.85,110.56c0,1.22-.98,2.22-2.22,2.22s-2.2-1-2.2-2.22.98-2.22,2.2-2.22,2.22,1,2.22,2.22"/><path class="cls-2" d="M71.86,122.29c0,1.02-.83,1.87-1.85,1.87s-1.85-.85-1.85-1.87.83-1.87,1.85-1.87,1.85.83,1.85,1.87"/><path class="cls-2" d="M71.53,114.65c0,1.02-.83,1.87-1.83,1.87s-1.85-.85-1.85-1.87.83-1.85,1.85-1.85,1.83.83,1.83,1.85"/><path class="cls-2" d="M76.43,125.26c0,.81-.65,1.48-1.46,1.48s-1.48-.68-1.48-1.48.68-1.5,1.48-1.5,1.46.68,1.46,1.5"/><path class="cls-2" d="M76.19,117.87c0,.83-.65,1.5-1.48,1.5s-1.48-.65-1.48-1.5.65-1.48,1.48-1.48,1.48.68,1.48,1.48"/><path class="cls-2" d="M71.88,12.87c0,3.07-2.48,5.6-5.53,5.6s-5.53-2.5-5.53-5.6,2.48-5.6,5.53-5.6,5.53,2.53,5.53,5.6"/><path class="cls-2" d="M54.96,20.14c0,3.09-2.48,5.57-5.53,5.57s-5.53-2.5-5.53-5.57,2.48-5.6,5.53-5.6,5.53,2.5,5.53,5.6"/><path class="cls-2" d="M38.04,27.44c0,3.07-2.48,5.57-5.53,5.57s-5.53-2.5-5.53-5.57,2.48-5.6,5.53-5.6,5.53,2.5,5.53,5.6"/><path class="cls-2" d="M80.27,127.85c0,.61-.5,1.11-1.09,1.11s-1.11-.5-1.11-1.11.5-1.11,1.11-1.11,1.09.48,1.09,1.11"/><path class="cls-2" d="M80.66,120.44c0,.61-.48,1.11-1.11,1.11s-1.09-.5-1.09-1.11.5-1.13,1.09-1.13,1.11.5,1.11,1.13"/><path class="cls-2" d="M188.12,56.31c-2.87,1.02-6.05-.5-7.06-3.4-1.02-2.92.48-6.1,3.35-7.14,2.87-1.02,6.05.5,7.06,3.42,1.02,2.9-.48,6.1-3.38,7.12"/><path class="cls-2" d="M135.6,20.93c-2.68.96-5.64-.46-6.58-3.16-.96-2.72.46-5.68,3.14-6.66,2.68-.96,5.64.46,6.58,3.18.96,2.72-.46,5.68-3.14,6.64"/><path class="cls-2" d="M147.51,32.1c-2.7.96-5.64-.46-6.58-3.18-.96-2.72.44-5.68,3.14-6.66,2.7-.96,5.64.46,6.6,3.18.96,2.7-.46,5.71-3.14,6.66"/><path class="cls-2" d="M159.4,43.25c-2.68.96-5.64-.46-6.58-3.18-.96-2.72.46-5.68,3.14-6.64,2.7-.96,5.64.46,6.58,3.16.96,2.72-.46,5.68-3.14,6.66"/><path class="cls-2" d="M171.03,55.86c-2.5.87-5.23-.44-6.1-2.98-.89-2.5.41-5.29,2.92-6.16,2.5-.89,5.23.44,6.12,2.94.89,2.53-.41,5.29-2.92,6.21"/><path class="cls-2" d="M156.68,55.99c-2.11.76-4.42-.37-5.18-2.5-.74-2.11.35-4.46,2.46-5.23,2.11-.76,4.44.35,5.18,2.48s-.35,4.46-2.48,5.23"/><path class="cls-2" d="M143.24,56.75c-1.72.63-3.64-.28-4.22-2.05-.61-1.76.28-3.66,2-4.29,1.74-.61,3.64.28,4.25,2.05.61,1.76-.28,3.68-2.03,4.29"/><path class="cls-2" d="M133.03,58.19c-1.35.48-2.83-.22-3.29-1.59-.48-1.35.24-2.83,1.57-3.33,1.35-.48,2.83.24,3.29,1.59.48,1.37-.22,2.87-1.57,3.33"/><path class="cls-2" d="M123.62,59.84c-.96.33-2-.17-2.35-1.13-.33-.98.15-2.03,1.13-2.37.96-.35,2.03.15,2.35,1.11.33.98-.15,2.05-1.13,2.4"/><path class="cls-2" d="M121.75,25.89c-2.5.89-5.23-.41-6.12-2.94-.89-2.5.44-5.29,2.92-6.16,2.5-.89,5.23.44,6.12,2.96.87,2.5-.41,5.29-2.92,6.16"/><path class="cls-2" d="M134.31,35.04c-2.5.89-5.23-.44-6.1-2.96-.89-2.53.41-5.29,2.92-6.18,2.5-.87,5.23.44,6.12,2.94.87,2.53-.41,5.29-2.92,6.18"/><path class="cls-2" d="M123.01,38.46c-2.29.83-4.81-.39-5.64-2.72-.83-2.33.39-4.88,2.68-5.71,2.31-.83,4.83.39,5.66,2.72.81,2.33-.39,4.88-2.7,5.71"/><path class="cls-2" d="M134.42,47.89c-2.29.83-4.81-.39-5.64-2.72s.39-4.88,2.7-5.71c2.31-.83,4.83.41,5.64,2.72.83,2.33-.39,4.86-2.7,5.68"/><path class="cls-2" d="M113.56,42.96c-2.11.76-4.44-.35-5.18-2.5-.74-2.13.35-4.46,2.48-5.2,2.11-.78,4.42.35,5.18,2.48.74,2.13-.37,4.46-2.46,5.23"/><path class="cls-2" d="M123.91,50.5c-2.11.76-4.42-.35-5.18-2.48-.74-2.13.35-4.46,2.46-5.23,2.11-.74,4.42.37,5.18,2.48.74,2.16-.35,4.49-2.46,5.23"/><path class="cls-2" d="M105.09,48.43c-1.92.68-4.01-.33-4.7-2.26-.68-1.94.33-4.07,2.24-4.75,1.92-.7,4.03.33,4.7,2.26.68,1.94-.33,4.07-2.24,4.75"/><path class="cls-2" d="M115.13,53.9c-1.92.68-4.03-.33-4.7-2.26-.68-1.94.33-4.07,2.24-4.77,1.92-.68,4.03.35,4.7,2.29s-.33,4.07-2.24,4.75"/><path class="cls-2" d="M98.97,55.55c-1.72.65-3.61-.28-4.25-2.03-.61-1.76.3-3.66,2.03-4.29,1.74-.61,3.64.28,4.25,2.05.61,1.74-.3,3.66-2.03,4.27"/><path class="cls-2" d="M108.42,58.69c-1.72.63-3.61-.3-4.22-2.05-.63-1.74.28-3.66,2.03-4.27,1.74-.63,3.61.28,4.22,2.05.61,1.74-.28,3.66-2.03,4.27"/><path class="cls-2" d="M94.86,62.74c-1.52.54-3.2-.26-3.77-1.81-.52-1.55.26-3.24,1.81-3.81,1.55-.54,3.22.26,3.77,1.81.54,1.57-.26,3.27-1.81,3.81"/><path class="cls-2" d="M103.24,64.04c-1.55.52-3.22-.26-3.77-1.83s.26-3.24,1.79-3.81c1.52-.54,3.22.28,3.77,1.83.54,1.55-.26,3.27-1.79,3.81"/><path class="cls-2" d="M91.28,69.03c-1.35.48-2.81-.22-3.29-1.59-.48-1.35.24-2.85,1.57-3.31,1.35-.5,2.81.22,3.29,1.59.48,1.37-.24,2.83-1.57,3.33"/><path class="cls-2" d="M98.82,69.38c-1.33.48-2.81-.24-3.29-1.59-.48-1.35.24-2.85,1.57-3.33,1.35-.48,2.81.22,3.29,1.59.48,1.37-.24,2.85-1.59,3.33"/><path class="cls-2" d="M88.48,74.71c-1.15.41-2.42-.2-2.83-1.37-.41-1.15.2-2.44,1.35-2.85,1.15-.41,2.42.2,2.83,1.35.41,1.18-.2,2.44-1.35,2.85"/><path class="cls-2" d="M95.38,74.3c-1.15.41-2.42-.2-2.81-1.37-.41-1.15.2-2.44,1.35-2.85,1.15-.41,2.42.2,2.83,1.35.41,1.18-.2,2.46-1.35,2.87"/><path class="cls-2" d="M86.32,79.9c-.96.35-2.03-.17-2.35-1.13-.35-.98.15-2.05,1.13-2.4.96-.35,2,.17,2.35,1.13.35.96-.17,2.03-1.13,2.37"/><path class="cls-2" d="M92.66,78.81c-.96.35-2-.17-2.35-1.13-.33-.96.17-2.03,1.13-2.37.96-.33,2,.17,2.35,1.13.35.96-.17,2.03-1.13,2.37"/><path class="cls-2" d="M84.58,84.4c-.76.28-1.61-.13-1.87-.91-.28-.76.13-1.61.89-1.89.76-.28,1.61.13,1.89.89.26.78-.13,1.63-.91,1.92"/><path class="cls-2" d="M90.72,83.01c-.76.26-1.61-.13-1.89-.91-.26-.76.13-1.63.91-1.89.76-.26,1.61.13,1.87.91.28.78-.13,1.63-.89,1.89"/><path class="cls-2" d="M145.94,45.14c-2.5.87-5.23-.44-6.1-2.96-.89-2.53.41-5.27,2.92-6.18,2.5-.89,5.25.44,6.12,2.94.87,2.53-.41,5.29-2.92,6.18"/><path class="cls-2" d="M109.9,30.62c-2.31.83-4.83-.37-5.64-2.72-.81-2.33.39-4.88,2.7-5.68,2.31-.83,4.83.39,5.64,2.72.83,2.33-.39,4.88-2.7,5.68"/><path class="cls-2" d="M99.67,35.93c-2.11.74-4.42-.37-5.18-2.48-.74-2.13.37-4.46,2.48-5.25,2.11-.76,4.42.37,5.18,2.5.74,2.13-.37,4.46-2.48,5.23"/><path class="cls-2" d="M90.87,42.18c-1.94.7-4.03-.33-4.7-2.26-.68-1.94.33-4.07,2.24-4.75,1.92-.7,4.03.33,4.7,2.26.7,1.94-.3,4.07-2.22,4.75"/><path class="cls-2" d="M84.49,49.95c-1.72.61-3.61-.3-4.22-2.05-.61-1.74.3-3.66,2.03-4.29,1.72-.61,3.61.3,4.22,2.05.61,1.74-.3,3.66-2.03,4.27"/><path class="cls-2" d="M79.9,58.01c-1.52.54-3.22-.26-3.77-1.81-.54-1.57.26-3.27,1.81-3.81,1.52-.54,3.22.24,3.77,1.83.54,1.55-.26,3.24-1.79,3.79"/><path class="cls-2" d="M89.72,56.51c-1.55.54-3.22-.26-3.77-1.83-.54-1.55.26-3.27,1.79-3.79,1.52-.54,3.22.26,3.77,1.81.54,1.57-.26,3.24-1.79,3.81"/><path class="cls-2" d="M77.15,65.89c-1.35.48-2.83-.22-3.31-1.59-.48-1.35.24-2.85,1.59-3.33,1.35-.48,2.81.22,3.29,1.59.48,1.37-.22,2.83-1.57,3.33"/><path class="cls-2" d="M85.71,63.87c-1.35.48-2.81-.24-3.29-1.57-.48-1.37.24-2.85,1.57-3.33,1.35-.48,2.81.22,3.29,1.57.48,1.37-.22,2.85-1.57,3.33"/><path class="cls-2" d="M75.41,72.8c-1.15.41-2.42-.2-2.83-1.35-.41-1.18.2-2.44,1.35-2.85,1.15-.41,2.42.2,2.83,1.37.41,1.18-.2,2.44-1.35,2.85"/><path class="cls-2" d="M82.84,70.42c-1.15.39-2.42-.2-2.83-1.37-.39-1.15.2-2.44,1.35-2.85,1.15-.41,2.42.2,2.83,1.37.41,1.15-.2,2.44-1.35,2.85"/><path class="cls-2" d="M73.58,79.11c-.96.35-2-.17-2.35-1.15-.33-.98.17-2.03,1.13-2.37s2.03.15,2.35,1.13c.35.96-.15,2.05-1.13,2.37"/><path class="cls-2" d="M80.57,76.26c-.96.35-2.03-.15-2.35-1.13-.35-.98.15-2.05,1.11-2.37.96-.35,2.03.15,2.35,1.13.35.96-.17,2.03-1.11,2.37"/><path class="cls-2" d="M72.34,84.45c-.76.28-1.61-.13-1.89-.91-.26-.78.13-1.63.91-1.89.76-.28,1.61.13,1.89.91.28.78-.13,1.63-.89,1.89"/><path class="cls-2" d="M79.11,81.77c-.78.28-1.61-.13-1.87-.91-.28-.78.13-1.63.89-1.92.76-.26,1.61.15,1.87.91.28.76-.13,1.61-.89,1.89"/><path class="cls-2" d="M175.69,42.62c-2.87,1.02-6.05-.48-7.06-3.4-1.02-2.92.5-6.1,3.35-7.12,2.9-1.02,6.03.48,7.06,3.4,1.02,2.92-.48,6.1-3.35,7.12"/><path class="cls-2" d="M163.23,28.94c-2.87,1.02-6.03-.48-7.06-3.4s.5-6.1,3.38-7.14c2.87-1.02,6.05.48,7.06,3.4,1.02,2.92-.48,6.1-3.38,7.12"/><path class="cls-2" d="M150.8,15.26c-2.87,1.02-6.03-.5-7.06-3.4-1.02-2.92.48-6.12,3.38-7.14,2.87-1.02,6.03.48,7.06,3.4s-.48,6.1-3.35,7.14"/><path class="cls-2" d="M71.19,89c-.57.2-1.2-.11-1.42-.68-.2-.59.11-1.22.68-1.44.57-.2,1.22.11,1.42.68.2.57-.11,1.22-.68,1.44"/><path class="cls-2" d="M78.22,86.89c-.57.2-1.2-.11-1.42-.7-.2-.59.11-1.22.68-1.42.57-.22,1.2.11,1.42.68.2.57-.11,1.22-.7,1.44"/><path class="cls-2" d="M172.27,168.26c-1.89-2.42-1.5-5.92.87-7.84,2.37-1.92,5.86-1.52,7.77.87,1.92,2.42,1.52,5.92-.87,7.86s-5.86,1.55-7.77-.89"/><path class="cls-2" d="M188.17,106.55c-1.79-2.26-1.42-5.53.81-7.32,2.22-1.81,5.47-1.44,7.25.81,1.76,2.24,1.42,5.53-.81,7.34-2.22,1.81-5.49,1.44-7.25-.83"/><path class="cls-2" d="M181.63,121.58c-1.79-2.24-1.42-5.53.81-7.32,2.24-1.81,5.49-1.44,7.25.83,1.79,2.24,1.42,5.53-.81,7.32-2.24,1.81-5.49,1.44-7.25-.81"/><path class="cls-2" d="M175.08,136.58c-1.79-2.24-1.42-5.53.81-7.32,2.22-1.81,5.47-1.42,7.25.83,1.79,2.24,1.42,5.53-.81,7.32-2.22,1.79-5.47,1.44-7.25-.83"/><path class="cls-2" d="M167.13,151.8c-1.65-2.09-1.33-5.14.74-6.79,2.07-1.65,5.1-1.33,6.73.76,1.65,2.09,1.33,5.12-.74,6.79-2.07,1.68-5.1,1.35-6.73-.76"/><path class="cls-2" d="M162.3,138.17c-1.42-1.76-1.11-4.33.63-5.77,1.74-1.42,4.29-1.11,5.71.63,1.39,1.79,1.11,4.36-.65,5.77-1.74,1.44-4.29,1.13-5.68-.63"/><path class="cls-2" d="M157.18,125.6c-1.13-1.44-.91-3.55.52-4.73,1.44-1.15,3.51-.91,4.66.52,1.13,1.46.91,3.55-.52,4.73-1.42,1.15-3.51.91-4.66-.52"/><path class="cls-2" d="M152.48,116.31c-.87-1.13-.7-2.77.41-3.68,1.09-.89,2.72-.7,3.61.44s.72,2.77-.39,3.66c-1.11.89-2.74.72-3.64-.41"/><path class="cls-2" d="M147.86,107.88c-.63-.81-.5-1.98.3-2.61.78-.65,1.94-.52,2.59.28.63.83.5,1.98-.28,2.61-.81.65-1.96.52-2.59-.28"/><path class="cls-2" d="M179,94.96c-1.65-2.09-1.33-5.14.76-6.79,2.07-1.68,5.1-1.33,6.75.76s1.31,5.14-.76,6.79c-2.07,1.65-5.07,1.31-6.73-.76"/><path class="cls-2" d="M174.56,109.95c-1.65-2.09-1.31-5.14.74-6.82,2.07-1.65,5.1-1.33,6.73.76,1.65,2.09,1.33,5.12-.74,6.79s-5.07,1.33-6.75-.76"/><path class="cls-2" d="M167.65,100.28c-1.52-1.94-1.22-4.73.7-6.27s4.68-1.22,6.21.7,1.22,4.73-.7,6.27c-1.92,1.55-4.68,1.24-6.23-.72"/><path class="cls-2" d="M162.58,114.28c-1.55-1.94-1.22-4.75.7-6.27,1.92-1.55,4.68-1.24,6.21.7,1.52,1.92,1.22,4.73-.7,6.27-1.92,1.55-4.68,1.24-6.21-.7"/><path class="cls-2" d="M160.34,92.74c-1.39-1.76-1.11-4.36.63-5.77,1.74-1.42,4.31-1.13,5.71.63,1.39,1.79,1.09,4.36-.63,5.77-1.74,1.42-4.31,1.11-5.71-.65"/><path class="cls-2" d="M156.66,105.09c-1.42-1.76-1.11-4.36.63-5.75,1.74-1.42,4.31-1.11,5.71.65,1.39,1.76,1.11,4.33-.63,5.75-1.74,1.42-4.31,1.13-5.71-.63"/><path class="cls-2" d="M152.45,86.45c-1.26-1.61-1-3.94.59-5.23,1.59-1.28,3.92-1.02,5.18.59,1.26,1.61,1,3.94-.59,5.23-1.59,1.28-3.92,1.02-5.18-.59"/><path class="cls-2" d="M150.65,97.8c-1.28-1.61-1.02-3.94.59-5.23,1.59-1.28,3.92-1.02,5.18.59,1.26,1.61,1.02,3.94-.57,5.23-1.59,1.31-3.9,1.02-5.18-.59"/><path class="cls-2" d="M143.79,82.94c-1.13-1.46-.91-3.55.52-4.73,1.44-1.15,3.53-.91,4.66.54,1.13,1.44.91,3.55-.52,4.7-1.44,1.15-3.51.91-4.66-.52"/><path class="cls-2" d="M143.94,92.98c-1.13-1.44-.91-3.55.52-4.73,1.44-1.15,3.53-.91,4.66.52,1.15,1.46.91,3.55-.52,4.73-1.44,1.15-3.51.91-4.66-.52"/><path class="cls-2" d="M135.71,81.35c-1-1.28-.81-3.16.46-4.18,1.28-1.02,3.14-.81,4.14.46,1.02,1.28.81,3.16-.46,4.18-1.28,1.05-3.14.83-4.14-.46"/><path class="cls-2" d="M137.25,89.78c-1.02-1.28-.81-3.16.46-4.18,1.28-1.02,3.14-.83,4.14.48,1.02,1.28.81,3.14-.46,4.18-1.26,1.02-3.14.81-4.14-.48"/><path class="cls-2" d="M128.65,80c-.89-1.13-.72-2.77.41-3.66,1.13-.91,2.74-.72,3.61.41.89,1.13.72,2.74-.39,3.66-1.11.89-2.74.72-3.64-.41"/><path class="cls-2" d="M130.83,87.34c-.89-1.13-.72-2.77.41-3.66,1.11-.91,2.74-.72,3.61.41.89,1.11.72,2.77-.41,3.66-1.11.91-2.74.72-3.61-.39"/><path class="cls-2" d="M122.42,79.2c-.76-.96-.61-2.37.35-3.14.94-.76,2.33-.61,3.11.35.76.96.61,2.37-.35,3.14-.96.78-2.35.63-3.11-.35"/><path class="cls-2" d="M125.08,85.64c-.76-.96-.61-2.37.35-3.14s2.35-.61,3.11.35c.76.96.59,2.35-.35,3.14-.96.78-2.33.61-3.11-.35"/><path class="cls-2" d="M116.87,78.83c-.63-.81-.5-1.98.28-2.61.81-.63,1.96-.5,2.59.28.63.81.5,1.98-.28,2.61-.81.63-1.96.5-2.59-.3"/><path class="cls-2" d="M119.96,84.51c-.63-.81-.5-1.96.28-2.61.81-.65,1.96-.5,2.59.28.63.78.5,1.98-.3,2.63-.78.63-1.94.5-2.59-.3"/><path class="cls-2" d="M112.08,78.63c-.5-.65-.41-1.59.24-2.09.63-.52,1.57-.41,2.07.24s.41,1.57-.24,2.09c-.63.52-1.57.41-2.07-.24"/><path class="cls-2" d="M115.41,84.06c-.5-.65-.39-1.59.24-2.09.65-.52,1.57-.41,2.07.24.5.63.41,1.59-.24,2.11-.63.5-1.57.41-2.07-.24"/><path class="cls-2" d="M168.92,124.36c-1.65-2.09-1.33-5.12.74-6.79s5.1-1.35,6.73.74c1.65,2.09,1.33,5.16-.76,6.82-2.07,1.65-5.07,1.33-6.73-.76"/><path class="cls-2" d="M170.68,85.19c-1.52-1.94-1.22-4.73.7-6.27,1.92-1.52,4.68-1.22,6.23.7,1.52,1.94,1.22,4.77-.7,6.27-1.92,1.55-4.68,1.22-6.23-.7"/><path class="cls-2" d="M162.38,77.17c-1.42-1.76-1.11-4.36.63-5.77,1.74-1.42,4.31-1.13,5.71.65,1.39,1.76,1.11,4.36-.65,5.75-1.74,1.42-4.29,1.11-5.68-.65"/><path class="cls-2" d="M153.63,70.82c-1.26-1.59-1.02-3.94.57-5.23s3.92-1.02,5.18.59c1.28,1.61,1.02,3.96-.59,5.25-1.59,1.26-3.92,1.02-5.18-.59"/><path class="cls-2" d="M144.29,67.29c-1.13-1.46-.91-3.55.52-4.73,1.44-1.15,3.51-.91,4.66.52s.91,3.57-.52,4.7c-1.44,1.15-3.51.91-4.66-.52"/><path class="cls-2" d="M135.23,65.55c-1.02-1.28-.83-3.16.46-4.18s3.14-.83,4.14.46c1.02,1.28.81,3.16-.46,4.18-1.28,1.02-3.14.81-4.14-.48"/><path class="cls-2" d="M139.87,74.41c-1.02-1.28-.81-3.14.46-4.18,1.26-1.02,3.11-.83,4.14.48,1,1.28.81,3.16-.46,4.18-1.28,1.02-3.14.81-4.14-.48"/><path class="cls-2" d="M126.95,65.48c-.89-1.13-.72-2.77.41-3.66,1.11-.91,2.74-.72,3.64.41.89,1.11.72,2.77-.39,3.68-1.11.89-2.74.72-3.64-.41"/><path class="cls-2" d="M131.66,72.99c-.89-1.11-.72-2.77.41-3.66,1.11-.91,2.74-.72,3.61.41.89,1.11.72,2.77-.39,3.66-1.13.91-2.74.72-3.64-.41"/><path class="cls-2" d="M119.94,66.11c-.76-.96-.61-2.37.35-3.14s2.35-.61,3.11.35.61,2.37-.35,3.14c-.96.78-2.33.63-3.11-.35"/><path class="cls-2" d="M124.6,72.4c-.76-.96-.61-2.37.35-3.14s2.35-.61,3.11.37c.76.96.61,2.35-.35,3.14-.96.76-2.35.61-3.11-.37"/><path class="cls-2" d="M113.43,66.39c-.63-.78-.5-1.96.28-2.61.78-.63,1.96-.5,2.59.3.63.81.5,1.96-.3,2.61-.81.65-1.94.5-2.59-.3"/><path class="cls-2" d="M118.4,72.17c-.65-.83-.5-1.98.28-2.63.81-.65,1.96-.5,2.59.3.65.81.52,1.98-.28,2.61-.81.65-1.96.52-2.59-.26"/><path class="cls-2" d="M108.03,66.96c-.5-.65-.39-1.57.24-2.09s1.57-.41,2.07.24c.5.63.39,1.57-.24,2.09-.63.5-1.57.39-2.09-.24"/><path class="cls-2" d="M112.76,72.58c-.5-.65-.41-1.59.24-2.09.63-.52,1.57-.41,2.07.22.5.63.39,1.57-.22,2.09-.63.52-1.57.41-2.07-.22"/><path class="cls-2" d="M181,151.91c-1.89-2.4-1.5-5.92.87-7.84,2.4-1.94,5.86-1.55,7.77.87,1.89,2.42,1.52,5.92-.87,7.84s-5.86,1.52-7.77-.89"/><path class="cls-2" d="M189.73,135.56c-1.92-2.42-1.52-5.92.87-7.86,2.4-1.92,5.86-1.52,7.77.89s1.52,5.92-.87,7.86c-2.4,1.92-5.86,1.52-7.77-.89"/><path class="cls-2" d="M198.44,119.2c-1.92-2.42-1.5-5.92.87-7.86,2.4-1.92,5.86-1.52,7.77.87,1.92,2.42,1.52,5.92-.87,7.86-2.4,1.94-5.88,1.55-7.77-.87"/><path class="cls-2" d="M103.41,67.37c-.39-.5-.3-1.2.17-1.57s1.18-.3,1.57.17c.37.48.3,1.2-.17,1.59-.48.37-1.18.28-1.55-.17"/><path class="cls-2" d="M107.7,73.41c-.39-.48-.3-1.18.17-1.57.48-.37,1.18-.3,1.55.17.39.48.3,1.2-.17,1.57-.48.37-1.18.3-1.55-.17"/><path class="cls-2" d="M63.39,191.74c1.65-2.61,5.07-3.35,7.64-1.68,2.59,1.65,3.33,5.12,1.68,7.71s-5.07,3.35-7.64,1.7c-2.57-1.68-3.31-5.14-1.68-7.73"/><path class="cls-2" d="M126.37,187.12c1.55-2.42,4.73-3.11,7.12-1.57,2.4,1.55,3.09,4.77,1.57,7.21-1.52,2.42-4.73,3.14-7.12,1.57-2.4-1.55-3.11-4.79-1.57-7.21"/><path class="cls-2" d="M110.19,185.68c1.55-2.42,4.73-3.14,7.12-1.57,2.42,1.55,3.09,4.79,1.57,7.21-1.52,2.44-4.73,3.14-7.12,1.57-2.4-1.55-3.11-4.77-1.57-7.21"/><path class="cls-2" d="M94.01,184.25c1.55-2.4,4.73-3.11,7.12-1.57,2.4,1.55,3.11,4.77,1.57,7.21-1.52,2.42-4.73,3.14-7.12,1.57-2.4-1.55-3.09-4.79-1.57-7.21"/><path class="cls-2" d="M77.2,181.52c1.44-2.24,4.4-2.92,6.62-1.48,2.22,1.44,2.87,4.44,1.46,6.69-1.44,2.26-4.4,2.92-6.62,1.48-2.22-1.46-2.87-4.44-1.46-6.69"/><path class="cls-2" d="M88.41,172.51c1.22-1.92,3.72-2.46,5.6-1.24,1.89,1.22,2.44,3.75,1.24,5.66-1.22,1.89-3.72,2.46-5.6,1.24-1.89-1.22-2.44-3.75-1.24-5.66"/><path class="cls-2" d="M98.56,163.58c.98-1.57,3.05-2.03,4.59-1,1.55.98,1.98,3.05,1,4.62-.98,1.57-3.05,2.03-4.57,1-1.55-.98-2-3.07-1-4.62"/><path class="cls-2" d="M105.77,156.11c.76-1.22,2.37-1.57,3.57-.78s1.57,2.4.78,3.59c-.76,1.22-2.35,1.57-3.55.78-1.2-.78-1.55-2.4-.78-3.61"/><path class="cls-2" d="M112.19,148.99c.54-.87,1.7-1.13,2.55-.54.85.54,1.11,1.7.57,2.55-.54.87-1.7,1.13-2.55.57-.85-.54-1.11-1.72-.57-2.57"/><path class="cls-2" d="M134.27,174.62c1.44-2.24,4.4-2.92,6.62-1.46,2.22,1.44,2.87,4.42,1.44,6.69-1.42,2.24-4.38,2.92-6.62,1.48-2.22-1.44-2.87-4.44-1.46-6.69"/><path class="cls-2" d="M118.81,175.19c1.42-2.24,4.4-2.9,6.62-1.46,2.22,1.44,2.87,4.42,1.46,6.69-1.44,2.24-4.38,2.92-6.62,1.46-2.22-1.46-2.9-4.44-1.46-6.69"/><path class="cls-2" d="M125.65,165.48c1.33-2.07,4.05-2.68,6.12-1.35,2.05,1.33,2.63,4.09,1.33,6.18-1.33,2.07-4.05,2.68-6.12,1.35-2.05-1.33-2.66-4.12-1.35-6.16"/><path class="cls-2" d="M110.9,165.11c1.31-2.07,4.05-2.68,6.1-1.33,2.07,1.33,2.66,4.09,1.35,6.16-1.33,2.07-4.05,2.7-6.12,1.35-2.05-1.33-2.66-4.09-1.33-6.18"/><path class="cls-2" d="M130.37,156.07c1.22-1.92,3.72-2.46,5.6-1.24,1.89,1.22,2.44,3.77,1.22,5.66-1.2,1.92-3.7,2.46-5.6,1.24s-2.44-3.75-1.24-5.66"/><path class="cls-2" d="M117.61,156.5c1.2-1.92,3.72-2.46,5.6-1.24,1.89,1.22,2.44,3.75,1.22,5.64-1.2,1.92-3.7,2.48-5.6,1.24-1.89-1.22-2.44-3.75-1.22-5.66"/><path class="cls-2" d="M133.73,146.49c1.09-1.72,3.38-2.22,5.1-1.11,1.72,1.11,2.22,3.4,1.11,5.14-1.09,1.74-3.38,2.24-5.1,1.13-1.72-1.11-2.2-3.4-1.11-5.16"/><path class="cls-2" d="M122.51,148.4c1.09-1.72,3.38-2.22,5.1-1.13,1.72,1.11,2.22,3.42,1.11,5.14-1.11,1.72-3.38,2.24-5.1,1.13-1.72-1.11-2.22-3.4-1.11-5.16"/><path class="cls-2" d="M134.25,137.08c.98-1.55,3.05-2,4.57-1.02,1.55,1.02,2,3.07,1,4.64-.98,1.57-3.05,2-4.57,1.02-1.55-1-2-3.07-1-4.64"/><path class="cls-2" d="M124.88,140.45c.98-1.55,3.05-2.03,4.59-1,1.55.98,1.98,3.05,1,4.62-1,1.55-3.05,2-4.57,1-1.55-1-2-3.05-1-4.62"/><path class="cls-2" d="M133.14,128.85c.87-1.39,2.7-1.79,4.07-.89,1.37.89,1.76,2.72.89,4.12-.87,1.37-2.7,1.79-4.07.89-1.37-.87-1.76-2.72-.89-4.12"/><path class="cls-2" d="M125.73,133.03c.87-1.37,2.7-1.79,4.07-.89,1.37.89,1.76,2.74.89,4.12-.87,1.39-2.7,1.79-4.07.89-1.39-.87-1.79-2.72-.89-4.12"/><path class="cls-2" d="M132.14,121.66c.76-1.22,2.35-1.55,3.55-.78,1.2.78,1.55,2.4.78,3.61s-2.35,1.57-3.57.78c-1.2-.76-1.55-2.37-.78-3.59"/><path class="cls-2" d="M125.97,126.08c.76-1.22,2.37-1.57,3.55-.78,1.2.78,1.55,2.4.78,3.61s-2.37,1.57-3.57.78c-1.22-.76-1.55-2.37-.78-3.59"/><path class="cls-2" d="M130.9,115.46c.65-1.05,2.03-1.35,3.07-.7,1.02.68,1.33,2.05.65,3.09-.65,1.02-2.03,1.35-3.05.68-1.02-.68-1.33-2.05-.68-3.09"/><path class="cls-2" d="M125.69,120.05c.68-1.05,2.03-1.33,3.07-.68,1.02.68,1.33,2.05.68,3.09-.68,1.05-2.03,1.33-3.05.68-1.02-.68-1.33-2.05-.68-3.09"/><path class="cls-2" d="M129.46,110.01c.54-.87,1.68-1.11,2.55-.57.85.54,1.11,1.72.57,2.57-.54.87-1.7,1.11-2.55.54-.87-.54-1.11-1.7-.54-2.57"/><path class="cls-2" d="M125.12,114.78c.54-.85,1.68-1.11,2.55-.54.85.54,1.09,1.7.54,2.57-.54.85-1.68,1.11-2.55.57-.85-.57-1.11-1.72-.54-2.59"/><path class="cls-2" d="M128.11,105.37c.44-.7,1.35-.89,2.03-.44.7.44.89,1.35.46,2.05-.46.7-1.37.91-2.05.46-.7-.44-.89-1.37-.44-2.07"/><path class="cls-2" d="M124.1,110.27c.44-.7,1.35-.89,2.05-.46.7.46.87,1.37.44,2.05-.44.7-1.35.91-2.05.46-.68-.44-.87-1.35-.44-2.05"/><path class="cls-2" d="M103.48,174.43c1.44-2.24,4.4-2.9,6.62-1.46,2.22,1.44,2.87,4.42,1.44,6.69-1.44,2.24-4.4,2.9-6.62,1.46s-2.87-4.44-1.46-6.69"/><path class="cls-2" d="M140.78,163.54c1.33-2.09,4.05-2.7,6.1-1.37,2.07,1.35,2.66,4.12,1.35,6.18-1.33,2.07-4.05,2.68-6.12,1.35-2.05-1.33-2.66-4.09-1.33-6.16"/><path class="cls-2" d="M145.62,153c1.22-1.89,3.7-2.46,5.6-1.22,1.89,1.2,2.42,3.75,1.22,5.64-1.22,1.89-3.72,2.46-5.6,1.24-1.89-1.24-2.42-3.75-1.22-5.66"/><path class="cls-2" d="M148.77,142.61c1.09-1.72,3.38-2.24,5.1-1.13,1.72,1.11,2.2,3.4,1.11,5.16-1.11,1.72-3.38,2.22-5.1,1.11-1.72-1.11-2.22-3.4-1.13-5.14"/><path class="cls-2" d="M149.08,132.53c.98-1.57,3.03-2,4.57-1s1.98,3.07,1,4.64c-.98,1.55-3.05,2.03-4.57,1-1.55-1-1.98-3.07-1-4.64"/><path class="cls-2" d="M147.82,123.3c.87-1.39,2.7-1.79,4.07-.89,1.37.89,1.76,2.74.89,4.12-.87,1.39-2.7,1.79-4.07.91-1.39-.89-1.79-2.74-.89-4.14"/><path class="cls-2" d="M140.98,130.59c.87-1.39,2.7-1.81,4.07-.91,1.37.89,1.76,2.74.89,4.12-.87,1.39-2.7,1.81-4.07.89-1.37-.87-1.76-2.72-.89-4.12"/><path class="cls-2" d="M145.2,115.39c.78-1.22,2.35-1.57,3.57-.81,1.2.78,1.55,2.4.78,3.61s-2.37,1.57-3.55.78c-1.2-.76-1.55-2.4-.78-3.59"/><path class="cls-2" d="M139.67,122.29c.76-1.22,2.37-1.57,3.55-.81,1.22.78,1.55,2.4.78,3.59-.76,1.22-2.35,1.57-3.57.81-1.2-.78-1.55-2.37-.76-3.59"/><path class="cls-2" d="M142.37,108.86c.68-1.05,2.03-1.33,3.07-.7,1.02.68,1.33,2.05.68,3.09-.68,1.02-2.03,1.33-3.07.68-1.02-.68-1.33-2.05-.68-3.07"/><path class="cls-2" d="M137.95,115.35c.65-1.05,2.03-1.35,3.05-.68,1.02.68,1.33,2.05.68,3.09-.65,1.02-2.03,1.35-3.05.68-1.05-.68-1.33-2.05-.68-3.09"/><path class="cls-2" d="M140,102.74c.54-.87,1.7-1.13,2.55-.57.85.54,1.11,1.7.54,2.57-.54.87-1.68,1.13-2.55.57-.85-.54-1.11-1.72-.57-2.57"/><path class="cls-2" d="M136.19,109.34c.54-.87,1.7-1.13,2.55-.57.85.54,1.09,1.7.54,2.57-.54.85-1.68,1.11-2.55.54-.85-.54-1.11-1.68-.57-2.55"/><path class="cls-2" d="M137.73,97.75c.44-.7,1.35-.89,2.05-.46.7.44.89,1.37.46,2.07-.44.7-1.35.89-2.05.46s-.89-1.37-.46-2.05"/><path class="cls-2" d="M134.01,104.07c.44-.7,1.35-.89,2.05-.46.68.44.89,1.37.46,2.05-.44.7-1.37.89-2.05.46-.7-.46-.89-1.35-.46-2.05"/><path class="cls-2" d="M81.53,194.85c1.65-2.61,5.07-3.35,7.64-1.68,2.57,1.65,3.33,5.12,1.68,7.71-1.65,2.59-5.05,3.35-7.64,1.68-2.57-1.65-3.31-5.12-1.68-7.71"/><path class="cls-2" d="M99.67,197.94c1.65-2.61,5.07-3.35,7.64-1.72,2.57,1.68,3.31,5.12,1.68,7.73-1.65,2.59-5.05,3.35-7.64,1.7-2.57-1.65-3.31-5.12-1.68-7.71"/><path class="cls-2" d="M117.81,201.01c1.65-2.59,5.07-3.35,7.64-1.7,2.57,1.65,3.33,5.12,1.68,7.71s-5.07,3.35-7.64,1.68c-2.57-1.65-3.31-5.1-1.68-7.71"/><path class="cls-2" d="M135.88,93.46c.33-.52,1-.68,1.52-.35.5.33.65,1.02.33,1.55-.33.52-1.02.68-1.52.35-.52-.35-.65-1.05-.33-1.55"/><path class="cls-2" d="M131.61,99.49c.33-.5,1-.68,1.52-.33.5.33.65,1.02.33,1.55-.33.52-1,.7-1.52.35-.52-.33-.65-1.02-.33-1.55"/><path class="cls-2" d="M7.58,88.76c2.92.89,4.57,4.01,3.7,6.97-.87,2.96-3.96,4.62-6.88,3.72-2.92-.89-4.59-4.01-3.7-6.97.87-2.96,3.96-4.64,6.88-3.75"/><path class="cls-2" d="M29.18,148.69c2.72.83,4.27,3.72,3.44,6.49-.83,2.74-3.7,4.31-6.42,3.48-2.72-.83-4.27-3.72-3.44-6.49.83-2.74,3.7-4.31,6.42-3.46"/><path class="cls-2" d="M26.11,132.55c2.72.83,4.27,3.75,3.44,6.49-.83,2.77-3.7,4.33-6.42,3.48-2.72-.83-4.27-3.75-3.46-6.49.83-2.74,3.7-4.31,6.45-3.48"/><path class="cls-2" d="M23.06,116.46c2.72.83,4.27,3.75,3.44,6.51-.83,2.74-3.7,4.31-6.45,3.48-2.72-.83-4.27-3.75-3.44-6.49.83-2.77,3.7-4.31,6.42-3.48"/><path class="cls-2" d="M21.08,99.36c2.53.78,3.96,3.48,3.2,6.03-.76,2.57-3.44,4.01-5.97,3.24-2.53-.78-3.96-3.48-3.2-6.03.76-2.55,3.44-4.01,5.97-3.24"/><path class="cls-2" d="M32.71,107.79c2.13.65,3.35,2.94,2.7,5.12-.65,2.16-2.92,3.4-5.05,2.74-2.16-.65-3.35-2.94-2.7-5.12.63-2.16,2.9-3.38,5.05-2.74"/><path class="cls-2" d="M44.01,115.22c1.74.52,2.72,2.4,2.22,4.18-.52,1.79-2.37,2.77-4.14,2.24s-2.74-2.4-2.22-4.16c.52-1.79,2.37-2.79,4.14-2.24"/><path class="cls-2" d="M53.07,120.18c1.37.41,2.13,1.87,1.72,3.24-.41,1.37-1.85,2.16-3.22,1.74-1.37-.41-2.13-1.87-1.72-3.24.41-1.37,1.85-2.13,3.22-1.72"/><path class="cls-2" d="M61.6,124.49c.98.3,1.52,1.33,1.24,2.33-.3,1-1.33,1.55-2.29,1.24-.98-.3-1.55-1.33-1.24-2.33.3-.98,1.33-1.52,2.29-1.24"/><path class="cls-2" d="M43.23,152.95c2.53.76,3.98,3.48,3.2,6.03-.76,2.55-3.44,4.01-5.97,3.22-2.55-.78-3.96-3.46-3.2-6.03.76-2.55,3.44-4.01,5.97-3.22"/><path class="cls-2" d="M38.48,138.08c2.53.76,3.96,3.48,3.2,6.03s-3.44,3.99-5.97,3.22c-2.53-.78-3.96-3.48-3.2-6.03.76-2.57,3.44-4.01,5.97-3.22"/><path class="cls-2" d="M49.58,142.07c2.33.72,3.68,3.2,2.96,5.57-.72,2.35-3.18,3.68-5.51,2.98-2.33-.72-3.66-3.2-2.96-5.55.72-2.37,3.18-3.7,5.51-2.98"/><path class="cls-2" d="M45.9,127.65c2.33.72,3.66,3.2,2.94,5.57-.7,2.37-3.16,3.68-5.51,2.98-2.33-.72-3.66-3.22-2.96-5.57.7-2.37,3.18-3.7,5.51-2.98"/><path class="cls-2" d="M59.82,144.11c2.16.65,3.35,2.94,2.72,5.1-.65,2.16-2.9,3.4-5.05,2.74-2.16-.65-3.35-2.94-2.72-5.1.65-2.18,2.92-3.4,5.05-2.74"/><path class="cls-2" d="M55.92,131.83c2.13.65,3.38,2.94,2.72,5.1-.65,2.18-2.92,3.4-5.05,2.74-2.13-.65-3.35-2.94-2.7-5.1.63-2.18,2.9-3.4,5.05-2.74"/><path class="cls-2" d="M69.88,144.74c1.94.59,3.05,2.66,2.46,4.64-.59,1.98-2.66,3.07-4.59,2.48-1.96-.59-3.05-2.68-2.46-4.64.59-1.98,2.66-3.07,4.59-2.48"/><path class="cls-2" d="M65,134.36c1.94.59,3.05,2.68,2.46,4.64-.59,1.98-2.63,3.09-4.59,2.5-1.94-.61-3.05-2.7-2.46-4.66.59-1.98,2.66-3.09,4.59-2.48"/><path class="cls-2" d="M78.98,142.68c1.76.52,2.74,2.4,2.22,4.18-.52,1.79-2.37,2.79-4.14,2.24s-2.74-2.42-2.22-4.18c.54-1.76,2.37-2.77,4.14-2.22"/><path class="cls-2" d="M73.21,134.49c1.74.54,2.74,2.4,2.22,4.18-.52,1.79-2.37,2.77-4.14,2.24-1.74-.54-2.74-2.4-2.22-4.18.54-1.76,2.4-2.77,4.14-2.24"/><path class="cls-2" d="M86.52,139.34c1.55.46,2.44,2.13,1.96,3.7-.48,1.57-2.11,2.48-3.68,2-1.57-.48-2.44-2.13-1.96-3.72.48-1.57,2.11-2.46,3.68-1.98"/><path class="cls-2" d="M80.51,133.29c1.57.48,2.44,2.13,1.98,3.7-.48,1.57-2.11,2.46-3.68,1.98-1.55-.48-2.44-2.13-1.96-3.7.48-1.57,2.11-2.46,3.68-1.98"/><path class="cls-2" d="M93.07,136.4c1.37.41,2.13,1.87,1.72,3.24s-1.85,2.16-3.22,1.74c-1.37-.41-2.13-1.87-1.72-3.24.41-1.39,1.85-2.16,3.22-1.76"/><path class="cls-2" d="M87.19,131.61c1.37.41,2.13,1.87,1.72,3.24s-1.85,2.16-3.2,1.74c-1.37-.39-2.13-1.87-1.74-3.24.41-1.37,1.85-2.16,3.22-1.74"/><path class="cls-2" d="M98.67,133.51c1.15.35,1.83,1.61,1.48,2.79-.35,1.18-1.59,1.85-2.74,1.5-1.18-.37-1.83-1.59-1.48-2.79.35-1.18,1.59-1.85,2.77-1.5"/><path class="cls-2" d="M92.85,129.72c1.18.35,1.83,1.59,1.48,2.79s-1.59,1.85-2.74,1.5c-1.18-.35-1.83-1.59-1.48-2.79s1.59-1.85,2.77-1.48"/><path class="cls-2" d="M103.44,130.63c.96.3,1.52,1.35,1.22,2.31-.3.98-1.31,1.55-2.29,1.26-.98-.3-1.52-1.33-1.24-2.33.3-1,1.33-1.55,2.31-1.24"/><path class="cls-2" d="M97.71,127.72c.96.28,1.52,1.33,1.24,2.31-.3,1-1.33,1.55-2.29,1.26-.98-.3-1.52-1.33-1.24-2.31s1.33-1.55,2.29-1.24"/><path class="cls-2" d="M107.49,128.04c.78.22,1.22,1.07.98,1.85-.24.78-1.07,1.24-1.83.98-.78-.24-1.24-1.05-.98-1.85.24-.78,1.05-1.22,1.83-.98"/><path class="cls-2" d="M101.72,125.49c.78.24,1.22,1.05.98,1.85-.24.78-1.05,1.22-1.83.98-.78-.22-1.22-1.07-.98-1.85.24-.78,1.05-1.22,1.83-.98"/><path class="cls-2" d="M35.02,122.97c2.53.78,3.96,3.48,3.2,6.03-.76,2.57-3.44,4.01-5.97,3.24s-3.96-3.48-3.2-6.03c.76-2.55,3.44-4.01,5.97-3.24"/><path class="cls-2" d="M55.57,156.24c2.33.72,3.66,3.22,2.96,5.57-.72,2.37-3.18,3.7-5.51,2.98-2.33-.72-3.66-3.2-2.96-5.57.7-2.35,3.18-3.7,5.51-2.98"/><path class="cls-2" d="M66.9,158.07c2.16.65,3.35,2.92,2.72,5.1s-2.9,3.4-5.05,2.74c-2.13-.65-3.35-2.94-2.7-5.12.65-2.18,2.92-3.38,5.05-2.72"/><path class="cls-2" d="M77.7,158.31c1.94.59,3.05,2.66,2.46,4.64-.59,1.96-2.66,3.09-4.59,2.48-1.94-.59-3.05-2.66-2.46-4.64.59-1.98,2.66-3.09,4.59-2.48"/><path class="cls-2" d="M87.34,155.85c1.76.54,2.77,2.42,2.22,4.18-.52,1.79-2.37,2.77-4.14,2.24s-2.77-2.4-2.22-4.16c.54-1.79,2.37-2.77,4.14-2.24"/><path class="cls-2" d="M95.79,152.1c1.57.48,2.46,2.13,1.98,3.72-.48,1.57-2.11,2.46-3.68,1.98-1.57-.48-2.44-2.13-1.96-3.72.46-1.57,2.11-2.46,3.66-1.98"/><path class="cls-2" d="M86.99,147.44c1.55.48,2.44,2.13,1.98,3.7-.48,1.59-2.11,2.48-3.68,2-1.55-.48-2.44-2.13-1.96-3.7.48-1.59,2.11-2.48,3.68-2"/><path class="cls-2" d="M102.65,147.4c1.37.44,2.13,1.89,1.72,3.27s-1.85,2.16-3.22,1.74c-1.37-.44-2.13-1.87-1.72-3.27.41-1.37,1.85-2.16,3.22-1.74"/><path class="cls-2" d="M94.55,143.92c1.37.41,2.13,1.87,1.72,3.24-.41,1.39-1.85,2.16-3.22,1.74-1.37-.41-2.13-1.87-1.72-3.24.41-1.39,1.85-2.18,3.22-1.76"/><path class="cls-2" d="M108.07,142.87c1.18.35,1.85,1.59,1.48,2.79-.35,1.2-1.59,1.85-2.77,1.5-1.15-.37-1.83-1.61-1.48-2.79s1.59-1.83,2.74-1.48"/><path class="cls-2" d="M100.69,140.35c1.18.37,1.83,1.61,1.48,2.79-.35,1.2-1.59,1.85-2.77,1.5-1.15-.35-1.83-1.59-1.48-2.77.35-1.2,1.59-1.85,2.74-1.5"/><path class="cls-2" d="M113.23,138.89c.98.3,1.52,1.33,1.24,2.33-.3.98-1.33,1.52-2.29,1.24-.98-.3-1.52-1.33-1.24-2.33.3-.98,1.33-1.52,2.29-1.24"/><path class="cls-2" d="M105.94,136.97c.98.3,1.52,1.35,1.24,2.33-.28.98-1.33,1.55-2.29,1.24-.98-.28-1.52-1.33-1.24-2.31.3-.98,1.33-1.55,2.29-1.26"/><path class="cls-2" d="M117.37,135.32c.78.24,1.22,1.07,1,1.85-.24.78-1.07,1.24-1.85,1-.78-.24-1.22-1.07-.98-1.87.24-.78,1.07-1.24,1.83-1"/><path class="cls-2" d="M110.34,133.42c.78.22,1.22,1.07.98,1.85-.24.78-1.05,1.24-1.85.98-.78-.24-1.22-1.07-.98-1.85.24-.78,1.07-1.24,1.83-1"/><path class="cls-2" d="M9.58,107.22c2.92.89,4.57,4.01,3.68,6.97-.87,2.94-3.96,4.64-6.88,3.72-2.92-.87-4.57-4.01-3.7-6.95.87-2.96,3.96-4.64,6.88-3.75"/><path class="cls-2" d="M11.58,125.69c2.94.89,4.59,4.01,3.7,6.95-.89,2.96-3.96,4.64-6.88,3.75-2.92-.87-4.57-4.01-3.68-6.97.87-2.96,3.96-4.62,6.88-3.72"/><path class="cls-2" d="M13.61,144.16c2.92.89,4.57,4.01,3.7,6.97-.89,2.94-3.96,4.64-6.9,3.72-2.92-.89-4.57-4.01-3.68-6.97.89-2.96,3.96-4.62,6.88-3.72"/><path class="cls-2" d="M120.97,132.35c.59.17.91.78.74,1.39-.17.57-.81.89-1.37.72-.59-.17-.91-.78-.74-1.37.17-.61.81-.94,1.37-.74"/><path class="cls-2" d="M114.04,129.83c.59.2.91.81.74,1.39-.17.59-.81.94-1.37.74-.59-.17-.91-.81-.74-1.39.17-.61.78-.91,1.37-.76"/><polygon class="cls-1" points="47.86 265.38 47.86 269.56 32.66 269.56 32.66 243.56 47.32 243.56 47.32 247.72 37.35 247.72 37.35 253.95 46.73 253.95 46.73 258.07 37.35 258.07 37.35 265.38 47.86 265.38"/><polygon class="cls-1" points="0 243.56 19.47 243.56 19.47 247.77 12.04 247.77 12.04 269.56 7.38 269.56 7.38 247.77 0 247.77 0 243.56"/><path class="cls-1" d="M80.03,264.4l.98,4.03-.52.28c-1.2.61-3.57,1.24-6.75,1.24-7.71,0-12.7-5.18-12.7-13.22s5.4-13.61,13.41-13.61c3.66,0,5.62.91,6.12,1.2l.57.28-1.24,4.03-.81-.41c-1.2-.61-2.83-.96-4.51-.96-5.44,0-8.69,3.51-8.69,9.36s3.2,9.08,8.54,9.08c1.79,0,3.64-.37,4.81-.96l.85-.41-.07.07Z"/><path class="cls-1" d="M105.18,243.11c-7.06,0-11.98,5.62-11.98,13.63s4.79,13.24,11.65,13.24c5.99,0,12-4.22,12-13.68,0-7.88-4.68-13.2-11.67-13.2ZM105.03,265.86c-4.81,0-7.01-4.77-7.01-9.19,0-4.7,2.18-9.45,7.06-9.45s6.97,4.79,6.97,9.23c0,4.68-2.18,9.41-7.01,9.41Z"/><polygon class="cls-1" points="165.15 265.38 175.64 265.38 175.64 269.56 160.47 269.56 160.47 243.56 175.12 243.56 175.12 247.72 165.15 247.72 165.15 253.95 174.53 253.95 174.53 258.07 165.15 258.07 165.15 265.38"/><polygon class="cls-1" points="127.8 243.56 147.27 243.56 147.27 247.77 139.85 247.77 139.85 269.56 135.19 269.56 135.19 247.77 127.8 247.77 127.8 243.56"/><path class="cls-1" d="M207.81,264.4l1,4.03-.54.28c-1.13.57-3.57,1.24-6.75,1.24-7.71,0-12.7-5.18-12.7-13.22s5.4-13.61,13.41-13.61c3.64,0,5.6.91,6.12,1.18l.57.3-1.24,4.03-.81-.41c-1.2-.61-2.83-.96-4.51-.96-5.44,0-8.71,3.51-8.71,9.36s3.2,9.08,8.54,9.08c1.79,0,3.64-.37,4.81-.96l.85-.41-.04.07Z"/><path class="cls-1" d="M63.69,292.54c0,2.18-1.72,3.59-4.38,3.59-1.18,0-2.35-.28-3.18-.78l-.24-.13.72-2.18.35.24c.54.37,1.52.74,2.4.74,1.11,0,1.79-.48,1.79-1.31,0-.65-.28-1.13-1.81-1.7-2.53-.89-3.05-2.35-3.05-3.38,0-2.05,1.7-3.53,4.05-3.53,1,0,2.05.26,2.81.72l.22.13-.7,2.09-.35-.22c-.35-.22-1.07-.59-2.05-.59-.87,0-1.46.46-1.46,1.15,0,.65.39.98,1.83,1.55,2.11.81,3.05,1.92,3.05,3.59h0Z"/><rect class="cls-1" x="65.55" y="284.35" width="2.63" height="11.56"/><path class="cls-1" d="M68.4,281.61c0,.41-.13.81-.41,1.09-.28.3-.7.46-1.18.46-.85,0-1.5-.65-1.5-1.55s.68-1.57,1.55-1.57,1.55.68,1.55,1.57Z"/><path class="cls-1" d="M80.61,289.08v6.84h-2.61v-6.62c0-1.33-.39-2.9-2.18-2.9-1.22,0-2.05.94-2.31,1.81-.09.22-.13.5-.13.83v6.88h-2.61v-8.27c0-1.22-.02-2.11-.09-2.94v-.35h2.37l.07,1.22c.7-.78,1.83-1.46,3.35-1.46,1.89,0,4.14,1.28,4.14,4.96Z"/><path class="cls-1" d="M91.05,293.23l.48,2.11-.22.11c-.59.3-1.79.68-3.24.68-3.42,0-5.71-2.37-5.71-5.88s2.53-6.12,6.12-6.12c1.24,0,2.33.33,2.87.59l.24.13-.63,2.18-.37-.2c-.37-.22-1.05-.48-2.11-.48-2.11,0-3.48,1.48-3.48,3.79s1.37,3.77,3.42,3.77c1.05,0,1.72-.28,2.29-.52l.35-.15Z"/><path class="cls-1" d="M97.6,284.11c-3.18,0-5.38,2.55-5.38,6.21s2.2,5.81,5.62,5.81c1.81,0,3.03-.39,3.72-.7l.26-.11-.5-2.07-.35.15c-.65.28-1.44.54-2.85.54-.98,0-3.16-.33-3.38-3.14h7.53l.04-.39c.02-.2.07-.5.07-.87,0-2.5-1.26-5.44-4.79-5.44h0ZM94.81,288.75c.24-1.09.98-2.57,2.63-2.57.68,0,1.22.2,1.63.61.57.59.72,1.44.74,1.96h-5.01Z"/><polygon class="cls-1" points="115.06 280.6 115.06 295.91 112.52 295.91 112.52 283.3 110.08 284.66 109.53 282.48 113.06 280.6 115.06 280.6"/><path class="cls-1" d="M124.88,280.37c-3.01,0-5.27,2.37-5.27,5.53,0,2.79,1.94,4.81,4.59,4.81,1.13,0,2.13-.35,2.94-.98-.3,1.11-.85,2.03-1.61,2.72-.74.72-1.72,1.18-2.83,1.33-.65.07-1.13.11-1.52.09l-.35-.04v2.29h.3l.37.02c.37,0,.89-.02,1.48-.11,1.7-.2,3.29-.94,4.42-2.05,1.18-1.18,2.59-3.33,2.59-7.12s-2-6.49-5.12-6.49h0ZM124.73,282.52c2.37,0,2.63,2.87,2.63,4.09,0,.24-.04.41-.13.57-.5.85-1.46,1.35-2.57,1.35-1.5,0-2.46-1.09-2.46-2.77,0-1.92,1.02-3.24,2.53-3.24h0Z"/><path class="cls-1" d="M136.32,280.37c-3.01,0-5.27,2.37-5.27,5.53,0,2.79,1.94,4.81,4.59,4.81,1.13,0,2.13-.35,2.96-.98-.33,1.11-.87,2.03-1.61,2.72-.76.72-1.74,1.18-2.85,1.33-.65.07-1.13.11-1.5.09l-.37-.04v2.29h.3l.37.02c.39,0,.89-.02,1.5-.11,1.68-.2,3.27-.94,4.4-2.05,1.18-1.18,2.59-3.33,2.59-7.12s-2-6.49-5.12-6.49h0ZM136.16,282.52c2.37,0,2.63,2.87,2.63,4.09,0,.24-.04.41-.13.57-.5.85-1.46,1.35-2.57,1.35-1.5,0-2.46-1.09-2.46-2.77,0-1.92,1.05-3.24,2.53-3.24h0Z"/><path class="cls-1" d="M148.23,285.61c-1.15,0-2.2.37-3.03,1.05.63-2.09,2.26-3.53,4.55-3.9.48-.09.98-.11,1.39-.11h.35v-2.26h-.33c-.48,0-.98.04-1.48.11-1.89.24-3.57,1.02-4.81,2.26-1.65,1.65-2.55,4.07-2.55,6.84,0,3.99,2.13,6.55,5.44,6.55s5.14-2.83,5.14-5.49c0-2.98-1.92-5.05-4.68-5.05h0ZM147.77,293.98c-1.74,0-2.81-1.46-2.85-3.88,0-.26.07-.52.17-.72.5-1,1.5-1.63,2.53-1.63,1.63,0,2.66,1.18,2.66,3.03s-1,3.2-2.5,3.2Z"/></g></svg>