<svg viewBox="0 0 100 100" width="400" height="400" xmlns="http://www.w3.org/2000/svg">
  <g transform="translate(50,50)">
    <circle cx="0" cy="-49.75" r="0.25" fill="#FF9900" transform="rotate(0)"/>
    <circle cx="0" cy="-49.75" r="0.25" fill="#FF9900" transform="rotate(3.75)"/>
    <circle cx="0" cy="-49.75" r="0.25" fill="#FF9900" transform="rotate(7.5)"/>
    <circle cx="0" cy="-49.75" r="0.25" fill="#FF9900" transform="rotate(11.25)"/>
    <circle cx="0" cy="-49.75" r="0.25" fill="#FF9900" transform="rotate(15)"/>
    <circle cx="0" cy="-49.75" r="0.25" fill="#FF9900" transform="rotate(18.75)"/>
    <circle cx="0" cy="-49.75" r="0.25" fill="#FF9900" transform="rotate(22.5)"/>
    <circle cx="0" cy="-49.75" r="0.25" fill="#FF9900" transform="rotate(26.25)"/>
    <circle cx="0" cy="-49.75" r="0.25" fill="#FF9900" transform="rotate(30)"/>
    <circle cx="0" cy="-49.75" r="0.25" fill="#FF9900" transform="rotate(33.75)"/>
    <circle cx="0" cy="-49.75" r="0.25" fill="#FF9900" transform="rotate(37.5)"/>
    <circle cx="0" cy="-49.75" r="0.25" fill="#FF9900" transform="rotate(41.25)"/>
    <circle cx="0" cy="-49.75" r="0.25" fill="#FF9900" transform="rotate(45)"/>
    <circle cx="0" cy="-49.75" r="0.25" fill="#FF9900" transform="rotate(48.75)"/>
    <circle cx="0" cy="-49.75" r="0.25" fill="#FF9900" transform="rotate(52.5)"/>
    <circle cx="0" cy="-49.75" r="0.25" fill="#FF9900" transform="rotate(56.25)"/>
    <circle cx="0" cy="-49.75" r="0.25" fill="#FF9900" transform="rotate(60)"/>
    <circle cx="0" cy="-49.75" r="0.25" fill="#FF9900" transform="rotate(63.75)"/>
    <circle cx="0" cy="-49.75" r="0.25" fill="#FF9900" transform="rotate(67.5)"/>
    <circle cx="0" cy="-49.75" r="0.25" fill="#FF9900" transform="rotate(71.25)"/>
    <circle cx="0" cy="-49.75" r="0.25" fill="#FF9900" transform="rotate(75)"/>
    <circle cx="0" cy="-49.75" r="0.25" fill="#FF9900" transform="rotate(78.75)"/>
    <circle cx="0" cy="-49.75" r="0.25" fill="#FF9900" transform="rotate(82.5)"/>
    <circle cx="0" cy="-49.75" r="0.25" fill="#FF9900" transform="rotate(86.25)"/>
    <circle cx="0" cy="-49.75" r="0.25" fill="#FF9900" transform="rotate(90)"/>
    <circle cx="0" cy="-49.75" r="0.25" fill="#FF9900" transform="rotate(93.75)"/>
    <circle cx="0" cy="-49.75" r="0.25" fill="#FF9900" transform="rotate(97.5)"/>
    <circle cx="0" cy="-49.75" r="0.25" fill="#FF9900" transform="rotate(101.25)"/>
    <circle cx="0" cy="-49.75" r="0.25" fill="#FF9900" transform="rotate(105)"/>
    <circle cx="0" cy="-49.75" r="0.25" fill="#FF9900" transform="rotate(108.75)"/>
    <circle cx="0" cy="-49.75" r="0.25" fill="#FF9900" transform="rotate(112.5)"/>
    <circle cx="0" cy="-49.75" r="0.25" fill="#FF9900" transform="rotate(116.25)"/>
    <circle cx="0" cy="-49.75" r="0.25" fill="#FF9900" transform="rotate(120)"/>
    <circle cx="0" cy="-49.75" r="0.25" fill="#FF9900" transform="rotate(123.75)"/>
    <circle cx="0" cy="-49.75" r="0.25" fill="#FF9900" transform="rotate(127.5)"/>
    <circle cx="0" cy="-49.75" r="0.25" fill="#FF9900" transform="rotate(131.25)"/>
    <circle cx="0" cy="-49.75" r="0.25" fill="#FF9900" transform="rotate(135)"/>
    <circle cx="0" cy="-49.75" r="0.25" fill="#FF9900" transform="rotate(138.75)"/>
    <circle cx="0" cy="-49.75" r="0.25" fill="#FF9900" transform="rotate(142.5)"/>
    <circle cx="0" cy="-49.75" r="0.25" fill="#FF9900" transform="rotate(146.25)"/>
    <circle cx="0" cy="-49.75" r="0.25" fill="#FF9900" transform="rotate(150)"/>
    <circle cx="0" cy="-49.75" r="0.25" fill="#FF9900" transform="rotate(153.75)"/>
    <circle cx="0" cy="-49.75" r="0.25" fill="#FF9900" transform="rotate(157.5)"/>
    <circle cx="0" cy="-49.75" r="0.25" fill="#FF9900" transform="rotate(161.25)"/>
    <circle cx="0" cy="-49.75" r="0.25" fill="#FF9900" transform="rotate(165)"/>
    <circle cx="0" cy="-49.75" r="0.25" fill="#FF9900" transform="rotate(168.75)"/>
    <circle cx="0" cy="-49.75" r="0.25" fill="#FF9900" transform="rotate(172.5)"/>
    <circle cx="0" cy="-49.75" r="0.25" fill="#FF9900" transform="rotate(176.25)"/>
    <circle cx="0" cy="-49.75" r="0.25" fill="#FF9900" transform="rotate(180)"/>
    <circle cx="0" cy="-49.75" r="0.25" fill="#FF9900" transform="rotate(183.75)"/>
    <circle cx="0" cy="-49.75" r="0.25" fill="#FF9900" transform="rotate(187.5)"/>
    <circle cx="0" cy="-49.75" r="0.25" fill="#FF9900" transform="rotate(191.25)"/>
    <circle cx="0" cy="-49.75" r="0.25" fill="#FF9900" transform="rotate(195)"/>
    <circle cx="0" cy="-49.75" r="0.25" fill="#FF9900" transform="rotate(198.75)"/>
    <circle cx="0" cy="-49.75" r="0.25" fill="#FF9900" transform="rotate(202.5)"/>
    <circle cx="0" cy="-49.75" r="0.25" fill="#FF9900" transform="rotate(206.25)"/>
    <circle cx="0" cy="-49.75" r="0.25" fill="#FF9900" transform="rotate(210)"/>
    <circle cx="0" cy="-49.75" r="0.25" fill="#FF9900" transform="rotate(213.75)"/>
    <circle cx="0" cy="-49.75" r="0.25" fill="#FF9900" transform="rotate(217.5)"/>
    <circle cx="0" cy="-49.75" r="0.25" fill="#FF9900" transform="rotate(221.25)"/>
    <circle cx="0" cy="-49.75" r="0.25" fill="#FF9900" transform="rotate(225)"/>
    <circle cx="0" cy="-49.75" r="0.25" fill="#FF9900" transform="rotate(228.75)"/>
    <circle cx="0" cy="-49.75" r="0.25" fill="#FF9900" transform="rotate(232.5)"/>
    <circle cx="0" cy="-49.75" r="0.25" fill="#FF9900" transform="rotate(236.25)"/>
    <circle cx="0" cy="-49.75" r="0.25" fill="#FF9900" transform="rotate(240)"/>
    <circle cx="0" cy="-49.75" r="0.25" fill="#FF9900" transform="rotate(243.75)"/>
    <circle cx="0" cy="-49.75" r="0.25" fill="#FF9900" transform="rotate(247.5)"/>
    <circle cx="0" cy="-49.75" r="0.25" fill="#FF9900" transform="rotate(251.25)"/>
    <circle cx="0" cy="-49.75" r="0.25" fill="#FF9900" transform="rotate(255)"/>
    <circle cx="0" cy="-49.75" r="0.25" fill="#FF9900" transform="rotate(258.75)"/>
    <circle cx="0" cy="-49.75" r="0.25" fill="#FF9900" transform="rotate(262.5)"/>
    <circle cx="0" cy="-49.75" r="0.25" fill="#FF9900" transform="rotate(266.25)"/>
    <circle cx="0" cy="-49.75" r="0.25" fill="#FF9900" transform="rotate(270)"/>
    <circle cx="0" cy="-49.75" r="0.25" fill="#FF9900" transform="rotate(273.75)"/>
    <circle cx="0" cy="-49.75" r="0.25" fill="#FF9900" transform="rotate(277.5)"/>
    <circle cx="0" cy="-49.75" r="0.25" fill="#FF9900" transform="rotate(281.25)"/>
    <circle cx="0" cy="-49.75" r="0.25" fill="#FF9900" transform="rotate(285)"/>
    <circle cx="0" cy="-49.75" r="0.25" fill="#FF9900" transform="rotate(288.75)"/>
    <circle cx="0" cy="-49.75" r="0.25" fill="#FF9900" transform="rotate(292.5)"/>
    <circle cx="0" cy="-49.75" r="0.25" fill="#FF9900" transform="rotate(296.25)"/>
    <circle cx="0" cy="-49.75" r="0.25" fill="#FF9900" transform="rotate(300)"/>
    <circle cx="0" cy="-49.75" r="0.25" fill="#FF9900" transform="rotate(303.75)"/>
    <circle cx="0" cy="-49.75" r="0.25" fill="#FF9900" transform="rotate(307.5)"/>
    <circle cx="0" cy="-49.75" r="0.25" fill="#FF9900" transform="rotate(311.25)"/>
    <circle cx="0" cy="-49.75" r="0.25" fill="#FF9900" transform="rotate(315)"/>
    <circle cx="0" cy="-49.75" r="0.25" fill="#FF9900" transform="rotate(318.75)"/>
    <circle cx="0" cy="-49.75" r="0.25" fill="#FF9900" transform="rotate(322.5)"/>
    <circle cx="0" cy="-49.75" r="0.25" fill="#FF9900" transform="rotate(326.25)"/>
    <circle cx="0" cy="-49.75" r="0.25" fill="#FF9900" transform="rotate(330)"/>
    <circle cx="0" cy="-49.75" r="0.25" fill="#FF9900" transform="rotate(333.75)"/>
    <circle cx="0" cy="-49.75" r="0.25" fill="#FF9900" transform="rotate(337.5)"/>
    <circle cx="0" cy="-49.75" r="0.25" fill="#FF9900" transform="rotate(341.25)"/>
    <circle cx="0" cy="-49.75" r="0.25" fill="#FF9900" transform="rotate(345)"/>
    <circle cx="0" cy="-49.75" r="0.25" fill="#FF9900" transform="rotate(348.75)"/>
    <circle cx="0" cy="-49.75" r="0.25" fill="#FF9900" transform="rotate(352.5)"/>
    <circle cx="0" cy="-49.75" r="0.25" fill="#FF9900" transform="rotate(356.25)"/>
  </g>
</svg>