<?xml version="1.0" encoding="UTF-8"?>
<svg id="Layer_1" xmlns="http://www.w3.org/2000/svg" version="1.1" viewBox="0 0 400 400">
  <!-- Generator: Adobe Illustrator 30.4.0, SVG Export Plug-In . SVG Version: 2.1.4 Build 226)  -->
  <defs>
    <style>
      .st0 {
        fill: #fff;
      }
    </style>
  </defs>
  <circle class="st0" cx="200" cy="2.4" r="2.4"/>
  <circle class="st0" cx="225.8" cy="4.1" r="2.4"/>
  <circle class="st0" cx="251.1" cy="9.1" r="2.4"/>
  <circle class="st0" cx="275.6" cy="17.4" r="2.4"/>
  <circle class="st0" cx="298.8" cy="28.9" r="2.4"/>
  <circle class="st0" cx="320.3" cy="43.2" r="2.4"/>
  <circle class="st0" cx="339.7" cy="60.3" r="2.4"/>
  <circle class="st0" cx="356.8" cy="79.7" r="2.4"/>
  <circle class="st0" cx="371.1" cy="101.2" r="2.4"/>
  <circle class="st0" cx="382.6" cy="124.4" r="2.4"/>
  <circle class="st0" cx="390.9" cy="148.9" r="2.4"/>
  <circle class="st0" cx="395.9" cy="174.2" r="2.4"/>
  <circle class="st0" cx="397.6" cy="200" r="2.4"/>
  <circle class="st0" cx="395.9" cy="225.8" r="2.4"/>
  <circle class="st0" cx="390.9" cy="251.1" r="2.4"/>
  <circle class="st0" cx="382.6" cy="275.6" r="2.4"/>
  <circle class="st0" cx="371.1" cy="298.8" r="2.4"/>
  <circle class="st0" cx="356.8" cy="320.3" r="2.4"/>
  <circle class="st0" cx="339.7" cy="339.7" r="2.4"/>
  <circle class="st0" cx="320.3" cy="356.8" r="2.4"/>
  <circle class="st0" cx="298.8" cy="371.1" r="2.4"/>
  <circle class="st0" cx="275.6" cy="382.6" r="2.4"/>
  <circle class="st0" cx="251.1" cy="390.9" r="2.4"/>
  <circle class="st0" cx="225.8" cy="395.9" r="2.4"/>
  <circle class="st0" cx="200" cy="397.6" r="2.4"/>
  <circle class="st0" cx="174.2" cy="395.9" r="2.4"/>
  <circle class="st0" cx="148.9" cy="390.9" r="2.4"/>
  <circle class="st0" cx="124.4" cy="382.6" r="2.4"/>
  <circle class="st0" cx="101.2" cy="371.1" r="2.4"/>
  <circle class="st0" cx="79.7" cy="356.8" r="2.4"/>
  <circle class="st0" cx="60.3" cy="339.7" r="2.4"/>
  <circle class="st0" cx="43.2" cy="320.3" r="2.4"/>
  <circle class="st0" cx="28.9" cy="298.8" r="2.4"/>
  <circle class="st0" cx="17.4" cy="275.6" r="2.4"/>
  <circle class="st0" cx="9.1" cy="251.1" r="2.4"/>
  <circle class="st0" cx="4.1" cy="225.8" r="2.4"/>
  <circle class="st0" cx="2.4" cy="200" r="2.4"/>
  <circle class="st0" cx="4.1" cy="174.2" r="2.4"/>
  <circle class="st0" cx="9.1" cy="148.9" r="2.4"/>
  <circle class="st0" cx="17.4" cy="124.4" r="2.4"/>
  <circle class="st0" cx="28.9" cy="101.2" r="2.4"/>
  <circle class="st0" cx="43.2" cy="79.7" r="2.4"/>
  <circle class="st0" cx="60.3" cy="60.3" r="2.4"/>
  <circle class="st0" cx="79.7" cy="43.2" r="2.4"/>
  <circle class="st0" cx="101.2" cy="28.9" r="2.4"/>
  <circle class="st0" cx="124.4" cy="17.4" r="2.4"/>
  <circle class="st0" cx="148.9" cy="9.1" r="2.4"/>
  <circle class="st0" cx="174.2" cy="4.1" r="2.4"/>
</svg>