<svg viewBox="0 0 100 100" width="400" height="400" xmlns="http://www.w3.org/2000/svg">
  <g transform="translate(50,50)">
    <circle cx="0" cy="-49.4" r="0.6" fill="#FF9900" transform="rotate(0)"/>
    <circle cx="0" cy="-49.4" r="0.6" fill="#FF9900" transform="rotate(7.5)"/>
    <circle cx="0" cy="-49.4" r="0.6" fill="#FF9900" transform="rotate(15)"/>
    <circle cx="0" cy="-49.4" r="0.6" fill="#FF9900" transform="rotate(22.5)"/>
    <circle cx="0" cy="-49.4" r="0.6" fill="#FF9900" transform="rotate(30)"/>
    <circle cx="0" cy="-49.4" r="0.6" fill="#FF9900" transform="rotate(37.5)"/>
    <circle cx="0" cy="-49.4" r="0.6" fill="#FF9900" transform="rotate(45)"/>
    <circle cx="0" cy="-49.4" r="0.6" fill="#FF9900" transform="rotate(52.5)"/>
    <circle cx="0" cy="-49.4" r="0.6" fill="#FF9900" transform="rotate(60)"/>
    <circle cx="0" cy="-49.4" r="0.6" fill="#FF9900" transform="rotate(67.5)"/>
    <circle cx="0" cy="-49.4" r="0.6" fill="#FF9900" transform="rotate(75)"/>
    <circle cx="0" cy="-49.4" r="0.6" fill="#FF9900" transform="rotate(82.5)"/>
    <circle cx="0" cy="-49.4" r="0.6" fill="#FF9900" transform="rotate(90)"/>
    <circle cx="0" cy="-49.4" r="0.6" fill="#FF9900" transform="rotate(97.5)"/>
    <circle cx="0" cy="-49.4" r="0.6" fill="#FF9900" transform="rotate(105)"/>
    <circle cx="0" cy="-49.4" r="0.6" fill="#FF9900" transform="rotate(112.5)"/>
    <circle cx="0" cy="-49.4" r="0.6" fill="#FF9900" transform="rotate(120)"/>
    <circle cx="0" cy="-49.4" r="0.6" fill="#FF9900" transform="rotate(127.5)"/>
    <circle cx="0" cy="-49.4" r="0.6" fill="#FF9900" transform="rotate(135)"/>
    <circle cx="0" cy="-49.4" r="0.6" fill="#FF9900" transform="rotate(142.5)"/>
    <circle cx="0" cy="-49.4" r="0.6" fill="#FF9900" transform="rotate(150)"/>
    <circle cx="0" cy="-49.4" r="0.6" fill="#FF9900" transform="rotate(157.5)"/>
    <circle cx="0" cy="-49.4" r="0.6" fill="#FF9900" transform="rotate(165)"/>
    <circle cx="0" cy="-49.4" r="0.6" fill="#FF9900" transform="rotate(172.5)"/>
    <circle cx="0" cy="-49.4" r="0.6" fill="#FF9900" transform="rotate(180)"/>
    <circle cx="0" cy="-49.4" r="0.6" fill="#FF9900" transform="rotate(187.5)"/>
    <circle cx="0" cy="-49.4" r="0.6" fill="#FF9900" transform="rotate(195)"/>
    <circle cx="0" cy="-49.4" r="0.6" fill="#FF9900" transform="rotate(202.5)"/>
    <circle cx="0" cy="-49.4" r="0.6" fill="#FF9900" transform="rotate(210)"/>
    <circle cx="0" cy="-49.4" r="0.6" fill="#FF9900" transform="rotate(217.5)"/>
    <circle cx="0" cy="-49.4" r="0.6" fill="#FF9900" transform="rotate(225)"/>
    <circle cx="0" cy="-49.4" r="0.6" fill="#FF9900" transform="rotate(232.5)"/>
    <circle cx="0" cy="-49.4" r="0.6" fill="#FF9900" transform="rotate(240)"/>
    <circle cx="0" cy="-49.4" r="0.6" fill="#FF9900" transform="rotate(247.5)"/>
    <circle cx="0" cy="-49.4" r="0.6" fill="#FF9900" transform="rotate(255)"/>
    <circle cx="0" cy="-49.4" r="0.6" fill="#FF9900" transform="rotate(262.5)"/>
    <circle cx="0" cy="-49.4" r="0.6" fill="#FF9900" transform="rotate(270)"/>
    <circle cx="0" cy="-49.4" r="0.6" fill="#FF9900" transform="rotate(277.5)"/>
    <circle cx="0" cy="-49.4" r="0.6" fill="#FF9900" transform="rotate(285)"/>
    <circle cx="0" cy="-49.4" r="0.6" fill="#FF9900" transform="rotate(292.5)"/>
    <circle cx="0" cy="-49.4" r="0.6" fill="#FF9900" transform="rotate(300)"/>
    <circle cx="0" cy="-49.4" r="0.6" fill="#FF9900" transform="rotate(307.5)"/>
    <circle cx="0" cy="-49.4" r="0.6" fill="#FF9900" transform="rotate(315)"/>
    <circle cx="0" cy="-49.4" r="0.6" fill="#FF9900" transform="rotate(322.5)"/>
    <circle cx="0" cy="-49.4" r="0.6" fill="#FF9900" transform="rotate(330)"/>
    <circle cx="0" cy="-49.4" r="0.6" fill="#FF9900" transform="rotate(337.5)"/>
    <circle cx="0" cy="-49.4" r="0.6" fill="#FF9900" transform="rotate(345)"/>
    <circle cx="0" cy="-49.4" r="0.6" fill="#FF9900" transform="rotate(352.5)"/>
  </g>
</svg>