<?xml version="1.0" encoding="UTF-8"?>
<svg id="Layer_1" xmlns="http://www.w3.org/2000/svg" version="1.1" viewBox="0 0 400 400">
  <!-- Generator: Adobe Illustrator 30.4.0, SVG Export Plug-In . SVG Version: 2.1.4 Build 226)  -->
  <defs>
    <style>
      .st0 {
        fill: #fff;
      }
    </style>
  </defs>
  <circle class="st0" cx="200" cy="1" r="1"/>
  <circle class="st0" cx="213" cy="1.4" r="1"/>
  <circle class="st0" cx="226" cy="2.7" r="1"/>
  <circle class="st0" cx="238.8" cy="4.8" r="1"/>
  <circle class="st0" cx="251.5" cy="7.8" r="1"/>
  <circle class="st0" cx="264" cy="11.6" r="1"/>
  <circle class="st0" cx="276.2" cy="16.1" r="1"/>
  <circle class="st0" cx="288" cy="21.5" r="1"/>
  <circle class="st0" cx="299.5" cy="27.7" r="1"/>
  <circle class="st0" cx="310.6" cy="34.5" r="1"/>
  <circle class="st0" cx="321.1" cy="42.1" r="1"/>
  <circle class="st0" cx="331.2" cy="50.4" r="1"/>
  <circle class="st0" cx="340.7" cy="59.3" r="1"/>
  <circle class="st0" cx="349.6" cy="68.8" r="1"/>
  <circle class="st0" cx="357.9" cy="78.9" r="1"/>
  <circle class="st0" cx="365.5" cy="89.4" r="1"/>
  <circle class="st0" cx="372.3" cy="100.5" r="1"/>
  <circle class="st0" cx="378.5" cy="112" r="1"/>
  <circle class="st0" cx="383.9" cy="123.8" r="1"/>
  <circle class="st0" cx="388.4" cy="136" r="1"/>
  <circle class="st0" cx="392.2" cy="148.5" r="1"/>
  <circle class="st0" cx="395.2" cy="161.2" r="1"/>
  <circle class="st0" cx="397.3" cy="174" r="1"/>
  <circle class="st0" cx="398.6" cy="187" r="1"/>
  <circle class="st0" cx="399" cy="200" r="1"/>
  <circle class="st0" cx="398.6" cy="213" r="1"/>
  <circle class="st0" cx="397.3" cy="226" r="1"/>
  <circle class="st0" cx="395.2" cy="238.8" r="1"/>
  <circle class="st0" cx="392.2" cy="251.5" r="1"/>
  <circle class="st0" cx="388.4" cy="264" r="1"/>
  <circle class="st0" cx="383.9" cy="276.2" r="1"/>
  <circle class="st0" cx="378.5" cy="288" r="1"/>
  <circle class="st0" cx="372.3" cy="299.5" r="1"/>
  <circle class="st0" cx="365.5" cy="310.6" r="1"/>
  <circle class="st0" cx="357.9" cy="321.1" r="1"/>
  <circle class="st0" cx="349.6" cy="331.2" r="1"/>
  <circle class="st0" cx="340.7" cy="340.7" r="1"/>
  <circle class="st0" cx="331.2" cy="349.6" r="1"/>
  <circle class="st0" cx="321.1" cy="357.9" r="1"/>
  <circle class="st0" cx="310.6" cy="365.5" r="1"/>
  <circle class="st0" cx="299.5" cy="372.3" r="1"/>
  <circle class="st0" cx="288" cy="378.5" r="1"/>
  <circle class="st0" cx="276.2" cy="383.9" r="1"/>
  <circle class="st0" cx="264" cy="388.4" r="1"/>
  <circle class="st0" cx="251.5" cy="392.2" r="1"/>
  <circle class="st0" cx="238.8" cy="395.2" r="1"/>
  <circle class="st0" cx="226" cy="397.3" r="1"/>
  <circle class="st0" cx="213" cy="398.6" r="1"/>
  <circle class="st0" cx="200" cy="399" r="1"/>
  <circle class="st0" cx="187" cy="398.6" r="1"/>
  <circle class="st0" cx="174" cy="397.3" r="1"/>
  <circle class="st0" cx="161.2" cy="395.2" r="1"/>
  <circle class="st0" cx="148.5" cy="392.2" r="1"/>
  <circle class="st0" cx="136" cy="388.4" r="1"/>
  <circle class="st0" cx="123.8" cy="383.9" r="1"/>
  <circle class="st0" cx="112" cy="378.5" r="1"/>
  <circle class="st0" cx="100.5" cy="372.3" r="1"/>
  <circle class="st0" cx="89.4" cy="365.5" r="1"/>
  <circle class="st0" cx="78.9" cy="357.9" r="1"/>
  <circle class="st0" cx="68.8" cy="349.6" r="1"/>
  <circle class="st0" cx="59.3" cy="340.7" r="1"/>
  <circle class="st0" cx="50.4" cy="331.2" r="1"/>
  <circle class="st0" cx="42.1" cy="321.1" r="1"/>
  <circle class="st0" cx="34.5" cy="310.6" r="1"/>
  <circle class="st0" cx="27.7" cy="299.5" r="1"/>
  <circle class="st0" cx="21.5" cy="288" r="1"/>
  <circle class="st0" cx="16.1" cy="276.2" r="1"/>
  <circle class="st0" cx="11.6" cy="264" r="1"/>
  <circle class="st0" cx="7.8" cy="251.5" r="1"/>
  <circle class="st0" cx="4.8" cy="238.8" r="1"/>
  <circle class="st0" cx="2.7" cy="226" r="1"/>
  <circle class="st0" cx="1.4" cy="213" r="1"/>
  <circle class="st0" cx="1" cy="200" r="1"/>
  <circle class="st0" cx="1.4" cy="187" r="1"/>
  <circle class="st0" cx="2.7" cy="174" r="1"/>
  <circle class="st0" cx="4.8" cy="161.2" r="1"/>
  <circle class="st0" cx="7.8" cy="148.5" r="1"/>
  <circle class="st0" cx="11.6" cy="136" r="1"/>
  <circle class="st0" cx="16.1" cy="123.8" r="1"/>
  <circle class="st0" cx="21.5" cy="112" r="1"/>
  <circle class="st0" cx="27.7" cy="100.5" r="1"/>
  <circle class="st0" cx="34.5" cy="89.4" r="1"/>
  <circle class="st0" cx="42.1" cy="78.9" r="1"/>
  <circle class="st0" cx="50.4" cy="68.8" r="1"/>
  <circle class="st0" cx="59.3" cy="59.3" r="1"/>
  <circle class="st0" cx="68.8" cy="50.4" r="1"/>
  <circle class="st0" cx="78.9" cy="42.1" r="1"/>
  <circle class="st0" cx="89.4" cy="34.5" r="1"/>
  <circle class="st0" cx="100.5" cy="27.7" r="1"/>
  <circle class="st0" cx="112" cy="21.5" r="1"/>
  <circle class="st0" cx="123.8" cy="16.1" r="1"/>
  <circle class="st0" cx="136" cy="11.6" r="1"/>
  <circle class="st0" cx="148.5" cy="7.8" r="1"/>
  <circle class="st0" cx="161.2" cy="4.8" r="1"/>
  <circle class="st0" cx="174" cy="2.7" r="1"/>
  <circle class="st0" cx="187" cy="1.4" r="1"/>
</svg>