<svg viewBox="0 0 100 100" width="400" height="400" xmlns="http://www.w3.org/2000/svg">
  <g transform="translate(50,50)">
    <circle cx="0" cy="-49.86" r="0.14" fill="#FF9900" transform="rotate(0)"/>
    <circle cx="0" cy="-49.86" r="0.14" fill="#FF9900" transform="rotate(1.875)"/>
    <circle cx="0" cy="-49.86" r="0.14" fill="#FF9900" transform="rotate(3.75)"/>
    <circle cx="0" cy="-49.86" r="0.14" fill="#FF9900" transform="rotate(5.625)"/>
    <circle cx="0" cy="-49.86" r="0.14" fill="#FF9900" transform="rotate(7.5)"/>
    <circle cx="0" cy="-49.86" r="0.14" fill="#FF9900" transform="rotate(9.375)"/>
    <circle cx="0" cy="-49.86" r="0.14" fill="#FF9900" transform="rotate(11.25)"/>
    <circle cx="0" cy="-49.86" r="0.14" fill="#FF9900" transform="rotate(13.125)"/>
    <circle cx="0" cy="-49.86" r="0.14" fill="#FF9900" transform="rotate(15)"/>
    <circle cx="0" cy="-49.86" r="0.14" fill="#FF9900" transform="rotate(16.875)"/>
    <circle cx="0" cy="-49.86" r="0.14" fill="#FF9900" transform="rotate(18.75)"/>
    <circle cx="0" cy="-49.86" r="0.14" fill="#FF9900" transform="rotate(20.625)"/>
    <circle cx="0" cy="-49.86" r="0.14" fill="#FF9900" transform="rotate(22.5)"/>
    <circle cx="0" cy="-49.86" r="0.14" fill="#FF9900" transform="rotate(24.375)"/>
    <circle cx="0" cy="-49.86" r="0.14" fill="#FF9900" transform="rotate(26.25)"/>
    <circle cx="0" cy="-49.86" r="0.14" fill="#FF9900" transform="rotate(28.125)"/>
    <circle cx="0" cy="-49.86" r="0.14" fill="#FF9900" transform="rotate(30)"/>
    <circle cx="0" cy="-49.86" r="0.14" fill="#FF9900" transform="rotate(31.875)"/>
    <circle cx="0" cy="-49.86" r="0.14" fill="#FF9900" transform="rotate(33.75)"/>
    <circle cx="0" cy="-49.86" r="0.14" fill="#FF9900" transform="rotate(35.625)"/>
    <circle cx="0" cy="-49.86" r="0.14" fill="#FF9900" transform="rotate(37.5)"/>
    <circle cx="0" cy="-49.86" r="0.14" fill="#FF9900" transform="rotate(39.375)"/>
    <circle cx="0" cy="-49.86" r="0.14" fill="#FF9900" transform="rotate(41.25)"/>
    <circle cx="0" cy="-49.86" r="0.14" fill="#FF9900" transform="rotate(43.125)"/>
    <circle cx="0" cy="-49.86" r="0.14" fill="#FF9900" transform="rotate(45)"/>
    <circle cx="0" cy="-49.86" r="0.14" fill="#FF9900" transform="rotate(46.875)"/>
    <circle cx="0" cy="-49.86" r="0.14" fill="#FF9900" transform="rotate(48.75)"/>
    <circle cx="0" cy="-49.86" r="0.14" fill="#FF9900" transform="rotate(50.625)"/>
    <circle cx="0" cy="-49.86" r="0.14" fill="#FF9900" transform="rotate(52.5)"/>
    <circle cx="0" cy="-49.86" r="0.14" fill="#FF9900" transform="rotate(54.375)"/>
    <circle cx="0" cy="-49.86" r="0.14" fill="#FF9900" transform="rotate(56.25)"/>
    <circle cx="0" cy="-49.86" r="0.14" fill="#FF9900" transform="rotate(58.125)"/>
    <circle cx="0" cy="-49.86" r="0.14" fill="#FF9900" transform="rotate(60)"/>
    <circle cx="0" cy="-49.86" r="0.14" fill="#FF9900" transform="rotate(61.875)"/>
    <circle cx="0" cy="-49.86" r="0.14" fill="#FF9900" transform="rotate(63.75)"/>
    <circle cx="0" cy="-49.86" r="0.14" fill="#FF9900" transform="rotate(65.625)"/>
    <circle cx="0" cy="-49.86" r="0.14" fill="#FF9900" transform="rotate(67.5)"/>
    <circle cx="0" cy="-49.86" r="0.14" fill="#FF9900" transform="rotate(69.375)"/>
    <circle cx="0" cy="-49.86" r="0.14" fill="#FF9900" transform="rotate(71.25)"/>
    <circle cx="0" cy="-49.86" r="0.14" fill="#FF9900" transform="rotate(73.125)"/>
    <circle cx="0" cy="-49.86" r="0.14" fill="#FF9900" transform="rotate(75)"/>
    <circle cx="0" cy="-49.86" r="0.14" fill="#FF9900" transform="rotate(76.875)"/>
    <circle cx="0" cy="-49.86" r="0.14" fill="#FF9900" transform="rotate(78.75)"/>
    <circle cx="0" cy="-49.86" r="0.14" fill="#FF9900" transform="rotate(80.625)"/>
    <circle cx="0" cy="-49.86" r="0.14" fill="#FF9900" transform="rotate(82.5)"/>
    <circle cx="0" cy="-49.86" r="0.14" fill="#FF9900" transform="rotate(84.375)"/>
    <circle cx="0" cy="-49.86" r="0.14" fill="#FF9900" transform="rotate(86.25)"/>
    <circle cx="0" cy="-49.86" r="0.14" fill="#FF9900" transform="rotate(88.125)"/>
    <circle cx="0" cy="-49.86" r="0.14" fill="#FF9900" transform="rotate(90)"/>
    <circle cx="0" cy="-49.86" r="0.14" fill="#FF9900" transform="rotate(91.875)"/>
    <circle cx="0" cy="-49.86" r="0.14" fill="#FF9900" transform="rotate(93.75)"/>
    <circle cx="0" cy="-49.86" r="0.14" fill="#FF9900" transform="rotate(95.625)"/>
    <circle cx="0" cy="-49.86" r="0.14" fill="#FF9900" transform="rotate(97.5)"/>
    <circle cx="0" cy="-49.86" r="0.14" fill="#FF9900" transform="rotate(99.375)"/>
    <circle cx="0" cy="-49.86" r="0.14" fill="#FF9900" transform="rotate(101.25)"/>
    <circle cx="0" cy="-49.86" r="0.14" fill="#FF9900" transform="rotate(103.125)"/>
    <circle cx="0" cy="-49.86" r="0.14" fill="#FF9900" transform="rotate(105)"/>
    <circle cx="0" cy="-49.86" r="0.14" fill="#FF9900" transform="rotate(106.875)"/>
    <circle cx="0" cy="-49.86" r="0.14" fill="#FF9900" transform="rotate(108.75)"/>
    <circle cx="0" cy="-49.86" r="0.14" fill="#FF9900" transform="rotate(110.625)"/>
    <circle cx="0" cy="-49.86" r="0.14" fill="#FF9900" transform="rotate(112.5)"/>
    <circle cx="0" cy="-49.86" r="0.14" fill="#FF9900" transform="rotate(114.375)"/>
    <circle cx="0" cy="-49.86" r="0.14" fill="#FF9900" transform="rotate(116.25)"/>
    <circle cx="0" cy="-49.86" r="0.14" fill="#FF9900" transform="rotate(118.125)"/>
    <circle cx="0" cy="-49.86" r="0.14" fill="#FF9900" transform="rotate(120)"/>
    <circle cx="0" cy="-49.86" r="0.14" fill="#FF9900" transform="rotate(121.875)"/>
    <circle cx="0" cy="-49.86" r="0.14" fill="#FF9900" transform="rotate(123.75)"/>
    <circle cx="0" cy="-49.86" r="0.14" fill="#FF9900" transform="rotate(125.625)"/>
    <circle cx="0" cy="-49.86" r="0.14" fill="#FF9900" transform="rotate(127.5)"/>
    <circle cx="0" cy="-49.86" r="0.14" fill="#FF9900" transform="rotate(129.375)"/>
    <circle cx="0" cy="-49.86" r="0.14" fill="#FF9900" transform="rotate(131.25)"/>
    <circle cx="0" cy="-49.86" r="0.14" fill="#FF9900" transform="rotate(133.125)"/>
    <circle cx="0" cy="-49.86" r="0.14" fill="#FF9900" transform="rotate(135)"/>
    <circle cx="0" cy="-49.86" r="0.14" fill="#FF9900" transform="rotate(136.875)"/>
    <circle cx="0" cy="-49.86" r="0.14" fill="#FF9900" transform="rotate(138.75)"/>
    <circle cx="0" cy="-49.86" r="0.14" fill="#FF9900" transform="rotate(140.625)"/>
    <circle cx="0" cy="-49.86" r="0.14" fill="#FF9900" transform="rotate(142.5)"/>
    <circle cx="0" cy="-49.86" r="0.14" fill="#FF9900" transform="rotate(144.375)"/>
    <circle cx="0" cy="-49.86" r="0.14" fill="#FF9900" transform="rotate(146.25)"/>
    <circle cx="0" cy="-49.86" r="0.14" fill="#FF9900" transform="rotate(148.125)"/>
    <circle cx="0" cy="-49.86" r="0.14" fill="#FF9900" transform="rotate(150)"/>
    <circle cx="0" cy="-49.86" r="0.14" fill="#FF9900" transform="rotate(151.875)"/>
    <circle cx="0" cy="-49.86" r="0.14" fill="#FF9900" transform="rotate(153.75)"/>
    <circle cx="0" cy="-49.86" r="0.14" fill="#FF9900" transform="rotate(155.625)"/>
    <circle cx="0" cy="-49.86" r="0.14" fill="#FF9900" transform="rotate(157.5)"/>
    <circle cx="0" cy="-49.86" r="0.14" fill="#FF9900" transform="rotate(159.375)"/>
    <circle cx="0" cy="-49.86" r="0.14" fill="#FF9900" transform="rotate(161.25)"/>
    <circle cx="0" cy="-49.86" r="0.14" fill="#FF9900" transform="rotate(163.125)"/>
    <circle cx="0" cy="-49.86" r="0.14" fill="#FF9900" transform="rotate(165)"/>
    <circle cx="0" cy="-49.86" r="0.14" fill="#FF9900" transform="rotate(166.875)"/>
    <circle cx="0" cy="-49.86" r="0.14" fill="#FF9900" transform="rotate(168.75)"/>
    <circle cx="0" cy="-49.86" r="0.14" fill="#FF9900" transform="rotate(170.625)"/>
    <circle cx="0" cy="-49.86" r="0.14" fill="#FF9900" transform="rotate(172.5)"/>
    <circle cx="0" cy="-49.86" r="0.14" fill="#FF9900" transform="rotate(174.375)"/>
    <circle cx="0" cy="-49.86" r="0.14" fill="#FF9900" transform="rotate(176.25)"/>
    <circle cx="0" cy="-49.86" r="0.14" fill="#FF9900" transform="rotate(178.125)"/>
    <circle cx="0" cy="-49.86" r="0.14" fill="#FF9900" transform="rotate(180)"/>
    <circle cx="0" cy="-49.86" r="0.14" fill="#FF9900" transform="rotate(181.875)"/>
    <circle cx="0" cy="-49.86" r="0.14" fill="#FF9900" transform="rotate(183.75)"/>
    <circle cx="0" cy="-49.86" r="0.14" fill="#FF9900" transform="rotate(185.625)"/>
    <circle cx="0" cy="-49.86" r="0.14" fill="#FF9900" transform="rotate(187.5)"/>
    <circle cx="0" cy="-49.86" r="0.14" fill="#FF9900" transform="rotate(189.375)"/>
    <circle cx="0" cy="-49.86" r="0.14" fill="#FF9900" transform="rotate(191.25)"/>
    <circle cx="0" cy="-49.86" r="0.14" fill="#FF9900" transform="rotate(193.125)"/>
    <circle cx="0" cy="-49.86" r="0.14" fill="#FF9900" transform="rotate(195)"/>
    <circle cx="0" cy="-49.86" r="0.14" fill="#FF9900" transform="rotate(196.875)"/>
    <circle cx="0" cy="-49.86" r="0.14" fill="#FF9900" transform="rotate(198.75)"/>
    <circle cx="0" cy="-49.86" r="0.14" fill="#FF9900" transform="rotate(200.625)"/>
    <circle cx="0" cy="-49.86" r="0.14" fill="#FF9900" transform="rotate(202.5)"/>
    <circle cx="0" cy="-49.86" r="0.14" fill="#FF9900" transform="rotate(204.375)"/>
    <circle cx="0" cy="-49.86" r="0.14" fill="#FF9900" transform="rotate(206.25)"/>
    <circle cx="0" cy="-49.86" r="0.14" fill="#FF9900" transform="rotate(208.125)"/>
    <circle cx="0" cy="-49.86" r="0.14" fill="#FF9900" transform="rotate(210)"/>
    <circle cx="0" cy="-49.86" r="0.14" fill="#FF9900" transform="rotate(211.875)"/>
    <circle cx="0" cy="-49.86" r="0.14" fill="#FF9900" transform="rotate(213.75)"/>
    <circle cx="0" cy="-49.86" r="0.14" fill="#FF9900" transform="rotate(215.625)"/>
    <circle cx="0" cy="-49.86" r="0.14" fill="#FF9900" transform="rotate(217.5)"/>
    <circle cx="0" cy="-49.86" r="0.14" fill="#FF9900" transform="rotate(219.375)"/>
    <circle cx="0" cy="-49.86" r="0.14" fill="#FF9900" transform="rotate(221.25)"/>
    <circle cx="0" cy="-49.86" r="0.14" fill="#FF9900" transform="rotate(223.125)"/>
    <circle cx="0" cy="-49.86" r="0.14" fill="#FF9900" transform="rotate(225)"/>
    <circle cx="0" cy="-49.86" r="0.14" fill="#FF9900" transform="rotate(226.875)"/>
    <circle cx="0" cy="-49.86" r="0.14" fill="#FF9900" transform="rotate(228.75)"/>
    <circle cx="0" cy="-49.86" r="0.14" fill="#FF9900" transform="rotate(230.625)"/>
    <circle cx="0" cy="-49.86" r="0.14" fill="#FF9900" transform="rotate(232.5)"/>
    <circle cx="0" cy="-49.86" r="0.14" fill="#FF9900" transform="rotate(234.375)"/>
    <circle cx="0" cy="-49.86" r="0.14" fill="#FF9900" transform="rotate(236.25)"/>
    <circle cx="0" cy="-49.86" r="0.14" fill="#FF9900" transform="rotate(238.125)"/>
    <circle cx="0" cy="-49.86" r="0.14" fill="#FF9900" transform="rotate(240)"/>
    <circle cx="0" cy="-49.86" r="0.14" fill="#FF9900" transform="rotate(241.875)"/>
    <circle cx="0" cy="-49.86" r="0.14" fill="#FF9900" transform="rotate(243.75)"/>
    <circle cx="0" cy="-49.86" r="0.14" fill="#FF9900" transform="rotate(245.625)"/>
    <circle cx="0" cy="-49.86" r="0.14" fill="#FF9900" transform="rotate(247.5)"/>
    <circle cx="0" cy="-49.86" r="0.14" fill="#FF9900" transform="rotate(249.375)"/>
    <circle cx="0" cy="-49.86" r="0.14" fill="#FF9900" transform="rotate(251.25)"/>
    <circle cx="0" cy="-49.86" r="0.14" fill="#FF9900" transform="rotate(253.125)"/>
    <circle cx="0" cy="-49.86" r="0.14" fill="#FF9900" transform="rotate(255)"/>
    <circle cx="0" cy="-49.86" r="0.14" fill="#FF9900" transform="rotate(256.875)"/>
    <circle cx="0" cy="-49.86" r="0.14" fill="#FF9900" transform="rotate(258.75)"/>
    <circle cx="0" cy="-49.86" r="0.14" fill="#FF9900" transform="rotate(260.625)"/>
    <circle cx="0" cy="-49.86" r="0.14" fill="#FF9900" transform="rotate(262.5)"/>
    <circle cx="0" cy="-49.86" r="0.14" fill="#FF9900" transform="rotate(264.375)"/>
    <circle cx="0" cy="-49.86" r="0.14" fill="#FF9900" transform="rotate(266.25)"/>
    <circle cx="0" cy="-49.86" r="0.14" fill="#FF9900" transform="rotate(268.125)"/>
    <circle cx="0" cy="-49.86" r="0.14" fill="#FF9900" transform="rotate(270)"/>
    <circle cx="0" cy="-49.86" r="0.14" fill="#FF9900" transform="rotate(271.875)"/>
    <circle cx="0" cy="-49.86" r="0.14" fill="#FF9900" transform="rotate(273.75)"/>
    <circle cx="0" cy="-49.86" r="0.14" fill="#FF9900" transform="rotate(275.625)"/>
    <circle cx="0" cy="-49.86" r="0.14" fill="#FF9900" transform="rotate(277.5)"/>
    <circle cx="0" cy="-49.86" r="0.14" fill="#FF9900" transform="rotate(279.375)"/>
    <circle cx="0" cy="-49.86" r="0.14" fill="#FF9900" transform="rotate(281.25)"/>
    <circle cx="0" cy="-49.86" r="0.14" fill="#FF9900" transform="rotate(283.125)"/>
    <circle cx="0" cy="-49.86" r="0.14" fill="#FF9900" transform="rotate(285)"/>
    <circle cx="0" cy="-49.86" r="0.14" fill="#FF9900" transform="rotate(286.875)"/>
    <circle cx="0" cy="-49.86" r="0.14" fill="#FF9900" transform="rotate(288.75)"/>
    <circle cx="0" cy="-49.86" r="0.14" fill="#FF9900" transform="rotate(290.625)"/>
    <circle cx="0" cy="-49.86" r="0.14" fill="#FF9900" transform="rotate(292.5)"/>
    <circle cx="0" cy="-49.86" r="0.14" fill="#FF9900" transform="rotate(294.375)"/>
    <circle cx="0" cy="-49.86" r="0.14" fill="#FF9900" transform="rotate(296.25)"/>
    <circle cx="0" cy="-49.86" r="0.14" fill="#FF9900" transform="rotate(298.125)"/>
    <circle cx="0" cy="-49.86" r="0.14" fill="#FF9900" transform="rotate(300)"/>
    <circle cx="0" cy="-49.86" r="0.14" fill="#FF9900" transform="rotate(301.875)"/>
    <circle cx="0" cy="-49.86" r="0.14" fill="#FF9900" transform="rotate(303.75)"/>
    <circle cx="0" cy="-49.86" r="0.14" fill="#FF9900" transform="rotate(305.625)"/>
    <circle cx="0" cy="-49.86" r="0.14" fill="#FF9900" transform="rotate(307.5)"/>
    <circle cx="0" cy="-49.86" r="0.14" fill="#FF9900" transform="rotate(309.375)"/>
    <circle cx="0" cy="-49.86" r="0.14" fill="#FF9900" transform="rotate(311.25)"/>
    <circle cx="0" cy="-49.86" r="0.14" fill="#FF9900" transform="rotate(313.125)"/>
    <circle cx="0" cy="-49.86" r="0.14" fill="#FF9900" transform="rotate(315)"/>
    <circle cx="0" cy="-49.86" r="0.14" fill="#FF9900" transform="rotate(316.875)"/>
    <circle cx="0" cy="-49.86" r="0.14" fill="#FF9900" transform="rotate(318.75)"/>
    <circle cx="0" cy="-49.86" r="0.14" fill="#FF9900" transform="rotate(320.625)"/>
    <circle cx="0" cy="-49.86" r="0.14" fill="#FF9900" transform="rotate(322.5)"/>
    <circle cx="0" cy="-49.86" r="0.14" fill="#FF9900" transform="rotate(324.375)"/>
    <circle cx="0" cy="-49.86" r="0.14" fill="#FF9900" transform="rotate(326.25)"/>
    <circle cx="0" cy="-49.86" r="0.14" fill="#FF9900" transform="rotate(328.125)"/>
    <circle cx="0" cy="-49.86" r="0.14" fill="#FF9900" transform="rotate(330)"/>
    <circle cx="0" cy="-49.86" r="0.14" fill="#FF9900" transform="rotate(331.875)"/>
    <circle cx="0" cy="-49.86" r="0.14" fill="#FF9900" transform="rotate(333.75)"/>
    <circle cx="0" cy="-49.86" r="0.14" fill="#FF9900" transform="rotate(335.625)"/>
    <circle cx="0" cy="-49.86" r="0.14" fill="#FF9900" transform="rotate(337.5)"/>
    <circle cx="0" cy="-49.86" r="0.14" fill="#FF9900" transform="rotate(339.375)"/>
    <circle cx="0" cy="-49.86" r="0.14" fill="#FF9900" transform="rotate(341.25)"/>
    <circle cx="0" cy="-49.86" r="0.14" fill="#FF9900" transform="rotate(343.125)"/>
    <circle cx="0" cy="-49.86" r="0.14" fill="#FF9900" transform="rotate(345)"/>
    <circle cx="0" cy="-49.86" r="0.14" fill="#FF9900" transform="rotate(346.875)"/>
    <circle cx="0" cy="-49.86" r="0.14" fill="#FF9900" transform="rotate(348.75)"/>
    <circle cx="0" cy="-49.86" r="0.14" fill="#FF9900" transform="rotate(350.625)"/>
    <circle cx="0" cy="-49.86" r="0.14" fill="#FF9900" transform="rotate(352.5)"/>
    <circle cx="0" cy="-49.86" r="0.14" fill="#FF9900" transform="rotate(354.375)"/>
    <circle cx="0" cy="-49.86" r="0.14" fill="#FF9900" transform="rotate(356.25)"/>
    <circle cx="0" cy="-49.86" r="0.14" fill="#FF9900" transform="rotate(358.125)"/>
  </g>
</svg>