<?xml version="1.0" encoding="UTF-8"?>
<svg id="Layer_1" xmlns="http://www.w3.org/2000/svg" version="1.1" viewBox="0 0 400 400">
  <!-- Generator: Adobe Illustrator 30.4.0, SVG Export Plug-In . SVG Version: 2.1.4 Build 226)  -->
  <defs>
    <style>
      .st0 {
        fill: #fff;
      }
    </style>
  </defs>
  <circle class="st0" cx="200" cy=".6" r=".6"/>
  <circle class="st0" cx="206.5" cy=".7" r=".6"/>
  <circle class="st0" cx="213" cy="1" r=".6"/>
  <circle class="st0" cx="219.5" cy="1.5" r=".6"/>
  <circle class="st0" cx="226" cy="2.3" r=".6"/>
  <circle class="st0" cx="232.5" cy="3.2" r=".6"/>
  <circle class="st0" cx="238.9" cy="4.4" r=".6"/>
  <circle class="st0" cx="245.3" cy="5.8" r=".6"/>
  <circle class="st0" cx="251.6" cy="7.4" r=".6"/>
  <circle class="st0" cx="257.9" cy="9.1" r=".6"/>
  <circle class="st0" cx="264.1" cy="11.1" r=".6"/>
  <circle class="st0" cx="270.3" cy="13.3" r=".6"/>
  <circle class="st0" cx="276.3" cy="15.7" r=".6"/>
  <circle class="st0" cx="282.3" cy="18.3" r=".6"/>
  <circle class="st0" cx="288.2" cy="21.1" r=".6"/>
  <circle class="st0" cx="294" cy="24.1" r=".6"/>
  <circle class="st0" cx="299.7" cy="27.3" r=".6"/>
  <circle class="st0" cx="305.3" cy="30.6" r=".6"/>
  <circle class="st0" cx="310.8" cy="34.2" r=".6"/>
  <circle class="st0" cx="316.2" cy="37.9" r=".6"/>
  <circle class="st0" cx="321.4" cy="41.8" r=".6"/>
  <circle class="st0" cx="326.5" cy="45.8" r=".6"/>
  <circle class="st0" cx="331.5" cy="50.1" r=".6"/>
  <circle class="st0" cx="336.3" cy="54.4" r=".6"/>
  <circle class="st0" cx="341" cy="59" r=".6"/>
  <circle class="st0" cx="345.6" cy="63.7" r=".6"/>
  <circle class="st0" cx="349.9" cy="68.5" r=".6"/>
  <circle class="st0" cx="354.2" cy="73.5" r=".6"/>
  <circle class="st0" cx="358.2" cy="78.6" r=".6"/>
  <circle class="st0" cx="362.1" cy="83.8" r=".6"/>
  <circle class="st0" cx="365.8" cy="89.2" r=".6"/>
  <circle class="st0" cx="369.4" cy="94.7" r=".6"/>
  <circle class="st0" cx="372.7" cy="100.3" r=".6"/>
  <circle class="st0" cx="375.9" cy="106" r=".6"/>
  <circle class="st0" cx="378.9" cy="111.8" r=".6"/>
  <circle class="st0" cx="381.7" cy="117.7" r=".6"/>
  <circle class="st0" cx="384.3" cy="123.7" r=".6"/>
  <circle class="st0" cx="386.7" cy="129.7" r=".6"/>
  <circle class="st0" cx="388.9" cy="135.9" r=".6"/>
  <circle class="st0" cx="390.9" cy="142.1" r=".6"/>
  <circle class="st0" cx="392.6" cy="148.4" r=".6"/>
  <circle class="st0" cx="394.2" cy="154.7" r=".6"/>
  <circle class="st0" cx="395.6" cy="161.1" r=".6"/>
  <circle class="st0" cx="396.8" cy="167.5" r=".6"/>
  <circle class="st0" cx="397.7" cy="174" r=".6"/>
  <circle class="st0" cx="398.5" cy="180.5" r=".6"/>
  <circle class="st0" cx="399" cy="187" r=".6"/>
  <circle class="st0" cx="399.3" cy="193.5" r=".6"/>
  <circle class="st0" cx="399.4" cy="200" r=".6"/>
  <circle class="st0" cx="399.3" cy="206.5" r=".6"/>
  <circle class="st0" cx="399" cy="213" r=".6"/>
  <circle class="st0" cx="398.5" cy="219.5" r=".6"/>
  <circle class="st0" cx="397.7" cy="226" r=".6"/>
  <circle class="st0" cx="396.8" cy="232.5" r=".6"/>
  <circle class="st0" cx="395.6" cy="238.9" r=".6"/>
  <circle class="st0" cx="394.2" cy="245.3" r=".6"/>
  <circle class="st0" cx="392.6" cy="251.6" r=".6"/>
  <circle class="st0" cx="390.9" cy="257.9" r=".6"/>
  <circle class="st0" cx="388.9" cy="264.1" r=".6"/>
  <circle class="st0" cx="386.7" cy="270.3" r=".6"/>
  <circle class="st0" cx="384.3" cy="276.3" r=".6"/>
  <circle class="st0" cx="381.7" cy="282.3" r=".6"/>
  <circle class="st0" cx="378.9" cy="288.2" r=".6"/>
  <circle class="st0" cx="375.9" cy="294" r=".6"/>
  <circle class="st0" cx="372.7" cy="299.7" r=".6"/>
  <circle class="st0" cx="369.4" cy="305.3" r=".6"/>
  <circle class="st0" cx="365.8" cy="310.8" r=".6"/>
  <circle class="st0" cx="362.1" cy="316.2" r=".6"/>
  <circle class="st0" cx="358.2" cy="321.4" r=".6"/>
  <circle class="st0" cx="354.2" cy="326.5" r=".6"/>
  <circle class="st0" cx="349.9" cy="331.5" r=".6"/>
  <circle class="st0" cx="345.6" cy="336.3" r=".6"/>
  <circle class="st0" cx="341" cy="341" r=".6"/>
  <circle class="st0" cx="336.3" cy="345.6" r=".6"/>
  <circle class="st0" cx="331.5" cy="349.9" r=".6"/>
  <circle class="st0" cx="326.5" cy="354.2" r=".6"/>
  <circle class="st0" cx="321.4" cy="358.2" r=".6"/>
  <circle class="st0" cx="316.2" cy="362.1" r=".6"/>
  <circle class="st0" cx="310.8" cy="365.8" r=".6"/>
  <circle class="st0" cx="305.3" cy="369.4" r=".6"/>
  <circle class="st0" cx="299.7" cy="372.7" r=".6"/>
  <circle class="st0" cx="294" cy="375.9" r=".6"/>
  <circle class="st0" cx="288.2" cy="378.9" r=".6"/>
  <circle class="st0" cx="282.3" cy="381.7" r=".6"/>
  <circle class="st0" cx="276.3" cy="384.3" r=".6"/>
  <circle class="st0" cx="270.3" cy="386.7" r=".6"/>
  <circle class="st0" cx="264.1" cy="388.9" r=".6"/>
  <circle class="st0" cx="257.9" cy="390.9" r=".6"/>
  <circle class="st0" cx="251.6" cy="392.6" r=".6"/>
  <circle class="st0" cx="245.3" cy="394.2" r=".6"/>
  <circle class="st0" cx="238.9" cy="395.6" r=".6"/>
  <circle class="st0" cx="232.5" cy="396.8" r=".6"/>
  <circle class="st0" cx="226" cy="397.7" r=".6"/>
  <circle class="st0" cx="219.5" cy="398.5" r=".6"/>
  <circle class="st0" cx="213" cy="399" r=".6"/>
  <circle class="st0" cx="206.5" cy="399.3" r=".6"/>
  <circle class="st0" cx="200" cy="399.4" r=".6"/>
  <circle class="st0" cx="193.5" cy="399.3" r=".6"/>
  <circle class="st0" cx="187" cy="399" r=".6"/>
  <circle class="st0" cx="180.5" cy="398.5" r=".6"/>
  <circle class="st0" cx="174" cy="397.7" r=".6"/>
  <circle class="st0" cx="167.5" cy="396.8" r=".6"/>
  <circle class="st0" cx="161.1" cy="395.6" r=".6"/>
  <circle class="st0" cx="154.7" cy="394.2" r=".6"/>
  <circle class="st0" cx="148.4" cy="392.6" r=".6"/>
  <circle class="st0" cx="142.1" cy="390.9" r=".6"/>
  <circle class="st0" cx="135.9" cy="388.9" r=".6"/>
  <circle class="st0" cx="129.7" cy="386.7" r=".6"/>
  <circle class="st0" cx="123.7" cy="384.3" r=".6"/>
  <circle class="st0" cx="117.7" cy="381.7" r=".6"/>
  <circle class="st0" cx="111.8" cy="378.9" r=".6"/>
  <circle class="st0" cx="106" cy="375.9" r=".6"/>
  <circle class="st0" cx="100.3" cy="372.7" r=".6"/>
  <circle class="st0" cx="94.7" cy="369.4" r=".6"/>
  <circle class="st0" cx="89.2" cy="365.8" r=".6"/>
  <circle class="st0" cx="83.8" cy="362.1" r=".6"/>
  <circle class="st0" cx="78.6" cy="358.2" r=".6"/>
  <circle class="st0" cx="73.5" cy="354.2" r=".6"/>
  <circle class="st0" cx="68.5" cy="349.9" r=".6"/>
  <circle class="st0" cx="63.7" cy="345.6" r=".6"/>
  <circle class="st0" cx="59" cy="341" r=".6"/>
  <circle class="st0" cx="54.4" cy="336.3" r=".6"/>
  <circle class="st0" cx="50.1" cy="331.5" r=".6"/>
  <circle class="st0" cx="45.8" cy="326.5" r=".6"/>
  <circle class="st0" cx="41.8" cy="321.4" r=".6"/>
  <circle class="st0" cx="37.9" cy="316.2" r=".6"/>
  <circle class="st0" cx="34.2" cy="310.8" r=".6"/>
  <circle class="st0" cx="30.6" cy="305.3" r=".6"/>
  <circle class="st0" cx="27.3" cy="299.7" r=".6"/>
  <circle class="st0" cx="24.1" cy="294" r=".6"/>
  <circle class="st0" cx="21.1" cy="288.2" r=".6"/>
  <circle class="st0" cx="18.3" cy="282.3" r=".6"/>
  <circle class="st0" cx="15.7" cy="276.3" r=".6"/>
  <circle class="st0" cx="13.3" cy="270.3" r=".6"/>
  <circle class="st0" cx="11.1" cy="264.1" r=".6"/>
  <circle class="st0" cx="9.1" cy="257.9" r=".6"/>
  <circle class="st0" cx="7.4" cy="251.6" r=".6"/>
  <circle class="st0" cx="5.8" cy="245.3" r=".6"/>
  <circle class="st0" cx="4.4" cy="238.9" r=".6"/>
  <circle class="st0" cx="3.2" cy="232.5" r=".6"/>
  <circle class="st0" cx="2.3" cy="226" r=".6"/>
  <circle class="st0" cx="1.5" cy="219.5" r=".6"/>
  <circle class="st0" cx="1" cy="213" r=".6"/>
  <circle class="st0" cx=".7" cy="206.5" r=".6"/>
  <circle class="st0" cx=".6" cy="200" r=".6"/>
  <circle class="st0" cx=".7" cy="193.5" r=".6"/>
  <circle class="st0" cx="1" cy="187" r=".6"/>
  <circle class="st0" cx="1.5" cy="180.5" r=".6"/>
  <circle class="st0" cx="2.3" cy="174" r=".6"/>
  <circle class="st0" cx="3.2" cy="167.5" r=".6"/>
  <circle class="st0" cx="4.4" cy="161.1" r=".6"/>
  <circle class="st0" cx="5.8" cy="154.7" r=".6"/>
  <circle class="st0" cx="7.4" cy="148.4" r=".6"/>
  <circle class="st0" cx="9.1" cy="142.1" r=".6"/>
  <circle class="st0" cx="11.1" cy="135.9" r=".6"/>
  <circle class="st0" cx="13.3" cy="129.7" r=".6"/>
  <circle class="st0" cx="15.7" cy="123.7" r=".6"/>
  <circle class="st0" cx="18.3" cy="117.7" r=".6"/>
  <circle class="st0" cx="21.1" cy="111.8" r=".6"/>
  <circle class="st0" cx="24.1" cy="106" r=".6"/>
  <circle class="st0" cx="27.3" cy="100.3" r=".6"/>
  <circle class="st0" cx="30.6" cy="94.7" r=".6"/>
  <circle class="st0" cx="34.2" cy="89.2" r=".6"/>
  <circle class="st0" cx="37.9" cy="83.8" r=".6"/>
  <circle class="st0" cx="41.8" cy="78.6" r=".6"/>
  <circle class="st0" cx="45.8" cy="73.5" r=".6"/>
  <circle class="st0" cx="50.1" cy="68.5" r=".6"/>
  <circle class="st0" cx="54.4" cy="63.7" r=".6"/>
  <circle class="st0" cx="59" cy="59" r=".6"/>
  <circle class="st0" cx="63.7" cy="54.4" r=".6"/>
  <circle class="st0" cx="68.5" cy="50.1" r=".6"/>
  <circle class="st0" cx="73.5" cy="45.8" r=".6"/>
  <circle class="st0" cx="78.6" cy="41.8" r=".6"/>
  <circle class="st0" cx="83.8" cy="37.9" r=".6"/>
  <circle class="st0" cx="89.2" cy="34.2" r=".6"/>
  <circle class="st0" cx="94.7" cy="30.6" r=".6"/>
  <circle class="st0" cx="100.3" cy="27.3" r=".6"/>
  <circle class="st0" cx="106" cy="24.1" r=".6"/>
  <circle class="st0" cx="111.8" cy="21.1" r=".6"/>
  <circle class="st0" cx="117.7" cy="18.3" r=".6"/>
  <circle class="st0" cx="123.7" cy="15.7" r=".6"/>
  <circle class="st0" cx="129.7" cy="13.3" r=".6"/>
  <circle class="st0" cx="135.9" cy="11.1" r=".6"/>
  <circle class="st0" cx="142.1" cy="9.1" r=".6"/>
  <circle class="st0" cx="148.4" cy="7.4" r=".6"/>
  <circle class="st0" cx="154.7" cy="5.8" r=".6"/>
  <circle class="st0" cx="161.1" cy="4.4" r=".6"/>
  <circle class="st0" cx="167.5" cy="3.2" r=".6"/>
  <circle class="st0" cx="174" cy="2.3" r=".6"/>
  <circle class="st0" cx="180.5" cy="1.5" r=".6"/>
  <circle class="st0" cx="187" cy="1" r=".6"/>
  <circle class="st0" cx="193.5" cy=".7" r=".6"/>
</svg>