<?xml version="1.0" encoding="UTF-8"?>
<svg id="Layer_1" data-name="Layer 1" xmlns="http://www.w3.org/2000/svg" width="652.88mm" height="356mm" viewBox="0 0 1850.67 1009.14">
  <path d="M267.53,913.94c-.08-1.1.76-2.05,1.86-2.12h0c1.11-.07,2.06.76,2.13,1.87h0c.07,1.1-.77,2.05-1.87,2.12h-.13c-1.05,0-1.93-.81-1.99-1.87ZM308.53,910.01c-.13-1.09.66-2.09,1.75-2.22h0c1.1-.12,2.09.66,2.22,1.76h0c.13,1.1-.65,2.09-1.75,2.22h0c-.08,0-.16,0-.23,0h0c-1.01,0-1.87-.75-1.99-1.77ZM349.26,904.72c-.16-1.09.6-2.11,1.69-2.26h0c1.1-.16,2.11.6,2.27,1.69h0c.16,1.1-.6,2.11-1.7,2.26h0c-.09.02-.19.03-.28.03h0c-.98,0-1.84-.72-1.98-1.72ZM389.84,898.44c-.18-1.09.56-2.12,1.64-2.3h0c1.09-.18,2.13.55,2.31,1.64h0c.18,1.09-.56,2.12-1.65,2.3h0c-.11.02-.22.03-.33.03h0c-.96,0-1.81-.69-1.97-1.67ZM430.27,891.29c-.21-1.09.51-2.14,1.59-2.34h0c1.09-.21,2.14.51,2.34,1.59h0c.2,1.09-.51,2.13-1.59,2.34h0c-.13.02-.25.03-.38.03h0c-.94,0-1.78-.67-1.96-1.62ZM470.54,883.31c-.23-1.09.46-2.15,1.54-2.37h0c1.09-.23,2.14.46,2.37,1.55h0c.23,1.08-.46,2.14-1.55,2.36h0c-.14.03-.27.05-.41.05h0c-.93,0-1.76-.65-1.95-1.59ZM510.63,874.54c-.24-1.08.43-2.15,1.5-2.4h0c1.08-.25,2.15.43,2.4,1.5h0c.25,1.08-.42,2.15-1.5,2.4h0c-.15.03-.3.05-.45.05h0c-.91,0-1.74-.63-1.95-1.55ZM550.55,865c-.27-1.07.38-2.16,1.45-2.43h0c1.07-.27,2.16.39,2.43,1.46h0c.27,1.07-.38,2.15-1.46,2.42h0c-.16.04-.32.06-.48.06h0c-.9,0-1.72-.6-1.94-1.51ZM590.27,854.7c-.29-1.07.34-2.17,1.41-2.46h0c1.06-.29,2.16.35,2.45,1.41h0c.29,1.07-.34,2.17-1.41,2.45h0c-.17.05-.35.07-.52.07h0c-.88,0-1.69-.58-1.93-1.47ZM629.78,843.64c-.31-1.06.3-2.17,1.36-2.48h0c1.06-.31,2.17.3,2.48,1.36h0c.31,1.06-.3,2.17-1.36,2.48h0c-.19.05-.37.08-.56.08h0c-.87,0-1.66-.57-1.92-1.44ZM669.07,831.82c-.33-1.06.26-2.18,1.31-2.51h0c1.06-.33,2.18.26,2.51,1.32h0c.33,1.05-.26,2.17-1.31,2.5h0c-.2.06-.4.09-.6.09h0c-.85,0-1.64-.55-1.91-1.4ZM708.12,819.24c-.35-1.05.22-2.18,1.26-2.53h0c1.05-.35,2.19.21,2.54,1.26h0c.35,1.05-.22,2.18-1.27,2.53h0c-.21.07-.42.11-.63.11h0c-.84,0-1.62-.53-1.9-1.37ZM746.92,805.89c-.38-1.04.17-2.18,1.21-2.55h0c1.04-.37,2.18.17,2.55,1.21h0c.37,1.04-.17,2.19-1.21,2.56h0c-.22.08-.45.11-.67.11h0c-.82,0-1.59-.51-1.88-1.33ZM785.43,791.77c-.39-1.03.13-2.18,1.16-2.57h0c1.03-.4,2.19.13,2.58,1.16h0c.39,1.03-.13,2.18-1.16,2.58h0c-.23.09-.47.13-.71.13h0c-.81,0-1.57-.5-1.87-1.3ZM823.65,776.88c-.42-1.03.08-2.19,1.11-2.61h0c1.02-.41,2.19.09,2.6,1.11h0c.41,1.03-.09,2.19-1.11,2.61h0c-.25.09-.5.14-.75.14h0c-.79,0-1.54-.47-1.85-1.25ZM861.55,761.19c-.44-1.02.03-2.19,1.05-2.63h0c1.02-.43,2.19.04,2.62,1.06h0c.44,1.01-.03,2.19-1.05,2.62h0c-.25.11-.52.16-.78.16h0c-.78,0-1.52-.45-1.84-1.21ZM899.1,744.7c-.45-1.01,0-2.19,1-2.65h0c1.01-.45,2.19,0,2.65,1h0c.45,1,.01,2.19-1,2.65h0c-.27.12-.55.17-.82.17h0c-.77,0-1.49-.43-1.83-1.17ZM936.29,727.4c-.48-.99-.06-2.19.94-2.67h0c1-.47,2.19-.06,2.67.94h0c.47,1,.05,2.19-.94,2.67h0c-.28.13-.58.2-.87.2h0c-.74,0-1.46-.42-1.8-1.14ZM973.08,709.28c-.5-.98-.1-2.18.88-2.69h0c.98-.49,2.19-.1,2.69.88h0c.5.99.11,2.19-.88,2.69h0c-.29.15-.6.22-.9.22h0c-.73,0-1.43-.4-1.79-1.1ZM1009.45,690.34c-.52-.98-.15-2.19.82-2.71h0c.97-.52,2.19-.16,2.71.81h0c.52.98.16,2.19-.82,2.71h0c-.3.16-.62.24-.94.24h0c-.72,0-1.41-.38-1.77-1.05ZM1045.38,670.55c-.55-.96-.21-2.18.75-2.73h0c.96-.54,2.18-.21,2.72.75h0c.55.97.21,2.18-.75,2.73h0c-.31.18-.65.26-.98.26h0c-.7,0-1.38-.36-1.74-1.01ZM1080.81,649.91c-.57-.94-.26-2.17.69-2.74h0c.94-.57,2.17-.26,2.74.68h0c.57.95.26,2.18-.69,2.75h0c-.32.19-.67.29-1.02.29h0c-.68,0-1.34-.35-1.72-.98ZM1115.73,628.42c-.59-.93-.31-2.17.62-2.76h0c.93-.59,2.17-.31,2.76.62h0c.59.93.31,2.17-.62,2.76h0c-.33.21-.7.31-1.07.31h0c-.66,0-1.31-.33-1.69-.93ZM1150.1,606.07c-.61-.92-.36-2.17.55-2.78h0c.92-.62,2.16-.37,2.78.55h0c.61.92.37,2.16-.55,2.77h0c-.34.23-.73.34-1.11.34h0c-.65,0-1.28-.31-1.67-.88ZM1183.89,582.84c-.64-.9-.42-2.15.48-2.79h0c.9-.64,2.15-.43,2.79.48h0c.64.9.42,2.14-.48,2.78h0c-.35.25-.76.37-1.15.37h0c-.63,0-1.25-.29-1.64-.84ZM1217.06,558.74c-.66-.89-.48-2.14.4-2.8h0c.89-.66,2.14-.49,2.8.4h0c.66.88.49,2.14-.4,2.8h0c-.36.27-.78.4-1.2.4h0c-.61,0-1.21-.28-1.6-.8ZM1249.18,533.3c-.73-.84-.63-2.1.2-2.83h0c.83-.72,2.1-.63,2.82.21h0c.73.83.63,2.1-.2,2.82h0c-.38.33-.84.49-1.31.49h0c-.56,0-1.12-.24-1.51-.69ZM1279.14,505.36c-.78-.77-.8-2.04-.03-2.83h0c.77-.79,2.03-.8,2.82-.03h0c.79.77.8,2.04.03,2.83h0c-.39.4-.91.6-1.43.6h0c-.5,0-1.01-.19-1.4-.57ZM1306.73,475.06c-.85-.71-.96-1.97-.26-2.82h0c.71-.85,1.97-.96,2.82-.25h0c.85.7.96,1.96.26,2.81h0c-.4.48-.97.72-1.54.72h0c-.45,0-.9-.15-1.28-.46ZM1331.81,442.64c-.9-.63-1.12-1.88-.48-2.79h0c.64-.9,1.89-1.11,2.79-.47h0c.9.63,1.11,1.88.48,2.79h0c-.39.55-1.01.84-1.64.84h0c-.4,0-.8-.12-1.15-.37ZM1354.31,408.37c-.95-.56-1.26-1.79-.69-2.74h0c.57-.95,1.79-1.26,2.74-.69h0c.95.57,1.26,1.8.69,2.74h0c-.38.63-1.04.98-1.72.98h0c-.35,0-.7-.09-1.02-.29ZM1374.2,372.52c-.99-.5-1.39-1.7-.89-2.69h0c.5-.98,1.7-1.38,2.69-.88h0c.98.49,1.38,1.7.88,2.68h0c-.35.7-1.05,1.1-1.78,1.1h0c-.31,0-.62-.07-.9-.21ZM1391.5,335.34c-1.02-.43-1.5-1.6-1.07-2.62h0c.43-1.02,1.6-1.5,2.62-1.07h0c1.02.43,1.5,1.6,1.07,2.62h0c-.32.76-1.07,1.22-1.85,1.22h0c-.25,0-.52-.05-.77-.15ZM1406.25,297.06c-1.04-.35-1.6-1.49-1.24-2.54h0c.36-1.04,1.5-1.6,2.54-1.24h0c1.05.36,1.61,1.5,1.25,2.55h0c-.28.82-1.06,1.35-1.89,1.35h0c-.21,0-.43-.04-.65-.12ZM1418.49,257.91c-1.06-.29-1.69-1.4-1.39-2.46h-.01c.3-1.06,1.4-1.69,2.46-1.4h0c1.07.29,1.69,1.39,1.4,2.46h0c-.24.89-1.05,1.47-1.92,1.47h0c-.18,0-.36-.02-.54-.07ZM1428.24,218.04c-1.08-.22-1.78-1.28-1.56-2.36h0c.23-1.08,1.29-1.78,2.37-1.55h0c1.08.22,1.78,1.28,1.55,2.36h0c-.19.95-1.03,1.59-1.95,1.59h0c-.14,0-.28-.01-.41-.04ZM1435.4,177.61c-1.09-.15-1.85-1.16-1.7-2.25h0c.15-1.1,1.16-1.86,2.25-1.71h0c1.1.15,1.86,1.16,1.71,2.26h0c-.14,1-1,1.72-1.98,1.72h0c-.09,0-.18,0-.28-.02ZM1439.56,136.69c-1.11-.04-1.97-.96-1.94-2.06h0c.04-1.11.96-1.97,2.07-1.94h0c1.1.04,1.97.96,1.93,2.07h0c-.04,1.08-.92,1.93-2,1.93h-.06Z" fill="#f8991d"/>
  <path d="M214.02,929.31c-.1-1.44.98-2.68,2.41-2.78h0c1.43-.11,2.68.97,2.78,2.4h0c.1,1.43-.97,2.68-2.4,2.78h0c-.07,0-.13,0-.2,0h0c-1.35,0-2.49-1.04-2.59-2.41ZM255.04,925.26c-.17-1.43.85-2.72,2.28-2.88h0c1.42-.17,2.71.85,2.88,2.27h0c.17,1.43-.85,2.72-2.28,2.89h0c-.1,0-.2.02-.3.02h0c-1.3,0-2.43-.98-2.58-2.3ZM295.79,920.04c-.2-1.42.79-2.74,2.21-2.94h0c1.42-.2,2.74.79,2.94,2.21h0c.2,1.42-.79,2.74-2.22,2.94h0c-.12.02-.24.02-.36.02h0c-1.28,0-2.39-.93-2.57-2.23ZM336.41,913.96c-.23-1.42.74-2.75,2.16-2.98h0c1.41-.23,2.75.74,2.97,2.15h0c.23,1.42-.73,2.75-2.15,2.98h0c-.14.03-.28.04-.42.04h0c-1.25,0-2.36-.91-2.56-2.19ZM376.9,907.12c-.25-1.41.69-2.76,2.1-3.02h0c1.42-.25,2.77.69,3.02,2.1h0c.26,1.42-.68,2.77-2.1,3.02h0c-.15.03-.31.04-.46.04h0c-1.24,0-2.33-.88-2.56-2.14ZM417.26,899.58c-.28-1.41.64-2.78,2.05-3.06h0c1.41-.28,2.78.64,3.05,2.05h0c.28,1.41-.64,2.77-2.04,3.05h0c-.17.04-.34.05-.51.05h0c-1.22,0-2.31-.86-2.55-2.09ZM457.48,891.34c-.3-1.41.59-2.79,2-3.09h0c1.41-.3,2.79.59,3.09,2h0c.3,1.4-.59,2.78-1.99,3.08h0c-.19.04-.37.06-.55.06h0c-1.2,0-2.28-.83-2.54-2.05ZM497.54,882.43c-.32-1.4.55-2.8,1.95-3.12h0c1.4-.33,2.79.54,3.12,1.94h0c.32,1.4-.54,2.8-1.94,3.12h0c-.2.05-.4.07-.59.07h0c-1.19,0-2.26-.81-2.54-2.01ZM537.45,872.85c-.34-1.4.5-2.81,1.89-3.16h0c1.4-.35,2.81.5,3.16,1.89h0c.35,1.4-.5,2.81-1.89,3.16h0c-.22.05-.43.08-.64.08h0c-1.16,0-2.22-.79-2.52-1.97ZM577.19,862.6c-.37-1.39.45-2.82,1.84-3.19h0c1.38-.37,2.81.45,3.18,1.84h0c.37,1.38-.45,2.81-1.84,3.18h0c-.22.06-.45.09-.67.09h0c-1.15,0-2.2-.76-2.51-1.92ZM616.74,851.67c-.39-1.38.41-2.82,1.79-3.21h0c1.38-.4,2.82.4,3.21,1.78h0c.4,1.38-.4,2.82-1.78,3.21h0c-.24.07-.48.11-.72.11h0c-1.13,0-2.17-.75-2.5-1.89ZM656.1,840.07c-.42-1.38.36-2.83,1.73-3.25h0c1.37-.42,2.82.35,3.24,1.73h0c.42,1.37-.35,2.83-1.72,3.25h0c-.26.07-.51.11-.76.11h0c-1.12,0-2.15-.72-2.49-1.84ZM695.25,827.78c-.45-1.37.3-2.84,1.67-3.28h0c1.36-.45,2.83.3,3.27,1.67h0c.45,1.36-.3,2.83-1.67,3.28h0c-.26.08-.53.12-.8.12h0c-1.1,0-2.12-.7-2.47-1.79ZM734.16,814.78c-.47-1.35.25-2.83,1.61-3.3h0c1.36-.47,2.84.25,3.31,1.61h0c.47,1.35-.25,2.83-1.61,3.3h0c-.28.1-.57.14-.85.14h0c-1.08,0-2.09-.67-2.46-1.75ZM772.83,801.08c-.49-1.35.2-2.84,1.55-3.34h0c1.35-.49,2.84.2,3.33,1.55h0c.5,1.35-.19,2.84-1.54,3.34h0c-.3.1-.6.15-.9.15h0c-1.06,0-2.05-.65-2.44-1.7ZM811.23,786.65c-.52-1.34.15-2.85,1.49-3.37h0c1.33-.52,2.84.15,3.36,1.49h0c.52,1.33-.14,2.84-1.48,3.36h0c-.31.12-.63.18-.94.18h0c-1.04,0-2.03-.63-2.43-1.66ZM849.35,771.47c-.55-1.32.08-2.84,1.41-3.39h0c1.33-.55,2.85.09,3.4,1.42h0c.54,1.33-.09,2.84-1.42,3.39h0c-.32.13-.66.2-.99.2h0c-1.02,0-1.99-.61-2.4-1.62ZM887.15,755.54c-.58-1.31.03-2.85,1.34-3.42h0c1.32-.57,2.85.03,3.42,1.35h0c.58,1.32-.03,2.85-1.34,3.42h0c-.34.15-.69.22-1.04.22h0c-1,0-1.96-.59-2.38-1.57ZM924.61,738.84c-.6-1.31-.03-2.85,1.27-3.45h0c1.31-.6,2.85-.03,3.45,1.27h0c.6,1.31.03,2.85-1.27,3.45h0c-.36.16-.73.24-1.09.24h0c-.98,0-1.92-.56-2.36-1.51ZM961.7,721.34c-.63-1.29-.09-2.85,1.2-3.48h0c1.29-.63,2.85-.09,3.48,1.2h0c.63,1.29.09,2.85-1.2,3.48h0c-.37.18-.76.26-1.14.26h0c-.96,0-1.89-.54-2.34-1.46ZM998.4,703.03c-.66-1.28-.15-2.85,1.13-3.51h-.01c1.28-.65,2.85-.15,3.51,1.13h0c.65,1.27.15,2.84-1.13,3.5h0c-.38.19-.78.29-1.18.29h0c-.95,0-1.86-.52-2.32-1.41ZM1034.67,683.88c-.68-1.26-.22-2.84,1.05-3.52h0c1.25-.69,2.84-.22,3.52,1.04h0c.69,1.26.22,2.84-1.04,3.52h0c-.39.22-.82.32-1.24.32h0c-.92,0-1.81-.49-2.29-1.36ZM1070.48,663.9c-.71-1.25-.29-2.84.96-3.56h0c1.24-.71,2.83-.29,3.55.96h0c.72,1.24.29,2.83-.96,3.55h0c-.4.23-.85.35-1.29.35h0c-.9,0-1.77-.47-2.26-1.3ZM1105.79,643.04c-.74-1.23-.36-2.83.87-3.58h0c1.22-.74,2.83-.35,3.57.87h0c.75,1.23.36,2.83-.86,3.57h0c-.43.26-.89.38-1.36.38h0c-.87,0-1.73-.44-2.22-1.24ZM1140.56,621.3c-.78-1.21-.43-2.82.78-3.6h0c1.2-.78,2.81-.43,3.59.78h0c.78,1.2.43,2.81-.77,3.59h0c-.44.28-.93.42-1.41.42h0c-.85,0-1.69-.42-2.19-1.19ZM1174.75,598.66c-.81-1.19-.51-2.81.67-3.62h.01c1.18-.81,2.8-.51,3.61.68h0c.81,1.18.51,2.8-.68,3.61h0c-.45.31-.96.46-1.46.46h0c-.83,0-1.65-.4-2.15-1.13ZM1208.25,575.14c-.84-1.17-.59-2.79.58-3.63h0c1.16-.85,2.78-.59,3.63.57h0c.84,1.17.58,2.79-.58,3.64h0c-.46.33-.99.49-1.52.49h0c-.81,0-1.6-.37-2.11-1.07ZM1241.12,550.64c-.89-1.13-.69-2.76.45-3.65h0c1.13-.88,2.76-.68,3.64.45h0c.89,1.13.69,2.76-.44,3.65h0c-.48.37-1.04.55-1.6.55h0c-.77,0-1.54-.34-2.05-1ZM1272.78,524.63c-.95-1.08-.84-2.72.24-3.67h0c1.08-.95,2.72-.84,3.67.24h0c.94,1.08.83,2.72-.25,3.67h0c-.49.43-1.1.65-1.71.65h0c-.72,0-1.44-.3-1.95-.89ZM1302.91,496.86c-1.01-1.02-1-2.67.03-3.68h0c1.03-1,2.67-.99,3.68.03h0c1.01,1.03,1,2.67-.03,3.68h0c-.5.5-1.16.75-1.82.75h0c-.67,0-1.34-.26-1.85-.78ZM1331.35,467.37c-1.06-.97-1.15-2.61-.19-3.68h0c.96-1.06,2.61-1.15,3.68-.19h0c1.06.96,1.15,2.61.19,3.67h0c-.52.57-1.23.86-1.94.86h0c-.62,0-1.24-.22-1.74-.66ZM1357.97,436.2c-1.13-.89-1.31-2.53-.42-3.65h0c.89-1.13,2.53-1.31,3.66-.42h0c1.12.9,1.3,2.53.41,3.65h0c-.51.65-1.27.99-2.03.99h0c-.57,0-1.14-.19-1.62-.57ZM1382.6,403.44c-1.18-.82-1.46-2.44-.64-3.62h0c.82-1.17,2.44-1.46,3.62-.64h0c1.18.82,1.47,2.44.64,3.62h0c-.5.72-1.31,1.11-2.13,1.11h0c-.52,0-1.03-.15-1.49-.47ZM1405.13,369.19c-1.23-.74-1.62-2.34-.88-3.57h0c.74-1.22,2.34-1.62,3.57-.87h0c1.22.75,1.61,2.35.87,3.57h0c-.49.81-1.35,1.25-2.23,1.25h0c-.46,0-.92-.12-1.34-.38ZM1425.42,333.57c-1.27-.66-1.76-2.23-1.1-3.51h0c.66-1.27,2.24-1.76,3.51-1.1h0c1.27.67,1.76,2.24,1.1,3.51h0c-.47.89-1.37,1.4-2.31,1.4h0c-.4,0-.81-.1-1.2-.3ZM1443.37,296.71c-1.31-.58-1.9-2.12-1.32-3.43h0c.58-1.31,2.12-1.91,3.43-1.32h0c1.31.58,1.9,2.11,1.32,3.43h0c-.42.97-1.38,1.54-2.38,1.54h0c-.35,0-.71-.07-1.05-.22ZM1458.88,258.75c-1.35-.49-2.04-1.99-1.55-3.34h0c.5-1.34,1.99-2.04,3.34-1.54h0c1.35.49,2.04,1.98,1.55,3.33h0c-.39,1.05-1.38,1.71-2.44,1.71h0c-.3,0-.6-.05-.9-.16ZM1471.84,219.83c-1.39-.4-2.18-1.84-1.78-3.22h0c.4-1.38,1.85-2.17,3.23-1.77h0c1.37.4,2.17,1.84,1.77,3.22h0c-.33,1.14-1.37,1.87-2.5,1.87h0c-.24,0-.48-.03-.72-.1ZM1482.07,180.1c-1.41-.3-2.3-1.68-2-3.09h0c.3-1.4,1.68-2.3,3.08-2h0c1.41.3,2.31,1.69,2,3.09h0c-.26,1.22-1.34,2.06-2.54,2.06h0c-.18,0-.36-.02-.54-.06ZM1489.27,139.69c-1.43-.19-2.43-1.49-2.25-2.92h0c.18-1.42,1.48-2.43,2.91-2.24h0c1.42.18,2.43,1.48,2.25,2.91h0c-.17,1.31-1.29,2.27-2.58,2.27h0c-.11,0-.22-.01-.33-.02Z" fill="#f8991d"/>
  <path d="M160.52,944.68c-.14-1.77,1.18-3.31,2.94-3.44h0c1.76-.14,3.3,1.17,3.44,2.93h0c.14,1.77-1.17,3.31-2.93,3.44h0c-.09,0-.18,0-.26,0h0c-1.65,0-3.06-1.27-3.19-2.94ZM201.54,940.52c-.21-1.75,1.05-3.34,2.8-3.55h0c1.76-.21,3.35,1.05,3.56,2.8h0c.21,1.75-1.05,3.35-2.8,3.56h0c-.13,0-.26.02-.38.02h0c-1.6,0-2.99-1.2-3.18-2.83ZM242.31,935.34c-.24-1.75.98-3.37,2.73-3.61h0c1.75-.24,3.37.98,3.61,2.73h0c.24,1.75-.98,3.37-2.73,3.61h0c-.15.02-.3.03-.45.03h0c-1.57,0-2.94-1.16-3.16-2.76ZM282.96,929.41c-.27-1.75.93-3.38,2.67-3.66h0c1.75-.27,3.39.93,3.66,2.67h0c.27,1.75-.93,3.39-2.67,3.66h0c-.17.02-.33.04-.5.04h0c-1.55,0-2.91-1.13-3.16-2.71ZM323.51,922.82c-.3-1.75.87-3.4,2.61-3.7h0c1.74-.3,3.39.87,3.69,2.61h0c.3,1.74-.87,3.4-2.61,3.7h0c-.18.03-.36.04-.54.04h0c-1.53,0-2.89-1.1-3.15-2.65ZM363.93,915.6c-.32-1.73.82-3.41,2.56-3.73h0c1.74-.33,3.41.82,3.73,2.55h0c.33,1.74-.82,3.41-2.55,3.74h0c-.2.04-.4.05-.6.05h0c-1.51,0-2.85-1.07-3.14-2.61ZM404.24,907.79c-.35-1.74.77-3.42,2.5-3.77h0c1.73-.36,3.42.76,3.77,2.5h0c.35,1.73-.77,3.42-2.5,3.77h0c-.21.04-.43.06-.64.06h0c-1.49,0-2.82-1.04-3.13-2.56ZM444.42,899.38c-.38-1.73.72-3.43,2.44-3.81h0c1.73-.37,3.44.72,3.81,2.45h0c.38,1.72-.71,3.43-2.44,3.81h0c-.23.05-.46.07-.69.07h0c-1.47,0-2.79-1.02-3.12-2.52ZM484.47,890.38c-.4-1.72.67-3.44,2.39-3.84h0c1.72-.4,3.44.67,3.84,2.39h0c.4,1.72-.67,3.44-2.39,3.84h0c-.24.06-.49.09-.73.09h0c-1.45,0-2.76-1-3.11-2.48ZM524.38,880.8c-.43-1.72.61-3.45,2.33-3.88h0c1.71-.43,3.45.61,3.88,2.33h0c.43,1.71-.62,3.45-2.33,3.88h0c-.26.06-.52.09-.78.09h0c-1.43,0-2.74-.97-3.1-2.42ZM564.13,870.61c-.45-1.71.57-3.46,2.28-3.91h0c1.71-.45,3.47.56,3.92,2.27h0c.45,1.71-.56,3.46-2.27,3.91h0c-.28.08-.55.11-.83.11h0c-1.41,0-2.71-.94-3.09-2.38ZM603.73,859.82c-.48-1.7.51-3.46,2.21-3.94h0c1.7-.48,3.47.51,3.95,2.21h0c.48,1.7-.51,3.46-2.21,3.95h0c-.29.08-.59.12-.87.12h0c-1.4,0-2.69-.92-3.08-2.34ZM643.15,848.42c-.51-1.69.45-3.47,2.15-3.98h0c1.69-.51,3.47.46,3.98,2.15h0c.51,1.69-.46,3.47-2.15,3.98h0c-.31.09-.62.14-.92.14h0c-1.38,0-2.65-.9-3.06-2.29ZM682.38,836.39c-.54-1.68.39-3.48,2.08-4.01h0c1.68-.54,3.48.39,4.02,2.08h0c.53,1.68-.4,3.48-2.09,4.02h0c-.32.1-.64.15-.96.15h0c-1.36,0-2.62-.87-3.05-2.24ZM721.4,823.72c-.56-1.68.34-3.49,2.02-4.05h0c1.67-.56,3.49.34,4.05,2.01h0c.56,1.68-.34,3.49-2.02,4.06h0c-.34.11-.68.16-1.02.16h0c-1.34,0-2.58-.84-3.03-2.18ZM760.2,810.39c-.59-1.67.28-3.5,1.95-4.09h0c1.67-.59,3.49.28,4.09,1.95h0c.59,1.66-.29,3.49-1.95,4.08h0c-.36.13-.72.19-1.07.19h0c-1.32,0-2.55-.82-3.02-2.13ZM798.76,796.38c-.62-1.65.22-3.5,1.88-4.12h0c1.65-.62,3.5.22,4.12,1.87h0c.62,1.66-.22,3.5-1.88,4.12h0c-.37.14-.75.21-1.12.21h0c-1.29,0-2.51-.79-3-2.08ZM837.07,781.68c-.66-1.64.15-3.5,1.79-4.16h0c1.64-.65,3.5.16,4.16,1.8h0c.65,1.64-.16,3.5-1.8,4.15h0c-.39.16-.79.23-1.18.23h0c-1.27,0-2.48-.77-2.97-2.02ZM875.08,766.26c-.68-1.63.09-3.51,1.72-4.19h0c1.63-.68,3.5.09,4.18,1.72h0c.69,1.63-.08,3.5-1.71,4.19h0c-.41.17-.82.25-1.24.25h0c-1.25,0-2.44-.74-2.95-1.97ZM912.79,750.1c-.72-1.61.01-3.5,1.63-4.22h0c1.61-.71,3.5.02,4.22,1.63h0c.71,1.62-.02,3.51-1.63,4.22h0c-.42.19-.86.28-1.3.28h0c-1.23,0-2.4-.71-2.92-1.91ZM950.15,733.18c-.75-1.6-.05-3.5,1.55-4.25h0c1.6-.75,3.5-.06,4.25,1.54h0c.75,1.6.06,3.5-1.54,4.25h0c-.44.21-.9.31-1.36.31h0c-1.2,0-2.35-.69-2.9-1.85ZM987.15,715.47c-.78-1.58-.13-3.5,1.45-4.28h0c1.59-.79,3.51-.14,4.29,1.45h0c.78,1.58.13,3.5-1.45,4.28h0c-.46.23-.94.34-1.42.34h0c-1.18,0-2.31-.66-2.87-1.79ZM1023.75,696.95c-.82-1.56-.21-3.5,1.35-4.32h0c1.57-.81,3.5-.21,4.32,1.36h0c.82,1.56.21,3.5-1.35,4.32h0c-.48.24-.98.36-1.48.36h0c-1.16,0-2.27-.62-2.84-1.72ZM1059.91,677.59c-.86-1.54-.3-3.49,1.25-4.35h0c1.54-.85,3.49-.29,4.35,1.26h0c.85,1.54.29,3.49-1.25,4.35h0c-.5.26-1.03.39-1.55.39h0c-1.13,0-2.22-.59-2.8-1.65ZM1095.5,657.42c-.89-1.53-.38-3.49,1.14-4.38h0c1.53-.89,3.49-.38,4.38,1.14h0c.9,1.53.38,3.49-1.14,4.38h0c-.51.3-1.07.44-1.62.44h0c-1.09,0-2.17-.57-2.76-1.58ZM1130.59,636.35c-.93-1.51-.47-3.48,1.03-4.41h0c1.5-.93,3.47-.47,4.4,1.03h0c.94,1.5.48,3.47-1.03,4.41h0c-.52.32-1.1.48-1.68.48h0c-1.07,0-2.12-.54-2.72-1.51ZM1165.12,614.35c-.97-1.48-.57-3.46.91-4.44h0c1.48-.97,3.46-.56,4.43.91h0c.98,1.48.57,3.46-.91,4.44h0c-.54.35-1.15.53-1.76.53h0c-1.04,0-2.06-.51-2.67-1.44ZM1199.05,591.39c-1.01-1.45-.66-3.44.79-4.46h0c1.44-1.01,3.44-.66,4.45.79h0c1.02,1.44.67,3.44-.78,4.45h0c-.56.39-1.2.58-1.84.58h0c-1,0-2-.47-2.62-1.36ZM1232.32,567.43c-1.05-1.42-.75-3.42.67-4.47h0c1.42-1.06,3.43-.76,4.48.66h0c1.05,1.42.75,3.43-.67,4.48h0c-.57.43-1.24.63-1.9.63h0c-.98,0-1.95-.45-2.58-1.3ZM1264.85,542.51c-1.11-1.38-.89-3.39.49-4.5h0c1.38-1.1,3.39-.88,4.5.49h0c1.11,1.38.89,3.4-.49,4.5h0c-.59.48-1.3.71-2,.71h0c-.94,0-1.87-.41-2.5-1.2ZM1296.36,516.31c-1.17-1.33-1.03-3.35.3-4.52h0c1.33-1.16,3.36-1.02,4.52.31h0c1.16,1.33,1.02,3.36-.31,4.52h0c-.6.53-1.35.79-2.1.79h0c-.89,0-1.78-.37-2.41-1.1ZM1326.73,488.81c-1.22-1.28-1.17-3.31.11-4.53h0c1.28-1.22,3.31-1.17,4.52.11h0c1.22,1.28,1.17,3.3-.11,4.52h0c-.62.6-1.41.89-2.2.89h0c-.85,0-1.69-.33-2.32-.99ZM1355.85,459.97c-1.28-1.22-1.32-3.25-.1-4.52h0c1.22-1.28,3.25-1.32,4.52-.1h0c1.28,1.22,1.32,3.25.1,4.52h0c-.63.66-1.47.99-2.31.99h0c-.79,0-1.59-.3-2.21-.89ZM1383.58,429.8c-1.34-1.16-1.48-3.18-.32-4.52h0c1.16-1.33,3.18-1.47,4.51-.31h0c1.34,1.15,1.48,3.17.32,4.51h0c-.63.73-1.52,1.1-2.42,1.1h0c-.74,0-1.49-.26-2.09-.78ZM1409.78,398.29c-1.39-1.09-1.64-3.1-.55-4.5h0c1.09-1.39,3.1-1.63,4.49-.54h0c1.39,1.08,1.64,3.09.55,4.49h0c-.63.8-1.57,1.23-2.52,1.23h0c-.69,0-1.39-.23-1.97-.68ZM1434.3,365.45c-1.45-1.02-1.8-3.01-.79-4.46h0c1.01-1.45,3.01-1.8,4.45-.79h0c1.45,1.01,1.81,3.01.79,4.46h0c-.62.89-1.61,1.37-2.62,1.37h0c-.63,0-1.27-.19-1.83-.58ZM1456.98,331.31c-1.5-.93-1.97-2.9-1.04-4.4h0c.93-1.51,2.9-1.98,4.4-1.05h0c1.51.93,1.97,2.91,1.04,4.41h0c-.6.98-1.65,1.52-2.72,1.52h0c-.57,0-1.16-.16-1.68-.48ZM1477.65,295.91c-1.55-.83-2.14-2.77-1.3-4.33h0c.84-1.56,2.78-2.14,4.34-1.3h0c1.56.84,2.14,2.78,1.3,4.33h0c-.58,1.08-1.68,1.69-2.82,1.69h0c-.51,0-1.03-.13-1.52-.39ZM1496.14,259.32c-1.61-.74-2.31-2.64-1.57-4.24h0c.73-1.61,2.64-2.31,4.24-1.57h0c1.61.74,2.31,2.64,1.57,4.24h0c-.54,1.18-1.7,1.87-2.91,1.87h0c-.44,0-.9-.1-1.33-.3ZM1512.23,221.61c-1.65-.63-2.48-2.47-1.85-4.13h0c.63-1.65,2.48-2.48,4.13-1.85h0c1.65.63,2.48,2.48,1.85,4.13h0c-.49,1.28-1.7,2.06-2.99,2.06h0c-.38,0-.77-.06-1.14-.21ZM1525.68,182.88c-1.69-.51-2.65-2.3-2.14-3.99h0c.51-1.69,2.3-2.65,3.99-2.14h0c1.69.51,2.65,2.29,2.14,3.99h0c-.42,1.38-1.69,2.27-3.06,2.27h0c-.31,0-.62-.04-.93-.13ZM1536.17,143.22c-1.73-.37-2.83-2.07-2.46-3.79h0c.37-1.73,2.07-2.84,3.79-2.47h0c1.73.37,2.84,2.07,2.47,3.8h0c-.32,1.5-1.65,2.53-3.13,2.53h0c-.22,0-.44-.02-.67-.07ZM1543.05,102.76c-1.76-.17-3.05-1.74-2.87-3.5h0c.18-1.76,1.75-3.04,3.51-2.87h0c1.76.18,3.04,1.75,2.86,3.51h0c-.17,1.65-1.56,2.88-3.18,2.88h0c-.11,0-.22-.01-.32-.02Z" fill="#f8991d"/>
  <path d="M107.02,960.05c-.17-2.09,1.38-3.93,3.47-4.11h0c2.09-.17,3.93,1.38,4.1,3.47h0c.18,2.09-1.37,3.93-3.46,4.11h0c-.11,0-.22,0-.33,0h0c-1.95,0-3.61-1.5-3.78-3.48ZM148.05,955.8c-.25-2.09,1.24-3.98,3.32-4.22h0c2.09-.25,3.98,1.23,4.22,3.32h0c.25,2.08-1.23,3.97-3.32,4.22h0c-.15.02-.3.03-.45.03h0c-1.9,0-3.54-1.42-3.77-3.35ZM188.83,950.63c-.28-2.08,1.17-3.99,3.25-4.28h0c2.08-.28,3.99,1.17,4.28,3.25h0c.28,2.08-1.17,4-3.25,4.28h0c-.18.03-.35.04-.52.04h0c-1.87,0-3.5-1.39-3.76-3.29ZM229.51,944.81c-.32-2.07,1.11-4.01,3.18-4.33h0c2.08-.31,4.02,1.11,4.33,3.19h0c.32,2.07-1.11,4.01-3.18,4.33h0c-.2.03-.39.04-.58.04h0c-1.85,0-3.47-1.35-3.75-3.23ZM270.09,938.41c-.35-2.07,1.05-4.03,3.12-4.37h0c2.07-.35,4.03,1.05,4.38,3.12h0c.34,2.07-1.06,4.03-3.13,4.37h0c-.21.04-.42.06-.63.06h0c-1.82,0-3.43-1.32-3.74-3.18ZM310.57,931.46c-.37-2.07,1-4.04,3.06-4.41h0c2.07-.37,4.04,1,4.42,3.06h0c.37,2.07-1,4.05-3.07,4.42h0c-.23.04-.45.06-.68.06h0c-1.8,0-3.4-1.29-3.73-3.13ZM350.94,923.98c-.4-2.06.95-4.05,3.01-4.45h0c2.06-.4,4.06.95,4.45,3.01h0c.4,2.06-.95,4.05-3.01,4.45h0c-.24.05-.48.07-.72.07h0c-1.78,0-3.38-1.26-3.73-3.08ZM391.21,915.98c-.42-2.05.9-4.07,2.95-4.49h0c2.06-.42,4.07.9,4.49,2.95h0c.43,2.06-.89,4.07-2.95,4.49h0c-.26.06-.52.08-.77.08h0c-1.77,0-3.35-1.23-3.72-3.03ZM431.37,907.46c-.45-2.05.84-4.08,2.89-4.53h0c2.05-.45,4.08.85,4.53,2.89h0c.45,2.05-.84,4.08-2.89,4.53h0c-.28.06-.55.09-.82.09h0c-1.75,0-3.32-1.21-3.71-2.98ZM471.41,898.42c-.48-2.05.79-4.09,2.83-4.57h0c2.04-.48,4.09.79,4.57,2.83h0c.48,2.05-.79,4.09-2.84,4.57h0c-.29.07-.58.1-.86.1h0c-1.73,0-3.29-1.18-3.7-2.93ZM511.32,888.85c-.5-2.04.74-4.1,2.77-4.61h0c2.04-.51,4.1.74,4.61,2.77h0c.5,2.04-.74,4.1-2.78,4.61h0c-.3.07-.61.11-.91.11h0c-1.71,0-3.26-1.16-3.69-2.88ZM551.1,878.74c-.53-2.03.68-4.11,2.71-4.65h0c2.03-.53,4.11.68,4.64,2.71h0c.53,2.03-.68,4.11-2.71,4.65h0c-.32.08-.65.12-.97.12h0c-1.68,0-3.22-1.13-3.67-2.83ZM590.73,868.08c-.56-2.02.62-4.12,2.65-4.68h0c2.02-.56,4.11.62,4.67,2.65h0c.56,2.02-.62,4.11-2.64,4.68h0c-.34.09-.68.14-1.02.14h0c-1.66,0-3.19-1.11-3.66-2.79ZM630.2,856.86c-.59-2.01.57-4.12,2.58-4.71h0c2.01-.59,4.13.56,4.72,2.58h0c.59,2.01-.56,4.12-2.58,4.71h0c-.36.11-.72.16-1.07.16h0c-1.64,0-3.16-1.08-3.65-2.74ZM669.51,845.08c-.62-2.01.5-4.14,2.51-4.76h0c2-.62,4.13.5,4.75,2.51h0c.62,2-.5,4.13-2.51,4.75h0c-.37.12-.75.17-1.12.17h0c-1.62,0-3.13-1.04-3.63-2.67ZM708.63,832.69c-.65-1.99.44-4.14,2.43-4.79h0c2-.65,4.14.44,4.79,2.44h0c.65,1.99-.43,4.13-2.43,4.79h0c-.39.13-.79.19-1.18.19h0c-1.6,0-3.09-1.02-3.61-2.63ZM747.55,819.7c-.68-1.98.37-4.14,2.36-4.83h0c1.99-.68,4.15.37,4.84,2.36h0c.68,1.98-.38,4.14-2.36,4.83h0c-.41.14-.83.21-1.24.21h0c-1.57,0-3.05-.99-3.59-2.57ZM786.25,806.08c-.71-1.97.31-4.15,2.28-4.87h0c1.97-.71,4.15.31,4.87,2.28h0c.71,1.97-.31,4.15-2.28,4.87h0c-.43.15-.86.23-1.29.23h0c-1.56,0-3.02-.96-3.58-2.51ZM824.72,791.81c-.75-1.96.23-4.16,2.19-4.91h0c1.96-.75,4.15.23,4.9,2.19h0c.76,1.96-.22,4.16-2.18,4.91h0c-.45.17-.91.25-1.36.25h0c-1.53,0-2.97-.93-3.55-2.44ZM862.92,776.86c-.78-1.95.16-4.16,2.11-4.95h0c1.94-.78,4.16.16,4.94,2.1h0c.79,1.95-.15,4.17-2.1,4.95h0c-.47.19-.95.28-1.42.28h0c-1.5,0-2.93-.9-3.53-2.38ZM900.85,761.21c-.83-1.93.07-4.16,2-4.99h0c1.93-.82,4.17.08,4.99,2.01h0c.82,1.93-.08,4.16-2.01,4.99h0c-.48.2-.99.3-1.49.3h0c-1.47,0-2.88-.87-3.49-2.31ZM938.46,744.83c-.86-1.92-.01-4.16,1.91-5.02h0c1.91-.86,4.16-.01,5.02,1.9h0c.86,1.92.01,4.17-1.91,5.03h0c-.51.22-1.03.33-1.56.33h0c-1.44,0-2.83-.83-3.46-2.24ZM975.64,727.73c-.9-1.9-.09-4.16,1.81-5.06h0c1.89-.9,4.16-.09,5.06,1.8h0c.9,1.9.09,4.16-1.8,5.06h0c-.53.25-1.08.37-1.63.37h0c-1.42,0-2.78-.8-3.44-2.17ZM1012.49,709.83c-.94-1.88-.19-4.16,1.69-5.1h0c1.88-.94,4.16-.19,5.1,1.69h0c.94,1.88.19,4.16-1.69,5.1h0c-.55.28-1.13.41-1.7.41h0c-1.39,0-2.73-.77-3.4-2.1ZM1048.95,691.1c-.98-1.86-.28-4.16,1.57-5.14h0c1.86-.98,4.16-.28,5.14,1.57h0c.99,1.85.28,4.16-1.57,5.14h0c-.57.3-1.18.45-1.78.45h0c-1.36,0-2.68-.74-3.36-2.02ZM1084.98,671.5c-1.03-1.83-.38-4.15,1.45-5.18h0c1.83-1.03,4.15-.38,5.17,1.45h0c1.03,1.83.39,4.14-1.44,5.17h0c-.59.33-1.23.49-1.86.49h0c-1.33,0-2.62-.69-3.32-1.93ZM1120.53,650.99c-1.07-1.8-.49-4.14,1.31-5.21h0c1.81-1.08,4.14-.49,5.22,1.31h0c1.07,1.8.49,4.14-1.32,5.21h0c-.61.37-1.28.54-1.94.54h0c-1.3,0-2.55-.66-3.27-1.85ZM1155.55,629.54c-1.13-1.77-.6-4.12,1.17-5.24h0c1.77-1.13,4.12-.6,5.24,1.17h0c1.13,1.77.6,4.12-1.17,5.24h0c-.63.41-1.33.6-2.03.6h0c-1.26,0-2.49-.63-3.21-1.77ZM1189.96,607.13c-1.18-1.74-.72-4.1,1.01-5.28h0c1.74-1.17,4.1-.72,5.28,1.02h0c1.17,1.74.72,4.1-1.02,5.28h0c-.65.44-1.39.65-2.12.65h0c-1.22,0-2.42-.59-3.15-1.67ZM1223.65,583.73c-1.23-1.7-.85-4.08.86-5.3h0c1.7-1.23,4.07-.85,5.3.85h0c1.23,1.71.84,4.08-.86,5.31h0c-.67.49-1.45.72-2.22.72h0c-1.18,0-2.34-.55-3.08-1.58ZM1256.63,559.39c-1.27-1.67-.95-4.05.71-5.33h0c1.67-1.27,4.06-.95,5.33.72h0c1.27,1.67.95,4.05-.72,5.33h0c-.68.52-1.49.78-2.3.78h0c-1.14,0-2.27-.52-3.02-1.5ZM1288.91,534.14c-1.33-1.63-1.08-4.02.55-5.34h0c1.63-1.32,4.03-1.07,5.35.55h0c1.32,1.64,1.07,4.03-.56,5.35h0c-.7.57-1.55.85-2.39.85h0c-1.11,0-2.2-.48-2.95-1.41ZM1320.39,507.92c-1.37-1.59-1.2-3.99.39-5.36h0c1.58-1.38,3.98-1.21,5.36.38h0c1.37,1.59,1.2,3.99-.39,5.36h0c-.72.62-1.6.93-2.48.93h0c-1.07,0-2.13-.45-2.88-1.31ZM1351,480.67c-1.43-1.54-1.34-3.94.2-5.37h0c1.54-1.43,3.94-1.34,5.37.2h0c1.43,1.54,1.34,3.95-.2,5.37h0c-.73.68-1.66,1.02-2.58,1.02h0c-1.02,0-2.04-.41-2.79-1.22ZM1380.63,452.37c-1.48-1.49-1.47-3.89.01-5.37h0c1.49-1.49,3.89-1.48,5.38,0h0c1.48,1.49,1.48,3.89-.01,5.38h0c-.74.74-1.71,1.11-2.68,1.11h0c-.98,0-1.95-.38-2.7-1.12ZM1409.19,422.98c-1.54-1.43-1.63-3.83-.21-5.37h0c1.42-1.54,3.83-1.63,5.37-.2h0c1.54,1.42,1.63,3.83.2,5.37h0c-.75.8-1.77,1.21-2.79,1.21h0c-.92,0-1.85-.33-2.58-1.01ZM1436.54,392.47c-1.6-1.36-1.79-3.76-.43-5.36h0c1.37-1.6,3.76-1.79,5.36-.43h0c1.6,1.36,1.79,3.76.43,5.36h0c-.75.88-1.82,1.33-2.9,1.33h0c-.87,0-1.74-.3-2.46-.9ZM1462.55,360.8c-1.65-1.29-1.95-3.67-.66-5.33h0c1.29-1.66,3.67-1.96,5.33-.67h0c1.66,1.29,1.96,3.68.67,5.34h0c-.75.96-1.87,1.46-3,1.46h0c-.82,0-1.64-.26-2.34-.8ZM1487.08,327.97c-1.72-1.21-2.13-3.58-.93-5.29h0c1.21-1.72,3.58-2.13,5.3-.93h0c1.71,1.21,2.13,3.58.92,5.3h0c-.74,1.05-1.92,1.61-3.11,1.61h0c-.76,0-1.52-.22-2.18-.69ZM1509.93,293.95c-1.77-1.11-2.31-3.45-1.2-5.23h0c1.12-1.78,3.47-2.32,5.24-1.2h0c1.78,1.11,2.32,3.46,1.2,5.23h0c-.72,1.16-1.96,1.79-3.22,1.79h0c-.69,0-1.39-.19-2.02-.59ZM1530.92,258.75c-1.84-1.01-2.51-3.32-1.49-5.16h0c1.01-1.84,3.32-2.51,5.16-1.49h0c1.84,1.01,2.51,3.32,1.49,5.16h0c-.69,1.26-1.99,1.97-3.33,1.97h0c-.62,0-1.25-.16-1.83-.48ZM1549.81,222.38c-1.9-.9-2.71-3.16-1.81-5.06h0c.9-1.9,3.16-2.71,5.06-1.81h0c1.9.89,2.71,3.16,1.81,5.06h0c-.65,1.37-2.02,2.17-3.44,2.17h0c-.54,0-1.1-.11-1.62-.36ZM1566.31,184.86c-1.95-.77-2.92-2.97-2.15-4.93h0c.76-1.95,2.97-2.92,4.92-2.15h0c1.95.76,2.92,2.97,2.15,4.92h0c-.58,1.5-2.02,2.42-3.53,2.42h0c-.46,0-.93-.09-1.39-.26ZM1580.07,146.24c-2.01-.61-3.14-2.74-2.53-4.74h0c.61-2.01,2.73-3.14,4.74-2.54h0c2,.61,3.14,2.74,2.53,4.74h0c-.5,1.65-2.01,2.7-3.64,2.7h0c-.36,0-.73-.05-1.1-.16ZM1590.54,106.59c-2.06-.42-3.39-2.42-2.97-4.48h0c.41-2.06,2.42-3.39,4.47-2.97h0c2.06.42,3.39,2.42,2.98,4.48h0c-.37,1.8-1.95,3.04-3.72,3.04h0c-.25,0-.51-.02-.76-.07Z" fill="#f8991d"/>
  <path d="M53.52,975.43c-.21-2.42,1.57-4.56,3.99-4.78h0c2.42-.21,4.56,1.57,4.78,3.99h0c.21,2.42-1.57,4.56-3.99,4.78h0c-.14,0-.27,0-.4,0h0c-2.25,0-4.17-1.72-4.38-4ZM94.55,971.08c-.29-2.41,1.44-4.6,3.85-4.89h0c2.41-.29,4.6,1.43,4.89,3.84h0c.29,2.42-1.43,4.61-3.84,4.9h0c-.18.02-.36.03-.53.03h0c-2.2,0-4.1-1.64-4.37-3.88ZM135.35,965.92c-.33-2.4,1.36-4.62,3.76-4.95h0c2.4-.32,4.62,1.36,4.95,3.77h0c.32,2.41-1.36,4.63-3.77,4.95h0c-.2.03-.4.04-.6.04h0c-2.16,0-4.05-1.6-4.35-3.81ZM176.05,960.18c-.36-2.4,1.3-4.64,3.7-5h0c2.41-.35,4.64,1.3,5,3.71h0c.36,2.4-1.3,4.64-3.7,5h0c-.22.03-.44.05-.65.05h0c-2.15,0-4.03-1.57-4.35-3.76ZM216.65,953.93c-.38-2.4,1.25-4.66,3.65-5.05h0c2.4-.38,4.66,1.25,5.04,3.65h0c.39,2.4-1.24,4.65-3.64,5.04h0c-.24.04-.47.06-.71.06h0c-2.12,0-3.98-1.54-4.34-3.7ZM257.17,947.19c-.41-2.39,1.19-4.67,3.59-5.09h0c2.39-.41,4.67,1.19,5.08,3.58h0c.42,2.4-1.18,4.68-3.58,5.09h0c-.25.05-.51.07-.76.07h0c-2.1,0-3.95-1.51-4.33-3.65ZM297.6,939.98c-.44-2.39,1.14-4.68,3.53-5.13h0c2.39-.44,4.68,1.14,5.13,3.53h0c.44,2.39-1.14,4.68-3.53,5.13h0c-.27.05-.54.07-.8.07h0c-2.08,0-3.93-1.48-4.33-3.6ZM337.94,932.31c-.47-2.38,1.08-4.7,3.47-5.17h0c2.38-.47,4.7,1.08,5.16,3.47h0c.48,2.38-1.08,4.69-3.46,5.17h0c-.29.05-.57.08-.86.08h0c-2.05,0-3.89-1.45-4.31-3.55ZM378.18,924.18c-.49-2.38,1.03-4.71,3.41-5.21h0c2.38-.5,4.71,1.03,5.21,3.41h0c.5,2.37-1.03,4.71-3.41,5.2h0c-.3.07-.6.1-.9.1h0c-2.04,0-3.87-1.43-4.31-3.5ZM418.33,915.58c-.53-2.37.97-4.72,3.34-5.24h0c2.37-.53,4.72.97,5.25,3.34h0c.52,2.37-.97,4.72-3.35,5.25h0c-.32.07-.64.1-.96.1h0c-2.01,0-3.83-1.39-4.28-3.45ZM458.36,906.52c-.55-2.37.92-4.73,3.28-5.29h0c2.37-.55,4.74.92,5.29,3.29h0c.55,2.36-.92,4.73-3.28,5.28h0c-.34.08-.68.12-1.01.12h0c-2,0-3.8-1.37-4.28-3.4ZM498.28,896.98c-.58-2.36.86-4.75,3.22-5.33h0c2.36-.58,4.74.86,5.32,3.22h0c.59,2.36-.85,4.74-3.21,5.33h0c-.36.08-.71.13-1.06.13h0c-1.98,0-3.77-1.35-4.27-3.35ZM538.08,886.95c-.61-2.35.8-4.75,3.15-5.36h0c2.35-.62,4.75.79,5.37,3.15h0c.61,2.35-.8,4.75-3.15,5.36h0c-.37.1-.75.14-1.11.14h0c-1.96,0-3.74-1.31-4.26-3.29ZM577.75,876.42c-.64-2.34.74-4.76,3.08-5.4h0c2.34-.64,4.76.74,5.41,3.08h0c.64,2.35-.74,4.77-3.09,5.41h0c-.38.1-.77.15-1.16.15h0c-1.93,0-3.71-1.28-4.24-3.24ZM617.27,865.39c-.67-2.34.68-4.78,3.01-5.45h0c2.34-.67,4.78.68,5.45,3.01h0c.67,2.34-.68,4.77-3.01,5.45h0c-.41.11-.82.17-1.22.17h0c-1.91,0-3.67-1.26-4.23-3.18ZM656.65,853.82c-.71-2.33.61-4.79,2.93-5.49h0c2.33-.7,4.78.61,5.49,2.94h0c.7,2.32-.61,4.78-2.94,5.48h0c-.42.13-.85.19-1.27.19h0c-1.89,0-3.64-1.22-4.21-3.12ZM695.85,841.7c-.73-2.31.54-4.79,2.86-5.52h0c2.31-.74,4.79.54,5.53,2.85h0c.73,2.32-.55,4.79-2.86,5.53h0c-.44.14-.89.21-1.34.21h0c-1.86,0-3.59-1.2-4.19-3.07ZM734.88,829.02c-.78-2.3.47-4.8,2.77-5.57h0c2.3-.77,4.8.47,5.57,2.78h0c.77,2.3-.47,4.79-2.77,5.57h0c-.47.15-.94.22-1.4.22h0c-1.84,0-3.56-1.16-4.17-3ZM773.7,815.75c-.8-2.29.4-4.8,2.69-5.61h0c2.29-.81,4.8.39,5.61,2.69h0c.81,2.29-.39,4.8-2.68,5.61h0c-.49.17-.98.25-1.47.25h0c-1.81,0-3.51-1.13-4.15-2.94ZM812.32,801.87c-.85-2.27.31-4.81,2.59-5.65h0c2.28-.85,4.81.31,5.66,2.59h0c.84,2.28-.32,4.81-2.6,5.66h0c-.5.19-1.02.27-1.53.27h0c-1.79,0-3.47-1.09-4.12-2.87ZM850.69,787.36c-.88-2.27.24-4.82,2.5-5.7h0c2.26-.89,4.81.23,5.7,2.5h0c.88,2.26-.24,4.81-2.5,5.7h0c-.53.2-1.07.3-1.6.3h0c-1.76,0-3.42-1.07-4.1-2.8ZM888.72,772.21c-.93-2.25.15-4.82,2.39-5.74h0c2.25-.92,4.82.15,5.75,2.4h0c.92,2.24-.15,4.81-2.4,5.74h0c-.55.22-1.12.33-1.67.33h0c-1.73,0-3.37-1.03-4.07-2.73ZM926.5,756.36c-.97-2.23.06-4.82,2.29-5.79h0c2.23-.97,4.82.06,5.78,2.29h0c.97,2.23-.05,4.82-2.28,5.79h0c-.57.24-1.17.36-1.75.36h0c-1.7,0-3.32-.99-4.04-2.65ZM964.01,739.76c-1.01-2.21-.04-4.82,2.17-5.83h0c2.21-1.01,4.82-.04,5.83,2.17h0c1.01,2.21.04,4.82-2.17,5.83h0c-.6.27-1.22.4-1.83.4h0c-1.67,0-3.26-.95-4-2.57ZM1001.2,722.39c-1.05-2.19-.14-4.82,2.05-5.88h0c2.19-1.06,4.82-.14,5.88,2.05h0c1.05,2.19.14,4.82-2.05,5.88h0c-.62.29-1.27.43-1.91.43h0c-1.64,0-3.21-.91-3.97-2.48ZM1038.05,704.2c-1.11-2.17-.25-4.82,1.91-5.92h0c2.16-1.11,4.82-.25,5.92,1.91h0c1.11,2.17.25,4.82-1.92,5.92h0c-.64.33-1.32.49-1.99.49h0c-1.6,0-3.15-.88-3.92-2.4ZM1074.49,685.15c-1.16-2.14-.36-4.81,1.77-5.96h0c2.14-1.16,4.81-.37,5.97,1.77h0c1.15,2.14.36,4.81-1.78,5.96h0c-.66.36-1.38.54-2.09.54h0c-1.56-.01-3.08-.84-3.87-2.31ZM1110.37,665.27c-1.22-2.11-.49-4.8,1.62-6.01h0c2.11-1.21,4.79-.48,6.01,1.63h0c1.21,2.1.48,4.79-1.63,6h0c-.69.4-1.44.59-2.19.59h0c-1.52,0-3-.8-3.81-2.21ZM1145.71,644.46c-1.27-2.07-.61-4.78,1.46-6.05h0c2.07-1.26,4.78-.61,6.05,1.46h0c1.26,2.08.61,4.78-1.46,6.05h0c-.72.44-1.51.65-2.29.65h0c-1.48,0-2.93-.75-3.76-2.11ZM1180.46,622.69c-1.32-2.04-.75-4.77,1.29-6.09h0c2.04-1.33,4.76-.75,6.09,1.28h0c1.32,2.04.75,4.76-1.29,6.09h0c-.74.49-1.57.72-2.39.72h0c-1.44,0-2.85-.71-3.7-2ZM1214.55,599.89c-1.39-1.99-.9-4.73,1.09-6.12h0c2-1.39,4.74-.9,6.13,1.09h0c1.39,2,.9,4.74-1.1,6.13h0c-.76.53-1.64.79-2.51.79h0c-1.39,0-2.75-.66-3.61-1.89ZM1247.9,576.05c-1.44-1.95-1.03-4.71.92-6.16h0c1.96-1.44,4.71-1.02,6.16.93h0c1.44,1.96,1.03,4.71-.93,6.15h0c-.78.58-1.7.87-2.61.87h0c-1.35,0-2.68-.62-3.54-1.79ZM1280.65,551.41c-1.49-1.92-1.14-4.69.78-6.17h0c1.92-1.49,4.69-1.14,6.17.78h0c1.49,1.92,1.14,4.69-.78,6.18h0c-.8.62-1.75.92-2.69.92h0c-1.32,0-2.62-.59-3.48-1.71ZM1312.82,526.02c-1.54-1.88-1.25-4.65.63-6.19h0c1.89-1.53,4.66-1.24,6.19.64h0c1.54,1.89,1.25,4.66-.64,6.19h0c-.81.67-1.79.99-2.77.99h0c-1.28,0-2.54-.56-3.41-1.63ZM1344.35,499.86c-1.58-1.85-1.37-4.63.48-6.21h0c1.85-1.58,4.62-1.37,6.2.48h0c1.58,1.84,1.37,4.62-.47,6.2h0c-.83.71-1.85,1.06-2.86,1.06h0c-1.24,0-2.48-.52-3.35-1.53ZM1375.19,472.86c-1.64-1.8-1.5-4.58.3-6.21h0c1.81-1.63,4.59-1.49,6.22.31h0c1.63,1.8,1.49,4.58-.31,6.21h0c-.84.77-1.9,1.14-2.95,1.14h0c-1.2,0-2.4-.49-3.26-1.45ZM1405.24,445.02c-1.68-1.76-1.62-4.54.13-6.23h0c1.75-1.68,4.54-1.62,6.22.13h0c1.68,1.75,1.63,4.54-.12,6.22h0c-.86.82-1.95,1.23-3.05,1.23h0c-1.16,0-2.31-.46-3.18-1.35ZM1434.44,416.27c-1.73-1.7-1.77-4.49-.07-6.23h0c1.7-1.73,4.48-1.77,6.22-.07h0c1.74,1.7,1.77,4.48.07,6.22h0c-.87.89-2.01,1.33-3.15,1.33h0c-1.11,0-2.22-.42-3.08-1.25ZM1462.68,386.57c-1.8-1.63-1.92-4.42-.29-6.21h0c1.64-1.8,4.42-1.93,6.22-.29h0c1.8,1.64,1.92,4.42.29,6.22h0c-.87.95-2.06,1.43-3.25,1.43h0c-1.06,0-2.12-.38-2.97-1.15ZM1489.84,355.9c-1.85-1.57-2.08-4.35-.51-6.2h0c1.56-1.86,4.34-2.09,6.2-.52h0c1.85,1.57,2.09,4.34.52,6.2h0c-.87,1.03-2.11,1.56-3.36,1.56h0c-1.01,0-2.02-.34-2.85-1.04ZM1515.8,324.19c-1.92-1.49-2.26-4.25-.77-6.17h0c1.49-1.92,4.26-2.27,6.18-.77h0c1.91,1.49,2.26,4.25.77,6.17h0c-.87,1.12-2.17,1.7-3.48,1.7h0c-.94,0-1.89-.3-2.7-.93ZM1540.4,291.42c-1.99-1.4-2.45-4.15-1.05-6.13h0c1.41-1.99,4.15-2.45,6.13-1.05h0c1.99,1.41,2.45,4.15,1.05,6.13h0c-.86,1.22-2.21,1.86-3.59,1.86h0c-.88,0-1.77-.26-2.54-.81ZM1563.44,257.54c-2.05-1.31-2.65-4.02-1.35-6.07h0c1.31-2.06,4.03-2.66,6.08-1.35h0c2.05,1.3,2.65,4.02,1.35,6.07h0c-.84,1.32-2.26,2.04-3.72,2.04h0c-.81,0-1.62-.22-2.36-.69ZM1584.71,222.52c-2.11-1.19-2.87-3.88-1.68-5.99h0c1.19-2.12,3.88-2.88,6-1.69h0c2.11,1.2,2.87,3.88,1.68,6h0c-.81,1.43-2.31,2.24-3.84,2.24h0c-.73,0-1.47-.18-2.16-.56ZM1603.94,186.33c-2.19-1.06-3.11-3.69-2.05-5.88h0c1.05-2.19,3.69-3.11,5.87-2.05h0c2.19,1.06,3.11,3.69,2.05,5.88h0c-.76,1.57-2.33,2.48-3.96,2.48h0c-.65,0-1.3-.14-1.91-.43ZM1620.75,148.95c-2.26-.9-3.36-3.46-2.46-5.71h0c.89-2.26,3.45-3.36,5.71-2.47h0c2.26.9,3.36,3.46,2.46,5.72h0c-.68,1.72-2.34,2.77-4.08,2.77h0c-.55,0-1.1-.1-1.63-.31ZM1634.67,110.4c-2.33-.7-3.65-3.16-2.95-5.48h0c.71-2.33,3.16-3.65,5.49-2.94h0c2.32.7,3.64,3.15,2.94,5.48h0c-.57,1.9-2.32,3.13-4.21,3.13h0c-.42,0-.85-.06-1.27-.19ZM1644.89,70.7c-2.39-.43-3.98-2.72-3.55-5.11h0c.44-2.39,2.73-3.98,5.12-3.55h0c2.39.44,3.98,2.73,3.54,5.12h0c-.38,2.12-2.24,3.61-4.32,3.61h0c-.26,0-.52-.02-.79-.07Z" fill="#f8991d"/>
  <path d="M.02,990.81c-.26-2.75,1.76-5.19,4.52-5.45h0c2.74-.26,5.18,1.77,5.44,4.51h0c.25,2.75-1.77,5.19-4.52,5.45h0c-.15.01-.31.02-.46.02h0c-2.56,0-4.74-1.94-4.98-4.53ZM41.06,986.38c-.33-2.74,1.62-5.23,4.36-5.57h0c2.74-.33,5.24,1.63,5.57,4.37h0c.33,2.74-1.62,5.23-4.36,5.56h0c-.21.03-.41.04-.61.04h0c-2.49,0-4.65-1.86-4.96-4.4ZM81.87,981.22c-.37-2.74,1.55-5.26,4.28-5.63h0c2.74-.37,5.26,1.55,5.63,4.29h0c.37,2.74-1.55,5.25-4.29,5.62h0c-.23.03-.45.05-.67.05h0c-2.47,0-4.61-1.82-4.95-4.33ZM122.58,975.54c-.4-2.74,1.49-5.28,4.22-5.68h0c2.73-.4,5.27,1.49,5.68,4.22h0c.4,2.74-1.49,5.28-4.22,5.68h0c-.25.03-.5.05-.74.05h0c-2.44,0-4.57-1.79-4.94-4.27ZM163.21,969.4c-.43-2.73,1.44-5.29,4.16-5.72h0c2.73-.43,5.29,1.43,5.72,4.16h0c.43,2.72-1.43,5.28-4.16,5.72h0c-.26.04-.53.06-.79.06h0c-2.41,0-4.54-1.76-4.93-4.22ZM203.77,962.83c-.47-2.73,1.37-5.31,4.09-5.77h0c2.73-.45,5.31,1.38,5.77,4.1h0c.46,2.73-1.38,5.31-4.1,5.76h0c-.28.05-.56.07-.84.07h0c-2.4,0-4.51-1.72-4.92-4.16ZM244.24,955.84c-.49-2.72,1.32-5.32,4.04-5.81h0c2.71-.48,5.31,1.33,5.8,4.04h0c.49,2.72-1.32,5.32-4.04,5.81h0c-.3.05-.59.08-.89.08h0c-2.37,0-4.48-1.7-4.91-4.12ZM284.63,948.44c-.51-2.72,1.27-5.33,3.98-5.85h0c2.71-.51,5.33,1.27,5.84,3.98h0c.52,2.71-1.26,5.33-3.98,5.85h0c-.31.06-.63.09-.93.09h0c-2.36,0-4.46-1.68-4.91-4.07ZM324.94,940.63c-.54-2.71,1.21-5.35,3.92-5.89h0c2.71-.54,5.34,1.21,5.88,3.92h0c.54,2.71-1.21,5.34-3.92,5.89h0c-.33.06-.66.09-.99.09h0c-2.33,0-4.42-1.64-4.89-4.01ZM365.16,932.4c-.57-2.7,1.16-5.35,3.86-5.92h0c2.7-.57,5.35,1.16,5.92,3.86h0c.58,2.7-1.15,5.35-3.85,5.92h0c-.35.07-.7.11-1.04.11h0c-2.31,0-4.39-1.61-4.89-3.97ZM405.29,923.76c-.6-2.69,1.1-5.37,3.8-5.97h0c2.69-.59,5.37,1.11,5.96,3.8h0c.6,2.7-1.1,5.37-3.79,5.97h0c-.37.08-.73.12-1.09.12h0c-2.29,0-4.36-1.59-4.88-3.92ZM445.33,914.69c-.63-2.68,1.04-5.37,3.73-6h0c2.69-.63,5.38,1.04,6,3.73h0c.63,2.69-1.04,5.38-3.73,6.01h0c-.38.09-.76.13-1.14.13h0c-2.27,0-4.32-1.56-4.86-3.87ZM485.26,905.19c-.66-2.68.98-5.38,3.66-6.04h0c2.68-.66,5.39.98,6.05,3.66h0c.66,2.69-.99,5.39-3.66,6.05h0c-.4.1-.8.14-1.19.14h0c-2.25,0-4.29-1.52-4.85-3.81ZM525.08,895.25c-.69-2.67.92-5.4,3.59-6.09h0c2.68-.69,5.4.92,6.09,3.6h0c.69,2.67-.92,5.4-3.59,6.09h0c-.42.1-.84.15-1.25.15h0c-2.23,0-4.26-1.49-4.84-3.75ZM564.78,884.85c-.72-2.67.86-5.41,3.52-6.13h0c2.67-.72,5.41.86,6.13,3.52h0c.72,2.67-.86,5.41-3.52,6.13h0c-.44.12-.88.17-1.31.17h0c-2.2,0-4.22-1.46-4.82-3.69ZM604.35,873.97c-.75-2.66.79-5.42,3.45-6.17h0c2.66-.75,5.42.79,6.17,3.45h0c.76,2.66-.79,5.42-3.45,6.17h0c-.45.13-.91.19-1.36.19h0c-2.18,0-4.19-1.44-4.81-3.64ZM643.79,862.61c-.79-2.65.72-5.43,3.37-6.22h0c2.64-.78,5.43.73,6.21,3.37h0c.79,2.65-.72,5.43-3.37,6.22h0c-.47.14-.95.21-1.42.21h0c-2.16,0-4.15-1.41-4.79-3.58ZM683.07,850.74c-.82-2.64.65-5.44,3.28-6.26h0c2.64-.82,5.44.65,6.26,3.29h0c.83,2.63-.65,5.43-3.28,6.26h0c-.5.15-1,.22-1.49.22h0c-2.13,0-4.11-1.37-4.77-3.51ZM722.19,838.34c-.86-2.62.57-5.45,3.19-6.3h0c2.63-.86,5.45.57,6.31,3.2h0c.86,2.62-.58,5.44-3.2,6.3h0c-.52.17-1.04.25-1.55.25h0c-2.11,0-4.07-1.34-4.75-3.45ZM761.12,825.4c-.89-2.62.5-5.46,3.11-6.36h0c2.61-.89,5.46.5,6.35,3.11h0c.9,2.62-.5,5.46-3.11,6.36h0c-.53.18-1.08.27-1.62.27h0c-2.07,0-4.02-1.31-4.73-3.38ZM799.86,811.88c-.93-2.6.42-5.47,3.02-6.4h0c2.59-.93,5.46.41,6.39,3.01h0c.94,2.6-.41,5.46-3.01,6.4h0c-.56.2-1.13.3-1.69.3h0c-2.05,0-3.97-1.27-4.71-3.31ZM838.32,797.79c-.98-2.59.32-5.47,2.9-6.45h0c2.59-.97,5.47.33,6.45,2.91h0c.98,2.58-.33,5.47-2.91,6.45h0c-.58.22-1.18.32-1.77.32h0c-2.02,0-3.92-1.23-4.67-3.23ZM876.58,783.05c-1.02-2.57.23-5.47,2.8-6.49h0c2.57-1.02,5.47.23,6.49,2.8h0c1.02,2.57-.23,5.47-2.8,6.49h0c-.61.24-1.23.36-1.84.36h0c-1.99,0-3.87-1.2-4.65-3.16ZM914.63,767.64c-1.07-2.55.13-5.48,2.68-6.54h0c2.55-1.07,5.48.13,6.54,2.68h0c1.07,2.55-.14,5.48-2.68,6.54h0c-.63.26-1.29.39-1.93.39h0c-1.95,0-3.81-1.16-4.61-3.07ZM952.43,751.51c-1.12-2.53.03-5.48,2.55-6.59h0c2.53-1.11,5.48.03,6.6,2.56h0c1.11,2.52-.04,5.47-2.56,6.59h0c-.66.29-1.34.42-2.02.42h0c-1.92,0-3.75-1.11-4.57-2.98ZM989.94,734.63c-1.16-2.5-.08-5.48,2.43-6.64h0c2.5-1.16,5.48-.08,6.64,2.42h0c1.16,2.51.08,5.48-2.42,6.65h0c-.69.31-1.4.46-2.11.46h0c-1.88,0-3.69-1.07-4.54-2.89ZM1027,717.03c-1.22-2.48-.2-5.48,2.28-6.7h0c2.47-1.22,5.47-.19,6.69,2.28h0c1.22,2.48.2,5.48-2.28,6.7h0c-.71.35-1.46.51-2.2.51h0c-1.85,0-3.62-1.02-4.49-2.79ZM1063.65,698.61c-1.27-2.45-.32-5.47,2.13-6.75h0c2.45-1.27,5.47-.32,6.74,2.13h0c1.28,2.45.33,5.47-2.12,6.74h0c-.74.39-1.53.57-2.31.57h0c-1.8,0-3.55-.98-4.44-2.69ZM1099.86,679.33c-1.34-2.42-.46-5.46,1.96-6.8h0c2.41-1.33,5.45-.46,6.79,1.96h0c1.34,2.42.46,5.46-1.96,6.79h0c-.76.43-1.59.63-2.41.63h0c-1.76,0-3.47-.93-4.38-2.58ZM1135.56,659.13c-1.4-2.38-.6-5.44,1.78-6.84h0c2.38-1.4,5.44-.61,6.84,1.77h0c1.4,2.39.61,5.45-1.77,6.85h0c-.8.47-1.67.69-2.53.69h0c-1.72,0-3.39-.88-4.32-2.47ZM1170.7,637.97c-1.47-2.34-.76-5.42,1.58-6.89h0c2.34-1.47,5.42-.76,6.89,1.58h0c1.46,2.34.76,5.43-1.58,6.89h0c-.83.52-1.75.77-2.65.77h0c-1.67,0-3.29-.83-4.24-2.35ZM1205.19,615.79c-1.54-2.29-.93-5.4,1.36-6.94h0c2.3-1.53,5.4-.92,6.94,1.37h0c1.54,2.29.93,5.4-1.36,6.94h0c-.86.57-1.83.85-2.78.85h0c-1.61,0-3.2-.78-4.16-2.22ZM1238.95,592.53c-1.61-2.24-1.1-5.37,1.14-6.98h0c2.24-1.61,5.36-1.11,6.98,1.13h0c1.61,2.24,1.1,5.37-1.14,6.98h0c-.88.64-1.9.95-2.92.95h0c-1.55,0-3.08-.72-4.06-2.08ZM1272.01,568.3c-1.66-2.21-1.21-5.35.99-7h0c2.21-1.66,5.35-1.21,7,1h0c1.66,2.2,1.22,5.34-.99,6.99h0c-.9.68-1.96,1.01-3,1.01h0c-1.52,0-3.02-.69-4-2ZM1304.62,543.47c-1.7-2.17-1.31-5.32.86-7.01h0c2.18-1.7,5.32-1.31,7.02.86h0c1.7,2.18,1.31,5.32-.87,7.02h0c-.91.71-1.99,1.06-3.07,1.06h0c-1.49,0-2.96-.66-3.94-1.93ZM1336.75,518.04c-1.74-2.15-1.42-5.29.73-7.03h0c2.14-1.75,5.29-1.42,7.03.73h0c1.74,2.14,1.41,5.29-.73,7.03h0c-.93.75-2.04,1.12-3.15,1.12h0c-1.45,0-2.9-.63-3.88-1.85ZM1368.36,491.96c-1.79-2.1-1.52-5.26.58-7.04h0c2.11-1.79,5.26-1.53,7.05.58h0c1.78,2.1,1.52,5.26-.58,7.05h0c-.94.79-2.09,1.18-3.23,1.18h0c-1.42,0-2.83-.6-3.82-1.77ZM1399.4,465.21c-1.83-2.07-1.64-5.23.42-7.06h0c2.07-1.83,5.23-1.64,7.06.42h0c1.83,2.07,1.65,5.23-.42,7.06h0c-.95.85-2.14,1.26-3.32,1.26h0c-1.38,0-2.75-.57-3.74-1.68ZM1429.81,437.74c-1.88-2.02-1.77-5.18.25-7.06h0c2.02-1.88,5.19-1.77,7.07.25h0c1.88,2.02,1.77,5.18-.25,7.07h0c-.97.89-2.19,1.34-3.41,1.34h0c-1.34,0-2.67-.54-3.66-1.6ZM1459.52,409.53c-1.93-1.97-1.91-5.14.07-7.08h0c1.97-1.93,5.13-1.9,7.07.07h0c1.93,1.97,1.9,5.14-.07,7.07h0c-.97.96-2.24,1.43-3.5,1.43h0c-1.3,0-2.59-.5-3.57-1.49ZM1488.45,380.51c-1.99-1.91-2.05-5.08-.13-7.07h0c1.91-1.99,5.08-2.05,7.07-.14h0c1.99,1.92,2.05,5.08.13,7.07h0c-.98,1.03-2.29,1.54-3.6,1.54h0c-1.25,0-2.5-.46-3.47-1.4ZM1516.51,350.65c-2.05-1.85-2.21-5.01-.35-7.06h0c1.85-2.05,5.01-2.21,7.06-.36h0c2.05,1.85,2.21,5.02.36,7.07h0c-.99,1.09-2.35,1.64-3.71,1.64h0c-1.2,0-2.4-.42-3.36-1.29ZM1543.59,319.91c-2.11-1.78-2.38-4.94-.6-7.05h0c1.78-2.11,4.94-2.38,7.05-.6h0c2.11,1.78,2.38,4.94.6,7.04h0c-.99,1.18-2.4,1.78-3.83,1.78h0c-1.14,0-2.28-.38-3.22-1.17ZM1569.56,288.21c-2.18-1.7-2.57-4.84-.87-7.01h0c1.7-2.18,4.84-2.57,7.02-.87h0c2.18,1.7,2.57,4.84.87,7.02h0c-.99,1.26-2.46,1.92-3.95,1.92h0c-1.08,0-2.16-.34-3.07-1.06ZM1594.25,255.52c-2.24-1.6-2.76-4.72-1.16-6.97h0c1.61-2.25,4.73-2.77,6.98-1.16h0c2.24,1.6,2.76,4.72,1.16,6.97h0c-.98,1.37-2.52,2.09-4.07,2.09h0c-1.01,0-2.03-.3-2.91-.93ZM1617.48,221.77c-2.32-1.49-2.99-4.59-1.49-6.91h0c1.49-2.32,4.59-2.99,6.91-1.49h0c2.32,1.5,2.99,4.59,1.49,6.91h0c-.95,1.48-2.56,2.29-4.21,2.29h0c-.92,0-1.86-.26-2.7-.8ZM1639,186.91c-2.4-1.37-3.24-4.42-1.87-6.82h0c1.37-2.4,4.42-3.24,6.82-1.87h0c2.4,1.37,3.23,4.43,1.87,6.82h0c-.93,1.62-2.61,2.53-4.35,2.53h0c-.84,0-1.69-.22-2.47-.66ZM1658.48,150.87c-2.48-1.22-3.5-4.21-2.29-6.69h0c1.22-2.48,4.21-3.51,6.69-2.29h0c2.48,1.22,3.51,4.21,2.29,6.69h0c-.87,1.77-2.64,2.8-4.49,2.8h0c-.74,0-1.49-.16-2.2-.51ZM1675.51,113.6c-2.57-1.03-3.81-3.94-2.79-6.5h0c1.03-2.56,3.94-3.81,6.5-2.78h0c2.57,1.02,3.81,3.93,2.79,6.5h0c-.78,1.95-2.66,3.14-4.64,3.14h0c-.62,0-1.25-.12-1.86-.36ZM1689.44,75.07c-2.65-.78-4.17-3.56-3.39-6.21h0c.78-2.65,3.56-4.17,6.21-3.39h0c2.65.78,4.16,3.56,3.39,6.21h0c-.64,2.18-2.64,3.59-4.8,3.59h0c-.47,0-.94-.06-1.41-.2ZM1699.12,35.25c-2.73-.39-4.63-2.93-4.24-5.66h0c.4-2.73,2.93-4.63,5.66-4.24h0c2.74.39,4.63,2.93,4.24,5.66h0c-.36,2.49-2.49,4.29-4.94,4.29h0c-.24,0-.48-.02-.72-.05Z" fill="#f8991d"/>
  <path d="M30.82,1000.07c-.51-5.5,3.53-10.37,9.03-10.89h0c5.49-.51,10.37,3.53,10.88,9.03h0c.52,5.5-3.52,10.37-9.02,10.89h0c-.32.02-.63.04-.94.04h0c-5.11,0-9.46-3.89-9.95-9.07ZM71.88,995.78c-.67-5.49,3.24-10.47,8.72-11.13h0c5.48-.67,10.47,3.24,11.13,8.72h0c.66,5.49-3.24,10.47-8.73,11.13h0c-.4.05-.81.08-1.21.08h0c-4.99,0-9.3-3.73-9.91-8.8ZM112.69,990.68c-.74-5.47,3.1-10.51,8.57-11.25h0c5.48-.73,10.51,3.11,11.25,8.58h0c.74,5.47-3.1,10.51-8.57,11.25h0c-.46.06-.91.09-1.35.09h0c-4.93,0-9.22-3.65-9.9-8.67ZM153.41,985.06c-.8-5.46,2.98-10.54,8.44-11.35h0c5.47-.8,10.55,2.98,11.35,8.44h0c.8,5.47-2.98,10.55-8.44,11.35h0c-.49.07-.98.11-1.47.11h0c-4.88,0-9.15-3.58-9.88-8.55ZM194.05,978.98c-.86-5.46,2.87-10.58,8.32-11.44h0c5.46-.87,10.58,2.86,11.44,8.31h0c.86,5.46-2.86,10.58-8.32,11.44h0c-.53.08-1.05.13-1.57.13h0c-4.84-.01-9.09-3.52-9.87-8.44ZM234.61,972.46c-.92-5.45,2.75-10.61,8.2-11.53h0c5.44-.92,10.61,2.75,11.52,8.2h0c.92,5.45-2.75,10.6-8.19,11.52h0c-.57.1-1.13.14-1.68.14h0c-4.79,0-9.02-3.45-9.85-8.33ZM275.09,965.52c-.97-5.44,2.65-10.64,8.08-11.61h0c5.44-.97,10.64,2.64,11.61,8.08h0c.97,5.44-2.64,10.63-8.08,11.61h0c-.6.1-1.19.16-1.78.16h0c-4.74,0-8.96-3.4-9.83-8.24ZM315.49,958.17c-1.03-5.43,2.54-10.66,7.96-11.69h0c5.43-1.03,10.66,2.53,11.7,7.96h0c1.02,5.42-2.54,10.66-7.97,11.69h0c-.63.12-1.25.17-1.87.17h0c-4.71,0-8.9-3.34-9.82-8.13ZM355.81,950.41c-1.08-5.42,2.43-10.69,7.84-11.77h0c5.42-1.09,10.69,2.42,11.77,7.84h0c1.09,5.41-2.42,10.68-7.84,11.77h0c-.66.13-1.32.19-1.97.19h0c-4.67,0-8.84-3.28-9.8-8.03ZM396.05,942.23c-1.15-5.4,2.31-10.71,7.71-11.85h0c5.41-1.14,10.71,2.32,11.85,7.72h0c1.15,5.4-2.31,10.71-7.71,11.85h0c-.7.15-1.39.22-2.08.22h0c-4.63,0-8.78-3.23-9.77-7.94ZM436.19,933.64c-1.2-5.39,2.2-10.73,7.59-11.93h0c5.39-1.2,10.73,2.2,11.93,7.59h0c1.2,5.4-2.2,10.74-7.59,11.93h0c-.73.17-1.46.25-2.18.25h0c-4.58,0-8.72-3.17-9.75-7.84ZM476.23,924.63c-1.25-5.38,2.09-10.76,7.47-12.01h0c5.38-1.26,10.76,2.08,12.01,7.46h0c1.26,5.38-2.08,10.76-7.46,12.01h0c-.77.18-1.53.27-2.29.27h0c-4.54,0-8.65-3.12-9.73-7.73ZM516.18,915.18c-1.32-5.36,1.97-10.77,7.33-12.09h0c5.36-1.32,10.78,1.97,12.09,7.33h0c1.32,5.36-1.96,10.78-7.33,12.09h0c-.8.2-1.6.29-2.39.29h0c-4.5,0-8.58-3.05-9.7-7.62ZM556.01,905.29c-1.37-5.35,1.85-10.8,7.2-12.17h0c5.34-1.38,10.8,1.84,12.17,7.19h0c1.38,5.35-1.84,10.8-7.19,12.18h0c-.84.21-1.68.31-2.5.31h0c-4.45,0-8.52-2.99-9.68-7.51ZM595.73,894.95c-1.44-5.33,1.72-10.82,7.05-12.26h0c5.33-1.44,10.82,1.71,12.26,7.05h0c1.44,5.33-1.72,10.82-7.05,12.26h0c-.87.23-1.75.35-2.61.35h0c-4.41,0-8.45-2.94-9.65-7.4ZM635.32,884.13c-1.51-5.31,1.58-10.84,6.9-12.34h0c5.31-1.51,10.84,1.58,12.34,6.9h0c1.51,5.31-1.58,10.84-6.9,12.34h0c-.91.26-1.82.38-2.73.38h0c-4.36,0-8.37-2.88-9.61-7.28ZM674.77,872.83c-1.57-5.3,1.45-10.86,6.74-12.43h0c5.3-1.58,10.86,1.44,12.43,6.74h0c1.57,5.29-1.45,10.86-6.74,12.43h0c-.95.28-1.91.42-2.85.42h0c-4.31,0-8.29-2.82-9.58-7.16ZM714.07,861.02c-1.64-5.27,1.3-10.88,6.58-12.52h0c5.27-1.64,10.88,1.3,12.52,6.58h0c1.64,5.27-1.31,10.88-6.58,12.52h0c-.99.31-1.99.45-2.98.45h0c-4.26,0-8.21-2.74-9.54-7.03ZM753.21,848.69c-1.71-5.25,1.15-10.9,6.4-12.61h0c5.25-1.71,10.9,1.15,12.61,6.4h0c1.72,5.25-1.15,10.9-6.4,12.61h0c-1.03.34-2.08.5-3.11.5h0c-4.21,0-8.12-2.68-9.5-6.9ZM792.17,835.81c-1.79-5.22,1-10.91,6.22-12.7h0c5.22-1.79,10.91,1,12.7,6.22h0c1.79,5.23-.99,10.91-6.22,12.7h0c-1.07.37-2.17.55-3.24.55h0c-4.16,0-8.04-2.62-9.46-6.77ZM830.94,822.37c-1.87-5.2.83-10.93,6.02-12.8h0c5.2-1.87,10.93.83,12.8,6.03h0c1.87,5.19-.83,10.92-6.03,12.79h0c-1.12.4-2.26.59-3.38.59h0c-4.1,0-7.95-2.53-9.41-6.61ZM869.42,808.35c-1.96-5.17.65-10.94,5.82-12.89h0c5.16-1.95,10.93.65,12.88,5.82h0c1.96,5.17-.65,10.94-5.81,12.89h0c-1.17.44-2.36.65-3.54.65h0c-4.04,0-7.84-2.47-9.35-6.47ZM907.71,793.69c-2.04-5.13.47-10.94,5.6-12.98h0c5.13-2.04,10.95.47,12.99,5.6h0c2.04,5.13-.47,10.95-5.6,12.99h0c-1.21.48-2.46.7-3.68.7h0c-3.98,0-7.74-2.38-9.3-6.31ZM945.79,778.36c-2.13-5.09.27-10.95,5.37-13.08h0c5.09-2.13,10.95.27,13.08,5.37h0c2.13,5.09-.27,10.95-5.37,13.08h.01c-1.26.53-2.57.78-3.86.78h0c-3.91,0-7.63-2.31-9.23-6.15ZM983.63,762.33c-2.23-5.06.06-10.96,5.11-13.19h0c5.06-2.23,10.96.06,13.19,5.12h0c2.23,5.05-.06,10.96-5.12,13.18h0c-1.31.58-2.68.85-4.03.85h0c-3.84,0-7.5-2.22-9.15-5.96ZM1021.19,745.54c-2.33-5.01-.16-10.96,4.85-13.29h0c5-2.32,10.95-.15,13.28,4.85h0c2.33,5.01.16,10.96-4.85,13.29h0c-1.36.63-2.8.93-4.21.93h0c-3.77,0-7.38-2.14-9.07-5.78ZM1058.29,728.03c-2.44-4.96-.4-10.95,4.56-13.39h0c4.96-2.43,10.95-.39,13.39,4.56h0c2.43,4.96.39,10.95-4.56,13.39h0c-1.42.7-2.93,1.03-4.41,1.03h0c-3.69,0-7.24-2.05-8.98-5.59ZM1095,709.72c-2.55-4.9-.65-10.94,4.25-13.49h0c4.89-2.55,10.93-.65,13.48,4.25h0c2.56,4.89.65,10.93-4.25,13.48h0c-1.47.77-3.05,1.14-4.61,1.14h0c-3.61,0-7.09-1.96-8.87-5.38ZM1131.26,690.54c-2.67-4.83-.92-10.91,3.92-13.59h0c4.83-2.67,10.91-.92,13.58,3.92h0c2.68,4.83.92,10.92-3.91,13.59h0c-1.53.85-3.19,1.25-4.83,1.25h0c-3.52,0-6.94-1.87-8.76-5.17ZM1167.03,670.46c-2.8-4.76-1.21-10.89,3.55-13.69h0c4.76-2.79,10.89-1.2,13.69,3.56h0c2.8,4.76,1.21,10.89-3.55,13.69h0c-1.59.93-3.34,1.38-5.06,1.38h0c-3.43,0-6.77-1.77-8.63-4.94ZM1202.24,649.43c-2.94-4.68-1.52-10.85,3.16-13.79h0c4.68-2.93,10.85-1.52,13.78,3.16h0c2.94,4.68,1.52,10.85-3.16,13.79h0c-1.65,1.03-3.49,1.53-5.3,1.53h0c-3.33,0-6.59-1.67-8.48-4.69ZM1236.81,627.37c-3.07-4.58-1.85-10.79,2.74-13.87h0c4.58-3.08,10.8-1.86,13.87,2.73h0c3.08,4.59,1.86,10.8-2.73,13.88h0c-1.71,1.14-3.65,1.69-5.56,1.69h0c-3.22,0-6.39-1.55-8.32-4.43ZM1270.67,604.25c-3.23-4.48-2.21-10.73,2.27-13.96h0c4.48-3.23,10.73-2.21,13.96,2.27h0c3.23,4.48,2.21,10.73-2.27,13.96h0c-1.77,1.27-3.81,1.89-5.84,1.89h0c-3.1,0-6.16-1.45-8.12-4.16ZM1303.81,580.11c-3.31-4.43-2.39-10.69,2.03-14h0c4.43-3.3,10.7-2.39,14,2.04h0c3.3,4.43,2.39,10.7-2.04,14h0c-1.79,1.33-3.89,1.98-5.97,1.98h0c-3.05,0-6.06-1.39-8.02-4.02ZM1336.58,555.48c-3.36-4.38-2.54-10.66,1.84-14.02h0c4.38-3.36,10.66-2.54,14.02,1.84h0c3.37,4.38,2.54,10.66-1.84,14.02h0c-1.81,1.4-3.96,2.07-6.08,2.07h0c-3,0-5.97-1.34-7.94-3.91ZM1369,530.39c-3.43-4.33-2.7-10.62,1.63-14.05h0c4.33-3.43,10.61-2.7,14.04,1.63h0c3.43,4.33,2.7,10.62-1.63,14.05h0c-1.83,1.45-4.02,2.16-6.2,2.16h0c-2.95,0-5.87-1.3-7.84-3.79ZM1401.03,504.81c-3.49-4.28-2.86-10.58,1.42-14.07h0c4.27-3.5,10.57-2.86,14.07,1.41h0c3.49,4.28,2.86,10.58-1.42,14.08h0c-1.85,1.51-4.09,2.25-6.32,2.25h0c-2.9,0-5.77-1.25-7.75-3.67ZM1432.67,478.74c-3.56-4.22-3.03-10.53,1.2-14.09h0c4.22-3.56,10.53-3.03,14.09,1.2h0c3.56,4.22,3.02,10.53-1.2,14.09h0c-1.87,1.58-4.16,2.35-6.44,2.35h0c-2.84,0-5.67-1.2-7.65-3.55ZM1463.89,452.18c-3.63-4.17-3.2-10.48.96-14.11h0c4.17-3.63,10.48-3.2,14.12.96h0c3.62,4.16,3.19,10.48-.97,14.11h0c-1.89,1.65-4.24,2.46-6.57,2.46h0c-2.79,0-5.56-1.16-7.54-3.42ZM1494.67,425.09c-3.7-4.09-3.38-10.42.72-14.12h0c4.1-3.7,10.43-3.38,14.13.72h0c3.7,4.1,3.37,10.43-.73,14.13h0c-1.92,1.72-4.31,2.57-6.7,2.57h0c-2.73,0-5.46-1.11-7.43-3.3ZM1524.98,397.49c-3.77-4.03-3.56-10.36.47-14.13h0c4.03-3.78,10.36-3.56,14.14.47h0c3.77,4.03,3.56,10.36-.48,14.13h0c-1.93,1.81-4.38,2.7-6.83,2.7h0c-2.67,0-5.33-1.07-7.3-3.17ZM1554.79,369.35c-3.85-3.96-3.75-10.29.21-14.14h0c3.96-3.85,10.29-3.75,14.14.21h0c3.85,3.96,3.75,10.29-.21,14.14h0c-1.94,1.89-4.46,2.82-6.96,2.82h0c-2.61,0-5.22-1.01-7.18-3.03ZM1584.07,340.66c-3.92-3.89-3.95-10.22-.06-14.15h0c3.89-3.92,10.22-3.94,14.14-.06h0c3.92,3.89,3.95,10.22.06,14.14h0c-1.95,1.98-4.53,2.96-7.1,2.96h0c-2.55,0-5.09-.96-7.04-2.89ZM1584.01,326.51h0ZM1612.79,311.4c-4.01-3.81-4.16-10.14-.35-14.14h0c3.81-4,10.14-4.16,14.14-.35h0c4,3.81,4.15,10.14.34,14.14h0c-1.96,2.07-4.6,3.11-7.24,3.11h0c-2.48,0-4.96-.92-6.89-2.76ZM1640.9,281.56c-4.08-3.73-4.37-10.05-.65-14.13h0c3.72-4.08,10.05-4.37,14.13-.65h0c4.08,3.73,4.37,10.05.64,14.13h0c-1.97,2.16-4.67,3.26-7.39,3.26h0c-2.4,0-4.82-.86-6.73-2.61ZM1668.36,251.12c-4.16-3.63-4.59-9.95-.96-14.11h0c3.63-4.16,9.94-4.59,14.11-.96h0c4.16,3.62,4.59,9.94.96,14.11h0c-1.98,2.26-4.75,3.42-7.54,3.42h0c-2.33,0-4.67-.81-6.57-2.46ZM1695.12,220.06c-4.25-3.53-4.83-9.83-1.3-14.08h0c3.53-4.25,9.84-4.83,14.08-1.3h0c4.25,3.53,4.83,9.83,1.3,14.08h0c-1.97,2.38-4.82,3.61-7.69,3.61h0c-2.25,0-4.52-.76-6.39-2.31ZM1721.12,188.36c-4.34-3.42-5.08-9.71-1.66-14.05h0c3.42-4.33,9.71-5.07,14.05-1.65h0c4.33,3.42,5.08,9.7,1.66,14.04h0c-1.98,2.5-4.91,3.81-7.86,3.81h0c-2.17,0-4.35-.7-6.19-2.15ZM1746.29,155.99c-4.43-3.3-5.35-9.56-2.05-13.99h0c3.29-4.43,9.56-5.35,13.99-2.05h0c4.43,3.3,5.35,9.56,2.05,13.99h0c-1.97,2.64-4.98,4.03-8.03,4.03h0c-2.08,0-4.17-.65-5.96-1.98ZM1770.52,122.92c-4.53-3.16-5.64-9.4-2.48-13.93h0c3.16-4.52,9.4-5.63,13.92-2.47h0c4.53,3.16,5.64,9.39,2.48,13.92h0c-1.94,2.79-5.05,4.28-8.21,4.28h0c-1.97,0-3.97-.59-5.71-1.8ZM1793.7,89.1c-4.64-3.01-5.96-9.2-2.96-13.83h0c3-4.64,9.19-5.96,13.83-2.96h0c4.64,3,5.96,9.19,2.96,13.83h0c-1.92,2.95-5.13,4.56-8.4,4.56h0c-1.87,0-3.75-.52-5.43-1.6ZM1815.65,54.46c-4.76-2.81-6.34-8.94-3.53-13.7h0c2.81-4.75,8.94-6.33,13.7-3.52h0c4.75,2.81,6.33,8.94,3.52,13.69h.01c-1.87,3.16-5.2,4.92-8.63,4.92h0c-1.72,0-3.48-.45-5.07-1.39ZM1836.07,18.89c-4.91-2.54-6.83-8.58-4.29-13.48h0c2.54-4.91,8.58-6.83,13.48-4.28h0c4.91,2.53,6.83,8.57,4.29,13.47h0c-1.78,3.44-5.28,5.41-8.89,5.41h0c-1.55,0-3.12-.36-4.59-1.12Z" fill="#f8991d"/>
  <circle cx="215.12" cy="995.98" r="9.28" transform="translate(-802.46 1048.78) rotate(-80.78)" fill="#f8991d"/>
  <circle cx="255.74" cy="990.42" r="9.29" fill="#f8991d"/>
  <path d="M296.28,993.66c-5.14,0-9.31-4.17-9.31-9.31s4.17-9.31,9.31-9.31,9.31,4.17,9.31,9.31-4.17,9.31-9.31,9.31Z" fill="#f8991d"/>
  <circle cx="336.76" cy="977.81" r="9.32" transform="translate(-645.76 1300.57) rotate(-89.18)" fill="#f8991d"/>
  <circle cx="377.15" cy="970.82" r="9.34" fill="#f8991d"/>
  <path d="M417.47,972.73c-5.16,0-9.35-4.19-9.35-9.35s4.19-9.35,9.35-9.35,9.35,4.19,9.35,9.35-4.19,9.35-9.35,9.35Z" fill="#f8991d"/>
  <path d="M457.71,964.87c-5.17,0-9.37-4.19-9.37-9.37s4.19-9.37,9.37-9.37,9.37,4.19,9.37,9.37-4.19,9.37-9.37,9.37Z" fill="#f8991d"/>
  <path d="M497.85,956.56c-5.18,0-9.38-4.2-9.38-9.38s4.2-9.38,9.38-9.38,9.38,4.2,9.38,9.38-4.2,9.38-9.38,9.38Z" fill="#f8991d"/>
  <path d="M537.9,947.8c-5.19,0-9.4-4.21-9.4-9.4s4.21-9.4,9.4-9.4,9.4,4.21,9.4,9.4-4.21,9.4-9.4,9.4Z" fill="#f8991d"/>
  <circle cx="577.84" cy="929.17" r="9.41" transform="translate(-35.23 22.86) rotate(-2.2)" fill="#f8991d"/>
  <path d="M617.68,928.9c-5.21,0-9.43-4.22-9.43-9.43s4.22-9.43,9.43-9.43,9.43,4.22,9.43,9.43-4.22,9.43-9.43,9.43Z" fill="#f8991d"/>
  <path d="M657.39,918.74c-5.21,0-9.44-4.23-9.44-9.44s4.23-9.44,9.44-9.44,9.44,4.23,9.44,9.44-4.23,9.44-9.44,9.44Z" fill="#f8991d"/>
  <circle cx="696.98" cy="898.64" r="9.46" fill="#f8991d"/>
  <path d="M736.43,896.93c-5.23,0-9.47-4.24-9.47-9.47s4.24-9.47,9.47-9.47,9.47,4.24,9.47,9.47-4.24,9.47-9.47,9.47Z" fill="#f8991d"/>
  <path d="M775.72,885.25c-5.24,0-9.48-4.25-9.48-9.48s4.25-9.49,9.48-9.49,9.48,4.25,9.48,9.49-4.25,9.48-9.48,9.48Z" fill="#f8991d"/>
  <path d="M814.85,873.01c-5.25,0-9.5-4.25-9.5-9.5s4.25-9.5,9.5-9.5,9.5,4.25,9.5,9.5-4.25,9.5-9.5,9.5Z" fill="#f8991d"/>
  <circle cx="853.79" cy="850.69" r="9.51" transform="translate(-260.56 391.49) rotate(-22.5)" fill="#f8991d"/>
  <path d="M892.54,846.81c-5.26,0-9.53-4.27-9.53-9.53s4.27-9.53,9.53-9.53,9.53,4.27,9.53,9.53-4.27,9.53-9.53,9.53Z" fill="#f8991d"/>
  <path d="M931.06,832.79c-5.27,0-9.54-4.27-9.54-9.54s4.27-9.54,9.54-9.54,9.54,4.27,9.54,9.54-4.27,9.54-9.54,9.54Z" fill="#f8991d"/>
  <path d="M969.34,818.11c-5.28,0-9.56-4.28-9.56-9.56s4.28-9.56,9.56-9.56,9.56,4.28,9.56,9.56-4.28,9.56-9.56,9.56Z" fill="#f8991d"/>
  <circle cx="1007.34" cy="793.18" r="9.57" fill="#f8991d"/>
  <circle cx="1045.05" cy="777.08" r="9.59" fill="#f8991d"/>
  <path d="M1082.43,769.83c-5.3,0-9.6-4.3-9.6-9.6s4.3-9.6,9.6-9.6,9.6,4.3,9.6,9.6-4.3,9.6-9.6,9.6Z" fill="#f8991d"/>
  <path d="M1119.43,752.18c-5.31,0-9.62-4.31-9.62-9.62s4.31-9.62,9.62-9.62,9.62,4.31,9.62,9.62-4.31,9.62-9.62,9.62Z" fill="#f8991d"/>
  <circle cx="1156.02" cy="724.05" r="9.63" fill="#f8991d"/>
  <circle cx="1192.13" cy="704.64" r="9.65" transform="translate(-178.91 509.85) rotate(-22.5)" fill="#f8991d"/>
  <path d="M1227.72,693.94c-5.34,0-9.66-4.33-9.66-9.66s4.33-9.66,9.66-9.66,9.66,4.33,9.66,9.66-4.33,9.66-9.66,9.66Z" fill="#f8991d"/>
  <circle cx="1262.71" cy="662.9" r="9.68" transform="translate(511.96 1875.44) rotate(-85.93)" fill="#f8991d"/>
  <circle cx="1297.02" cy="640.46" r="9.69" fill="#f8991d"/>
  <path d="M1330.94,627.13c-5.36,0-9.71-4.35-9.71-9.71s4.35-9.71,9.71-9.71,9.71,4.35,9.71,9.71-4.35,9.71-9.71,9.71Z" fill="#f8991d"/>
  <path d="M1364.71,603.89c-5.37,0-9.72-4.35-9.72-9.72s4.35-9.72,9.72-9.72,9.72,4.35,9.72,9.72-4.35,9.72-9.72,9.72Z" fill="#f8991d"/>
  <path d="M1398.32,580.43c-5.38,0-9.74-4.36-9.74-9.74s4.36-9.74,9.74-9.74,9.74,4.36,9.74,9.74-4.36,9.74-9.74,9.74Z" fill="#f8991d"/>
  <circle cx="1431.78" cy="546.99" r="9.75" fill="#f8991d"/>
  <path d="M1465.06,532.82c-5.4,0-9.77-4.37-9.77-9.77s4.37-9.77,9.77-9.77,9.77,4.37,9.77,9.77-4.37,9.77-9.77,9.77Z" fill="#f8991d"/>
  <path d="M1498.18,508.67c-5.4,0-9.78-4.38-9.78-9.78s4.38-9.78,9.78-9.78,9.78,4.38,9.78,9.78-4.38,9.78-9.78,9.78Z" fill="#f8991d"/>
  <circle cx="1531.13" cy="474.48" r="9.8" transform="translate(817.52 1909.83) rotate(-80.78)" fill="#f8991d"/>
  <circle cx="1563.89" cy="449.83" r="9.81" fill="#f8991d"/>
  <circle cx="1596.47" cy="424.93" r="9.83" transform="translate(921.3 1932.72) rotate(-80.78)" fill="#f8991d"/>
  <path d="M1628.85,409.62c-5.44,0-9.84-4.41-9.84-9.84s4.41-9.84,9.84-9.84,9.84,4.41,9.84,9.84-4.41,9.84-9.84,9.84Z" fill="#f8991d"/>
  <path d="M1661.02,384.22c-5.44,0-9.86-4.41-9.86-9.86s4.41-9.86,9.86-9.86,9.86,4.41,9.86,9.86-4.41,9.86-9.86,9.86Z" fill="#f8991d"/>
  <circle cx="1692.98" cy="348.68" r="9.87" fill="#f8991d"/>
  <circle cx="1724.71" cy="322.71" r="9.89" transform="translate(7.79 684.58) rotate(-22.5)" fill="#f8991d"/>
  <path d="M1756.2,306.36c-5.47,0-9.9-4.43-9.9-9.9s4.43-9.9,9.9-9.9,9.9,4.43,9.9,9.9-4.43,9.9-9.9,9.9Z" fill="#f8991d"/>
  <circle cx="1787.43" cy="269.89" r="9.92" transform="translate(32.78 704.56) rotate(-22.5)" fill="#f8991d"/>
  <circle cx="1818.39" cy="243" r="9.93" fill="#f8991d"/>
  <circle cx="348.67" cy="997.71" r="8.61" transform="translate(-54.64 20.81) rotate(-3.17)" fill="#f8991d"/>
  <path d="M389.23,1000.34c-4.77,0-8.64-3.87-8.64-8.64s3.87-8.64,8.64-8.64,8.64,3.87,8.64,8.64-3.87,8.64-8.64,8.64Z" fill="#f8991d"/>
  <circle cx="429.7" cy="985.19" r="8.67" fill="#f8991d"/>
  <path d="M470.1,986.9c-4.81,0-8.7-3.9-8.7-8.7s3.9-8.7,8.7-8.7,8.7,3.9,8.7,8.7-3.9,8.7-8.7,8.7Z" fill="#f8991d"/>
  <path d="M510.41,979.47c-4.82,0-8.73-3.91-8.73-8.73s3.91-8.73,8.73-8.73,8.73,3.91,8.73,8.73-3.91,8.73-8.73,8.73Z" fill="#f8991d"/>
  <path d="M550.63,971.56c-4.84,0-8.76-3.92-8.76-8.76s3.92-8.76,8.76-8.76,8.76,3.92,8.76,8.76-3.92,8.76-8.76,8.76Z" fill="#f8991d"/>
  <circle cx="590.76" cy="954.39" r="8.79" transform="translate(-382.76 1513.06) rotate(-88.09)" fill="#f8991d"/>
  <circle cx="630.78" cy="945.5" r="8.83" transform="translate(-90.1 66.76) rotate(-5.65)" fill="#f8991d"/>
  <circle cx="670.7" cy="936.13" r="8.86" fill="#f8991d"/>
  <circle cx="710.49" cy="926.26" r="8.89" fill="#f8991d"/>
  <path d="M750.15,924.79c-4.92,0-8.92-3.99-8.92-8.92s3.99-8.92,8.92-8.92,8.92,3.99,8.92,8.92-3.99,8.92-8.92,8.92Z" fill="#f8991d"/>
  <path d="M789.67,913.92c-4.94,0-8.95-4.01-8.95-8.95s4.01-8.95,8.95-8.95,8.95,4.01,8.95,8.95-4.01,8.95-8.95,8.95Z" fill="#f8991d"/>
  <path d="M829.04,902.5c-4.96,0-8.98-4.02-8.98-8.98s4.02-8.98,8.98-8.98,8.98,4.02,8.98,8.98-4.02,8.98-8.98,8.98Z" fill="#f8991d"/>
  <circle cx="868.24" cy="881.51" r="9.01" fill="#f8991d"/>
  <circle cx="907.26" cy="868.91" r="9.04" fill="#f8991d"/>
  <circle cx="946.07" cy="855.7" r="9.07" transform="translate(-255.45 427.18) rotate(-22.5)" fill="#f8991d"/>
  <circle cx="984.66" cy="841.85" r="9.1" transform="translate(-4.05 1678.95) rotate(-80.78)" fill="#f8991d"/>
  <circle cx="1023" cy="827.33" r="9.13" fill="#f8991d"/>
  <circle cx="1061.07" cy="812.11" r="9.16" fill="#f8991d"/>
  <circle cx="1098.84" cy="796.15" r="9.19" transform="translate(226.8 1835.79) rotate(-85.93)" fill="#f8991d"/>
  <path d="M1136.27,788.63c-5.09,0-9.22-4.13-9.22-9.22s4.13-9.22,9.22-9.22,9.22,4.13,9.22,9.22-4.13,9.22-9.22,9.22Z" fill="#f8991d"/>
  <path d="M1173.31,771.09c-5.11,0-9.25-4.14-9.25-9.25s4.14-9.25,9.25-9.25,9.25,4.14,9.25,9.25-4.14,9.25-9.25,9.25Z" fill="#f8991d"/>
  <circle cx="1209.93" cy="743.4" r="9.28" fill="#f8991d"/>
  <circle cx="1246.08" cy="724.04" r="9.31" transform="translate(-182.23 531.97) rotate(-22.5)" fill="#f8991d"/>
  <circle cx="1281.68" cy="703.71" r="9.34" fill="#f8991d"/>
  <circle cx="1316.7" cy="682.4" r="9.37" transform="translate(432.21 1872.79) rotate(-80.78)" fill="#f8991d"/>
  <path d="M1351.62,670.3c-5.19,0-9.4-4.21-9.4-9.4s4.21-9.4,9.4-9.4,9.4,4.21,9.4,9.4-4.21,9.4-9.4,9.4Z" fill="#f8991d"/>
  <path d="M1386.57,648.89c-5.21,0-9.43-4.22-9.43-9.43s4.22-9.43,9.43-9.43,9.43,4.22,9.43,9.43-4.22,9.43-9.43,9.43Z" fill="#f8991d"/>
  <path d="M1421.57,627.56c-5.23,0-9.46-4.24-9.46-9.46s4.24-9.46,9.46-9.46,9.46,4.24,9.46,9.46-4.24,9.46-9.46,9.46Z" fill="#f8991d"/>
  <path d="M1456.61,606.29c-5.24,0-9.49-4.25-9.49-9.49s4.25-9.49,9.49-9.49,9.49,4.25,9.49,9.49-4.25,9.49-9.49,9.49Z" fill="#f8991d"/>
  <circle cx="1491.68" cy="575.56" r="9.52" transform="translate(684.61 1955.79) rotate(-80.78)" fill="#f8991d"/>
  <circle cx="1526.8" cy="554.4" r="9.55" transform="translate(734.99 1972.67) rotate(-80.78)" fill="#f8991d"/>
  <circle cx="1561.95" cy="533.3" r="9.58" fill="#f8991d"/>
  <circle cx="1597.15" cy="512.27" r="9.61" fill="#f8991d"/>
  <path d="M1632.38,500.95c-5.33,0-9.64-4.32-9.64-9.64s4.32-9.64,9.64-9.64,9.64,4.32,9.64,9.64-4.32,9.64-9.64,9.64Z" fill="#f8991d"/>
  <circle cx="1667.66" cy="470.41" r="9.67" fill="#f8991d"/>
  <path d="M1702.98,459.29c-5.36,0-9.7-4.34-9.7-9.7s4.34-9.7,9.7-9.7,9.7,4.34,9.7,9.7-4.34,9.7-9.7,9.7Z" fill="#f8991d"/>
  <path d="M1738.34,438.57c-5.38,0-9.73-4.36-9.73-9.73s4.36-9.73,9.73-9.73,9.73,4.36,9.73,9.73-4.36,9.73-9.73,9.73Z" fill="#f8991d"/>
  <circle cx="1773.74" cy="408.15" r="9.76" fill="#f8991d"/>
  <path d="M1809.19,397.34c-5.41,0-9.79-4.39-9.79-9.79s4.39-9.79,9.79-9.79,9.79,4.39,9.79,9.79-4.39,9.79-9.79,9.79Z" fill="#f8991d"/>
  <circle cx="482.16" cy="999.57" r="8.01" transform="translate(-21.6 10.71) rotate(-1.24)" fill="#f8991d"/>
  <circle cx="522.64" cy="993.07" r="8.06" transform="translate(-37.73 20.79) rotate(-2.2)" fill="#f8991d"/>
  <circle cx="563.04" cy="986.07" r="8.1" transform="translate(-500.49 1383.88) rotate(-80.78)" fill="#f8991d"/>
  <circle cx="603.34" cy="978.57" r="8.15" fill="#f8991d"/>
  <circle cx="643.55" cy="970.57" r="8.19" fill="#f8991d"/>
  <circle cx="683.66" cy="962.07" r="8.24" transform="translate(-91.47 72.05) rotate(-5.65)" fill="#f8991d"/>
  <path d="M723.66,961.36c-4.58,0-8.29-3.71-8.29-8.29s3.71-8.29,8.29-8.29,8.29,3.71,8.29,8.29-3.71,8.29-8.29,8.29Z" fill="#f8991d"/>
  <circle cx="763.54" cy="943.56" r="8.33" transform="translate(-213.65 1663.56) rotate(-87.4)" fill="#f8991d"/>
  <path d="M803.29,941.9c-4.63,0-8.38-3.75-8.38-8.38s3.75-8.38,8.38-8.38,8.38,3.75,8.38,8.38-3.75,8.38-8.38,8.38Z" fill="#f8991d"/>
  <path d="M842.9,931.37c-4.65,0-8.42-3.77-8.42-8.42s3.77-8.42,8.42-8.42,8.42,3.77,8.42,8.42-3.77,8.42-8.42,8.42Z" fill="#f8991d"/>
  <path d="M882.36,920.28c-4.68,0-8.47-3.79-8.47-8.47s3.79-8.47,8.47-8.47,8.47,3.79,8.47,8.47-3.79,8.47-8.47,8.47Z" fill="#f8991d"/>
  <circle cx="921.65" cy="900.11" r="8.51" fill="#f8991d"/>
  <circle cx="960.76" cy="887.8" r="8.56" fill="#f8991d"/>
  <circle cx="999.67" cy="874.88" r="8.61" fill="#f8991d"/>
  <path d="M1038.36,869.96c-4.78,0-8.65-3.87-8.65-8.65s3.87-8.65,8.65-8.65,8.65,3.87,8.65,8.65-3.87,8.65-8.65,8.65Z" fill="#f8991d"/>
  <path d="M1076.8,855.76c-4.8,0-8.7-3.89-8.7-8.7s3.89-8.7,8.7-8.7,8.7,3.89,8.7,8.7-3.89,8.7-8.7,8.7Z" fill="#f8991d"/>
  <circle cx="1114.98" cy="832.1" r="8.74" fill="#f8991d"/>
  <circle cx="1152.85" cy="816.4" r="8.79" fill="#f8991d"/>
  <circle cx="1190.39" cy="799.91" r="8.83" transform="translate(210.13 1846.79) rotate(-80.78)" fill="#f8991d"/>
  <circle cx="1227.55" cy="782.59" r="8.88" transform="translate(258.44 1868.93) rotate(-80.78)" fill="#f8991d"/>
  <circle cx="1264.29" cy="764.39" r="8.92" fill="#f8991d"/>
  <path d="M1300.56,754.24c-4.95,0-8.97-4.02-8.97-8.97s4.02-8.97,8.97-8.97,8.97,4.02,8.97,8.97-4.02,8.97-8.97,8.97Z" fill="#f8991d"/>
  <path d="M1336.42,734.41c-4.98,0-9.02-4.04-9.02-9.02s4.04-9.02,9.02-9.02,9.02,4.04,9.02,9.02-4.04,9.02-9.02,9.02Z" fill="#f8991d"/>
  <path d="M1372.42,714.84c-5,0-9.06-4.06-9.06-9.06s4.06-9.06,9.06-9.06,9.06,4.06,9.06,9.06-4.06,9.06-9.06,9.06Z" fill="#f8991d"/>
  <path d="M1408.64,695.66c-5.03,0-9.11-4.08-9.11-9.11s4.08-9.11,9.11-9.11,9.11,4.08,9.11,9.11-4.08,9.11-9.11,9.11Z" fill="#f8991d"/>
  <path d="M1445.05,676.85c-5.05,0-9.15-4.1-9.15-9.15s4.1-9.15,9.15-9.15,9.15,4.1,9.15,9.15-4.1,9.15-9.15,9.15Z" fill="#f8991d"/>
  <path d="M1481.65,658.42c-5.08,0-9.2-4.12-9.2-9.2s4.12-9.2,9.2-9.2,9.2,4.12,9.2,9.2-4.12,9.2-9.2,9.2Z" fill="#f8991d"/>
  <path d="M1518.43,640.35c-5.11,0-9.24-4.14-9.24-9.24s4.14-9.24,9.24-9.24,9.24,4.14,9.24,9.24-4.14,9.24-9.24,9.24Z" fill="#f8991d"/>
  <path d="M1555.39,622.64c-5.13,0-9.29-4.16-9.29-9.29s4.16-9.29,9.29-9.29,9.29,4.16,9.29,9.29-4.16,9.29-9.29,9.29Z" fill="#f8991d"/>
  <circle cx="1592.52" cy="595.95" r="9.34" transform="translate(749.17 2072.45) rotate(-80.78)" fill="#f8991d"/>
  <circle cx="1629.81" cy="578.9" r="9.38" fill="#f8991d"/>
  <circle cx="1667.26" cy="562.19" r="9.43" fill="#f8991d"/>
  <circle cx="1704.85" cy="545.83" r="9.47" fill="#f8991d"/>
  <circle cx="1742.59" cy="529.81" r="9.52" transform="translate(940.49 2165.03) rotate(-80.78)" fill="#f8991d"/>
  <path d="M1780.47,523.69c-5.28,0-9.56-4.28-9.56-9.56s4.28-9.56,9.56-9.56,9.56,4.28,9.56,9.56-4.28,9.56-9.56,9.56Z" fill="#f8991d"/>
  <path d="M1818.49,508.39c-5.31,0-9.61-4.3-9.61-9.61s4.3-9.61,9.61-9.61,9.61,4.3,9.61,9.61-4.3,9.61-9.61,9.61Z" fill="#f8991d"/>
  <circle cx="655.98" cy="994.51" r="7.53" fill="#f8991d"/>
  <path d="M696.28,994.57c-4.19,0-7.59-3.4-7.59-7.59s3.4-7.59,7.59-7.59,7.59,3.4,7.59,7.59-3.4,7.59-7.59,7.59Z" fill="#f8991d"/>
  <circle cx="736.48" cy="978.94" r="7.65" transform="translate(-92.88 77.34) rotate(-5.65)" fill="#f8991d"/>
  <path d="M776.58,978.09c-4.26,0-7.71-3.45-7.71-7.71s3.45-7.71,7.71-7.71,7.71,3.45,7.71,7.71-3.45,7.71-7.71,7.71Z" fill="#f8991d"/>
  <path d="M816.55,969.07c-4.29,0-7.77-3.48-7.77-7.77s3.48-7.77,7.77-7.77,7.77,3.48,7.77,7.77-3.48,7.77-7.77,7.77Z" fill="#f8991d"/>
  <circle cx="856.41" cy="951.67" r="7.83" transform="translate(-220.16 1644.58) rotate(-80.78)" fill="#f8991d"/>
  <path d="M896.12,949.4c-4.36,0-7.89-3.53-7.89-7.89s3.53-7.89,7.89-7.89,7.89,3.53,7.89,7.89-3.53,7.89-7.89,7.89Z" fill="#f8991d"/>
  <circle cx="935.69" cy="930.77" r="7.95" fill="#f8991d"/>
  <path d="M975.1,927.48c-4.43,0-8.01-3.59-8.01-8.01s3.59-8.01,8.01-8.01,8.01,3.59,8.01,8.01-3.59,8.01-8.01,8.01Z" fill="#f8991d"/>
  <circle cx="1014.34" cy="907.57" r="8.08" fill="#f8991d"/>
  <circle cx="1053.38" cy="895.05" r="8.14" transform="translate(1.16 1791.45) rotate(-80.78)" fill="#f8991d"/>
  <path d="M1092.21,890.08c-4.53,0-8.2-3.67-8.2-8.2s3.67-8.2,8.2-8.2,8.2,3.67,8.2,8.2-3.67,8.2-8.2,8.2Z" fill="#f8991d"/>
  <circle cx="1130.8" cy="868.05" r="8.26" transform="translate(-246.11 498.82) rotate(-22.5)" fill="#f8991d"/>
  <path d="M1169.14,861.84c-4.59,0-8.32-3.72-8.32-8.32s3.72-8.32,8.32-8.32,8.32,3.72,8.32,8.32-3.72,8.32-8.32,8.32Z" fill="#f8991d"/>
  <path d="M1207.2,846.63c-4.63,0-8.38-3.75-8.38-8.38s3.75-8.38,8.38-8.38,8.38,3.75,8.38,8.38-3.75,8.38-8.38,8.38Z" fill="#f8991d"/>
  <path d="M1244.93,830.66c-4.66,0-8.44-3.78-8.44-8.44s3.78-8.44,8.44-8.44,8.44,3.78,8.44,8.44-3.78,8.44-8.44,8.44Z" fill="#f8991d"/>
  <path d="M1282.31,813.88c-4.69,0-8.5-3.81-8.5-8.5s3.81-8.5,8.5-8.5,8.5,3.81,8.5,8.5-3.81,8.5-8.5,8.5Z" fill="#f8991d"/>
  <circle cx="1319.3" cy="787.69" r="8.56" fill="#f8991d"/>
  <path d="M1356.1,778.24c-4.76,0-8.62-3.86-8.62-8.62s3.86-8.62,8.62-8.62,8.62,3.86,8.62,8.62-3.86,8.62-8.62,8.62Z" fill="#f8991d"/>
  <circle cx="1393.24" cy="752.25" r="8.68" fill="#f8991d"/>
  <path d="M1430.71,744.35c-4.83,0-8.74-3.91-8.74-8.74s3.91-8.74,8.74-8.74,8.74,3.91,8.74,8.74-3.91,8.74-8.74,8.74Z" fill="#f8991d"/>
  <circle cx="1468.48" cy="719.65" r="8.8" fill="#f8991d"/>
  <circle cx="1506.51" cy="704.33" r="8.86" fill="#f8991d"/>
  <path d="M1544.79,698.57c-4.93,0-8.92-4-8.92-8.92s4-8.92,8.92-8.92,8.92,4,8.92,8.92-4,8.92-8.92,8.92Z" fill="#f8991d"/>
  <path d="M1583.29,684.54c-4.96,0-8.98-4.02-8.98-8.98s4.02-8.99,8.98-8.99,8.99,4.02,8.99,8.99-4.02,8.98-8.99,8.98Z" fill="#f8991d"/>
  <circle cx="1622" cy="662.04" r="9.05" transform="translate(-129.88 671.11) rotate(-22.5)" fill="#f8991d"/>
  <path d="M1660.9,658.17c-5.03,0-9.11-4.08-9.11-9.11s4.08-9.11,9.11-9.11,9.11,4.08,9.11,9.11-4.08,9.11-9.11,9.11Z" fill="#f8991d"/>
  <circle cx="1699.97" cy="636.63" r="9.17" transform="translate(-114.23 699.01) rotate(-22.5)" fill="#f8991d"/>
  <path d="M1739.2,633.94c-5.1,0-9.23-4.13-9.23-9.23s4.13-9.23,9.23-9.23,9.23,4.13,9.23,9.23-4.13,9.23-9.23,9.23Z" fill="#f8991d"/>
  <circle cx="1778.58" cy="613.29" r="9.29" transform="translate(-99.31 727.32) rotate(-22.5)" fill="#f8991d"/>
  <circle cx="1818.1" cy="602.35" r="9.35" transform="translate(932.3 2300.49) rotate(-80.78)" fill="#f8991d"/>
  <circle cx="789.26" cy="996.16" r="7.06" transform="translate(-321.13 377.86) rotate(-22.5)" fill="#f8991d"/>
  <path d="M829.46,995.25c-3.94,0-7.13-3.19-7.13-7.13s3.19-7.13,7.13-7.13,7.13,3.19,7.13,7.13-3.19,7.13-7.13,7.13Z" fill="#f8991d"/>
  <circle cx="869.56" cy="979.55" r="7.21" transform="translate(-36.95 34.09) rotate(-2.2)" fill="#f8991d"/>
  <circle cx="909.53" cy="970.44" r="7.28" fill="#f8991d"/>
  <path d="M949.38,968.15c-4.06,0-7.36-3.29-7.36-7.36s3.29-7.36,7.36-7.36,7.36,3.29,7.36,7.36-3.29,7.36-7.36,7.36Z" fill="#f8991d"/>
  <path d="M989.09,958.02c-4.1,0-7.43-3.33-7.43-7.43s3.33-7.43,7.43-7.43,7.43,3.33,7.43,7.43-3.33,7.43-7.43,7.43Z" fill="#f8991d"/>
  <path d="M1028.65,947.33c-4.15,0-7.51-3.36-7.51-7.51s3.36-7.51,7.51-7.51,7.51,3.36,7.51,7.51-3.36,7.51-7.51,7.51Z" fill="#f8991d"/>
  <circle cx="1068.05" cy="928.47" r="7.58" transform="translate(-274.01 479.4) rotate(-22.5)" fill="#f8991d"/>
  <circle cx="1107.26" cy="916.53" r="7.66" fill="#f8991d"/>
  <path d="M1146.29,911.7c-4.27,0-7.73-3.46-7.73-7.73s3.46-7.73,7.73-7.73,7.73,3.46,7.73,7.73-3.46,7.73-7.73,7.73Z" fill="#f8991d"/>
  <path d="M1185.11,898.57c-4.31,0-7.81-3.5-7.81-7.81s3.5-7.81,7.81-7.81,7.81,3.5,7.81,7.81-3.5,7.81-7.81,7.81Z" fill="#f8991d"/>
  <path d="M1223.69,884.78c-4.35,0-7.88-3.53-7.88-7.88s3.53-7.88,7.88-7.88,7.88,3.53,7.88,7.88-3.53,7.88-7.88,7.88Z" fill="#f8991d"/>
  <circle cx="1262.02" cy="862.35" r="7.96" fill="#f8991d"/>
  <path d="M1300.07,855.11c-4.44,0-8.03-3.6-8.03-8.03s3.6-8.03,8.03-8.03,8.03,3.6,8.03,8.03-3.6,8.03-8.03,8.03Z" fill="#f8991d"/>
  <path d="M1337.81,839.16c-4.48,0-8.11-3.63-8.11-8.11s3.63-8.11,8.11-8.11,8.11,3.63,8.11,8.11-3.63,8.11-8.11,8.11Z" fill="#f8991d"/>
  <circle cx="1375.6" cy="815.22" r="8.18" fill="#f8991d"/>
  <circle cx="1413.84" cy="800.48" r="8.26" transform="translate(-72 143.21) rotate(-5.65)" fill="#f8991d"/>
  <path d="M1452.45,795.09c-4.6,0-8.33-3.73-8.33-8.33s3.73-8.33,8.33-8.33,8.33,3.73,8.33,8.33-3.73,8.33-8.33,8.33Z" fill="#f8991d"/>
  <circle cx="1491.39" cy="773.97" r="8.41" fill="#f8991d"/>
  <path d="M1530.61,770.52c-4.69,0-8.48-3.8-8.48-8.48s3.8-8.48,8.48-8.48,8.48,3.8,8.48,8.48-3.8,8.48-8.48,8.48Z" fill="#f8991d"/>
  <path d="M1570.07,759.47c-4.73,0-8.56-3.83-8.56-8.56s3.83-8.56,8.56-8.56,8.56,3.83,8.56,8.56-3.83,8.56-8.56,8.56Z" fill="#f8991d"/>
  <path d="M1609.73,749.17c-4.77,0-8.63-3.87-8.63-8.63s3.87-8.63,8.63-8.63,8.63,3.86,8.63,8.63-3.87,8.63-8.63,8.63Z" fill="#f8991d"/>
  <circle cx="1649.57" cy="730.86" r="8.71" fill="#f8991d"/>
  <path d="M1689.57,730.62c-4.85,0-8.78-3.93-8.78-8.78s3.93-8.78,8.78-8.78,8.78,3.93,8.78,8.78-3.93,8.78-8.78,8.78Z" fill="#f8991d"/>
  <path d="M1729.7,722.29c-4.89,0-8.86-3.97-8.86-8.86s3.97-8.86,8.86-8.86,8.86,3.97,8.86,8.86-3.97,8.86-8.86,8.86Z" fill="#f8991d"/>
  <circle cx="1769.95" cy="705.61" r="8.93" transform="translate(789.94 2339.67) rotate(-80.78)" fill="#f8991d"/>
  <circle cx="1810.3" cy="698.34" r="9.01" fill="#f8991d"/>
  <path d="M922.52,1005.11c-3.66,0-6.63-2.97-6.63-6.63s2.97-6.63,6.63-6.63,6.63,2.97,6.63,6.63-2.97,6.63-6.63,6.63Z" fill="#f8991d"/>
  <circle cx="962.63" cy="990.03" r="6.72" transform="translate(-168.81 1781.65) rotate(-80.78)" fill="#f8991d"/>
  <path d="M1002.64,987.86c-3.76,0-6.81-3.05-6.81-6.81s3.05-6.81,6.81-6.81,6.81,3.05,6.81,6.81-3.05,6.81-6.81,6.81Z" fill="#f8991d"/>
  <path d="M1042.52,978.44c-3.81,0-6.9-3.09-6.9-6.9s3.09-6.9,6.9-6.9,6.9,3.09,6.9,6.9-3.09,6.9-6.9,6.9Z" fill="#f8991d"/>
  <circle cx="1082.27" cy="961.51" r="6.99" fill="#f8991d"/>
  <circle cx="1121.88" cy="950.93" r="7.07" transform="translate(93.81 2002.58) rotate(-85.93)" fill="#f8991d"/>
  <circle cx="1161.34" cy="939.8" r="7.16" fill="#f8991d"/>
  <circle cx="1200.64" cy="928.11" r="7.25" transform="translate(92.19 1964.58) rotate(-80.78)" fill="#f8991d"/>
  <path d="M1239.76,923.2c-4.05,0-7.34-3.29-7.34-7.34s3.29-7.34,7.34-7.34,7.34,3.29,7.34,7.34-3.29,7.34-7.34,7.34Z" fill="#f8991d"/>
  <path d="M1278.69,910.44c-4.1,0-7.43-3.33-7.43-7.43s3.33-7.43,7.43-7.43,7.43,3.33,7.43,7.43-3.33,7.43-7.43,7.43Z" fill="#f8991d"/>
  <path d="M1317.43,897.08c-4.15,0-7.52-3.37-7.52-7.52s3.37-7.52,7.52-7.52,7.52,3.37,7.52,7.52-3.37,7.52-7.52,7.52Z" fill="#f8991d"/>
  <path d="M1355.95,883.13c-4.2,0-7.61-3.41-7.61-7.61s3.41-7.61,7.61-7.61,7.61,3.41,7.61,7.61-3.41,7.61-7.61,7.61Z" fill="#f8991d"/>
  <circle cx="1394.71" cy="862.31" r="7.7" fill="#f8991d"/>
  <path d="M1433.93,858.29c-4.3,0-7.79-3.49-7.79-7.79s3.49-7.79,7.79-7.79,7.79,3.49,7.79,7.79-3.49,7.79-7.79,7.79Z" fill="#f8991d"/>
  <path d="M1473.51,847.81c-4.35,0-7.88-3.53-7.88-7.88s3.53-7.88,7.88-7.88,7.88,3.53,7.88,7.88-3.53,7.88-7.88,7.88Z" fill="#f8991d"/>
  <path d="M1513.36,838.44c-4.4,0-7.96-3.57-7.96-7.96s3.57-7.96,7.96-7.96,7.96,3.57,7.96,7.96-3.57,7.96-7.96,7.96Z" fill="#f8991d"/>
  <path d="M1553.45,830.05c-4.45,0-8.05-3.61-8.05-8.05s3.61-8.05,8.05-8.05,8.05,3.61,8.05,8.05-3.61,8.05-8.05,8.05Z" fill="#f8991d"/>
  <path d="M1593.71,822.54c-4.5,0-8.14-3.65-8.14-8.14s3.65-8.14,8.14-8.14,8.14,3.65,8.14,8.14-3.65,8.14-8.14,8.14Z" fill="#f8991d"/>
  <circle cx="1634.13" cy="807.61" r="8.23" fill="#f8991d"/>
  <path d="M1674.67,809.87c-4.6,0-8.32-3.73-8.32-8.32s3.73-8.32,8.32-8.32,8.32,3.73,8.32,8.32-3.73,8.32-8.32,8.32Z" fill="#f8991d"/>
  <circle cx="1715.31" cy="796.17" r="8.41" fill="#f8991d"/>
  <path d="M1756.03,799.91c-4.69,0-8.5-3.8-8.5-8.5s3.8-8.5,8.5-8.5,8.5,3.8,8.5,8.5-3.8,8.5-8.5,8.5Z" fill="#f8991d"/>
  <path d="M1796.82,795.81c-4.74,0-8.59-3.84-8.59-8.59s3.84-8.59,8.59-8.59,8.59,3.84,8.59,8.59-3.84,8.59-8.59,8.59Z" fill="#f8991d"/>
  <circle cx="1837.66" cy="783.58" r="8.68" fill="#f8991d"/>
  <path d="M1096.02,1000.37c-3.51,0-6.35-2.84-6.35-6.35s2.84-6.35,6.35-6.35,6.35,2.84,6.35,6.35-2.84,6.35-6.35,6.35Z" fill="#f8991d"/>
  <path d="M1136.01,991.44c-3.56,0-6.45-2.89-6.45-6.45s2.89-6.45,6.45-6.45,6.45,2.89,6.45,6.45-2.89,6.45-6.45,6.45Z" fill="#f8991d"/>
  <path d="M1175.9,982.04c-3.62,0-6.55-2.93-6.55-6.55s2.93-6.55,6.55-6.55,6.55,2.93,6.55,6.55-2.93,6.55-6.55,6.55Z" fill="#f8991d"/>
  <path d="M1215.67,972.18c-3.68,0-6.66-2.98-6.66-6.66s2.98-6.66,6.66-6.66,6.66,2.98,6.66,6.66-2.98,6.66-6.66,6.66Z" fill="#f8991d"/>
  <path d="M1255.32,961.86c-3.73,0-6.76-3.03-6.76-6.76s3.03-6.76,6.76-6.76,6.76,3.03,6.76,6.76-3.03,6.76-6.76,6.76Z" fill="#f8991d"/>
  <path d="M1294.85,951.07c-3.79,0-6.86-3.07-6.86-6.86s3.07-6.86,6.86-6.86,6.86,3.07,6.86,6.86-3.07,6.86-6.86,6.86Z" fill="#f8991d"/>
  <path d="M1334.24,939.83c-3.85,0-6.96-3.12-6.96-6.96s3.12-6.96,6.96-6.96,6.96,3.12,6.96,6.96-3.12,6.96-6.96,6.96Z" fill="#f8991d"/>
  <path d="M1373.54,928.26c-3.9,0-7.06-3.16-7.06-7.06s3.16-7.06,7.06-7.06,7.06,3.16,7.06,7.06-3.16,7.06-7.06,7.06Z" fill="#f8991d"/>
  <path d="M1413.19,918.07c-3.96,0-7.17-3.21-7.17-7.17s3.21-7.17,7.17-7.17,7.17,3.21,7.17,7.17-3.21,7.17-7.17,7.17Z" fill="#f8991d"/>
  <path d="M1453.23,909.51c-4.01,0-7.27-3.25-7.27-7.27s3.25-7.27,7.27-7.27,7.27,3.25,7.27,7.27-3.25,7.27-7.27,7.27Z" fill="#f8991d"/>
  <path d="M1493.52,902.31c-4.07,0-7.37-3.3-7.37-7.37s3.3-7.37,7.37-7.37,7.37,3.3,7.37,7.37-3.3,7.37-7.37,7.37Z" fill="#f8991d"/>
  <path d="M1534.02,896.28c-4.13,0-7.47-3.35-7.47-7.47s3.35-7.47,7.47-7.47,7.47,3.35,7.47,7.47-3.35,7.47-7.47,7.47Z" fill="#f8991d"/>
  <path d="M1574.65,891.27c-4.18,0-7.57-3.39-7.57-7.57s3.39-7.57,7.57-7.57,7.57,3.39,7.57,7.57-3.39,7.57-7.57,7.57Z" fill="#f8991d"/>
  <path d="M1615.4,887.14c-4.24,0-7.68-3.44-7.68-7.68s3.44-7.68,7.68-7.68,7.68,3.44,7.68,7.68-3.44,7.68-7.68,7.68Z" fill="#f8991d"/>
  <path d="M1656.22,883.79c-4.3,0-7.78-3.48-7.78-7.78s3.48-7.78,7.78-7.78,7.78,3.48,7.78,7.78-3.48,7.78-7.78,7.78Z" fill="#f8991d"/>
  <circle cx="1697.1" cy="873.26" r="7.88" fill="#f8991d"/>
  <path d="M1738.03,879.13c-4.41,0-7.98-3.57-7.98-7.98s3.57-7.98,7.98-7.98,7.98,3.57,7.98,7.98-3.57,7.98-7.98,7.98Z" fill="#f8991d"/>
  <path d="M1778.99,877.69c-4.47,0-8.09-3.62-8.09-8.09s3.62-8.08,8.09-8.08,8.09,3.62,8.09,8.08-3.62,8.09-8.09,8.09Z" fill="#f8991d"/>
  <path d="M1819.97,876.77c-4.52,0-8.19-3.67-8.19-8.19s3.67-8.19,8.19-8.19,8.19,3.67,8.19,8.19-3.67,8.19-8.19,8.19Z" fill="#f8991d"/>
  <circle cx="1270.21" cy="994.6" r="6.13" transform="translate(-91.82 130) rotate(-5.65)" fill="#f8991d"/>
  <circle cx="1310.29" cy="985.96" r="6.25" transform="translate(127.18 2121.39) rotate(-80.78)" fill="#f8991d"/>
  <path d="M1350.3,983.37c-3.51,0-6.36-2.85-6.36-6.36s2.85-6.36,6.36-6.36,6.36,2.85,6.36,6.36-2.85,6.36-6.36,6.36Z" fill="#f8991d"/>
  <path d="M1390.31,974.54c-3.58,0-6.48-2.9-6.48-6.48s2.9-6.48,6.48-6.48,6.48,2.9,6.48,6.48-2.9,6.48-6.48,6.48Z" fill="#f8991d"/>
  <path d="M1430.41,967.55c-3.64,0-6.59-2.95-6.59-6.59s2.95-6.59,6.59-6.59,6.59,2.95,6.59,6.59-2.95,6.59-6.59,6.59Z" fill="#f8991d"/>
  <path d="M1471.05,962.22c-3.7,0-6.71-3-6.71-6.71s3-6.71,6.71-6.71,6.71,3,6.71,6.71-3,6.71-6.71,6.71Z" fill="#f8991d"/>
  <path d="M1511.81,958.29c-3.77,0-6.82-3.05-6.82-6.82s3.05-6.82,6.82-6.82,6.82,3.05,6.82,6.82-3.05,6.82-6.82,6.82Z" fill="#f8991d"/>
  <path d="M1552.66,955.49c-3.83,0-6.93-3.1-6.93-6.93s3.1-6.93,6.93-6.93,6.93,3.1,6.93,6.93-3.1,6.93-6.93,6.93Z" fill="#f8991d"/>
  <path d="M1593.57,953.65c-3.89,0-7.05-3.16-7.05-7.05s3.16-7.05,7.05-7.05,7.05,3.16,7.05,7.05-3.16,7.05-7.05,7.05Z" fill="#f8991d"/>
  <path d="M1634.51,952.63c-3.96,0-7.16-3.21-7.16-7.16s3.21-7.16,7.16-7.16,7.16,3.21,7.16,7.16-3.21,7.16-7.16,7.16Z" fill="#f8991d"/>
  <path d="M1675.47,952.33c-4.02,0-7.28-3.26-7.28-7.28s3.26-7.28,7.28-7.28,7.28,3.26,7.28,7.28-3.26,7.28-7.28,7.28Z" fill="#f8991d"/>
  <path d="M1716.43,952.65c-4.08,0-7.39-3.31-7.39-7.39s3.31-7.39,7.39-7.39,7.39,3.31,7.39,7.39-3.31,7.39-7.39,7.39Z" fill="#f8991d"/>
  <circle cx="1757.4" cy="946.02" r="7.51" fill="#f8991d"/>
  <path d="M1798.35,954.9c-4.21,0-7.62-3.41-7.62-7.62s3.41-7.62,7.62-7.62,7.62,3.41,7.62,7.62-3.41,7.62-7.62,7.62Z" fill="#f8991d"/>
  <circle cx="1839.3" cy="948.99" r="7.73" fill="#f8991d"/>
</svg>